<svg xmlns="http://www.w3.org/2000/svg" viewBox="0 0 166.42 12.4"><defs><style>.cls-1{fill:none;stroke-width:0.25px;}.cls-1,.cls-2{stroke:#231f20;stroke-miterlimit:10;}.cls-2{fill:#231f20;stroke-width:0.1px;}</style></defs><title>choose</title><g id="Layer_2" data-name="Layer 2"><g id="Layer_1-2" data-name="Layer 1"><line class="cls-1" y1="6.04" x2="166.42" y2="6.04"/><path class="cls-2" d="M13.1,9.66a4.45,4.45,0,0,1-1.82-.37,4.62,4.62,0,0,1-1.48-1,4.8,4.8,0,0,1-1-1.53,5.05,5.05,0,0,1-.35-1.87A4.76,4.76,0,0,1,8.79,3a4.92,4.92,0,0,1,1-1.53,4.82,4.82,0,0,1,1.49-1A4.51,4.51,0,0,1,13.1.05,4.68,4.68,0,0,1,14.68.3,4.49,4.49,0,0,1,16,1.11a.3.3,0,0,1,.13.19.41.41,0,0,1,0,.22.28.28,0,0,1-.15.15.19.19,0,0,1-.12.14.31.31,0,0,1-.22,0,.43.43,0,0,1-.24-.11,3.22,3.22,0,0,0-1-.6A3.64,3.64,0,0,0,13.1.94a3.37,3.37,0,0,0-1.45.31,3.79,3.79,0,0,0-1.2.85,4.2,4.2,0,0,0-.81,1.25,3.78,3.78,0,0,0-.29,1.5,3.85,3.85,0,0,0,.29,1.52,4.08,4.08,0,0,0,.81,1.25,3.79,3.79,0,0,0,1.2.85,3.52,3.52,0,0,0,1.45.3,3.69,3.69,0,0,0,1.25-.21,4.32,4.32,0,0,0,1.12-.63.34.34,0,0,1,.3-.09.47.47,0,0,1,.29.14.43.43,0,0,1,.12.31.84.84,0,0,1,0,.18,1.16,1.16,0,0,1-.11.16,3.5,3.5,0,0,1-1.36.8A5.54,5.54,0,0,1,13.1,9.66Z"/><path class="cls-2" d="M18.49,6.87a.44.44,0,0,1-.34-.14A.47.47,0,0,1,18,6.4V.64A.46.46,0,0,1,18.15.3a.44.44,0,0,1,.34-.13.42.42,0,0,1,.33.13A.46.46,0,0,1,19,.64V6.4a.47.47,0,0,1-.13.33A.42.42,0,0,1,18.49,6.87Zm0,2.67a.47.47,0,0,1-.34-.12A.49.49,0,0,1,18,9.09V3.45a.5.5,0,0,1,.13-.35A.47.47,0,0,1,18.49,3a.45.45,0,0,1,.33.12.5.5,0,0,1,.13.35V9.09a.49.49,0,0,1-.13.33A.45.45,0,0,1,18.49,9.54Zm5.16,0a.43.43,0,0,1-.33-.13.45.45,0,0,1-.14-.32V6a2.38,2.38,0,0,0-.28-1.23A1.78,1.78,0,0,0,22.13,4,2.6,2.6,0,0,0,20,4a2,2,0,0,0-.75.62,1.59,1.59,0,0,0-.27.9h-.66a2.6,2.6,0,0,1,.4-1.35,2.8,2.8,0,0,1,1-.93,2.88,2.88,0,0,1,1.41-.34,3.13,3.13,0,0,1,1.52.35,2.61,2.61,0,0,1,1.07,1A3.3,3.3,0,0,1,24.11,6V9.09a.48.48,0,0,1-.13.32A.44.44,0,0,1,23.65,9.54Z"/><path class="cls-2" d="M29.14,9.6a3.35,3.35,0,0,1-1.72-.43A3.09,3.09,0,0,1,26.23,8a3.34,3.34,0,0,1-.43-1.71,3.39,3.39,0,0,1,.43-1.73,3.09,3.09,0,0,1,1.19-1.19,3.64,3.64,0,0,1,3.43,0A3.14,3.14,0,0,1,32,4.54a3.5,3.5,0,0,1,.44,1.73A3.35,3.35,0,0,1,32,8a3.14,3.14,0,0,1-1.18,1.19A3.34,3.34,0,0,1,29.14,9.6Zm0-.84a2.44,2.44,0,0,0,1.24-.32,2.32,2.32,0,0,0,.87-.89,2.69,2.69,0,0,0,.31-1.28A2.73,2.73,0,0,0,31.25,5a2.35,2.35,0,0,0-.87-.9,2.58,2.58,0,0,0-2.49,0A2.35,2.35,0,0,0,27,5a2.62,2.62,0,0,0-.32,1.29A2.59,2.59,0,0,0,27,7.55a2.32,2.32,0,0,0,.87.89A2.45,2.45,0,0,0,29.14,8.76Z"/><path class="cls-2" d="M37.26,9.6a3.41,3.41,0,0,1-1.72-.43A3.07,3.07,0,0,1,34.36,8a3.35,3.35,0,0,1-.44-1.71,3.4,3.4,0,0,1,.44-1.73,3.07,3.07,0,0,1,1.18-1.19,3.41,3.41,0,0,1,1.72-.43A3.34,3.34,0,0,1,39,3.35a3.14,3.14,0,0,1,1.18,1.19,3.5,3.5,0,0,1,.45,1.73A3.35,3.35,0,0,1,40.16,8,3.23,3.23,0,0,1,39,9.17,3.34,3.34,0,0,1,37.26,9.6Zm0-.84a2.5,2.5,0,0,0,1.25-.32,2.37,2.37,0,0,0,.86-.89,2.58,2.58,0,0,0,.31-1.28A2.62,2.62,0,0,0,39.37,5a2.4,2.4,0,0,0-.86-.9,2.5,2.5,0,0,0-1.25-.32A2.47,2.47,0,0,0,36,4.08a2.35,2.35,0,0,0-.87.9,2.62,2.62,0,0,0-.32,1.29,2.59,2.59,0,0,0,.32,1.28,2.32,2.32,0,0,0,.87.89A2.47,2.47,0,0,0,37.26,8.76Z"/><path class="cls-2" d="M44.69,9.6a4.31,4.31,0,0,1-1.41-.24,2.68,2.68,0,0,1-1.13-.72.38.38,0,0,1-.1-.32A.42.42,0,0,1,42.23,8a.44.44,0,0,1,.34-.1.49.49,0,0,1,.3.16,1.93,1.93,0,0,0,.77.51,2.89,2.89,0,0,0,1,.18A2.13,2.13,0,0,0,46,8.46a1,1,0,0,0,.41-.74A.86.86,0,0,0,46,7a3.54,3.54,0,0,0-1.34-.43,3.66,3.66,0,0,1-1.78-.68,1.44,1.44,0,0,1-.56-1.14,1.59,1.59,0,0,1,.32-1,2,2,0,0,1,.86-.61,3.5,3.5,0,0,1,1.19-.2,3.28,3.28,0,0,1,1.39.27,2.61,2.61,0,0,1,.94.75.44.44,0,0,1,.1.32.4.4,0,0,1-.2.28.51.51,0,0,1-.33,0,.53.53,0,0,1-.31-.17,1.91,1.91,0,0,0-.7-.51,2.35,2.35,0,0,0-.91-.16A1.87,1.87,0,0,0,43.58,4a.79.79,0,0,0-.39.67.76.76,0,0,0,.15.48,1.15,1.15,0,0,0,.51.36,4.3,4.3,0,0,0,1,.27,4.62,4.62,0,0,1,1.42.42,1.8,1.8,0,0,1,.74.66,1.62,1.62,0,0,1,.23.83,1.6,1.6,0,0,1-.33,1,2.21,2.21,0,0,1-.92.66A3.43,3.43,0,0,1,44.69,9.6Z"/><path class="cls-2" d="M51.84,9.6a3.45,3.45,0,0,1-1.72-.42A3.07,3.07,0,0,1,48.94,8a3.48,3.48,0,0,1-.42-1.72,3.6,3.6,0,0,1,.4-1.74,3,3,0,0,1,2.74-1.61,3,3,0,0,1,1.59.41,2.85,2.85,0,0,1,1,1.15,3.6,3.6,0,0,1,.37,1.67.39.39,0,0,1-.12.3.41.41,0,0,1-.31.12h-5.1V5.8h5.19l-.51.37a2.82,2.82,0,0,0-.25-1.25,2,2,0,0,0-1.91-1.17,2.14,2.14,0,0,0-2,1.21,2.9,2.9,0,0,0-.28,1.31,2.6,2.6,0,0,0,.32,1.29,2.32,2.32,0,0,0,.87.89,2.42,2.42,0,0,0,1.27.32,2.65,2.65,0,0,0,.87-.15,2.09,2.09,0,0,0,.7-.37.49.49,0,0,1,.3-.12.48.48,0,0,1,.29.09.45.45,0,0,1,.16.31.34.34,0,0,1-.14.29,3.18,3.18,0,0,1-1,.56A3.45,3.45,0,0,1,51.84,9.6Z"/><path class="cls-2" d="M62.64,9.6A3.1,3.1,0,0,1,61,9.16,3.23,3.23,0,0,1,59.82,8a3.43,3.43,0,0,1-.42-1.7,3.29,3.29,0,0,1,.44-1.72,3.35,3.35,0,0,1,5.78,0,3.49,3.49,0,0,1,.45,1.72l-.37.28a3.12,3.12,0,0,1-.4,1.56A3,3,0,0,1,62.64,9.6Zm.1-.84A2.46,2.46,0,0,0,64,8.44a2.4,2.4,0,0,0,.86-.9,2.58,2.58,0,0,0,.32-1.27A2.62,2.62,0,0,0,64.84,5,2.45,2.45,0,0,0,64,4.09a2.49,2.49,0,0,0-2.48,0,2.5,2.5,0,0,0-.88.89,2.62,2.62,0,0,0-.32,1.29,2.58,2.58,0,0,0,.32,1.27,2.36,2.36,0,0,0,2.12,1.22Zm2.86.78a.46.46,0,0,1-.33-.12.45.45,0,0,1-.14-.33V7l.23-.94.71.18V9.09a.44.44,0,0,1-.13.33A.49.49,0,0,1,65.6,9.54Z"/><path class="cls-2" d="M71.85,12.35a.43.43,0,0,1-.46-.47V6.22A3.29,3.29,0,0,1,73,3.35a3.56,3.56,0,0,1,3.41,0,3.23,3.23,0,0,1,1.19,1.19,3.39,3.39,0,0,1,.44,1.72A3.33,3.33,0,0,1,77.63,8a3.16,3.16,0,0,1-1.16,1.19,3.31,3.31,0,0,1-3.11.1,2.83,2.83,0,0,1-1-.91v3.53a.42.42,0,0,1-.13.34A.42.42,0,0,1,71.85,12.35Zm2.86-3.59A2.5,2.5,0,0,0,76,8.44a2.35,2.35,0,0,0,.87-.9,2.58,2.58,0,0,0,.32-1.27A2.62,2.62,0,0,0,76.83,5a2.38,2.38,0,0,0-2.12-1.22,2.37,2.37,0,0,0-1.24.33,2.45,2.45,0,0,0-.86.89,2.62,2.62,0,0,0-.31,1.29,2.57,2.57,0,0,0,.31,1.27,2.4,2.4,0,0,0,.86.9A2.46,2.46,0,0,0,74.71,8.76Z"/><path class="cls-2" d="M80.33,9.54A.45.45,0,0,1,80,9.42a.45.45,0,0,1-.12-.33V3.43A.45.45,0,0,1,80,3.1.45.45,0,0,1,80.33,3a.42.42,0,0,1,.45.45V9.09a.42.42,0,0,1-.45.45Zm-.08-4a2.91,2.91,0,0,1,.39-1.33,2.67,2.67,0,0,1,.93-.93,2.47,2.47,0,0,1,1.26-.33,2,2,0,0,1,.86.15.38.38,0,0,1,.22.46.34.34,0,0,1-.16.24.57.57,0,0,1-.27.05l-.37,0a2.66,2.66,0,0,0-1.19.14,1.72,1.72,0,0,0-.83.61,1.52,1.52,0,0,0-.31,1Z"/><path class="cls-2" d="M87.87,9.6a3.34,3.34,0,0,1-1.71-.43A3.09,3.09,0,0,1,85,8a3.34,3.34,0,0,1-.43-1.71A3.39,3.39,0,0,1,85,4.54a3.09,3.09,0,0,1,1.19-1.19,3.62,3.62,0,0,1,3.42,0,3.16,3.16,0,0,1,1.19,1.19,3.61,3.61,0,0,1,.44,1.73A3.35,3.35,0,0,1,90.77,8a3.16,3.16,0,0,1-1.19,1.19A3.34,3.34,0,0,1,87.87,9.6Zm0-.84a2.47,2.47,0,0,0,1.25-.32A2.32,2.32,0,0,0,90,7.55a2.69,2.69,0,0,0,.31-1.28A2.73,2.73,0,0,0,90,5a2.35,2.35,0,0,0-.87-.9,2.47,2.47,0,0,0-1.25-.32,2.44,2.44,0,0,0-1.24.32,2.35,2.35,0,0,0-.87.9,2.52,2.52,0,0,0-.32,1.29,2.48,2.48,0,0,0,.32,1.28,2.32,2.32,0,0,0,.87.89A2.44,2.44,0,0,0,87.87,8.76Z"/><path class="cls-2" d="M91.27,12.35a.45.45,0,0,1-.34-.13.46.46,0,0,1-.13-.34.47.47,0,0,1,.13-.33.46.46,0,0,1,.34-.14,1.91,1.91,0,0,0,1-.24,1.84,1.84,0,0,0,.67-.66,1.91,1.91,0,0,0,.24-1V3.45a.46.46,0,0,1,.13-.35.51.51,0,0,1,.66,0,.47.47,0,0,1,.14.35V9.54A2.86,2.86,0,0,1,93.72,11a2.53,2.53,0,0,1-1,1A2.89,2.89,0,0,1,91.27,12.35ZM93.6,1.73a.62.62,0,0,1-.46-.19A.64.64,0,0,1,93,1.07a.59.59,0,0,1,.2-.47.67.67,0,0,1,.91,0,.59.59,0,0,1,.2.47.68.68,0,0,1-.19.47A.64.64,0,0,1,93.6,1.73Z"/><path class="cls-2" d="M98.93,9.6a3.49,3.49,0,0,1-1.73-.42A3,3,0,0,1,96,8a3.38,3.38,0,0,1-.43-1.72A3.72,3.72,0,0,1,96,4.53a3.19,3.19,0,0,1,4.34-1.2,2.85,2.85,0,0,1,1,1.15,3.73,3.73,0,0,1,.37,1.67.39.39,0,0,1-.12.3.43.43,0,0,1-.31.12h-5.1V5.8h5.19l-.51.37a2.83,2.83,0,0,0-.26-1.25,2,2,0,0,0-.75-.86,2.06,2.06,0,0,0-1.15-.31,2.14,2.14,0,0,0-2,1.21,2.9,2.9,0,0,0-.28,1.31,2.59,2.59,0,0,0,.31,1.29,2.35,2.35,0,0,0,2.15,1.21,2.75,2.75,0,0,0,.87-.15,2.19,2.19,0,0,0,.7-.37.49.49,0,0,1,.3-.12.48.48,0,0,1,.29.09.49.49,0,0,1,.16.31.34.34,0,0,1-.14.29,3.13,3.13,0,0,1-1,.56A3.39,3.39,0,0,1,98.93,9.6Z"/><path class="cls-2" d="M106,9.6A3.17,3.17,0,0,1,103.16,8a3.33,3.33,0,0,1-.43-1.7,3.58,3.58,0,0,1,.41-1.72,3.1,3.1,0,0,1,1.11-1.19,3,3,0,0,1,1.64-.44,3.09,3.09,0,0,1,1.35.29,3.05,3.05,0,0,1,1.08.86.35.35,0,0,1,.1.31.5.5,0,0,1-.21.28.36.36,0,0,1-.29.06.44.44,0,0,1-.28-.17,2.35,2.35,0,0,0-2.94-.47,2.2,2.2,0,0,0-.79.89,2.86,2.86,0,0,0-.28,1.3,2.69,2.69,0,0,0,.3,1.28,2.25,2.25,0,0,0,.84.89,2.41,2.41,0,0,0,1.24.32,2.86,2.86,0,0,0,.85-.12,2.13,2.13,0,0,0,.69-.39.59.59,0,0,1,.3-.14.44.44,0,0,1,.45.4.3.3,0,0,1-.11.29A3.12,3.12,0,0,1,106,9.6Z"/><path class="cls-2" d="M109.81,4a.44.44,0,0,1-.3-.11.38.38,0,0,1-.12-.28.41.41,0,0,1,.12-.3.44.44,0,0,1,.3-.11h3.06a.44.44,0,0,1,.3.11.41.41,0,0,1,.12.3.38.38,0,0,1-.12.28.44.44,0,0,1-.3.11Zm3,5.52a2.18,2.18,0,0,1-1.14-.3,2.12,2.12,0,0,1-.78-.82,2.47,2.47,0,0,1-.29-1.19V1.36a.45.45,0,0,1,.13-.34.42.42,0,0,1,.33-.13.44.44,0,0,1,.33.13.45.45,0,0,1,.13.34V7.23a1.43,1.43,0,0,0,.36,1,1.21,1.21,0,0,0,.93.39h.32a.39.39,0,0,1,.31.13.49.49,0,0,1,.12.34.42.42,0,0,1-.14.33.56.56,0,0,1-.36.12Z"/></g></g></svg>