<svg xmlns="http://www.w3.org/2000/svg" viewBox="0 0 1626.81 1460.43"><defs><style>.cls-1{opacity:0.6;}.cls-2{fill:#acc9c5;}.cls-3{fill:#ccd39c;}.cls-4{fill:#c2c68e;}.cls-5{opacity:0.5;}.cls-6{fill:#68a1bf;}.cls-7{fill:#764678;}.cls-8{fill:#92bcb5;}.cls-9{fill:#ffb27d;}.cls-10{fill:#f59a6d;}.cls-11{fill:#366f90;}.cls-12{fill:#c1e9f8;}.cls-13{fill:#2b668e;}.cls-14{fill:#ef8062;}.cls-15{fill:#daebe8;}.cls-16{fill:#331832;}.cls-17{fill:#73b3ce;}</style></defs><title>contact_1</title><g id="Layer_2" data-name="Layer 2"><g id="_Layer_" data-name="&lt;Layer&gt;"><g class="cls-1"><path class="cls-2" d="M886.06,1019.62s172.81-610.15,336.61-557S1016.28,845.78,971.6,1025Z"/></g><path class="cls-3" d="M847.13,1005.72S1345,434.44,1529.32,584.3s-437.24,304-575.72,475.19Z"/><path class="cls-4" d="M906.43,1036.32c93.48-120,235.51-217.16,338.2-277.57,111.33-65.49,201.62-103,202.52-103.41l-2.32-5.61c-.9.37-91.59,38.07-203.28,103.78-103.14,60.68-245.84,158.35-339.92,279.08Z"/><path class="cls-2" d="M1454,1388.14c-78.85-21.09-122.22,92.38-192.85,30.93-59.71-52-62.23-61.28-96-53.74A125.72,125.72,0,0,0,1132,1378c-12.46,6.85-34.07,15.28-56.71,8.26-138.33-42.91-215.45-319.66-30-355.08,13.4-2.56,28.79,1.72,45.43,7.21,90.26,29.88,96.6,81.61,213,16.94s133.26,122.43,191.85,146.24,116.61,32.37,129.78,114.18S1532.78,1409.28,1454,1388.14Z"/><g class="cls-5"><path class="cls-6" d="M1015.65,1188.49l-.63-5.33c2.35-.28,239.41-25.78,611.79,154.64l-2.34,4.83C1253.48,1162.9,1018,1188.21,1015.65,1188.49Z"/><path class="cls-6" d="M1317.59,1164c-26.1-68.61-16.83-107.67-16.42-109.3l5.21,1.3c-.1.38-9.2,39.24,16.23,106.1Z"/><path class="cls-6" d="M1299.53,1219.82c-1.29-31,17.79-65,55.18-98.23a359.69,359.69,0,0,1,57.06-41l2.6,4.7c-1.12.62-112.44,63-109.48,134.37Z"/><path class="cls-6" d="M1400.64,1261.27c-3.3-7.8-4.8-12.55-4.87-12.77l5.13-1.58c.31,1,32.17,100.91,130.82,147.89l-2.3,4.84C1449.93,1361.8,1412.9,1290.33,1400.64,1261.27Z"/><path class="cls-6" d="M1391.64,1396.19c-9.47-36.12-3.1-64.09,3.91-81.18,7.64-18.62,17.45-28.55,17.86-29l3.8,3.8c-.38.38-37.71,38.86-20.38,105Z"/></g><path class="cls-2" d="M1324.62,521c15.59-12.34,25.05-9.91,31-2.39s6.15,17.29-9.44,29.64c-28.4,22.48-52.91,19.72-52.91,19.72S1295.81,543.81,1324.62,521Z"/><path class="cls-2" d="M1091.77,388.39c4.92-22.91,15.35-27.81,26.41-25.43s18.57,11.11,13.65,34c-8.95,41.75-33.31,57.63-33.31,57.63S1082.69,430.75,1091.77,388.39Z"/><path class="cls-2" d="M301.6,674.44c-11.71,12.63-19.52,12.77-24.86,8.32s-6.19-11.82,5.51-24.45c21.32-23,41.29-26.07,41.29-26.07S323.22,651.09,301.6,674.44Z"/><path class="cls-2" d="M430.17,1054.75l-3.3.71c-.12-.48-13.15-49.12-54.86-113.51C333.52,882.54,262,797.18,140,727.9l1.7-2.74C264.4,794.81,336.28,880.68,375,940.44,416.93,1005.24,430.05,1054.27,430.17,1054.75Z"/><path class="cls-2" d="M271.43,820l-3.3-.83C297.37,706.35,218.45,604,217.65,603l2.71-1.87C221.17,602.16,301.06,705.69,271.43,820Z"/><path class="cls-2" d="M205.11,784.9c-32.67,9.88-63,1.76-63.31,1.67l.88-3.09c.39.11,39.2,10.47,75.65-7.23l1.6,2.87A101.6,101.6,0,0,1,205.11,784.9Z"/><path class="cls-2" d="M131.73,711.46c22.27,9.48,26.66,17.22,23.9,23.28s-11.63,8.16-33.91-1.32c-40.59-17.27-55.2-36.59-55.2-36.59S90.55,693.94,131.73,711.46Z"/><path class="cls-2" d="M146.86,774.05c24.11,2.75,30.72,8.93,30,15.54s-8.41,11.15-32.52,8.4c-43.92-5-63.91-19.4-63.91-19.4S102.3,769,146.86,774.05Z"/><path class="cls-2" d="M220.42,726.12c9.55,14.6,7.56,21.7,1.6,25.11s-13.64,1.84-23.19-12.76c-17.4-26.59-15-45.61-15-45.61S202.77,699.15,220.42,726.12Z"/><path class="cls-2" d="M222.67,586.66c13,19.62,12,28.24,6.09,31.68s-14.63.39-27.61-19.23c-23.65-35.74-24.33-59.25-24.33-59.25S198.67,550.39,222.67,586.66Z"/><path class="cls-7" d="M1178.87,823.13c9,17.66,17.56,20.28,24.87,17s10.57-11.12,1.6-28.78c-16.33-32.16-37.46-41.82-37.46-41.82S1162.3,790.51,1178.87,823.13Z"/><path class="cls-7" d="M917,1203.3l3.43,1.82c.29-.5,30-50.19,96.4-108.28,61.27-53.59,167.2-125.5,323.94-163.72l-1-3.58C1182.12,968,1075.6,1040.32,1014,1094.24,947.2,1152.7,917.27,1202.8,917,1203.3Z"/><path class="cls-7" d="M1166.42,993.6l3.92.11c3.16-134,122.65-222.28,123.86-223.16l-2.41-2.93C1290.56,768.5,1169.62,857.86,1166.42,993.6Z"/><path class="cls-7" d="M1250.82,975.67c33,21.21,69.08,21.77,69.49,21.77v-3.69c-.46,0-46.64-.76-81.39-31.8l-2.68,2.66A115.49,115.49,0,0,0,1250.82,975.67Z"/><path class="cls-7" d="M1355.09,917.55c-27.62,3.47-34.91,10.64-33.76,18.22s10.3,12.68,37.92,9.21c50.33-6.33,72.57-23.1,72.57-23.1S1406.15,911.13,1355.09,917.55Z"/><path class="cls-7" d="M1318.66,982c-27.53-4.55-36.79.2-38.12,7.72s5.79,15,33.32,19.53c50.15,8.29,76.79-1.34,76.79-1.34S1369.54,990.41,1318.66,982Z"/><path class="cls-7" d="M1252.38,905.85c-15.16,13.13-15.19,21.62-9.67,27.27s14.51,6.31,29.67-6.82c27.61-23.93,30.95-45.72,30.95-45.72S1280.39,881.57,1252.38,905.85Z"/><path class="cls-7" d="M1293.78,750.89c-20.53,17.62-22.19,27.45-16.7,33.13s16.05,5,36.59-12.58c37.41-32.09,45.55-57.88,45.55-57.88S1331.74,718.33,1293.78,750.89Z"/><path class="cls-2" d="M759.8,1155.53S502.4,670.54,365,741.72s249.09,288.74,319.26,432.17Z"/><path class="cls-8" d="M792.45,1184S369.36,677.7,212.36,814.6s371.78,267.15,489.46,419Z"/><path class="cls-3" d="M682.35,1431.25c-25.54-.32-51.87.27-79,.79-37.59.72-76.16,1.63-111.65,2.62-33.29-21-30.75-35.51-58.42-57.82-28.84-23.23-35.73-15.42-118.19,6.93-97.48,26.37-84.54-104.21-170.49-120.93-87.08-16.87-181.53-78.56-130-151.08,52.08-73.22,112-54.18,179.79-49.67,37.82,2.51,87-50.06,139.1-77.76h0c39.9-20.94,80.3-25.47,115.78,26.2h0v0c66.72,95.67,95.5,82,165.1,81.23,24.34-.52,75.38,2.31,95,17.14C795.22,1173.66,768.49,1359.28,682.35,1431.25Z"/><path class="cls-4" d="M662.19,1275.61l3.18-4.88c-2.13-1.38-217.75-137.87-662.69-138.24l-.08,5.8C445.87,1138.66,660.08,1274.24,662.19,1275.61Z"/><path class="cls-4" d="M383.71,1109.51c58.15-54.31,68.06-96.61,68.45-98.38l-5.63-1.2c-.09.42-10.06,42.44-66.72,95.36Z"/><path class="cls-4" d="M374.17,1172.22c16.2-29.52,14.22-71.49-5.72-121.38a381.21,381.21,0,0,0-35.08-66.75l-4.76,3.34c.78,1.13,77.75,114.17,40.51,182.05Z"/><path class="cls-4" d="M257,1164.8c6.93-6,10.66-9.92,10.83-10.1l-4.17-4c-.78.83-79.55,82.8-197,81.91l-.11,5.79C161.18,1239.17,231.2,1187.24,257,1164.8Z"/><path class="cls-4" d="M200.65,1300c26.5-30.61,33.85-60.77,35.35-80.67,1.63-21.67-3-35.94-3.22-36.54l-5.48,1.89c.18.55,17.53,55.51-31,111.55Z"/><path class="cls-2" d="M166.26,1005c-17.82-.64-22.59-7.36-21.94-15.42s6.49-14.39,24.31-13.76c32.47,1.16,47,16.31,47,16.31S199.2,1006.2,166.26,1005Z"/><path class="cls-9" d="M641.13,408.69,519.69,318.06c-25.44-15.6-57-54.35-40.78-79.47h0c16.23-25.13,61-17.19,86.46-1.59l153,93.69c44.44,28.12,47.35,74.64,21.2,115.08C702.6,502.86,665.74,423.77,641.13,408.69Z"/><path class="cls-9" d="M1132.76,1105.59,732.33,1214.27s-30.64,5.29-52.57-46.66c-16.14-38.2-4.29-125.7-33.29-171.46-11.73-18.67-25.1-8.83-52.57-56C541.31,850.4,566.16,696.7,566.16,696.7S923.62,503.06,928.91,445.83c4.71-52.14,69.06-78.5,84.66-57.4a17.12,17.12,0,0,1,3.08,7.56c2.17,13.18,7.66,41.2,15.39,74,10.94,46.4,26.34,102.33,43.1,139.08,47.06,103.21,41,134.32,12.1,214.5-20.8,57.49-3,101.37,5.3,138.81C1115.23,1065,1132.76,1105.59,1132.76,1105.59Z"/><path class="cls-10" d="M842.13,979.08a3.85,3.85,0,0,1-3.33-1.29c-.76-.88-18.86-21.83-27.87-57.14a158.56,158.56,0,0,1-3-63.54c4.09-26.68,14.9-53.48,32.13-79.65a3.8,3.8,0,0,1,5.38-1.06,4.09,4.09,0,0,1,1,5.57c-16.57,25.19-27,50.9-30.88,76.4a150.17,150.17,0,0,0,2.85,60.23c8.52,33.44,25.94,53.6,26.12,53.8a4.12,4.12,0,0,1-.27,5.66A3.82,3.82,0,0,1,842.13,979.08Z"/><path class="cls-11" d="M1003,826.79l-9.51-106.85h0L964.25,391.39l-5.59-62.78L952,254.13a46.46,46.46,0,0,0-6-18.83l0-.05c-11.68-19.66-36.52-24.72-54.43-22.6l-10.1,1.22-89.89,10.92L684.12,237.84l-3.68.52-70.82,8.58-20.06,2.44c-1.06.13-2.11.3-3.14.51-21.07,4.23-35.73,24.62-33.19,47l2.55,28.8,1.44,15.46.47,5.24.75,8.63,2.34,26.28h0v.06l7.49,83h0l2.44,26.78v.11l1.85,20.32v0l1.13,12.26v1.17l2.55,28v0l4.6,51.31,2.36,26v.11l.3,3.06v.69l4.21,46.64V681l.08.72h0l.06.61.21,2.26,1.78,19.46h0l2,22.95v0l.32,3.15v.1l14,156.58c2.66,23.4,24.88,37.06,47.59,34.31l153.09-23H807l7.56-1.17h0l55.88-8.36,60.7-9.09,22.07-3.31,13.44-2A40,40,0,0,0,973,873a42.06,42.06,0,0,0,28-27.42A44,44,0,0,0,1003,826.79Z"/><path class="cls-12" d="M892.94,223.46,590.62,260.17a31.16,31.16,0,0,0-27.09,34.46l55,563.42c4.07,38.52,23.91,34.62,40.8,32.57L963,844.93c16.89-2,28.72-23.82,26.8-40.81L939.76,252.63c-1.93-17-29.93-31.22-46.82-29.17Z"/><path class="cls-9" d="M477.2,587.29l87.35,38.4c21.76,15.41,51.48,9.66,66.38-12.85h0c14.9-22.51,9.34-53.25-12.42-68.67l-56.4-39.95c-38.72-26.61-73.22-38.44-97.19-2.18C431.08,553.24,456.16,572.39,477.2,587.29Z"/><path class="cls-13" d="M1231.51,1460.43c-292.8-11.66-336.9-33.6-628.14-28.39,3.72-52.23,24.23-349.32,34.29-363.87,20.18-29.14,151.82,32.36,280.24-26.71,3.79-1.72,18.39-8.85,38.91-17.4,38.6-16,100.82-37.66,142.2-33.28h.09c14.61,1.56,28.62,6.6,31.92,20.78C1138.23,1041.84,1194.19,1302.51,1231.51,1460.43Z"/><path class="cls-10" d="M600.06,610a5.29,5.29,0,0,1-1.06-.11c-1.31-.24-27.2-5.13-39-13.86-4.32-3.18-4.37-10.4-.16-20.35,6.06-14.26,19.54-30.33,28-30.33a5.66,5.66,0,0,1,1,.08c13.42,2.27,33.08,14.92,32.75,27.74-.27,10.61-8.92,28.79-16.51,34.72A8.42,8.42,0,0,1,600.06,610Zm-12.33-62.73c-7.48,0-20.33,15.56-26.11,29.18-3.77,8.89-3.94,15.46-.47,18,11.5,8.5,38,13.46,38.22,13.51h0c1.25.34,2.77-.25,4.5-1.61,7.11-5.57,15.51-23.27,15.77-33.24.3-11.67-18.68-23.68-31.13-25.79A4.43,4.43,0,0,0,587.73,547.28Z"/><path class="cls-9" d="M482.46,465.63l81.13,51a46.64,46.64,0,0,0,67.47-2.88h0c17.87-20.06,16.62-51.31-2.78-69.8L578,396c-34.64-32.07-67.14-48.89-95.88-16.56C441.54,425.09,463.7,447.76,482.46,465.63Z"/><path class="cls-10" d="M601.7,506.39a5.13,5.13,0,0,1-1.84-.33c-1.28-.43-26.2-9.11-36.68-19.5-3.87-3.83-2.87-11.09,2.84-20.42,8.48-13.91,24.59-28,32.76-25.37,13,4.22,30.66,19.65,28.56,32.3-1.74,10.42-12.79,27.11-21.12,31.9A9.35,9.35,0,0,1,601.7,506.39Zm-5.19-64c-7.56,0-21.52,12.79-28.84,24.78-5.1,8.38-6.25,14.95-3.13,18,10.22,10.12,35.71,19,36,19.05h0c1.23.5,2.81.14,4.71-1,7.79-4.48,18.54-20.75,20.17-30.54,1.91-11.5-15.21-26.2-27.25-30.13A5.5,5.5,0,0,0,596.51,442.36Z"/><path class="cls-9" d="M518,708.67,595.56,728c20.12,9.66,44,.63,53.34-20.17h0c9.35-20.81.62-45.51-19.5-55.18l-52.13-25.06c-35.68-16.51-65.88-21.39-80.91,12.13C475.15,687,498.52,699.32,518,708.67Z"/><path class="cls-10" d="M622.21,710.13H622c-1.14,0-23.29-.37-34.28-5.94-4-2-5.09-7.94-3-16.63,3.18-13.46,12.93-29.74,20.27-29.77h.1c11.5,0,29.49,7.72,30.94,18.47,1.19,8.87-3.56,25.24-9.08,31.29C625.37,709.26,623.78,710.13,622.21,710.13Zm-17.13-50.39H605c-5.7,0-15.15,14.55-18.39,28.26-1.8,7.62-1.06,12.9,2,14.46,10.64,5.39,33.21,5.72,33.44,5.72h.13c1.25,0,2.48-1.06,3.3-2,5.13-5.61,9.71-21.44,8.59-29.71C632.79,666.91,615.64,659.74,605.08,659.74Z"/><path class="cls-10" d="M594.93,533.06c-33.27,0-91.57-50.1-94.19-52.37a3.06,3.06,0,0,1,4-4.63c.66.57,66.16,56.87,94.86,50.38a3.07,3.07,0,1,1,1.37,6A26.85,26.85,0,0,1,594.93,533.06Z"/><path class="cls-10" d="M590,637.91c-20.24,0-52.62-20.56-54.13-21.54a3.06,3.06,0,1,1,3.3-5.15c10.78,6.89,41.71,24,55.25,20a3.07,3.07,0,0,1,1.7,5.9A22.39,22.39,0,0,1,590,637.91Z"/><path class="cls-10" d="M1025.18,471.39c-11.33,0-25.24-3.44-28.35-14.1-11-37.57,2.7-58.6,16.13-69.61l.79-.65.61.82a18.2,18.2,0,0,1,3.25,8c2.38,14.42,8.05,42.85,15.38,73.9l.24,1-1.06.15A50.25,50.25,0,0,1,1025.18,471.39Zm-11.8-81.54c-12.7,10.83-25.15,31.11-14.69,66.9,3.35,11.47,21,13.62,32.16,12.39-7.22-30.7-12.8-58.71-15.16-73A16.81,16.81,0,0,0,1013.38,389.85Z"/><path class="cls-10" d="M684.8,1003.15a4.07,4.07,0,0,1-.7,0C649.81,1001,629,988.27,617.61,978c-12.57-11.32-16.85-22.2-17-22.66a4.06,4.06,0,0,1,2.17-5.21,3.82,3.82,0,0,1,5,2.23h0c0,.1,4,9.84,15.29,19.92,10.48,9.33,29.67,20.87,61.52,22.9a4,4,0,0,1,.22,8Z"/><path class="cls-10" d="M608.2,735.78h-.26c-20.38-.1-94.27-26.29-97.41-27.41a3.07,3.07,0,0,1,2.06-5.78c.76.27,76,27,95.37,27.06h.24c18.22,0,27.22-9,27.3-9.12a3.07,3.07,0,0,1,4.33-.08,3,3,0,0,1,.1,4.31C639.5,725.22,629.19,735.78,608.2,735.78Z"/><rect class="cls-14" x="780.04" y="102.85" width="412.24" height="224.02" rx="25.99"/><polygon class="cls-14" points="861.76 408.6 880.69 304.92 959.75 309.77 861.76 408.6"/><path class="cls-14" d="M1271.34,116.15A116.16,116.16,0,1,1,1155.19,0,115.69,115.69,0,0,1,1271.34,116.15Z"/><g class="cls-5"><path class="cls-15" d="M1243.06,192.12a116.15,116.15,0,0,1-176.06-.36c23.63-11.14,54.23-17.85,87.66-17.85C1188.44,173.91,1219.33,180.76,1243.06,192.12Z"/></g><ellipse class="cls-16" cx="1155.18" cy="128" rx="44.56" ry="75.12"/><circle class="cls-15" cx="1155.18" cy="110.43" r="75.12" transform="translate(861.14 1233.01) rotate(-80.78)"/><path class="cls-16" d="M1116.36,74.5H1194a20.17,20.17,0,0,1,20.17,20.17v10.16a41.53,41.53,0,0,1-41.53,41.53h-32a44.51,44.51,0,0,1-44.51-44.51V94.67A20.17,20.17,0,0,1,1116.36,74.5Z"/><circle class="cls-15" cx="1131.12" cy="97.38" r="6.35"/><path class="cls-15" d="M1172.91,97.38a6.35,6.35,0,1,1,6.34,6.35A6.35,6.35,0,0,1,1172.91,97.38Z"/><path class="cls-16" d="M1078.41,84h0a2,2,0,0,1-2-2V51.06a2,2,0,0,1,2-2h0a2,2,0,0,1,2,2V82A2,2,0,0,1,1078.41,84Z"/><path class="cls-16" d="M1233.58,84h0a2,2,0,0,1-2-2V51.06a2,2,0,0,1,2-2h0a2,2,0,0,1,2,2V82A2,2,0,0,1,1233.58,84Z"/><path class="cls-15" d="M1129,121.78s25.42,25.11,50.22,0Z"/><path class="cls-15" d="M1078.41,131.94h0a9.91,9.91,0,0,1-9.88-9.87V79a9.91,9.91,0,0,1,9.88-9.87h0a9.9,9.9,0,0,1,9.87,9.87v43A9.9,9.9,0,0,1,1078.41,131.94Z"/><path class="cls-7" d="M1154.89,61.05c-28.51,0-47.89-7.56-48.18-7.68l.39-1c.43.15,43.7,17,96.19,0l.33,1A157.56,157.56,0,0,1,1154.89,61.05Z"/><path class="cls-7" d="M1082.35,130.92c-3.61-29.8,5.35-51.85,5.45-52.08l1,.41c-.09.22-9,22-5.37,51.54Z"/><path class="cls-15" d="M1233.58,131.94h0a9.91,9.91,0,0,1-9.88-9.87V79a9.91,9.91,0,0,1,9.88-9.87h0a9.9,9.9,0,0,1,9.87,9.87v43A9.9,9.9,0,0,1,1233.58,131.94Z"/><path class="cls-7" d="M1228,130.92l-1-.13c2.69-21.9-3.71-51.33-3.77-51.62l1-.24C1224.28,79.23,1230.72,108.83,1228,130.92Z"/><path class="cls-14" d="M1098.6,204.85a3.18,3.18,0,1,1,3.17,3.18A3.17,3.17,0,0,1,1098.6,204.85Z"/><path class="cls-6" d="M1112.87,207.1a3.17,3.17,0,1,1,4.49,0A3.17,3.17,0,0,1,1112.87,207.1Z"/><rect class="cls-15" x="861.76" y="186.18" width="173.91" height="8.33" rx="3.99"/><rect class="cls-15" x="861.76" y="226" width="173.91" height="8.33" rx="3.99"/><rect class="cls-15" x="860.14" y="265.83" width="122.87" height="8.33" rx="3.36"/><rect class="cls-15" x="997.05" y="265.83" width="122.87" height="8.33" rx="3.36"/><rect class="cls-17" x="377.27" y="395.91" width="440.89" height="239.59" rx="27.8" transform="translate(1195.44 1031.42) rotate(180)"/><polygon class="cls-17" points="730.76 722.92 710.51 612.03 625.96 617.22 730.76 722.92"/><rect class="cls-15" x="510.66" y="475.02" width="122.87" height="8.33" rx="3.36"/><rect class="cls-15" x="647.56" y="475.02" width="122.87" height="8.33" rx="3.36"/><path class="cls-15" d="M766.27,524.82H515.58a4.17,4.17,0,0,1-4.16-4.16h0a4.18,4.18,0,0,1,4.16-4.17H766.27a4.18,4.18,0,0,1,4.16,4.17h0A4.17,4.17,0,0,1,766.27,524.82Z"/><rect class="cls-15" x="481.49" y="557.96" width="152.03" height="8.33" rx="3.73"/><rect class="cls-15" x="647.56" y="557.96" width="122.87" height="8.33" rx="3.36"/><rect class="cls-14" x="783.93" y="665.55" width="158.81" height="58.47" rx="12.67" transform="translate(-75.83 106.53) rotate(-6.76)"/><rect class="cls-17" x="654.25" y="776.22" width="158.81" height="58.47" rx="12.67" transform="translate(-89.77 92.03) rotate(-6.76)"/><path class="cls-16" d="M620.18,328.14a15,15,0,0,1,16.52-2.5c2.12,1,4-2.18,1.84-3.15a18.92,18.92,0,0,0-20.94,3.07c-1.76,1.56.83,4.12,2.58,2.58Z"/><path class="cls-16" d="M612.5,321.58c6.25-9.39,22.13-11.95,31.72-6.17,2,1.22,3.85-1.93,1.84-3.14-11.37-6.86-29.34-3.6-36.71,7.47-1.3,2,1.85,3.79,3.15,1.84Z"/><path class="cls-16" d="M604.87,313.91c8.09-14.32,27.08-16.57,41.28-10.59,2.15.91,3.1-2.61,1-3.51-15.74-6.63-36.55-3.41-45.4,12.26-1.16,2.05,2,3.89,3.15,1.84Z"/><path class="cls-16" d="M626.29,332.59a3.4,3.4,0,1,1,3.4,3.4A3.4,3.4,0,0,1,626.29,332.59Z"/><path class="cls-6" d="M493.43,402.67A116.16,116.16,0,1,1,377.28,286.52,115.64,115.64,0,0,1,493.43,402.67Z"/><g class="cls-5"><path class="cls-15" d="M465.15,478.63a116.13,116.13,0,0,1-176.06-.36c23.63-11.14,54.23-17.84,87.66-17.84C410.53,460.43,441.42,467.28,465.15,478.63Z"/></g><ellipse class="cls-16" cx="377.27" cy="414.52" rx="44.56" ry="75.12"/><circle class="cls-15" cx="377.27" cy="396.95" r="75.12" transform="translate(-74.98 705.77) rotate(-80.78)"/><path class="cls-16" d="M338.45,361H416.1a20.17,20.17,0,0,1,20.17,20.17v10.16a41.53,41.53,0,0,1-41.53,41.53h-32a44.51,44.51,0,0,1-44.51-44.51v-7.18A20.17,20.17,0,0,1,338.45,361Z"/><circle class="cls-15" cx="353.21" cy="383.9" r="6.35"/><path class="cls-15" d="M395,383.9a6.35,6.35,0,1,1,6.34,6.35A6.34,6.34,0,0,1,395,383.9Z"/><path class="cls-16" d="M300.5,370.5h0a2,2,0,0,1-2-2V337.58a2,2,0,0,1,2-2h0a2,2,0,0,1,2,2v30.93A2,2,0,0,1,300.5,370.5Z"/><path class="cls-16" d="M455.67,370.5h0a2,2,0,0,1-2-2V337.58a2,2,0,0,1,2-2h0a2,2,0,0,1,2,2v30.93A2,2,0,0,1,455.67,370.5Z"/><path class="cls-15" d="M351.12,408.3s25.42,25.11,50.22,0Z"/><path class="cls-15" d="M300.5,418.46h0a9.9,9.9,0,0,1-9.87-9.87v-43a9.9,9.9,0,0,1,9.87-9.87h0a9.9,9.9,0,0,1,9.87,9.87v43A9.9,9.9,0,0,1,300.5,418.46Z"/><path class="cls-7" d="M377,347.56c-28.51,0-47.89-7.56-48.18-7.68l.39-1c.43.15,43.7,17,96.19,0l.33,1A157.52,157.52,0,0,1,377,347.56Z"/><path class="cls-7" d="M304.44,417.43c-3.61-29.79,5.35-51.84,5.45-52.07l1,.41c-.09.22-8.95,22-5.37,51.53Z"/><path class="cls-15" d="M455.67,418.46h0a9.91,9.91,0,0,1-9.88-9.87v-43a9.91,9.91,0,0,1,9.88-9.87h0a9.9,9.9,0,0,1,9.87,9.87v43A9.9,9.9,0,0,1,455.67,418.46Z"/><path class="cls-7" d="M450.1,417.43l-1.05-.13c2.69-21.9-3.71-51.32-3.77-51.62l1-.23C446.37,365.75,452.81,395.35,450.1,417.43Z"/><path class="cls-14" d="M320.69,491.37a3.18,3.18,0,1,1,3.17,3.18A3.17,3.17,0,0,1,320.69,491.37Z"/><path class="cls-6" d="M335,493.62a3.17,3.17,0,1,1,4.49,0A3.17,3.17,0,0,1,335,493.62Z"/></g></g></svg>