<svg xmlns="http://www.w3.org/2000/svg" viewBox="0 0 487.9 325.02"><defs><style>.cls-1,.cls-10,.cls-13,.cls-16,.cls-19,.cls-2,.cls-20,.cls-9{fill:none;}.cls-1{stroke:#d3d3dd;stroke-linecap:round;}.cls-1,.cls-14,.cls-16,.cls-19,.cls-2,.cls-3{stroke-miterlimit:26.94;}.cls-1,.cls-10,.cls-11,.cls-12,.cls-13,.cls-2,.cls-3,.cls-9{stroke-width:0.75px;}.cls-14,.cls-19,.cls-2,.cls-3{stroke:#035b9e;}.cls-14,.cls-15,.cls-18,.cls-3,.cls-5,.cls-6{fill:#035b9e;}.cls-15,.cls-17,.cls-18,.cls-4,.cls-5,.cls-6{isolation:isolate;font-family:Consolas;}.cls-4,.cls-5{font-size:8.68px;}.cls-17,.cls-4{fill:#fff;}.cls-6{font-size:5.78px;}.cls-7{fill:#d3d3dd;}.cls-8{fill:#231f20;}.cls-9{stroke:#005b9e;}.cls-10,.cls-11,.cls-9{stroke-miterlimit:10;}.cls-10,.cls-13,.cls-16,.cls-20{stroke:#b1b0b4;}.cls-11,.cls-12{fill:#005b9e;stroke:#fff;}.cls-12{stroke-miterlimit:10;}.cls-13,.cls-20{stroke-linejoin:bevel;}.cls-14,.cls-16,.cls-19,.cls-20{stroke-width:0.5px;}.cls-15,.cls-17{font-size:4.59px;}.cls-18{font-size:3.06px;}</style></defs><title>database</title><g id="Layer_2" data-name="Layer 2"><g id="Layer_1-2" data-name="Layer 1"><g id="Layer-1"><g id="Relationship"><path class="cls-1" d="M325.89,96.69h43.42"/><path class="cls-1" d="M328.12,94.08V99.3"/><path class="cls-1" d="M369.31,101.67l-4.19-4.91,4.19-4.91"/></g><g id="Product-table"><rect class="cls-2" x="369.31" y="63.78" width="101.02" height="75.8"/><rect class="cls-3" x="369.31" y="63.78" width="101.02" height="20.47"/><text class="cls-4" transform="translate(376.7 77.07)">Product</text><text class="cls-5" transform="translate(376.7 99.79)">ProductID</text><text class="cls-6" transform="translate(448.26 99.79)">int</text><text class="cls-5" transform="translate(376.7 114.25)">Name</text><text class="cls-6" transform="translate(424.41 114.25)">varchar(200)</text><text class="cls-5" transform="translate(376.7 128.71)">Surname</text><text class="cls-6" transform="translate(424.41 129.58)">varchar(200)</text><path class="cls-7" d="M430.72,95.67a3.61,3.61,0,1,0,0,2.41h2.62v2.4h2.4v-2.4H437V95.67Zm-3.4,2.41a1.21,1.21,0,1,1,1.2-1.21,1.21,1.21,0,0,1-1.2,1.21"/></g><g id="Order-table"><rect class="cls-2" x="224.52" y="48.1" width="101.02" height="75.8"/><rect class="cls-3" x="224.52" y="48.1" width="101.02" height="20.47"/><text class="cls-4" transform="translate(231.91 61.39)">Order</text><text class="cls-5" transform="translate(231.91 84.12)">OrderID</text><text class="cls-6" transform="translate(303.47 84.11)">int</text><text class="cls-5" transform="translate(231.91 98.58)">ProductID</text><text class="cls-6" transform="translate(303.47 98.57)">int</text><text class="cls-5" transform="translate(231.91 113.04)">Quantity</text><text class="cls-6" transform="translate(303.47 113.04)">int</text><path class="cls-7" d="M278.15,80.29a3.61,3.61,0,1,0,0,2.41h2.62v2.4h2.41V82.7h1.2V80.29Zm-3.4,2.41A1.21,1.21,0,1,1,276,81.49a1.21,1.21,0,0,1-1.21,1.21"/></g></g><path class="cls-8" d="M225.87,18.78h.69v4.81h2.31v.58h-3Z"/><path class="cls-8" d="M233,22.2a1.9,1.9,0,0,1-1.93,2.06,1.84,1.84,0,0,1-1.85-2,1.89,1.89,0,0,1,1.92-2.06A1.83,1.83,0,0,1,233,22.2Zm-3.07,0c0,.85.49,1.49,1.17,1.49s1.18-.63,1.18-1.5c0-.66-.33-1.49-1.16-1.49S229.94,21.51,229.94,22.24Z"/><path class="cls-8" d="M237.4,22.2a1.9,1.9,0,0,1-1.93,2.06,1.84,1.84,0,0,1-1.85-2,1.89,1.89,0,0,1,1.92-2.06A1.83,1.83,0,0,1,237.4,22.2Zm-3.07,0c0,.85.49,1.49,1.18,1.49s1.17-.63,1.17-1.5c0-.66-.33-1.49-1.16-1.49S234.33,21.51,234.33,22.24Z"/><path class="cls-8" d="M239,22.08h0c.1-.14.24-.31.35-.44l1.13-1.34h.85l-1.49,1.59,1.7,2.28h-.86l-1.33-1.86-.36.4v1.46h-.7V18.49h.7Z"/><path class="cls-8" d="M243.74,21.56c0-.49,0-.89,0-1.26h.63l0,.66h0a1.51,1.51,0,0,1,1.37-.75,1.75,1.75,0,0,1,1.64,2,1.83,1.83,0,0,1-1.76,2.08,1.36,1.36,0,0,1-1.19-.61h0v2.1h-.69Zm.69,1a1.27,1.27,0,0,0,0,.29,1.08,1.08,0,0,0,1.05.83c.75,0,1.18-.61,1.18-1.5s-.41-1.44-1.15-1.44a1.14,1.14,0,0,0-1.07.87,1.35,1.35,0,0,0,0,.29Z"/><path class="cls-8" d="M248.29,21.51c0-.46,0-.85,0-1.21h.61l0,.76h0a1.17,1.17,0,0,1,1.07-.85.6.6,0,0,1,.2,0v.66a.86.86,0,0,0-.24,0,1,1,0,0,0-.94.9,1.69,1.69,0,0,0,0,.33v2.06h-.7Z"/><path class="cls-8" d="M254.33,22.2a1.9,1.9,0,0,1-1.93,2.06,1.84,1.84,0,0,1-1.85-2,1.89,1.89,0,0,1,1.92-2.06A1.83,1.83,0,0,1,254.33,22.2Zm-3.07,0c0,.85.49,1.49,1.17,1.49s1.18-.63,1.18-1.5c0-.66-.33-1.49-1.16-1.49S251.26,21.51,251.26,22.24Z"/><path class="cls-8" d="M255.29,24.17V20.84h-.54V20.3h.54v-.18a1.84,1.84,0,0,1,.45-1.36,1.34,1.34,0,0,1,.94-.35,1.53,1.53,0,0,1,.6.11l-.09.54a1,1,0,0,0-.45-.09c-.6,0-.75.53-.75,1.12v.21h.93v.54H256v3.33Z"/><path class="cls-8" d="M257.84,22.36a1.25,1.25,0,0,0,1.33,1.35,2.57,2.57,0,0,0,1.07-.2l.12.5a3.17,3.17,0,0,1-1.29.24,1.79,1.79,0,0,1-1.9-1.95A1.88,1.88,0,0,1,259,20.21a1.64,1.64,0,0,1,1.6,1.83,2,2,0,0,1,0,.32Zm2.07-.5a1,1,0,0,0-1-1.14,1.17,1.17,0,0,0-1.08,1.14Z"/><path class="cls-8" d="M261.36,23.45a1.83,1.83,0,0,0,.93.28c.51,0,.75-.26.75-.58s-.2-.52-.72-.71c-.69-.25-1-.63-1-1.09a1.19,1.19,0,0,1,1.33-1.14,1.93,1.93,0,0,1,1,.24l-.18.51a1.55,1.55,0,0,0-.79-.22c-.42,0-.65.24-.65.53s.23.46.74.65c.67.26,1,.59,1,1.17s-.53,1.16-1.45,1.16a2.18,2.18,0,0,1-1.08-.26Z"/><path class="cls-8" d="M264.53,23.45a1.83,1.83,0,0,0,.93.28c.51,0,.75-.26.75-.58s-.2-.52-.72-.71c-.69-.25-1-.63-1-1.09a1.19,1.19,0,0,1,1.33-1.14,1.89,1.89,0,0,1,.95.24l-.17.51a1.55,1.55,0,0,0-.79-.22c-.42,0-.65.24-.65.53s.23.46.73.65c.68.26,1,.59,1,1.17s-.53,1.16-1.45,1.16a2.25,2.25,0,0,1-1.09-.26Z"/><path class="cls-8" d="M268.58,19.21a.44.44,0,0,1-.87,0,.43.43,0,0,1,.44-.44A.42.42,0,0,1,268.58,19.21Zm-.78,5V20.3h.7v3.87Z"/><path class="cls-8" d="M273.17,22.2a1.9,1.9,0,0,1-1.93,2.06,1.84,1.84,0,0,1-1.85-2,1.89,1.89,0,0,1,1.92-2.06A1.83,1.83,0,0,1,273.17,22.2Zm-3.07,0c0,.85.49,1.49,1.17,1.49s1.18-.63,1.18-1.5c0-.66-.33-1.49-1.16-1.49S270.1,21.51,270.1,22.24Z"/><path class="cls-8" d="M274.06,21.35c0-.4,0-.73,0-1.05h.62l0,.64h0a1.42,1.42,0,0,1,1.28-.73c.53,0,1.36.32,1.36,1.65v2.31h-.7V21.94c0-.62-.23-1.14-.9-1.14a1,1,0,0,0-.94.72,1,1,0,0,0-.05.32v2.33h-.7Z"/><path class="cls-8" d="M280.64,24.17l-.05-.49h0a1.42,1.42,0,0,1-1.18.58,1.09,1.09,0,0,1-1.18-1.11c0-.94.83-1.45,2.32-1.44v-.08a.8.8,0,0,0-.88-.9,1.92,1.92,0,0,0-1,.29l-.16-.46a2.44,2.44,0,0,1,1.28-.35c1.18,0,1.47.81,1.47,1.59v1.44a5.25,5.25,0,0,0,.06.93Zm-.1-2c-.77,0-1.64.12-1.64.88a.62.62,0,0,0,.66.67,1,1,0,0,0,.94-.65.85.85,0,0,0,0-.22Z"/><path class="cls-8" d="M282.36,18.49h.7v5.68h-.7Z"/><circle class="cls-9" cx="146.5" cy="266.13" r="33.34"/><polyline class="cls-9" points="170.04 266.13 146.5 266.13 146.5 242.59"/><circle class="cls-10" cx="205.86" cy="247.37" r="14.58"/><polyline class="cls-10" points="216.16 247.37 205.86 247.37 205.86 237.07"/><circle class="cls-10" cx="205.86" cy="284.89" r="14.58"/><polyline class="cls-10" points="216.16 284.89 205.86 284.89 205.86 274.59"/><line class="cls-10" x1="67.63" y1="226.12" x2="53.61" y2="226.12"/><path class="cls-10" d="M67.61,226.1a7.49,7.49,0,0,1,7.49,7.49h0v21.68a7.49,7.49,0,0,0,7.49,7.49h21.68"/><line class="cls-10" x1="101.25" y1="259.14" x2="101.25" y2="266.43"/><polyline class="cls-10" points="49 221.51 53.61 226.12 49 230.75"/><rect class="cls-10" x="0.38" y="214.37" width="31.95" height="4.46"/><rect class="cls-10" x="0.38" y="223.29" width="38.03" height="4.46"/><rect class="cls-10" x="0.38" y="232.21" width="31.95" height="4.46"/><rect class="cls-10" x="0.38" y="241.13" width="19.8" height="4.46"/><line class="cls-10" x1="328.18" y1="245.15" x2="328.18" y2="270.27"/><path class="cls-10" d="M328.18,245.15a8.68,8.68,0,0,1,8.68-8.69H362a8.68,8.68,0,0,0,8.68-8.68h0V202.64"/><line class="cls-10" x1="366.45" y1="206.17" x2="374.9" y2="206.17"/><polyline class="cls-10" points="322.82 266.74 328.18 261.39 333.53 266.74"/><line class="cls-10" x1="407.09" y1="307.65" x2="407.09" y2="282.53"/><polyline class="cls-10" points="412.44 286.05 407.09 291.41 401.74 286.05"/><path class="cls-10" d="M407.09,307.65a8.68,8.68,0,0,1-8.69,8.68H373.28a8.69,8.69,0,0,0-8.69,8.69h0"/><line class="cls-10" x1="386.4" y1="298" x2="470.05" y2="298"/><path class="cls-10" d="M386.4,298a8.68,8.68,0,0,1-8.68-8.69V264.19A8.69,8.69,0,0,0,369,255.5H343.9"/><line class="cls-10" x1="347.43" y1="259.73" x2="347.43" y2="251.28"/><polyline class="cls-10" points="466.53 303.35 461.18 298 466.53 292.65"/><path class="cls-10" d="M428,286.05V264.22a8.69,8.69,0,0,0-8.69-8.69H394.21"/><line class="cls-10" x1="397.73" y1="259.73" x2="397.73" y2="251.28"/><line class="cls-10" x1="301.41" y1="252.4" x2="276.28" y2="252.4"/><path class="cls-10" d="M301.41,252.4a8.69,8.69,0,0,1,8.68,8.69h0v25.12a8.69,8.69,0,0,0,8.69,8.69H343.9"/><line class="cls-10" x1="340.38" y1="290.67" x2="340.38" y2="299.13"/><polyline class="cls-10" points="279.8 247.05 285.16 252.4 279.8 257.76"/><rect class="cls-11" x="254.46" y="245.36" width="14.09" height="14.09"/><rect class="cls-12" x="363.63" y="180.14" width="14.09" height="14.09" transform="translate(-23.79 316.93) rotate(-45)"/><rect class="cls-10" x="397.61" y="201.16" width="37.04" height="5.17"/><rect class="cls-10" x="397.61" y="211.5" width="44.09" height="5.17"/><rect class="cls-10" x="397.61" y="221.85" width="37.04" height="5.17"/><rect class="cls-10" x="397.61" y="232.19" width="22.96" height="5.17"/><line class="cls-13" x1="284.75" y1="292.02" x2="291.93" y2="292.02"/><line class="cls-13" x1="284.75" y1="294.51" x2="291.93" y2="294.51"/><line class="cls-13" x1="284.75" y1="297" x2="291.93" y2="297"/><line class="cls-13" x1="297.08" y1="221" x2="305.73" y2="212.36"/><line class="cls-13" x1="297.08" y1="212.36" x2="305.73" y2="221"/><circle class="cls-11" cx="480.48" cy="297" r="7.04"/><path class="cls-8" d="M33.29,200.32a2.49,2.49,0,0,0,1.25.35c.71,0,1.13-.38,1.13-.92s-.29-.79-1-1.07-1.42-.77-1.42-1.53A1.54,1.54,0,0,1,35,195.69a2.53,2.53,0,0,1,1.19.26l-.19.57a2.12,2.12,0,0,0-1-.26c-.74,0-1,.44-1,.81s.33.75,1.07,1c.91.35,1.38.79,1.38,1.58s-.62,1.55-1.89,1.55a2.76,2.76,0,0,1-1.37-.34Z"/><path class="cls-8" d="M39.47,201.16l0-.48h0a1.44,1.44,0,0,1-1.18.57A1.1,1.1,0,0,1,37,200.14c0-.93.83-1.45,2.32-1.44v-.08a.79.79,0,0,0-.87-.89,2,2,0,0,0-1,.28l-.16-.46a2.37,2.37,0,0,1,1.27-.34c1.18,0,1.47.8,1.47,1.58v1.45a6.36,6.36,0,0,0,.06.92Zm-.1-2c-.77,0-1.64.12-1.64.87a.62.62,0,0,0,.67.67,1,1,0,0,0,.93-.65.85.85,0,0,0,0-.22Z"/><path class="cls-8" d="M41.4,197.29l.76,2.18c.12.35.23.67.31,1h0c.09-.32.2-.64.33-1l.75-2.18h.74l-1.52,3.87h-.67l-1.48-3.87Z"/><path class="cls-8" d="M45.28,199.36a1.24,1.24,0,0,0,1.33,1.34,2.57,2.57,0,0,0,1.07-.2l.12.5a3,3,0,0,1-1.29.24,1.79,1.79,0,0,1-1.9-2,1.88,1.88,0,0,1,1.82-2.08A1.64,1.64,0,0,1,48,199a2.19,2.19,0,0,1,0,.33Zm2.07-.51a1,1,0,0,0-1-1.14,1.17,1.17,0,0,0-1.08,1.14Z"/><path class="cls-8" d="M51.44,196.18v1.11h1v.54h-1v2.09c0,.48.14.75.53.75a1.81,1.81,0,0,0,.41,0l0,.53a1.89,1.89,0,0,1-.62.09A1,1,0,0,1,51,201a1.44,1.44,0,0,1-.27-1v-2.11h-.6v-.54h.6v-.92Z"/><path class="cls-8" d="M54,196.21a.44.44,0,0,1-.87,0,.43.43,0,0,1,.44-.44A.42.42,0,0,1,54,196.21Zm-.79,4.95v-3.87H54v3.87Z"/><path class="cls-8" d="M55.12,198.34c0-.4,0-.73,0-1.05h.62l0,.63h0a1.34,1.34,0,0,1,1.22-.71,1.15,1.15,0,0,1,1.1.77h0a1.64,1.64,0,0,1,.43-.5,1.32,1.32,0,0,1,.86-.27c.51,0,1.27.33,1.27,1.68v2.27H60V199c0-.74-.27-1.19-.84-1.19a.91.91,0,0,0-.83.64,1.29,1.29,0,0,0-.05.35v2.39h-.69v-2.31c0-.62-.27-1.07-.81-1.07a1,1,0,0,0-.87.71.93.93,0,0,0-.06.34v2.33h-.68Z"/><path class="cls-8" d="M62.18,199.36a1.24,1.24,0,0,0,1.33,1.34,2.6,2.6,0,0,0,1.07-.2l.12.5a3,3,0,0,1-1.29.24,1.79,1.79,0,0,1-1.9-2,1.88,1.88,0,0,1,1.81-2.08,1.63,1.63,0,0,1,1.6,1.82,2.5,2.5,0,0,1,0,.33Zm2.06-.51a1,1,0,0,0-1-1.14,1.17,1.17,0,0,0-1.08,1.14Z"/><path class="cls-8" d="M303.71,181a3.55,3.55,0,0,1-1.42.25,2.52,2.52,0,0,1-2.66-2.73,2.68,2.68,0,0,1,2.81-2.83,2.94,2.94,0,0,1,1.28.24l-.17.57a2.45,2.45,0,0,0-1.08-.22,2,2,0,0,0-2.11,2.22,2,2,0,0,0,2.08,2.17,2.7,2.7,0,0,0,1.13-.23Z"/><path class="cls-8" d="M308,179.16a1.9,1.9,0,0,1-1.93,2.06,1.84,1.84,0,0,1-1.85-2,1.89,1.89,0,0,1,1.92-2.06A1.83,1.83,0,0,1,308,179.16Zm-3.07,0c0,.85.49,1.49,1.17,1.49s1.18-.63,1.18-1.5c0-.66-.33-1.49-1.16-1.49S304.91,178.47,304.91,179.2Z"/><path class="cls-8" d="M308.87,175.45h.7v5.68h-.7Z"/><path class="cls-8" d="M310.76,175.45h.7v5.68h-.7Z"/><path class="cls-8" d="M314.79,181.13l-.06-.49h0a1.44,1.44,0,0,1-1.19.58,1.1,1.1,0,0,1-1.18-1.11c0-.94.83-1.45,2.33-1.44v-.08a.8.8,0,0,0-.88-.9,1.9,1.9,0,0,0-1,.29l-.16-.46a2.37,2.37,0,0,1,1.27-.35c1.19,0,1.47.81,1.47,1.59v1.44a5.18,5.18,0,0,0,.07.93Zm-.11-2c-.76,0-1.64.12-1.64.87a.63.63,0,0,0,.67.67,1,1,0,0,0,.93-.65.57.57,0,0,0,0-.22Z"/><path class="cls-8" d="M316.47,181.13c0-.26,0-.65,0-1v-4.68h.7v2.43h0a1.45,1.45,0,0,1,1.32-.71c1,0,1.64.8,1.63,2a1.84,1.84,0,0,1-1.73,2.07,1.39,1.39,0,0,1-1.3-.73h0l0,.64Zm.73-1.55a1.07,1.07,0,0,0,1.08,1.08c.74,0,1.18-.6,1.18-1.49s-.4-1.44-1.15-1.44a1.18,1.18,0,0,0-1.11,1.15Z"/><path class="cls-8" d="M324.55,179.16a1.89,1.89,0,0,1-1.92,2.06,1.84,1.84,0,0,1-1.86-2,1.89,1.89,0,0,1,1.92-2.06A1.83,1.83,0,0,1,324.55,179.16Zm-3.07,0c0,.85.49,1.49,1.18,1.49s1.18-.63,1.18-1.5c0-.66-.33-1.49-1.16-1.49S321.48,178.47,321.48,179.2Z"/><path class="cls-8" d="M325.44,178.47c0-.46,0-.85,0-1.21H326l0,.76h0a1.17,1.17,0,0,1,1.08-.85.64.64,0,0,1,.2,0v.66a.93.93,0,0,0-.24,0,1,1,0,0,0-.95.9,3.11,3.11,0,0,0,0,.33v2.06h-.7Z"/><path class="cls-8" d="M330.16,181.13l-.05-.49h0a1.42,1.42,0,0,1-1.18.58,1.1,1.1,0,0,1-1.18-1.11c0-.94.83-1.45,2.32-1.44v-.08a.8.8,0,0,0-.88-.9,1.86,1.86,0,0,0-1,.29l-.16-.46a2.37,2.37,0,0,1,1.27-.35c1.18,0,1.47.81,1.47,1.59v1.44a5.25,5.25,0,0,0,.06.93Zm-.1-2c-.77,0-1.64.12-1.64.87a.62.62,0,0,0,.66.67,1,1,0,0,0,.94-.65.85.85,0,0,0,0-.22Z"/><path class="cls-8" d="M332.69,176.15v1.11h1v.54h-1v2.08c0,.48.14.75.53.75a1.93,1.93,0,0,0,.41,0l0,.53a1.89,1.89,0,0,1-.62.09,1,1,0,0,1-.76-.29,1.45,1.45,0,0,1-.28-1V177.8h-.6v-.54h.6v-.93Z"/><path class="cls-8" d="M334.84,179.32a1.23,1.23,0,0,0,1.32,1.35,2.53,2.53,0,0,0,1.07-.2l.12.5a3.12,3.12,0,0,1-1.28.24,1.8,1.8,0,0,1-1.91-2,1.88,1.88,0,0,1,1.82-2.09,1.64,1.64,0,0,1,1.6,1.83,2,2,0,0,1,0,.32Zm2.06-.5a1,1,0,0,0-1-1.14,1.17,1.17,0,0,0-1.08,1.14Z"/><rect class="cls-14" x="119.07" y="88.7" width="53.49" height="10.84"/><text class="cls-15" transform="translate(44.91 99.56)">Product</text><text class="cls-15" transform="translate(44.91 105.07)">---</text><text class="cls-15" transform="translate(44.91 110.59)">ProductID PK int</text><text class="cls-15" transform="translate(44.91 116.1)">Name</text><text class="cls-15" transform="translate(44.91 121.61)">Price money</text><rect class="cls-16" x="26.61" y="67.55" width="159.76" height="77.84"/><path class="cls-16" d="M105.27,67.55v36.62l5.14,5.14L104.77,115v30.43"/><text class="cls-17" transform="translate(122.99 95.73)">Product</text><text class="cls-15" transform="translate(122.99 107.76)">ProductID</text><text class="cls-18" transform="translate(160.87 107.76)">int</text><text class="cls-15" transform="translate(122.99 115.42)">Name</text><text class="cls-15" transform="translate(122.99 123.07)">Price</text><text class="cls-18" transform="translate(158.35 123.07)">money</text><path class="cls-7" d="M153.72,105.58a1.91,1.91,0,1,0,0,1.28h1.38v1.27h1.28v-1.27H157v-1.28Zm-1.8,1.28a.64.64,0,1,1,.64-.64.64.64,0,0,1-.64.64"/><rect class="cls-19" x="119.07" y="88.7" width="53.49" height="40.13"/><path class="cls-20" d="M26.61,81.7h78.16"/><path class="cls-20" d="M41.8,74.49H48"/><path class="cls-20" d="M51,74.49h6.22"/><path class="cls-20" d="M60.27,74.49h6.22"/><path class="cls-20" d="M32.74,75.37h-3l6-5.41Z"/><path class="cls-20" d="M30.58,79.25l3-5.41h3Z"/><path class="cls-8" d="M15.9,55.45l-1.37-5.39h.73l.64,2.73c.16.67.31,1.34.4,1.86h0c.09-.53.26-1.17.44-1.87l.72-2.72h.73l.65,2.74c.15.64.3,1.28.38,1.85h0c.12-.6.27-1.2.44-1.87l.71-2.72h.71l-1.53,5.39h-.73l-.68-2.8c-.16-.69-.28-1.22-.35-1.76h0c-.1.53-.22,1.06-.42,1.76l-.77,2.8Z"/><path class="cls-8" d="M25,53.49a1.89,1.89,0,0,1-1.93,2,1.84,1.84,0,0,1-1.85-2,1.88,1.88,0,0,1,1.92-2A1.83,1.83,0,0,1,25,53.49Zm-3.07,0c0,.84.49,1.48,1.17,1.48s1.18-.63,1.18-1.5c0-.66-.33-1.49-1.16-1.49S21.93,52.79,21.93,53.53Z"/><path class="cls-8" d="M25.89,52.79c0-.45,0-.85,0-1.21h.61l0,.76h0a1.15,1.15,0,0,1,1.07-.84.62.62,0,0,1,.2,0v.66l-.24,0a1,1,0,0,0-.94.9,1.66,1.66,0,0,0,0,.33v2.06h-.69Z"/><path class="cls-8" d="M29.23,53.36h0c.09-.14.23-.3.34-.44l1.14-1.34h.84l-1.49,1.6,1.7,2.27h-.85L29.59,53.6l-.36.4v1.45h-.69V49.78h.69Z"/><path class="cls-8" d="M34.06,55.45V52.12h-.55v-.54h.55v-.16a1.75,1.75,0,0,1,.54-1.34,1.81,1.81,0,0,1,1.24-.39,2.49,2.49,0,0,1,1.16.25v5.51h-.7V50.34a1.14,1.14,0,0,0-.57-.11c-.74,0-1,.54-1,1.16v.19h.91v.54h-.91v3.33Z"/><path class="cls-8" d="M41.41,54.4c0,.4,0,.75,0,1.05h-.63l0-.63h0a1.47,1.47,0,0,1-1.28.72c-.61,0-1.34-.33-1.34-1.69V51.58h.71v2.15c0,.73.22,1.23.86,1.23a1,1,0,0,0,.93-.64A1,1,0,0,0,40.7,54V51.58h.71Z"/><path class="cls-8" d="M43,53.65A1.23,1.23,0,0,0,44.3,55a2.6,2.6,0,0,0,1.07-.2l.12.5a3,3,0,0,1-1.29.24,1.79,1.79,0,0,1-1.9-2,1.87,1.87,0,0,1,1.81-2.08,1.64,1.64,0,0,1,1.6,1.82c0,.14,0,.25,0,.33ZM45,53.14a1,1,0,0,0-1-1.14A1.15,1.15,0,0,0,43,53.14Z"/><path class="cls-8" d="M46.58,52.63c0-.4,0-.73,0-1.05h.63l0,.64h0a1.43,1.43,0,0,1,1.28-.72c.54,0,1.37.32,1.37,1.64v2.31h-.71V53.22c0-.62-.23-1.14-.89-1.14a1,1,0,0,0-.94.72.85.85,0,0,0-.05.33v2.32h-.71Z"/><path class="cls-8" d="M51.84,50.47v1.11h1v.54h-1v2.09c0,.48.14.75.53.75a1.63,1.63,0,0,0,.4-.05l0,.53a1.91,1.91,0,0,1-.63.09,1,1,0,0,1-.76-.29,1.44,1.44,0,0,1-.27-1V52.12h-.6v-.54h.6v-.92Z"/><path class="cls-8" d="M53.64,49.78h.7v5.67h-.7Z"/><path class="cls-8" d="M55.78,51.58l.85,2.29c.09.26.19.56.25.79h0c.07-.23.15-.53.24-.81l.77-2.27h.74l-1,2.76a5.77,5.77,0,0,1-1.33,2.42,1.85,1.85,0,0,1-.86.46l-.18-.59a2,2,0,0,0,.62-.34,2.26,2.26,0,0,0,.59-.79.58.58,0,0,0,.06-.17.71.71,0,0,0,0-.18L55,51.58Z"/><path class="cls-8" d="M41.75,1.3A26.08,26.08,0,0,1,45.64,1c2.62,0,4.49.61,5.73,1.76a6.52,6.52,0,0,1,2,5.08,7.49,7.49,0,0,1-2,5.5c-1.33,1.33-3.51,2-6.26,2a28.44,28.44,0,0,1-3.32-.17Zm1.83,12.51a10.78,10.78,0,0,0,1.85.11c3.9,0,6-2.18,6-6,0-3.34-1.87-5.46-5.73-5.46a10,10,0,0,0-2.14.19Z"/><path class="cls-8" d="M57.73,10.81l-1.47,4.45H54.37L59.18,1.11h2.21l4.83,14.15h-2l-1.51-4.45Zm4.64-1.43L61,5.31c-.32-.92-.53-1.76-.74-2.58h0c-.21.84-.44,1.7-.71,2.56L58.11,9.38Z"/><path class="cls-8" d="M69.37,2.67H65.06V1.11H75.54V2.67H71.21V15.26H69.37Z"/><path class="cls-8" d="M77.83,10.81l-1.47,4.45H74.47L79.28,1.11h2.2l4.83,14.15h-2l-1.51-4.45Zm4.64-1.43L81.08,5.31c-.31-.92-.52-1.76-.73-2.58h0c-.21.84-.44,1.7-.72,2.56L78.21,9.38Z"/><path class="cls-8" d="M88.39,1.3A17.62,17.62,0,0,1,91.73,1a5.84,5.84,0,0,1,3.89,1,3,3,0,0,1,1.17,2.49A3.35,3.35,0,0,1,94.4,7.64v0a3.66,3.66,0,0,1,2.92,3.55,3.85,3.85,0,0,1-1.2,2.84c-1,.9-2.58,1.32-4.89,1.32a20.39,20.39,0,0,1-2.84-.17Zm1.83,5.8h1.66c1.93,0,3.06-1,3.06-2.38,0-1.66-1.26-2.31-3.1-2.31a8,8,0,0,0-1.62.13Zm0,6.78a10.23,10.23,0,0,0,1.53.08c1.89,0,3.63-.69,3.63-2.75s-1.65-2.73-3.65-2.73H90.22Z"/><path class="cls-8" d="M102.06,10.81l-1.47,4.45H98.7l4.81-14.15h2.21l4.83,14.15h-2l-1.51-4.45Zm4.64-1.43-1.38-4.07c-.32-.92-.53-1.76-.74-2.58h0c-.21.84-.44,1.7-.71,2.56l-1.39,4.09Z"/><path class="cls-8" d="M112.38,13a6.46,6.46,0,0,0,3.27.92c1.87,0,3-1,3-2.41s-.75-2.08-2.67-2.82c-2.31-.81-3.73-2-3.73-4,0-2.2,1.82-3.84,4.57-3.84a6.52,6.52,0,0,1,3.13.69l-.5,1.49a5.67,5.67,0,0,0-2.69-.67c-1.93,0-2.67,1.16-2.67,2.12,0,1.33.87,2,2.82,2.73,2.39.93,3.61,2.08,3.61,4.16s-1.62,4.07-5,4.07a7.38,7.38,0,0,1-3.61-.9Z"/><path class="cls-8" d="M130.31,8.63h-5.5v5.1h6.13v1.53h-8V1.11h7.64V2.65h-5.81V7.12h5.5Z"/><path class="cls-8" d="M136.82,4.84a1.55,1.55,0,0,0,1.66,1.68,3.18,3.18,0,0,0,1.34-.25l.15.63a3.92,3.92,0,0,1-1.61.3A2.25,2.25,0,0,1,136,4.76a2.35,2.35,0,0,1,2.27-2.61,2.05,2.05,0,0,1,2,2.28,3.32,3.32,0,0,1,0,.41Zm2.58-.63a1.25,1.25,0,0,0-1.22-1.43,1.46,1.46,0,0,0-1.35,1.43Z"/><path class="cls-8" d="M141.72,2.26l.69,1c.18.27.33.52.49.79h0c.16-.29.32-.54.48-.8l.68-1H145L143.39,4.6l1.7,2.5h-1L143.38,6c-.19-.28-.35-.55-.52-.84h0c-.16.29-.33.55-.51.84l-.7,1.09h-1l1.72-2.47-1.64-2.37Z"/><path class="cls-8" d="M148.62,7.1l-.07-.61h0a1.8,1.8,0,0,1-1.48.72,1.38,1.38,0,0,1-1.48-1.39c0-1.17,1-1.81,2.91-1.8v-.1a1,1,0,0,0-1.1-1.12,2.41,2.41,0,0,0-1.26.36l-.2-.58a3,3,0,0,1,1.59-.43c1.48,0,1.84,1,1.84,2V5.94a6.81,6.81,0,0,0,.08,1.16Zm-.13-2.47c-1,0-2.05.15-2.05,1.09a.78.78,0,0,0,.83.84,1.2,1.2,0,0,0,1.17-.81.92.92,0,0,0,.05-.28Z"/><path class="cls-8" d="M150.76,3.57c0-.5,0-.91,0-1.31h.77l0,.78h0a1.67,1.67,0,0,1,1.52-.89,1.43,1.43,0,0,1,1.37,1h0a2.11,2.11,0,0,1,.53-.63,1.7,1.7,0,0,1,1.08-.34c.63,0,1.58.42,1.58,2.1V7.1h-.86V4.36c0-.93-.34-1.49-1.05-1.49a1.13,1.13,0,0,0-1,.8,1.45,1.45,0,0,0-.07.44v3h-.86V4.2c0-.77-.34-1.33-1-1.33a1.2,1.2,0,0,0-1.09.88,1.21,1.21,0,0,0-.07.43V7.1h-.86Z"/><path class="cls-8" d="M159.1,3.84c0-.62,0-1.12,0-1.58h.79l0,.83h0a1.9,1.9,0,0,1,1.72-.94,2.19,2.19,0,0,1,2,2.46c0,1.74-1,2.6-2.19,2.6A1.7,1.7,0,0,1,160,6.45h0V9.08h-.87ZM160,5.13a2,2,0,0,0,0,.36,1.36,1.36,0,0,0,1.32,1c.93,0,1.47-.76,1.47-1.87s-.51-1.8-1.44-1.8A1.4,1.4,0,0,0,160,3.94a1.43,1.43,0,0,0-.06.36Z"/><path class="cls-8" d="M164.79,0h.88V7.1h-.88Z"/><path class="cls-8" d="M167.64,4.84a1.55,1.55,0,0,0,1.66,1.68,3.18,3.18,0,0,0,1.34-.25l.15.63a3.92,3.92,0,0,1-1.61.3,2.25,2.25,0,0,1-2.38-2.44,2.35,2.35,0,0,1,2.27-2.61,2.05,2.05,0,0,1,2,2.28,3.32,3.32,0,0,1,0,.41Zm2.58-.63A1.25,1.25,0,0,0,169,2.78a1.46,1.46,0,0,0-1.35,1.43Z"/></g></g></svg>