<svg xmlns="http://www.w3.org/2000/svg" viewBox="0 0 268.56 128.95"><title>dca</title><g id="Layer_2" data-name="Layer 2"><g id="OBJECTS"><path d="M25.17,14.78c0,8-6,14.21-13.8,14.21H0V.57H11.37C19.2.57,25.17,6.74,25.17,14.78Zm-6.25,0c0-4.87-3.09-8-7.55-8H6.5V22.74h4.87C15.83,22.74,18.92,19.65,18.92,14.78Z"/><path d="M35.32.57V29h-6.5V.57Z"/><path d="M68.33,15.59c0,8.69-6,14-14,14C45.39,29.56,39,23,39,14.82A14.74,14.74,0,0,1,53.87,0,14.55,14.55,0,0,1,66.3,6.5L60.78,9.66a8.16,8.16,0,0,0-7-3.33,8.17,8.17,0,0,0-8.36,8.53c0,4.83,3.41,8.36,8.93,8.36,3.78,0,6.25-1.66,7.27-4.38H54.08V13.16H68.33Z"/><path d="M78.48.57V29H72V.57Z"/><path d="M102.43,6.82H95.12V29H88.63V6.82H81.32V.57h21.11Z"/><path d="M119.89,24.52H109.33L107.91,29H100.8L110.47.57h8.28L128.41,29h-7.1Zm-2-6.09L114.61,8l-3.33,10.43Z"/><path d="M147.49,22.74V29H130.85V.57h6.49V22.74Z"/><path d="M88.14,64.32a14.41,14.41,0,0,1,14.78-14.78,14.19,14.19,0,0,1,12.18,6.58l-5.61,3.25a7.33,7.33,0,0,0-6.57-3.49c-5,0-8.29,3.37-8.29,8.44s3.25,8.45,8.29,8.45a7.27,7.27,0,0,0,6.57-3.5l5.61,3.25a14.09,14.09,0,0,1-12.18,6.58A14.4,14.4,0,0,1,88.14,64.32Z"/><path d="M127.72,69.19h-3.08v9.34h-6.5V50.11h11.37a9.71,9.71,0,0,1,9.74,9.74A9.38,9.38,0,0,1,134,68.1l6,10.43h-7Zm-3.08-5.68h4.87a3.68,3.68,0,0,0,0-7.31h-4.87Z"/><path d="M161,72.28v6.25H143.11V50.11h17.66v6.25H149.61v4.71h10.15v6.17H149.61v5Z"/><path d="M181.68,74.06H171.12l-1.42,4.47h-7.11l9.67-28.42h8.28l9.66,28.42h-7.1Zm-2-6.08L176.4,57.54,173.07,68Z"/><path d="M209.69,56.36h-7.31V78.53h-6.49V56.36h-7.31V50.11h21.11Z"/><path d="M219,50.11V78.53h-6.5V50.11Z"/><path d="M221.46,50.11h7.11L234.86,71l6.29-20.91h7.11L239,78.53h-8.28Z"/><path d="M268.56,72.28v6.25H250.69V50.11h17.66v6.25H257.19v4.71h10.15v6.17H257.19v5Z"/><path d="M65.22,123.91H54.66l-1.42,4.47h-7.1L55.8,100h8.28l9.67,28.42H66.64Zm-1.95-6.09-3.33-10.43-3.33,10.43Z"/><path d="M103.3,115c0,8.69-6,14-14,14C80.36,129,74,122.37,74,114.21a14.74,14.74,0,0,1,14.9-14.82,14.54,14.54,0,0,1,12.42,6.49l-5.52,3.17a8.54,8.54,0,0,0-15.31,5.2c0,4.83,3.41,8.36,8.94,8.36,3.77,0,6.25-1.66,7.26-4.38H89.05v-5.69H103.3Z"/><path d="M124.82,122.12v6.26H107V100h17.67v6.25H113.45v4.71H123.6v6.17H113.45v5Z"/><path d="M150.8,100v28.42h-4.87L135,113v15.43h-6.5V100h4.87l11,15.42V100Z"/><path d="M154.45,114.17a14.41,14.41,0,0,1,14.78-14.78A14.16,14.16,0,0,1,181.41,106l-5.6,3.24a7.35,7.35,0,0,0-6.58-3.49c-5,0-8.28,3.37-8.28,8.45s3.25,8.44,8.28,8.44a7.3,7.3,0,0,0,6.58-3.49l5.6,3.25A14.06,14.06,0,0,1,169.23,129,14.42,14.42,0,0,1,154.45,114.17Z"/><path d="M197.45,117.45v10.93H191V117.45L181.41,100h7.39l5.4,11,5.4-11H207Z"/></g></g></svg>