<svg xmlns="http://www.w3.org/2000/svg" viewBox="0 0 179.66 320.18"><defs><style>.cls-1{isolation:isolate;}.cls-2{fill:none;stroke:#65cadb;}.cls-2,.cls-6{stroke-miterlimit:10;}.cls-3{fill:#6dc288;}.cls-3,.cls-4{mix-blend-mode:multiply;}.cls-4{fill:#f2799f;}.cls-5{fill:#ffc754;mix-blend-mode:lighten;}.cls-6{fill:#ffde17;stroke:#ffde17;stroke-width:0.25px;}.cls-7{fill:#6bcad0;opacity:0.71;}</style></defs><title>dthink_1</title><g class="cls-1"><g id="Layer_2" data-name="Layer 2"><g id="Layer_1-2" data-name="Layer 1"><line class="cls-2" x1="90.39" y1="69.72" x2="90.39" y2="141.02"/><circle class="cls-3" cx="90.95" cy="34.86" r="34.86" transform="translate(1.99 74.52) rotate(-45)"/><circle class="cls-4" cx="88.32" cy="34.86" r="22.4" transform="translate(1.22 72.66) rotate(-45)"/><path class="cls-5" d="M88.32,62.52V7.2a27.66,27.66,0,1,1,0,55.32Z"/><path class="cls-6" d="M41.6,7.2V62.52a27.66,27.66,0,0,1,0-55.32Z"/><path class="cls-6" d="M138.06,62.52V7.2a27.66,27.66,0,0,1,0,55.32Z"/><circle class="cls-6" cx="89.83" cy="230.35" r="76.87" transform="translate(-50.52 26.8) rotate(-13.28)"/><circle class="cls-2" cx="89.83" cy="230.35" r="89.33" transform="translate(-136.57 130.99) rotate(-45)"/><circle class="cls-7" cx="89.83" cy="158.98" r="40.74" transform="translate(-34.12 24.89) rotate(-13.28)"/></g></g></g></svg>