<svg xmlns="http://www.w3.org/2000/svg" viewBox="0 0 46.9 46.9"><defs><style>.cls-1{fill:none;stroke:#fff200;stroke-miterlimit:10;stroke-width:0.43px;}.cls-2{fill:#fff200;}</style></defs><title>instagramyellow</title><g id="Layer_2" data-name="Layer 2"><g id="OBJECTS"><path class="cls-1" d="M23.45,46.68h0A23.23,23.23,0,0,1,.22,23.45h0A23.23,23.23,0,0,1,23.45.22h0A23.23,23.23,0,0,1,46.68,23.45h0A23.23,23.23,0,0,1,23.45,46.68Z"/><path class="cls-2" d="M23.45,14.19c3,0,3.37,0,4.56.06a6.4,6.4,0,0,1,2.1.39,3.54,3.54,0,0,1,1.3.85,3.43,3.43,0,0,1,.84,1.3,6,6,0,0,1,.39,2.09c.06,1.19.07,1.55.07,4.57s0,3.37-.07,4.56a6.14,6.14,0,0,1-.39,2.1,3.68,3.68,0,0,1-2.14,2.14,6.14,6.14,0,0,1-2.1.39c-1.19.06-1.55.07-4.56.07s-3.38,0-4.57-.07a6,6,0,0,1-2.09-.39,3.43,3.43,0,0,1-1.3-.84,3.54,3.54,0,0,1-.85-1.3,6.4,6.4,0,0,1-.39-2.1c-.05-1.19-.06-1.55-.06-4.56s0-3.38.06-4.57a6.26,6.26,0,0,1,.39-2.09,3.79,3.79,0,0,1,2.15-2.15,6.26,6.26,0,0,1,2.09-.39c1.19-.05,1.55-.06,4.57-.06m0-2c-3.07,0-3.45,0-4.66.07a8.4,8.4,0,0,0-2.74.53,5.75,5.75,0,0,0-3.3,3.3,8.4,8.4,0,0,0-.53,2.74c-.05,1.21-.07,1.59-.07,4.66s0,3.45.07,4.65a8.41,8.41,0,0,0,.53,2.75,5.43,5.43,0,0,0,1.3,2,5.69,5.69,0,0,0,2,1.3,8.17,8.17,0,0,0,2.74.52c1.21.06,1.59.07,4.66.07s3.45,0,4.65-.07a8.18,8.18,0,0,0,2.75-.52,5.75,5.75,0,0,0,3.3-3.3,8.18,8.18,0,0,0,.52-2.75c.06-1.2.07-1.58.07-4.65s0-3.45-.07-4.66a8.17,8.17,0,0,0-.52-2.74,5.69,5.69,0,0,0-1.3-2,5.43,5.43,0,0,0-2-1.3,8.41,8.41,0,0,0-2.75-.53c-1.2-.05-1.58-.07-4.65-.07"/><path class="cls-2" d="M23.45,17.65a5.8,5.8,0,1,0,5.8,5.8,5.79,5.79,0,0,0-5.8-5.8m0,9.56a3.77,3.77,0,1,1,3.76-3.76,3.76,3.76,0,0,1-3.76,3.76"/><path class="cls-2" d="M30.83,17.42a1.36,1.36,0,0,1-2.71,0,1.36,1.36,0,1,1,2.71,0"/></g></g></svg>