<svg xmlns="http://www.w3.org/2000/svg" viewBox="0 0 166.42 12.23"><defs><style>.cls-1{fill:none;stroke:#231f20;stroke-miterlimit:10;stroke-width:0.25px;}.cls-2{fill:#231f20;}</style></defs><title>into</title><g id="Layer_2" data-name="Layer 2"><g id="Layer_1-2" data-name="Layer 1"><line class="cls-1" y1="6.13" x2="166.42" y2="6.13"/><path class="cls-2" d="M2.21,9.37a.44.44,0,0,1-.33-.13.45.45,0,0,1-.13-.34V.47A.45.45,0,0,1,1.88.13.44.44,0,0,1,2.21,0a.45.45,0,0,1,.47.47V8.9a.45.45,0,0,1-.47.47Z"/><path class="cls-2" d="M5.43,9.37a.47.47,0,0,1-.34-.12A.44.44,0,0,1,5,8.92V3.28a.46.46,0,0,1,.13-.35.47.47,0,0,1,.34-.12.45.45,0,0,1,.33.12.5.5,0,0,1,.13.35V8.92a.49.49,0,0,1-.13.33A.45.45,0,0,1,5.43,9.37Zm5.16,0a.47.47,0,0,1-.34-.13.48.48,0,0,1-.13-.32V5.79a2.37,2.37,0,0,0-.28-1.22,1.78,1.78,0,0,0-.77-.72,2.6,2.6,0,0,0-2.16,0,2,2,0,0,0-.75.62,1.59,1.59,0,0,0-.27.9H5.23A2.6,2.6,0,0,1,5.63,4a2.8,2.8,0,0,1,1-.93,2.88,2.88,0,0,1,1.41-.34,3.13,3.13,0,0,1,1.52.35,2.61,2.61,0,0,1,1.07,1,3.29,3.29,0,0,1,.39,1.66V8.92a.45.45,0,0,1-.14.32A.41.41,0,0,1,10.59,9.37Z"/><path class="cls-2" d="M12.67,3.85a.44.44,0,0,1-.3-.11.38.38,0,0,1-.12-.28.41.41,0,0,1,.12-.3.44.44,0,0,1,.3-.11h3.06a.44.44,0,0,1,.3.11.41.41,0,0,1,.12.3.38.38,0,0,1-.12.28.44.44,0,0,1-.3.11Zm3,5.52a2.16,2.16,0,0,1-1.14-.3,2.22,2.22,0,0,1-.79-.82,2.46,2.46,0,0,1-.28-1.19V1.19a.49.49,0,0,1,.12-.34A.44.44,0,0,1,13.9.72a.45.45,0,0,1,.47.47V7.06a1.43,1.43,0,0,0,.36,1,1.21,1.21,0,0,0,.93.39H16a.39.39,0,0,1,.31.13.49.49,0,0,1,.12.34.45.45,0,0,1-.14.33.56.56,0,0,1-.36.12Z"/><path class="cls-2" d="M20.9,9.43A3.41,3.41,0,0,1,19.18,9,3.07,3.07,0,0,1,18,7.81a3.35,3.35,0,0,1-.44-1.71A3.4,3.4,0,0,1,18,4.37a3.07,3.07,0,0,1,1.18-1.19,3.41,3.41,0,0,1,1.72-.43,3.34,3.34,0,0,1,1.71.43,3.14,3.14,0,0,1,1.18,1.19,3.5,3.5,0,0,1,.45,1.73,3.35,3.35,0,0,1-.44,1.71A3.23,3.23,0,0,1,22.61,9,3.34,3.34,0,0,1,20.9,9.43Zm0-.84a2.5,2.5,0,0,0,1.25-.32A2.37,2.37,0,0,0,23,7.38a2.58,2.58,0,0,0,.31-1.28A2.62,2.62,0,0,0,23,4.81a2.4,2.4,0,0,0-.86-.9,2.5,2.5,0,0,0-1.25-.32,2.47,2.47,0,0,0-1.25.32,2.35,2.35,0,0,0-.87.9,2.62,2.62,0,0,0-.32,1.29,2.59,2.59,0,0,0,.32,1.28,2.32,2.32,0,0,0,.87.89A2.47,2.47,0,0,0,20.9,8.59Z"/><path class="cls-2" d="M29.13,3.85a.44.44,0,0,1-.3-.11.38.38,0,0,1-.12-.28.41.41,0,0,1,.12-.3.44.44,0,0,1,.3-.11h3.06a.44.44,0,0,1,.3.11.41.41,0,0,1,.12.3.38.38,0,0,1-.12.28.44.44,0,0,1-.3.11Zm3,5.52A2.18,2.18,0,0,1,31,9.07a2.12,2.12,0,0,1-.78-.82,2.47,2.47,0,0,1-.29-1.19V1.19A.45.45,0,0,1,30,.85a.42.42,0,0,1,.33-.13.44.44,0,0,1,.33.13.45.45,0,0,1,.13.34V7.06a1.47,1.47,0,0,0,.36,1,1.21,1.21,0,0,0,.93.39h.32a.39.39,0,0,1,.31.13.49.49,0,0,1,.12.34.42.42,0,0,1-.14.33.56.56,0,0,1-.36.12Z"/><path class="cls-2" d="M37.36,9.43A3.34,3.34,0,0,1,35.65,9a3.09,3.09,0,0,1-1.19-1.19A3.34,3.34,0,0,1,34,6.1a3.39,3.39,0,0,1,.43-1.73,3.09,3.09,0,0,1,1.19-1.19,3.62,3.62,0,0,1,3.42,0,3.07,3.07,0,0,1,1.18,1.19A3.5,3.5,0,0,1,40.7,6.1a3.35,3.35,0,0,1-.44,1.71A3.16,3.16,0,0,1,39.07,9,3.34,3.34,0,0,1,37.36,9.43Zm0-.84a2.47,2.47,0,0,0,1.25-.32,2.23,2.23,0,0,0,.86-.89,2.59,2.59,0,0,0,.32-1.28,2.62,2.62,0,0,0-.32-1.29,2.26,2.26,0,0,0-.86-.9,2.47,2.47,0,0,0-1.25-.32,2.33,2.33,0,0,0-2.12,1.22,2.62,2.62,0,0,0-.31,1.29,2.58,2.58,0,0,0,.31,1.28,2.35,2.35,0,0,0,2.12,1.21Z"/><path class="cls-2" d="M45.62,9.37a.42.42,0,0,1-.4-.23.46.46,0,0,1,0-.44L48.73.32A.46.46,0,0,1,49.18,0a.47.47,0,0,1,.45.32l3.54,8.39a.45.45,0,0,1,0,.45.46.46,0,0,1-.39.21.44.44,0,0,1-.26-.07.52.52,0,0,1-.19-.22l-3.3-8h.37l-3.32,8a.43.43,0,0,1-.43.29Zm.79-2.23.36-.8h4.87l.36.8Z"/><path class="cls-2" d="M57.1,9.43A3.33,3.33,0,0,1,55.42,9a3,3,0,0,1-1.14-1.19,3.48,3.48,0,0,1-.42-1.72,3.51,3.51,0,0,1,.43-1.74,3.16,3.16,0,0,1,1.19-1.19,3.51,3.51,0,0,1,1.72-.42,3.45,3.45,0,0,1,1.72.42A3.14,3.14,0,0,1,60.1,4.36a3.51,3.51,0,0,1,.43,1.74L60,6.38A3.24,3.24,0,0,1,59.62,8,2.79,2.79,0,0,1,58.6,9,2.89,2.89,0,0,1,57.1,9.43ZM57.22,12a3.7,3.7,0,0,1-1.67-.35,3.29,3.29,0,0,1-1.18-1,.38.38,0,0,1-.12-.31.35.35,0,0,1,.18-.27.42.42,0,0,1,.34-.08.51.51,0,0,1,.3.18,2.63,2.63,0,0,0,.9.7,2.78,2.78,0,0,0,1.26.26,2.29,2.29,0,0,0,1.22-.32,2.33,2.33,0,0,0,.85-.91,2.76,2.76,0,0,0,.32-1.38V6.68L60,6l.56.11V8.54a3.52,3.52,0,0,1-.43,1.75A3.19,3.19,0,0,1,57.22,12Zm0-3.37a2.35,2.35,0,0,0,1.25-.32,2.21,2.21,0,0,0,.86-.88,2.59,2.59,0,0,0,.31-1.29,2.67,2.67,0,0,0-.31-1.31,2.21,2.21,0,0,0-.86-.88,2.35,2.35,0,0,0-1.25-.32,2.41,2.41,0,0,0-1.26.32,2.23,2.23,0,0,0-.87.88,2.78,2.78,0,0,0-.31,1.31,2.7,2.7,0,0,0,.31,1.29,2.23,2.23,0,0,0,.87.88A2.41,2.41,0,0,0,57.2,8.59Z"/><path class="cls-2" d="M65.31,9.43A3.45,3.45,0,0,1,63.59,9a3.14,3.14,0,0,1-1.18-1.19A3.48,3.48,0,0,1,62,6.1a3.6,3.6,0,0,1,.4-1.74A3.08,3.08,0,0,1,63.5,3.18a3.3,3.3,0,0,1,3.22,0,2.85,2.85,0,0,1,1,1.15A3.57,3.57,0,0,1,68.14,6a.39.39,0,0,1-.12.3.41.41,0,0,1-.31.12h-5.1V5.63h5.2L67.29,6A2.82,2.82,0,0,0,67,4.75a2,2,0,0,0-1.91-1.17,2.15,2.15,0,0,0-1.2.32,2.23,2.23,0,0,0-.8.89,2.9,2.9,0,0,0-.28,1.31,2.6,2.6,0,0,0,.32,1.29,2.32,2.32,0,0,0,.87.89,2.42,2.42,0,0,0,1.27.32,2.65,2.65,0,0,0,.87-.15,2.09,2.09,0,0,0,.7-.37.49.49,0,0,1,.3-.12.48.48,0,0,1,.29.09.45.45,0,0,1,.16.31.32.32,0,0,1-.14.29,3.18,3.18,0,0,1-1,.56A3.41,3.41,0,0,1,65.31,9.43Z"/><path class="cls-2" d="M70.17,9.37a.47.47,0,0,1-.34-.12.44.44,0,0,1-.13-.33V3.28a.46.46,0,0,1,.13-.35.47.47,0,0,1,.34-.12.45.45,0,0,1,.33.12.5.5,0,0,1,.13.35V8.92a.49.49,0,0,1-.13.33A.45.45,0,0,1,70.17,9.37Zm5.16,0A.45.45,0,0,1,75,9.24a.48.48,0,0,1-.13-.32V5.79a2.37,2.37,0,0,0-.28-1.22,1.78,1.78,0,0,0-.77-.72,2.6,2.6,0,0,0-2.16,0,2,2,0,0,0-.75.62,1.59,1.59,0,0,0-.27.9H70A2.6,2.6,0,0,1,70.37,4a2.85,2.85,0,0,1,1-.93,3,3,0,0,1,1.42-.34,3.13,3.13,0,0,1,1.52.35,2.61,2.61,0,0,1,1.07,1,3.29,3.29,0,0,1,.39,1.66V8.92a.45.45,0,0,1-.14.32A.41.41,0,0,1,75.33,9.37Z"/><path class="cls-2" d="M80.75,9.43A3.15,3.15,0,0,1,79.07,9,3.26,3.26,0,0,1,77.9,7.8a3.46,3.46,0,0,1-.42-1.7,3.47,3.47,0,0,1,.41-1.72A3.1,3.1,0,0,1,79,3.19a3,3,0,0,1,1.63-.44A3,3,0,0,1,82,3a3,3,0,0,1,1.09.86.35.35,0,0,1,.1.31.55.55,0,0,1-.21.28.37.37,0,0,1-.29.06.44.44,0,0,1-.28-.17,2.24,2.24,0,0,0-1.76-.79,2.11,2.11,0,0,0-2,1.21,2.86,2.86,0,0,0-.28,1.3,2.69,2.69,0,0,0,.3,1.28,2.25,2.25,0,0,0,.84.89,2.4,2.4,0,0,0,1.23.32,2.88,2.88,0,0,0,.86-.12,2.13,2.13,0,0,0,.69-.39.59.59,0,0,1,.3-.14.44.44,0,0,1,.45.4.33.33,0,0,1-.11.29A3.14,3.14,0,0,1,80.75,9.43Z"/><path class="cls-2" d="M87.44,9.17a.51.51,0,0,1-.34,0A.48.48,0,0,1,86.85,9L84.17,3.42a.45.45,0,0,1,0-.34.47.47,0,0,1,.24-.24.51.51,0,0,1,.34,0,.47.47,0,0,1,.24.24l2.62,5.54a.43.43,0,0,1,.06.34A.35.35,0,0,1,87.44,9.17Zm-1.33,3.06a.63.63,0,0,1-.22-.05.39.39,0,0,1-.23-.58l3.88-8.54a.39.39,0,0,1,.57-.22.37.37,0,0,1,.23.57L86.45,12C86.37,12.14,86.26,12.23,86.11,12.23Z"/></g></g></svg>