<svg xmlns="http://www.w3.org/2000/svg" viewBox="0 0 46.9 46.9"><defs><style>.cls-1{fill:none;stroke:#fff200;stroke-miterlimit:10;stroke-width:0.43px;}.cls-2{fill:#fff200;}</style></defs><title>linkedinyellow</title><g id="Layer_2" data-name="Layer 2"><g id="OBJECTS"><path class="cls-1" d="M23.45,46.68h0A23.23,23.23,0,0,1,.22,23.45h0A23.23,23.23,0,0,1,23.45.22h0A23.23,23.23,0,0,1,46.68,23.45h0A23.23,23.23,0,0,1,23.45,46.68Z"/><rect class="cls-2" x="13.53" y="18.84" width="4.26" height="13.77"/><path class="cls-2" d="M15.64,17a2.54,2.54,0,1,0-2.52-2.54A2.53,2.53,0,0,0,15.64,17Z"/><path class="cls-2" d="M24.61,25.39c0-1.94.89-3.09,2.6-3.09s2.32,1.1,2.32,3.09v7.23h4.24V23.9c0-3.69-2.09-5.48-5-5.48a4.8,4.8,0,0,0-4.15,2.28V18.84H20.52V32.62h4.09Z"/></g></g></svg>