<svg xmlns="http://www.w3.org/2000/svg" viewBox="0 0 83.64 21.78"><defs><style>.cls-1{fill:#fff200;}.cls-2{fill:#231f20;}</style></defs><title>moto</title><g id="Layer_2" data-name="Layer 2"><g id="Layer_1-2" data-name="Layer 1"><rect class="cls-1" y="7.78" width="83.64" height="4.89"/><rect class="cls-1" x="58.3" width="25.34" height="4.89"/><path class="cls-2" d="M33.9,5.59a1.75,1.75,0,0,1-.65-.67A2,2,0,0,1,33,4a2,2,0,0,1,.22-1,1.74,1.74,0,0,1,.63-.66,1.71,1.71,0,0,1,.9-.24,1.66,1.66,0,0,1,1.35.64.24.24,0,0,1,.05.14.22.22,0,0,1-.11.18.22.22,0,0,1-.13,0,.24.24,0,0,1-.19-.1,1.45,1.45,0,0,0-.44-.32,1.33,1.33,0,0,0-1.18.06,1.15,1.15,0,0,0-.45.5,1.64,1.64,0,0,0-.15.71,1.49,1.49,0,0,0,.16.71,1.26,1.26,0,0,0,.47.5,1.3,1.3,0,0,0,.68.18,1.26,1.26,0,0,0,.86-.29A.27.27,0,0,1,35.87,5a.3.3,0,0,1,.15,0,.23.23,0,0,1,.09.18.18.18,0,0,1-.07.15,1.73,1.73,0,0,1-1.21.44A1.84,1.84,0,0,1,33.9,5.59Z"/><path class="cls-2" d="M39.25,2.2c.11,0,.17.11.17.2s0,.05,0,.06,0,.11-.08.13a.35.35,0,0,1-.16,0h-.36a1.21,1.21,0,0,0-.82.27.86.86,0,0,0-.31.69v2a.25.25,0,0,1-.07.18.24.24,0,0,1-.19.07.24.24,0,0,1-.25-.25V2.42a.24.24,0,0,1,.07-.19.25.25,0,0,1,.18-.07.24.24,0,0,1,.26.26v.29a1.27,1.27,0,0,1,.49-.43,1.41,1.41,0,0,1,.64-.16A1,1,0,0,1,39.25,2.2Z"/><path class="cls-2" d="M42.29,2.36a1.56,1.56,0,0,1,.59.63,2,2,0,0,1,.21.93.24.24,0,0,1-.07.17.24.24,0,0,1-.17.06H40.16a1.32,1.32,0,0,0,1.36,1.22A1.34,1.34,0,0,0,42,5.29a1,1,0,0,0,.39-.21A.34.34,0,0,1,42.57,5a.22.22,0,0,1,.14.06.23.23,0,0,1,.09.18.19.19,0,0,1-.07.15,1.86,1.86,0,0,1-.56.31,2,2,0,0,1-1.6-.11,1.74,1.74,0,0,1-.66-.66,2,2,0,0,1-.23-1,2.05,2.05,0,0,1,.22-1,1.56,1.56,0,0,1,.62-.65,1.68,1.68,0,0,1,.9-.24A1.66,1.66,0,0,1,42.29,2.36Zm-1.71.54a1.31,1.31,0,0,0-.4.83h2.43a1.33,1.33,0,0,0-.37-.83,1.13,1.13,0,0,0-.82-.31A1.16,1.16,0,0,0,40.58,2.9Z"/><path class="cls-2" d="M46.41,2.37A1.81,1.81,0,0,1,47.32,4V5.55a.29.29,0,0,1-.07.18.32.32,0,0,1-.19.07.25.25,0,0,1-.19-.07.24.24,0,0,1-.07-.18v-.4a1.6,1.6,0,0,1-.59.5,1.73,1.73,0,0,1-.79.18,1.8,1.8,0,0,1-.92-.24,1.72,1.72,0,0,1-.64-.67A1.85,1.85,0,0,1,43.62,4,1.79,1.79,0,0,1,43.87,3a1.77,1.77,0,0,1,.66-.67,1.88,1.88,0,0,1,.94-.24A1.85,1.85,0,0,1,46.41,2.37Zm-.25,2.82a1.36,1.36,0,0,0,.48-.5,1.55,1.55,0,0,0,0-1.41,1.33,1.33,0,0,0-2.34,0,1.38,1.38,0,0,0-.18.7,1.39,1.39,0,0,0,.18.71,1.37,1.37,0,0,0,1.86.5Z"/><path class="cls-2" d="M50.09,5.36a.29.29,0,0,1,.07.19.25.25,0,0,1-.08.18.35.35,0,0,1-.2.07h-.14a1.19,1.19,0,0,1-.63-.17,1.22,1.22,0,0,1-.44-.46,1.38,1.38,0,0,1-.15-.65V2.74h-.44a.25.25,0,0,1-.17-.06.21.21,0,0,1-.06-.16.23.23,0,0,1,.06-.16.25.25,0,0,1,.17-.06h.44v-1a.29.29,0,0,1,.06-.19A.25.25,0,0,1,48.77,1a.24.24,0,0,1,.18.07.26.26,0,0,1,.08.19v1h.75a.25.25,0,0,1,.17.06.23.23,0,0,1,.06.16.21.21,0,0,1-.06.16.25.25,0,0,1-.17.06H49V4.52a.75.75,0,0,0,.2.55.64.64,0,0,0,.51.22h.18A.21.21,0,0,1,50.09,5.36Z"/><path class="cls-2" d="M53.41,2.36A1.54,1.54,0,0,1,54,3a2,2,0,0,1,.21.93.24.24,0,0,1-.06.17.28.28,0,0,1-.18.06H51.28a1.3,1.3,0,0,0,1.36,1.22,1.42,1.42,0,0,0,.48-.08,1,1,0,0,0,.39-.21A.28.28,0,0,1,53.68,5a.24.24,0,0,1,.15.06.23.23,0,0,1,.09.18.21.21,0,0,1-.08.15,1.8,1.8,0,0,1-.55.31,2,2,0,0,1-1.61-.11A1.79,1.79,0,0,1,51,4.94a1.9,1.9,0,0,1-.24-1A2.06,2.06,0,0,1,51,3a1.6,1.6,0,0,1,.61-.65,1.74,1.74,0,0,1,.91-.24A1.71,1.71,0,0,1,53.41,2.36ZM51.7,2.9a1.37,1.37,0,0,0-.41.83h2.43a1.24,1.24,0,0,0-.37-.83,1.09,1.09,0,0,0-.81-.31A1.16,1.16,0,0,0,51.7,2.9Z"/><path class="cls-2" d="M55.55,5.69a1.5,1.5,0,0,1-.62-.39.24.24,0,0,1-.06-.15A.25.25,0,0,1,55,5a.29.29,0,0,1,.17-.06.23.23,0,0,1,.19.09,1.06,1.06,0,0,0,.42.29,1.82,1.82,0,0,0,.59.1A1.25,1.25,0,0,0,57,5.21a.49.49,0,0,0,.24-.42.46.46,0,0,0-.23-.4,1.72,1.72,0,0,0-.74-.24,2,2,0,0,1-1-.37A.76.76,0,0,1,55,3.15a.85.85,0,0,1,.37-.75,1.58,1.58,0,0,1,.94-.27,1.82,1.82,0,0,1,.77.15,1.34,1.34,0,0,1,.52.42.24.24,0,0,1,.06.15.22.22,0,0,1-.11.18.23.23,0,0,1-.13,0A.29.29,0,0,1,57.2,3a1.11,1.11,0,0,0-.89-.37,1.05,1.05,0,0,0-.59.15.44.44,0,0,0-.21.37.45.45,0,0,0,.2.39,2.07,2.07,0,0,0,.73.23,2,2,0,0,1,1,.38.88.88,0,0,1,.31.67.89.89,0,0,1-.19.55,1.17,1.17,0,0,1-.51.37,1.86,1.86,0,0,1-.73.13A2.09,2.09,0,0,1,55.55,5.69Z"/><path class="cls-2" d="M64,.7a.35.35,0,0,1,.09.25V4a1.88,1.88,0,0,1-.24.94,1.74,1.74,0,0,1-.66.66,1.85,1.85,0,0,1-1.86,0,1.74,1.74,0,0,1-.66-.66A1.88,1.88,0,0,1,60.41,4,2,2,0,0,1,60.63,3a1.69,1.69,0,0,1,.61-.66,1.63,1.63,0,0,1,.87-.24,1.58,1.58,0,0,1,.72.16,1.5,1.5,0,0,1,.56.44V1a.36.36,0,0,1,.1-.25.32.32,0,0,1,.24-.09A.35.35,0,0,1,64,.7ZM62.85,5.06a1.19,1.19,0,0,0,.42-.44A1.37,1.37,0,0,0,63.42,4a1.34,1.34,0,0,0-.15-.64,1.36,1.36,0,0,0-.42-.44,1.22,1.22,0,0,0-1.21,0,1.18,1.18,0,0,0-.42.44,1.24,1.24,0,0,0-.16.64,1.27,1.27,0,0,0,.16.64,1.05,1.05,0,0,0,.42.44,1.16,1.16,0,0,0,1.21,0Z"/><path class="cls-2" d="M65.36,1.44a.44.44,0,0,1-.13-.31.42.42,0,0,1,.13-.3A.42.42,0,0,1,65.67.7.4.4,0,0,1,66,.83a.38.38,0,0,1,.13.3.4.4,0,0,1-.13.31.4.4,0,0,1-.31.13A.42.42,0,0,1,65.36,1.44Zm.07,4.26a.33.33,0,0,1-.1-.24v-3a.33.33,0,0,1,.1-.24.35.35,0,0,1,.24-.1.36.36,0,0,1,.25.1A.32.32,0,0,1,66,2.5v3a.32.32,0,0,1-.09.24.32.32,0,0,1-.25.1A.31.31,0,0,1,65.43,5.7Z"/><path class="cls-2" d="M69.86,2.37a1.65,1.65,0,0,1,.65.66,1.89,1.89,0,0,1,.24,1V5.42a2.06,2.06,0,0,1-.23,1,1.87,1.87,0,0,1-.66.68,1.9,1.9,0,0,1-1,.25A2.18,2.18,0,0,1,68,7.12a1.85,1.85,0,0,1-.69-.54.34.34,0,0,1-.08-.19.31.31,0,0,1,.14-.24.38.38,0,0,1,.19-.06.33.33,0,0,1,.27.14,1.22,1.22,0,0,0,.45.36,1.56,1.56,0,0,0,.62.12,1.13,1.13,0,0,0,1-.62,1.59,1.59,0,0,0,.16-.72V5.05a1.58,1.58,0,0,1-.55.57,1.4,1.4,0,0,1-.76.21,1.64,1.64,0,0,1-.88-.24,1.69,1.69,0,0,1-.61-.66A2,2,0,0,1,67.09,4a1.88,1.88,0,0,1,.23-1A1.72,1.72,0,0,1,68,2.37a2,2,0,0,1,1-.23A2,2,0,0,1,69.86,2.37Zm-.33,2.7A1.18,1.18,0,0,0,70,4.63a1.46,1.46,0,0,0,0-1.29,1.14,1.14,0,0,0-.42-.45,1.23,1.23,0,0,0-.61-.15,1.25,1.25,0,0,0-.61.15,1.14,1.14,0,0,0-.42.45,1.46,1.46,0,0,0,0,1.29,1.18,1.18,0,0,0,.42.44,1.26,1.26,0,0,0,.61.16A1.23,1.23,0,0,0,69.53,5.07Z"/><path class="cls-2" d="M71.86,1.44a.4.4,0,0,1-.13-.31.38.38,0,0,1,.13-.3.38.38,0,0,1,.3-.13.4.4,0,0,1,.31.13.38.38,0,0,1,.13.3.4.4,0,0,1-.13.31.4.4,0,0,1-.31.13A.38.38,0,0,1,71.86,1.44Zm.06,4.26a.32.32,0,0,1-.09-.24v-3a.32.32,0,0,1,.09-.24.37.37,0,0,1,.24-.1.34.34,0,0,1,.25.1.32.32,0,0,1,.09.24v3a.32.32,0,0,1-.09.24.3.3,0,0,1-.25.1A.33.33,0,0,1,71.92,5.7Z"/><path class="cls-2" d="M75.52,5.23a.36.36,0,0,1,.08.24.34.34,0,0,1-.11.24.43.43,0,0,1-.28.09h-.12a1.13,1.13,0,0,1-.6-.17,1.17,1.17,0,0,1-.42-.46,1.45,1.45,0,0,1-.15-.66V2.87h-.31a.31.31,0,0,1-.22-.08.25.25,0,0,1-.09-.2.26.26,0,0,1,.09-.21.27.27,0,0,1,.22-.08h.31v-1a.33.33,0,1,1,.66,0v1h.57a.27.27,0,0,1,.22.08.26.26,0,0,1,.09.21.25.25,0,0,1-.09.2.31.31,0,0,1-.22.08h-.57V4.51a.63.63,0,0,0,.15.44.45.45,0,0,0,.36.18h.22A.3.3,0,0,1,75.52,5.23Z"/><path class="cls-2" d="M79,2.38a1.79,1.79,0,0,1,.65.66,1.81,1.81,0,0,1,.25.94V5.47a.34.34,0,0,1-.34.34.37.37,0,0,1-.25-.1.34.34,0,0,1-.09-.24V5.22a1.78,1.78,0,0,1-.57.45,1.71,1.71,0,0,1-.71.16,1.63,1.63,0,0,1-.87-.24,1.65,1.65,0,0,1-.61-.67A2,2,0,0,1,76.24,4,1.91,1.91,0,0,1,76.48,3a1.7,1.7,0,0,1,.67-.66,1.92,1.92,0,0,1,1.86,0Zm-.33,2.68a1.05,1.05,0,0,0,.42-.44,1.42,1.42,0,0,0,0-1.27,1.14,1.14,0,0,0-.42-.45,1.2,1.2,0,0,0-1.2,0,1.24,1.24,0,0,0-.43.45,1.42,1.42,0,0,0,0,1.27,1.16,1.16,0,0,0,1.63.44Z"/><path class="cls-2" d="M81.26,5.64a1,1,0,0,1-.35-.44,1.57,1.57,0,0,1-.13-.63V.94a.3.3,0,0,1,.1-.24.32.32,0,0,1,.24-.09.32.32,0,0,1,.23.09.3.3,0,0,1,.1.24V4.57a.86.86,0,0,0,.09.41.27.27,0,0,0,.24.15H82a.28.28,0,0,1,.21.1.32.32,0,0,1,0,.48.56.56,0,0,1-.33.09h0A.89.89,0,0,1,81.26,5.64Z"/><path class="cls-2" d="M5.31,10.35A1.83,1.83,0,0,1,6.21,12,2,2,0,0,1,6,12.9a1.69,1.69,0,0,1-.61.66,1.62,1.62,0,0,1-.86.24,1.58,1.58,0,0,1-.72-.16,1.65,1.65,0,0,1-.57-.45V15a.32.32,0,0,1-.09.24.3.3,0,0,1-.25.1.33.33,0,0,1-.24-.1.33.33,0,0,1-.1-.24V12a1.87,1.87,0,0,1,.91-1.61,1.78,1.78,0,0,1,.92-.24A1.91,1.91,0,0,1,5.31,10.35ZM5,13a1.24,1.24,0,0,0,.43-.45A1.3,1.3,0,0,0,5.55,12a1.34,1.34,0,0,0-.15-.64A1.24,1.24,0,0,0,5,10.87a1.21,1.21,0,0,0-1.2,0,1.14,1.14,0,0,0-.42.45A1.34,1.34,0,0,0,3.2,12a1.3,1.3,0,0,0,.15.63,1.14,1.14,0,0,0,.42.45A1.2,1.2,0,0,0,5,13Z"/><path class="cls-2" d="M9.55,10.2c.13.08.2.16.2.27a.15.15,0,0,1,0,.07.26.26,0,0,1-.26.21h-.1a2.94,2.94,0,0,0-.44-.05,1.23,1.23,0,0,0-.77.22.71.71,0,0,0-.29.59v1.94a.29.29,0,0,1-.33.33.29.29,0,0,1-.33-.33v-3a.33.33,0,0,1,.08-.25.37.37,0,0,1,.25-.08.29.29,0,0,1,.33.33v.13a1.38,1.38,0,0,1,.49-.37A1.51,1.51,0,0,1,9,10.1,1.2,1.2,0,0,1,9.55,10.2Z"/><path class="cls-2" d="M10.88,13.56a1.57,1.57,0,0,1-.65-.65,2,2,0,0,1,0-1.91,1.57,1.57,0,0,1,.65-.65,2,2,0,0,1,1.89,0,1.69,1.69,0,0,1,.65.65,2,2,0,0,1,0,1.91,1.57,1.57,0,0,1-.65.65,1.83,1.83,0,0,1-.94.24A1.86,1.86,0,0,1,10.88,13.56ZM12.44,13a1,1,0,0,0,.41-.44A1.34,1.34,0,0,0,13,12a1.38,1.38,0,0,0-.15-.65,1.09,1.09,0,0,0-.41-.44,1.16,1.16,0,0,0-.61-.16,1.13,1.13,0,0,0-.61.16,1.11,1.11,0,0,0-.42.44,1.39,1.39,0,0,0-.16.65,1.35,1.35,0,0,0,.16.64,1.05,1.05,0,0,0,.42.44,1.13,1.13,0,0,0,.61.16A1.16,1.16,0,0,0,12.44,13Z"/><path class="cls-2" d="M18.05,8.68a.32.32,0,0,1,.09.24v3a1.85,1.85,0,0,1-.24.94,1.77,1.77,0,0,1-.66.67,1.92,1.92,0,0,1-1.86,0,1.77,1.77,0,0,1-.66-.67,1.85,1.85,0,0,1-.24-.94A2,2,0,0,1,14.7,11a1.69,1.69,0,0,1,.61-.66,1.63,1.63,0,0,1,.87-.24,1.58,1.58,0,0,1,.72.16,1.64,1.64,0,0,1,.56.45V8.92a.34.34,0,0,1,.34-.34A.32.32,0,0,1,18.05,8.68ZM16.91,13a1.24,1.24,0,0,0,.43-.45,1.42,1.42,0,0,0,0-1.27,1.24,1.24,0,0,0-.43-.45,1.21,1.21,0,0,0-1.2,0,1.14,1.14,0,0,0-.42.45,1.34,1.34,0,0,0,0,1.27,1.14,1.14,0,0,0,.42.45,1.21,1.21,0,0,0,1.2,0Z"/><path class="cls-2" d="M22.58,10.22a.37.37,0,0,1,.09.25v3a.37.37,0,0,1-.09.25.33.33,0,0,1-.25.09.36.36,0,0,1-.24-.09.37.37,0,0,1-.1-.25v-.07a1.56,1.56,0,0,1-.5.33,1.64,1.64,0,0,1-.63.12,1.72,1.72,0,0,1-.82-.2,1.51,1.51,0,0,1-.57-.58,1.94,1.94,0,0,1-.21-.93V10.47a.33.33,0,0,1,.1-.24.34.34,0,0,1,.58.24V12.1a1.09,1.09,0,0,0,.29.82,1.08,1.08,0,0,0,.77.27,1.12,1.12,0,0,0,.51-.11,1,1,0,0,0,.36-.3.83.83,0,0,0,.12-.44V10.47a.37.37,0,0,1,.1-.25.36.36,0,0,1,.24-.09A.33.33,0,0,1,22.58,10.22Z"/><path class="cls-2" d="M24.57,13.56a1.72,1.72,0,0,1-.65-.66,1.88,1.88,0,0,1-.24-.94,2,2,0,0,1,.23-1,1.57,1.57,0,0,1,.64-.66,1.84,1.84,0,0,1,.93-.24,1.66,1.66,0,0,1,1.31.6.27.27,0,0,1,.06.17.31.31,0,0,1-.14.25.29.29,0,0,1-.16,0,.36.36,0,0,1-.26-.11,1.14,1.14,0,0,0-.36-.27,1.25,1.25,0,0,0-.45-.08,1.09,1.09,0,0,0-.83.34,1.29,1.29,0,0,0-.32.91,1.34,1.34,0,0,0,.15.64,1.05,1.05,0,0,0,.42.44,1.17,1.17,0,0,0,.62.16,1.14,1.14,0,0,0,.73-.23.4.4,0,0,1,.24-.09.3.3,0,0,1,.18.06.31.31,0,0,1,.12.23.22.22,0,0,1-.08.18,1.68,1.68,0,0,1-1.19.45A1.89,1.89,0,0,1,24.57,13.56Z"/><path class="cls-2" d="M29.61,13.2a.32.32,0,0,1,.09.24.3.3,0,0,1-.11.24.46.46,0,0,1-.29.09h-.12a1,1,0,0,1-.59-.17,1.1,1.1,0,0,1-.42-.46,1.4,1.4,0,0,1-.15-.66V10.84h-.31a.31.31,0,0,1-.23-.08.28.28,0,0,1-.08-.2.29.29,0,0,1,.08-.21.36.36,0,0,1,.23-.08H28v-1a.36.36,0,0,1,.09-.24A.32.32,0,0,1,28.35,9a.31.31,0,0,1,.33.33v1h.56a.34.34,0,0,1,.23.08.26.26,0,0,1,.09.21.25.25,0,0,1-.09.2.3.3,0,0,1-.23.08h-.56v1.64a.68.68,0,0,0,.15.45.42.42,0,0,0,.35.18h.23A.25.25,0,0,1,29.61,13.2Z"/><path class="cls-2" d="M31,13.66a1.48,1.48,0,0,1-.63-.37.28.28,0,0,1-.08-.2.3.3,0,0,1,.13-.26.4.4,0,0,1,.23-.09.37.37,0,0,1,.26.12,1.08,1.08,0,0,0,.37.24,1.4,1.4,0,0,0,.54.1,1.18,1.18,0,0,0,.59-.12.39.39,0,0,0,.21-.34.41.41,0,0,0-.21-.35,2.17,2.17,0,0,0-.69-.23c-.85-.16-1.28-.51-1.28-1a.83.83,0,0,1,.19-.56,1.24,1.24,0,0,1,.51-.34,2.08,2.08,0,0,1,.66-.11,2.13,2.13,0,0,1,.78.14,1.28,1.28,0,0,1,.54.39.31.31,0,0,1,.08.21.27.27,0,0,1-.11.21.35.35,0,0,1-.18,0,.45.45,0,0,1-.32-.13.91.91,0,0,0-.35-.21,1.18,1.18,0,0,0-.45-.07,1.06,1.06,0,0,0-.5.11.31.31,0,0,0-.2.29.34.34,0,0,0,.07.22.57.57,0,0,0,.25.16,3.19,3.19,0,0,0,.54.15A2.46,2.46,0,0,1,33,12a.85.85,0,0,1,.3.67,1,1,0,0,1-.17.55,1.1,1.1,0,0,1-.49.4,2,2,0,0,1-.77.14A2.61,2.61,0,0,1,31,13.66Z"/><path class="cls-2" d="M40,13.47a.21.21,0,0,1-.07.14.22.22,0,0,1-.34,0l-.74-.74-.13.14a3,3,0,0,1-.74.6,1.56,1.56,0,0,1-.79.21,1.47,1.47,0,0,1-1-.34,1.16,1.16,0,0,1-.38-.9,1.32,1.32,0,0,1,.26-.77,3.82,3.82,0,0,1,.81-.79l.08-.07-.36-.36a1.41,1.41,0,0,1-.45-1A1.06,1.06,0,0,1,36.27,9a1.15,1.15,0,0,1,.41-.38,1.28,1.28,0,0,1,.59-.14,1.21,1.21,0,0,1,.6.15,1.08,1.08,0,0,1,.42.4,1,1,0,0,1,.16.56,1.23,1.23,0,0,1-.21.66,2.65,2.65,0,0,1-.6.62l-.07.05,1.28,1.28.56-.6a.24.24,0,0,1,.17-.1.19.19,0,0,1,.14.07.21.21,0,0,1,.09.16.29.29,0,0,1-.08.17l-.57.6.74.75A.24.24,0,0,1,40,13.47Zm-1.46-.91-1.32-1.33-.13.1a2.8,2.8,0,0,0-.62.64,1.13,1.13,0,0,0-.2.61.76.76,0,0,0,.25.58,1,1,0,0,0,.68.21,1.12,1.12,0,0,0,.6-.16,2.56,2.56,0,0,0,.6-.5Zm-1.26-1.88.13-.1A1.25,1.25,0,0,0,38,9.63a.69.69,0,0,0-.19-.49A.68.68,0,0,0,37.27,9a.71.71,0,0,0-.49.18.62.62,0,0,0-.2.45,1,1,0,0,0,.08.38,1.5,1.5,0,0,0,.26.35Z"/><path class="cls-2" d="M45.57,10.35a1.8,1.8,0,0,1,.67.67,1.85,1.85,0,0,1,.24.94,2,2,0,0,1-.23.94,1.69,1.69,0,0,1-.61.66,1.63,1.63,0,0,1-.87.24,1.64,1.64,0,0,1-1.28-.61V15a.32.32,0,0,1-.09.24.32.32,0,0,1-.25.1.31.31,0,0,1-.24-.1.33.33,0,0,1-.1-.24V12a1.76,1.76,0,0,1,.25-.94,1.9,1.9,0,0,1,.65-.67,1.92,1.92,0,0,1,1.86,0ZM45.24,13a1.24,1.24,0,0,0,.43-.45,1.3,1.3,0,0,0,.15-.63,1.34,1.34,0,0,0-.15-.64,1.24,1.24,0,0,0-.43-.45,1.21,1.21,0,0,0-1.2,0,1.14,1.14,0,0,0-.42.45,1.35,1.35,0,0,0-.16.64,1.31,1.31,0,0,0,.16.63A1.14,1.14,0,0,0,44,13a1.21,1.21,0,0,0,1.2,0Z"/><path class="cls-2" d="M49.82,10.2c.13.08.2.16.2.27s0,0,0,.07a.26.26,0,0,1-.27.21h-.1a2.7,2.7,0,0,0-.43-.05,1.23,1.23,0,0,0-.77.22.71.71,0,0,0-.29.59v1.94a.29.29,0,0,1-.33.33.33.33,0,0,1-.25-.08.33.33,0,0,1-.09-.25v-3a.33.33,0,0,1,.09-.25.37.37,0,0,1,.25-.08.29.29,0,0,1,.33.33v.13a1.38,1.38,0,0,1,.49-.37,1.48,1.48,0,0,1,.63-.13A1.23,1.23,0,0,1,49.82,10.2Z"/><path class="cls-2" d="M50.81,9.42a.44.44,0,1,1,.62,0,.43.43,0,0,1-.62,0Zm.07,4.26a.33.33,0,0,1-.1-.25V10.48a.32.32,0,0,1,.1-.25.32.32,0,0,1,.24-.09.37.37,0,0,1,.25.09.35.35,0,0,1,.09.25v2.95a.31.31,0,0,1-.34.34A.32.32,0,0,1,50.88,13.68Z"/><path class="cls-2" d="M55.35,10.3a1.35,1.35,0,0,1,.57.59,1.87,1.87,0,0,1,.21.92v1.63a.34.34,0,0,1-.68,0V11.81a1.07,1.07,0,0,0-.29-.82,1.22,1.22,0,0,0-1.27-.16.89.89,0,0,0-.36.3.76.76,0,0,0-.13.44v1.87a.32.32,0,0,1-.09.24.33.33,0,0,1-.25.1.34.34,0,0,1-.34-.34v-3a.32.32,0,0,1,.1-.25.32.32,0,0,1,.24-.09.37.37,0,0,1,.25.09.35.35,0,0,1,.09.25v.07a1.56,1.56,0,0,1,.5-.33,1.68,1.68,0,0,1,.63-.12A1.72,1.72,0,0,1,55.35,10.3Z"/><path class="cls-2" d="M59,13.2a.32.32,0,0,1,.09.24.3.3,0,0,1-.11.24.45.45,0,0,1-.28.09h-.12a1,1,0,0,1-.6-.17,1.1,1.1,0,0,1-.42-.46,1.4,1.4,0,0,1-.15-.66V10.84H57.1a.31.31,0,0,1-.23-.08.28.28,0,0,1-.08-.2.29.29,0,0,1,.08-.21.36.36,0,0,1,.23-.08h.31v-1a.36.36,0,0,1,.09-.24.37.37,0,0,1,.48,0,.36.36,0,0,1,.09.24v1h.57a.33.33,0,0,1,.22.08.26.26,0,0,1,.09.21.25.25,0,0,1-.09.2.29.29,0,0,1-.22.08h-.57v1.64a.68.68,0,0,0,.15.45.43.43,0,0,0,.36.18h.22A.25.25,0,0,1,59,13.2Z"/><path class="cls-2" d="M66.62,10.48A1.5,1.5,0,0,1,67,11.54v1.9a.33.33,0,0,1-.1.24.3.3,0,0,1-.24.1.33.33,0,0,1-.25-.1.32.32,0,0,1-.09-.24v-1.9a.82.82,0,0,0-.21-.61.7.7,0,0,0-.54-.21A.75.75,0,0,0,65,11a.89.89,0,0,0-.22.61v1.87a.32.32,0,0,1-.09.24.32.32,0,0,1-.25.1.31.31,0,0,1-.24-.1.33.33,0,0,1-.1-.24v-1.9a.82.82,0,0,0-.2-.61.7.7,0,0,0-.54-.21.73.73,0,0,0-.57.24.85.85,0,0,0-.23.61v1.87a.32.32,0,0,1-.09.24.3.3,0,0,1-.25.1.33.33,0,0,1-.24-.1.33.33,0,0,1-.1-.24v-3a.33.33,0,0,1,.1-.24.37.37,0,0,1,.24-.1.32.32,0,0,1,.24.09.3.3,0,0,1,.1.24A1.46,1.46,0,0,1,63,10.2a1.5,1.5,0,0,1,.52-.1,1.34,1.34,0,0,1,.61.14,1.1,1.1,0,0,1,.44.39,1.46,1.46,0,0,1,1.17-.53A1.24,1.24,0,0,1,66.62,10.48Z"/><path class="cls-2" d="M71.27,12.11a.31.31,0,0,1-.22.08H68.53a1.18,1.18,0,0,0,.42.75,1.31,1.31,0,0,0,.86.29,1.24,1.24,0,0,0,.41-.08,1.2,1.2,0,0,0,.36-.17.33.33,0,0,1,.22-.08A.27.27,0,0,1,71,13a.31.31,0,0,1,.11.22.23.23,0,0,1-.1.2,2,2,0,0,1-.56.3,2.21,2.21,0,0,1-.64.11,2,2,0,0,1-1-.24,1.7,1.7,0,0,1-.68-.65,1.89,1.89,0,0,1-.24-.95,2,2,0,0,1,.23-1,1.57,1.57,0,0,1,.64-.66,1.79,1.79,0,0,1,.93-.24,1.67,1.67,0,0,1,.88.23,1.45,1.45,0,0,1,.57.63,2.12,2.12,0,0,1,.2.93A.29.29,0,0,1,71.27,12.11ZM68.92,11a1.18,1.18,0,0,0-.38.71h2.21a1.18,1.18,0,0,0-.33-.71,1,1,0,0,0-.71-.27A1.13,1.13,0,0,0,68.92,11Z"/><path class="cls-2" d="M75.47,8.68a.3.3,0,0,1,.1.24v3a1.76,1.76,0,0,1-.25.94,1.82,1.82,0,0,1-.65.67,1.92,1.92,0,0,1-1.86,0,1.73,1.73,0,0,1-.67-.67,2,2,0,0,1-.23-.94,2,2,0,0,1,.22-.94,1.69,1.69,0,0,1,.61-.66,1.63,1.63,0,0,1,.87-.24,1.57,1.57,0,0,1,.71.16,1.68,1.68,0,0,1,.57.45V8.92a.34.34,0,0,1,.58-.24ZM74.34,13a1.14,1.14,0,0,0,.42-.45,1.34,1.34,0,0,0,0-1.27,1.14,1.14,0,0,0-.42-.45,1.2,1.2,0,0,0-1.2,0,1.24,1.24,0,0,0-.43.45,1.42,1.42,0,0,0,0,1.27,1.24,1.24,0,0,0,.43.45,1.2,1.2,0,0,0,1.2,0Z"/><path class="cls-2" d="M76.86,9.42a.44.44,0,1,1,.62-.62.44.44,0,1,1-.62.62Zm.07,4.26a.33.33,0,0,1-.1-.25V10.48a.32.32,0,0,1,.1-.25.37.37,0,0,1,.48,0,.32.32,0,0,1,.1.25v2.95a.33.33,0,0,1-.1.25.36.36,0,0,1-.48,0Z"/><path class="cls-2" d="M81.34,10.35A1.87,1.87,0,0,1,82.25,12v1.48a.33.33,0,0,1-.1.24.33.33,0,0,1-.24.1.33.33,0,0,1-.25-.1.32.32,0,0,1-.09-.24v-.25a1.65,1.65,0,0,1-.57.45,1.58,1.58,0,0,1-.72.16,1.64,1.64,0,0,1-1.47-.9,2,2,0,0,1-.23-.94,1.83,1.83,0,0,1,.9-1.61,1.91,1.91,0,0,1,.94-.24A1.78,1.78,0,0,1,81.34,10.35ZM81,13a1.14,1.14,0,0,0,.42-.45,1.3,1.3,0,0,0,.15-.63,1.34,1.34,0,0,0-.15-.64,1.14,1.14,0,0,0-.42-.45,1.21,1.21,0,0,0-1.2,0,1.16,1.16,0,0,0-.43.45,1.35,1.35,0,0,0-.16.64,1.31,1.31,0,0,0,.16.63,1.16,1.16,0,0,0,.43.45A1.21,1.21,0,0,0,81,13Z"/><path class="cls-2" d="M47.53,17.31a1.26,1.26,0,0,0-.22.78v.15h.79a.24.24,0,0,1,.17.07.22.22,0,0,1,.07.16.22.22,0,0,1-.24.22h-.79v2.8a.29.29,0,0,1-.07.19.32.32,0,0,1-.2.07.29.29,0,0,1-.18-.07.29.29,0,0,1-.07-.19v-2.8h-.42a.24.24,0,0,1-.17-.06.23.23,0,0,1-.06-.16.21.21,0,0,1,.06-.16.24.24,0,0,1,.17-.07h.42v-.12A1.72,1.72,0,0,1,47.16,17a1.29,1.29,0,0,1,1-.42.31.31,0,0,1,.19.06.24.24,0,0,1,0,.34.31.31,0,0,1-.19.06A.79.79,0,0,0,47.53,17.31Z"/><path class="cls-2" d="M49.67,21.54a1.74,1.74,0,0,1-.66-.66,1.89,1.89,0,0,1-.24-.95A1.92,1.92,0,0,1,49,19a1.74,1.74,0,0,1,.66-.66,1.92,1.92,0,0,1,.95-.24,1.8,1.8,0,0,1,1.61.9,1.92,1.92,0,0,1,.24.95,1.89,1.89,0,0,1-.24.95,1.74,1.74,0,0,1-.66.66,1.89,1.89,0,0,1-1,.24A1.92,1.92,0,0,1,49.67,21.54Zm1.64-.4a1.22,1.22,0,0,0,.48-.5,1.57,1.57,0,0,0,0-1.42,1.22,1.22,0,0,0-.48-.5,1.31,1.31,0,0,0-.69-.18,1.29,1.29,0,0,0-1.17.68,1.49,1.49,0,0,0,0,1.42,1.29,1.29,0,0,0,1.17.68A1.31,1.31,0,0,0,51.31,21.14Z"/><path class="cls-2" d="M55.55,18.15a.21.21,0,0,1,.16.2s0,0,0,.06a.17.17,0,0,1-.08.13.33.33,0,0,1-.15,0H55.1a1.2,1.2,0,0,0-.81.27.85.85,0,0,0-.32.69v2a.24.24,0,0,1-.07.19.25.25,0,0,1-.18.07.29.29,0,0,1-.19-.07.27.27,0,0,1-.06-.19V18.36a.24.24,0,0,1,.06-.18.25.25,0,0,1,.19-.07.24.24,0,0,1,.25.25v.3a1.27,1.27,0,0,1,.49-.43,1.33,1.33,0,0,1,.65-.16A1.08,1.08,0,0,1,55.55,18.15Z"/><path class="cls-2" d="M61.27,18.32a1.65,1.65,0,0,1,.64.67,1.85,1.85,0,0,1,.24.94,1.88,1.88,0,0,1-.24.94,1.8,1.8,0,0,1-.67.67,1.85,1.85,0,0,1-.94.24,1.88,1.88,0,0,1-.94-.24,1.77,1.77,0,0,1-.66-.67,1.88,1.88,0,0,1-.24-.94V16.82a.29.29,0,0,1,.07-.19.24.24,0,0,1,.18-.07.24.24,0,0,1,.26.26v1.94a1.71,1.71,0,0,1,1.39-.68A1.77,1.77,0,0,1,61.27,18.32ZM61,21.13a1.31,1.31,0,0,0,.49-.5,1.48,1.48,0,0,0,.17-.7,1.52,1.52,0,0,0-.17-.71,1.31,1.31,0,0,0-.49-.5,1.34,1.34,0,0,0-.69-.18,1.25,1.25,0,0,0-.89.34,1.33,1.33,0,0,0-.44.85v0a.76.76,0,0,0,0,.17,1.38,1.38,0,0,0,.18.7,1.28,1.28,0,0,0,.48.5,1.31,1.31,0,0,0,.68.19A1.35,1.35,0,0,0,61,21.13Z"/><path class="cls-2" d="M65.24,18.15a.21.21,0,0,1,.16.2s0,0,0,.06a.17.17,0,0,1-.08.13.35.35,0,0,1-.16,0h-.36a1.23,1.23,0,0,0-.82.27.84.84,0,0,0-.31.69v2a.24.24,0,0,1-.07.19.25.25,0,0,1-.18.07.24.24,0,0,1-.26-.26V18.36a.25.25,0,0,1,.07-.18.24.24,0,0,1,.19-.07.24.24,0,0,1,.25.25v.3a1.27,1.27,0,0,1,.49-.43,1.31,1.31,0,0,1,.65-.16A1.08,1.08,0,0,1,65.24,18.15Z"/><path class="cls-2" d="M68.45,18.32a1.77,1.77,0,0,1,.66.67,1.88,1.88,0,0,1,.24.94v1.56a.21.21,0,0,1-.07.18.26.26,0,0,1-.19.08.29.29,0,0,1-.18-.07.25.25,0,0,1-.07-.19V21.1a1.71,1.71,0,0,1-.6.5,1.73,1.73,0,0,1-.79.18,1.77,1.77,0,0,1-.91-.24,1.72,1.72,0,0,1-.64-.67,1.85,1.85,0,0,1-.24-.94A1.88,1.88,0,0,1,65.9,19a1.73,1.73,0,0,1,.67-.67,1.85,1.85,0,0,1,.94-.24A1.88,1.88,0,0,1,68.45,18.32Zm-.26,2.82a1.28,1.28,0,0,0,.48-.5,1.41,1.41,0,0,0,.18-.71,1.38,1.38,0,0,0-.18-.7,1.22,1.22,0,0,0-.48-.5,1.33,1.33,0,0,0-1.37,0,1.24,1.24,0,0,0-.49.5,1.48,1.48,0,0,0-.17.7,1.52,1.52,0,0,0,.17.71,1.37,1.37,0,0,0,1.86.5Z"/><path class="cls-2" d="M72.92,18.27a1.43,1.43,0,0,1,.59.58,1.89,1.89,0,0,1,.21.92v1.72a.21.21,0,0,1-.07.18.25.25,0,0,1-.18.08.26.26,0,0,1-.19-.08.21.21,0,0,1-.07-.18V19.77a1.16,1.16,0,0,0-.33-.9,1.2,1.2,0,0,0-.86-.31,1.41,1.41,0,0,0-.59.12A1.19,1.19,0,0,0,71,19a.89.89,0,0,0-.15.5v2a.25.25,0,0,1-.07.19.27.27,0,0,1-.18.07.24.24,0,0,1-.26-.26V18.37a.27.27,0,0,1,.07-.18.26.26,0,0,1,.19-.08.23.23,0,0,1,.18.08.23.23,0,0,1,.07.18v.23a1.55,1.55,0,0,1,.53-.39,1.72,1.72,0,0,1,.68-.14A1.81,1.81,0,0,1,72.92,18.27Z"/><path class="cls-2" d="M78.35,18.36v1.57a1.88,1.88,0,0,1-.24.94,1.73,1.73,0,0,1-.67.67,1.85,1.85,0,0,1-.94.24,1.88,1.88,0,0,1-.94-.24,1.77,1.77,0,0,1-.66-.67,1.88,1.88,0,0,1-.24-.94,1.85,1.85,0,0,1,.23-.94,1.68,1.68,0,0,1,.65-.67,1.84,1.84,0,0,1,1.7-.06,1.6,1.6,0,0,1,.59.5V16.82a.26.26,0,0,1,.08-.19.23.23,0,0,1,.18-.07.21.21,0,0,1,.18.07.25.25,0,0,1,.07.19V18.3A.13.13,0,0,1,78.35,18.36Zm-1.16,2.77a1.36,1.36,0,0,0,.48-.5,1.38,1.38,0,0,0,.18-.7c0-.08,0-.13,0-.17s0,0,0,0a1.32,1.32,0,0,0-.43-.85,1.28,1.28,0,0,0-.9-.34,1.32,1.32,0,0,0-1.17.68,1.41,1.41,0,0,0-.18.71,1.38,1.38,0,0,0,.18.7,1.36,1.36,0,0,0,1.17.69A1.35,1.35,0,0,0,77.19,21.13Z"/><path class="cls-2" d="M80,21.64a1.5,1.5,0,0,1-.62-.39.26.26,0,0,1-.06-.15.23.23,0,0,1,.1-.2.29.29,0,0,1,.17-.06.23.23,0,0,1,.19.09,1.17,1.17,0,0,0,.42.29,1.82,1.82,0,0,0,.59.1,1.25,1.25,0,0,0,.69-.16.49.49,0,0,0,.24-.42.45.45,0,0,0-.23-.4,1.72,1.72,0,0,0-.74-.24,2,2,0,0,1-1-.37.77.77,0,0,1-.32-.63.87.87,0,0,1,.37-.76,1.65,1.65,0,0,1,.94-.26,1.82,1.82,0,0,1,.77.15,1.42,1.42,0,0,1,.52.41.29.29,0,0,1,.06.16A.22.22,0,0,1,82,19a.23.23,0,0,1-.13,0,.29.29,0,0,1-.23-.1,1.11,1.11,0,0,0-.89-.37,1.05,1.05,0,0,0-.59.15.44.44,0,0,0-.21.37.42.42,0,0,0,.2.38,1.73,1.73,0,0,0,.73.23,2,2,0,0,1,1,.39.87.87,0,0,1,.31.67.92.92,0,0,1-.19.55,1.25,1.25,0,0,1-.51.37,1.86,1.86,0,0,1-.73.13A2.3,2.3,0,0,1,80,21.64Z"/></g></g></svg>