<svg xmlns="http://www.w3.org/2000/svg" viewBox="0 0 1631.87 431.51"><defs><style>.cls-1,.cls-3{fill:none;stroke:#231f20;stroke-miterlimit:10;}.cls-2{fill:#231f20;}.cls-3{stroke-width:0.5px;}.cls-4{fill:#3a75bb;}.cls-5{fill:#27557a;}</style></defs><title>nma_3</title><g id="Layer_2" data-name="Layer 2"><g id="Layer_1-2" data-name="Layer 1"><circle class="cls-1" cx="163.34" cy="268.16" r="162.84"/><path class="cls-2" d="M85.28,6.08a1.53,1.53,0,0,1-3,0,1.5,1.5,0,0,1,1.54-1.54A1.46,1.46,0,0,1,85.28,6.08ZM82.53,23.44V9.88H85V23.44Z"/><path class="cls-2" d="M100.79,3.56V19.94c0,1.2,0,2.57.11,3.5H98.69l-.11-2.36h-.06a5,5,0,0,1-4.62,2.66c-3.27,0-5.79-2.77-5.79-6.88,0-4.51,2.77-7.28,6.07-7.28a4.55,4.55,0,0,1,4.09,2.07h.06V3.56ZM98.33,15.4a4.1,4.1,0,0,0-.12-1,3.61,3.61,0,0,0-3.55-2.85c-2.55,0-4.06,2.24-4.06,5.23,0,2.75,1.34,5,4,5a3.71,3.71,0,0,0,3.61-2.94,4.08,4.08,0,0,0,.12-1.07Z"/><path class="cls-2" d="M106.25,17.11c.06,3.33,2.18,4.7,4.65,4.7a8.93,8.93,0,0,0,3.75-.7l.42,1.77a11,11,0,0,1-4.51.84c-4.17,0-6.66-2.75-6.66-6.84s2.41-7.3,6.35-7.3c4.43,0,5.6,3.89,5.6,6.38a9.14,9.14,0,0,1-.08,1.15Zm7.22-1.77c0-1.56-.64-4-3.41-4-2.49,0-3.59,2.3-3.78,4Z"/><path class="cls-2" d="M126.41,23.44l-.2-1.71h-.08a5.06,5.06,0,0,1-4.14,2,3.86,3.86,0,0,1-4.15-3.89c0-3.27,2.91-5.07,8.15-5v-.28a2.79,2.79,0,0,0-3.08-3.13,6.8,6.8,0,0,0-3.53,1l-.56-1.62a8.41,8.41,0,0,1,4.45-1.2c4.15,0,5.16,2.82,5.16,5.54v5.07a19,19,0,0,0,.22,3.25Zm-.36-6.92c-2.69-.06-5.74.42-5.74,3.05a2.17,2.17,0,0,0,2.32,2.35,3.39,3.39,0,0,0,3.28-2.26,2.74,2.74,0,0,0,.14-.79Z"/><path class="cls-2" d="M150.6,16.55c0,5-3.47,7.19-6.75,7.19-3.66,0-6.49-2.68-6.49-7,0-4.53,3-7.19,6.72-7.19S150.6,12.4,150.6,16.55Zm-10.75.14c0,3,1.71,5.21,4.12,5.21s4.11-2.22,4.11-5.27c0-2.29-1.15-5.21-4.06-5.21S139.85,14.11,139.85,16.69Z"/><path class="cls-2" d="M154,23.44V11.76h-1.9V9.88H154V9.24a6.38,6.38,0,0,1,1.57-4.73,4.69,4.69,0,0,1,3.3-1.26,5.6,5.6,0,0,1,2.1.39l-.33,1.9a3.86,3.86,0,0,0-1.57-.3c-2.1,0-2.63,1.84-2.63,3.92v.72h3.27v1.88H156.4V23.44Z"/><path class="cls-2" d="M167.82,3.56h2.47V12h.05a4.53,4.53,0,0,1,1.77-1.73,5,5,0,0,1,2.52-.7c1.82,0,4.73,1.12,4.73,5.79v8.07h-2.47V15.65c0-2.18-.81-4-3.13-4a3.55,3.55,0,0,0-3.31,2.46,3,3,0,0,0-.16,1.18v8.18h-2.47Z"/><path class="cls-2" d="M184.73,17.11c.06,3.33,2.19,4.7,4.65,4.7a8.93,8.93,0,0,0,3.75-.7l.42,1.77a11,11,0,0,1-4.51.84c-4.17,0-6.66-2.75-6.66-6.84s2.41-7.3,6.36-7.3c4.42,0,5.6,3.89,5.6,6.38a8.75,8.75,0,0,1-.09,1.15ZM192,15.34c0-1.56-.65-4-3.42-4-2.49,0-3.58,2.3-3.78,4Z"/><path class="cls-2" d="M204.89,23.44l-.19-1.71h-.09a5,5,0,0,1-4.14,2,3.86,3.86,0,0,1-4.15-3.89c0-3.27,2.92-5.07,8.15-5v-.28a2.79,2.79,0,0,0-3.08-3.13,6.83,6.83,0,0,0-3.53,1l-.56-1.62a8.42,8.42,0,0,1,4.46-1.2c4.14,0,5.15,2.82,5.15,5.54v5.07a19,19,0,0,0,.22,3.25Zm-.36-6.92c-2.69-.06-5.74.42-5.74,3.05a2.17,2.17,0,0,0,2.32,2.35,3.37,3.37,0,0,0,3.28-2.26,2.74,2.74,0,0,0,.14-.79Z"/><path class="cls-2" d="M210.88,3.56h2.47V23.44h-2.47Z"/><path class="cls-2" d="M220.46,6V9.88H224v1.88h-3.53v7.31c0,1.68.48,2.63,1.85,2.63a5.27,5.27,0,0,0,1.43-.17l.11,1.85a6,6,0,0,1-2.19.34,3.44,3.44,0,0,1-2.66-1,5,5,0,0,1-.95-3.53V11.76H216V9.88h2.1V6.64Z"/><path class="cls-2" d="M226.76,3.56h2.46V12h.06A4.57,4.57,0,0,1,231,10.28a5.09,5.09,0,0,1,2.52-.7c1.82,0,4.74,1.12,4.74,5.79v8.07h-2.47V15.65c0-2.18-.81-4-3.13-4a3.55,3.55,0,0,0-3.31,2.46,3,3,0,0,0-.17,1.18v8.18h-2.46Z"/><path class="cls-2" d="M82.53,47.91c0-1.74,0-3.14-.11-4.43h2.21l.12,2.33h0a5.34,5.34,0,0,1,4.82-2.63c3.27,0,5.74,2.77,5.74,6.88,0,4.88-3,7.28-6.16,7.28A4.75,4.75,0,0,1,85,55.22H85v7.36H82.53ZM85,51.52a6.25,6.25,0,0,0,.11,1,3.8,3.8,0,0,0,3.7,2.88c2.6,0,4.11-2.13,4.11-5.23,0-2.72-1.42-5-4-5a3.92,3.92,0,0,0-3.72,3,3.75,3.75,0,0,0-.17,1Z"/><path class="cls-2" d="M98.47,47.71c0-1.59,0-3-.12-4.23h2.16l.08,2.66h.12a4.05,4.05,0,0,1,3.75-3,2.54,2.54,0,0,1,.7.08v2.32a4.13,4.13,0,0,0-.84-.08A3.46,3.46,0,0,0,101,48.66a7.74,7.74,0,0,0-.11,1.15V57H98.47Z"/><path class="cls-2" d="M119.61,50.15c0,5-3.48,7.19-6.75,7.19-3.67,0-6.5-2.68-6.5-7,0-4.53,3-7.19,6.72-7.19S119.61,46,119.61,50.15Zm-10.76.14c0,3,1.71,5.21,4.12,5.21s4.12-2.22,4.12-5.27c0-2.29-1.15-5.21-4.06-5.21S108.85,47.71,108.85,50.29Z"/><path class="cls-2" d="M125.68,39.59v3.89h3.53v1.88h-3.53v7.31c0,1.68.48,2.63,1.85,2.63a5.27,5.27,0,0,0,1.43-.17l.11,1.85a5.93,5.93,0,0,1-2.18.34,3.41,3.41,0,0,1-2.66-1,5,5,0,0,1-1-3.53V45.36h-2.1V43.48h2.1V40.24Z"/><path class="cls-2" d="M133.19,50.71c.05,3.33,2.18,4.7,4.64,4.7a9,9,0,0,0,3.76-.7l.42,1.77a11.05,11.05,0,0,1-4.51.84c-4.17,0-6.67-2.75-6.67-6.84s2.41-7.3,6.36-7.3c4.42,0,5.6,3.89,5.6,6.38,0,.5-.06.9-.08,1.15Zm7.22-1.77c0-1.56-.64-4-3.42-4-2.49,0-3.58,2.3-3.78,4Z"/><path class="cls-2" d="M155.5,56.53a9,9,0,0,1-3.89.79c-4.09,0-6.75-2.78-6.75-6.92a6.89,6.89,0,0,1,7.28-7.2,8.33,8.33,0,0,1,3.42.7L155,45.81a5.67,5.67,0,0,0-2.86-.65c-3.11,0-4.79,2.3-4.79,5.13,0,3.13,2,5.07,4.71,5.07a6.94,6.94,0,0,0,3-.68Z"/><path class="cls-2" d="M161.72,39.59v3.89h3.53v1.88h-3.53v7.31c0,1.68.47,2.63,1.85,2.63a5.12,5.12,0,0,0,1.42-.17l.12,1.85a6,6,0,0,1-2.19.34,3.42,3.42,0,0,1-2.66-1,5,5,0,0,1-.95-3.53V45.36h-2.1V43.48h2.1V40.24Z"/><path class="cls-2" d="M170.76,39.68a1.53,1.53,0,0,1-3,0,1.5,1.5,0,0,1,1.54-1.54A1.46,1.46,0,0,1,170.76,39.68ZM168,57V43.48h2.46V57Z"/><path class="cls-2" d="M186.83,50.15c0,5-3.47,7.19-6.75,7.19-3.66,0-6.49-2.68-6.49-7,0-4.53,3-7.19,6.72-7.19S186.83,46,186.83,50.15Zm-10.75.14c0,3,1.71,5.21,4.12,5.21s4.11-2.22,4.11-5.27c0-2.29-1.15-5.21-4.06-5.21S176.08,47.71,176.08,50.29Z"/><path class="cls-2" d="M189.94,47.15c0-1.4,0-2.55-.11-3.67H192l.14,2.24h.06a5,5,0,0,1,4.48-2.54c1.87,0,4.79,1.12,4.79,5.76V57H199V49.22c0-2.18-.81-4-3.13-4a3.5,3.5,0,0,0-3.31,2.52,3.62,3.62,0,0,0-.17,1.15V57h-2.46Z"/><path class="cls-2" d="M505.79,113.67a213.1,213.1,0,0,1,36.11,2.61A206.36,206.36,0,0,1,666,185.74a205.84,205.84,0,0,1,36.43,62.31,209.81,209.81,0,0,1,9.39,35A208.71,208.71,0,0,0,702,248.22a203.83,203.83,0,0,0-15.58-32.59,201.17,201.17,0,0,0-21-29.35,209.31,209.31,0,0,0-123.54-69.52A212.21,212.21,0,0,0,505.79,113.67Z"/><path class="cls-2" d="M496.35,144.89a246,246,0,0,1,45.54,26A249.69,249.69,0,0,1,580.94,206a257.09,257.09,0,0,1,16.49,20.47,250.15,250.15,0,0,1,14.24,22.09A247.54,247.54,0,0,1,623.5,272c3.5,8,6.56,16.24,9.24,24.57q-4.25-12.42-9.68-24.37a253.68,253.68,0,0,0-12-23.28q-6.64-11.3-14.32-21.93a256.71,256.71,0,0,0-55.25-55.48,264.58,264.58,0,0,0-45.09-26.64Z"/><path class="cls-2" d="M474.08,184.93a164.42,164.42,0,0,0,4.19,18.47,161.45,161.45,0,0,0,6.17,17.89,164.68,164.68,0,0,0,18.19,33.06,176.18,176.18,0,0,0,11.79,14.77,181.34,181.34,0,0,0,13.42,13.32,161.77,161.77,0,0,0,14.82,11.77,169.11,169.11,0,0,0,16,10.09,167.33,167.33,0,0,1-16.3-9.69,162.23,162.23,0,0,1-15-11.59,165.46,165.46,0,0,1-13.59-13.29,174.9,174.9,0,0,1-11.92-14.8,161,161,0,0,1-18.09-33.36A158.42,158.42,0,0,1,474.08,184.93Z"/><path class="cls-2" d="M643.86,121.51a253.23,253.23,0,0,0-27,6.75,241.21,241.21,0,0,0-26.09,9.63A238.28,238.28,0,0,0,566,150.46a223.43,223.43,0,0,0-23.14,15.4C528,177,514.62,190,501.44,203q-9.76,9.91-18.83,20.51T465.23,245.3q8.1-11.34,17-22.08t18.65-20.73c13.08-13.19,26.44-26.21,41.33-37.43a226.86,226.86,0,0,1,23.28-15.39,222.47,222.47,0,0,1,25-12.48A240.74,240.74,0,0,1,643.86,121.51Z"/><path class="cls-2" d="M723.36,197A263.33,263.33,0,0,0,693,198.47a255.39,255.39,0,0,0-30,4.93,261.47,261.47,0,0,0-29.19,8.4,253.33,253.33,0,0,0-28,11.83,261.43,261.43,0,0,0-26.38,15.05c-8.5,5.51-16.64,11.56-24.63,17.81s-15.73,12.8-23.13,19.74S517.18,290.41,510.45,298q9.91-11.55,20.9-22.14t23-20c7.92-6.36,16.1-12.41,24.61-18a262,262,0,0,1,26.43-15.19A250.34,250.34,0,0,1,692.93,198,264.23,264.23,0,0,1,723.36,197Z"/><path class="cls-2" d="M717.53,373.38a175,175,0,0,0,32.84-104.72,174,174,0,0,0-77.4-141,171.2,171.2,0,0,0-24.4-13.42l-3.19-1.41c-1.06-.48-2.12-1-3.22-1.34L635.65,109c-4.41-1.45-8.8-3-13.31-4.13a173.38,173.38,0,0,0-109.51,6.51,170.74,170.74,0,0,1,109.68-7.15c4.53,1.14,9,2.66,13.38,4.1l6.55,2.48c1.1.4,2.16.86,3.23,1.34l3.21,1.4A172.6,172.6,0,0,1,751,268.65a180.77,180.77,0,0,1-1.89,27.9,178.1,178.1,0,0,1-6.3,27.24A172.9,172.9,0,0,1,717.53,373.38Z"/><path class="cls-2" d="M452.25,162.53a170.76,170.76,0,0,0-16.43,43.86c-.22,1-.48,1.9-.68,2.85l-.55,2.88c-.35,1.93-.74,3.85-1.08,5.77l-.8,5.81c-.13,1-.29,1.94-.38,2.91l-.26,2.92A171.09,171.09,0,0,0,460.36,341a174.06,174.06,0,0,0,30.8,35.16c3,2.46,6,5.06,9.14,7.34,1.58,1.15,3.1,2.39,4.72,3.47l4.86,3.28a168.55,168.55,0,0,0,20.48,11.4,174.78,174.78,0,0,0,91.41,15.89,171.74,171.74,0,0,1-46.89-1.29,168.41,168.41,0,0,1-22.87-5.5c-1.89-.52-3.73-1.2-5.58-1.85s-3.71-1.28-5.54-2c-3.62-1.52-7.3-2.89-10.81-4.65a169.85,169.85,0,0,1-20.6-11.37l-4.9-3.28c-1.64-1.08-3.17-2.32-4.76-3.47-3.2-2.28-6.15-4.87-9.2-7.34a172.48,172.48,0,0,1-38.37-214.25Z"/><path class="cls-3" d="M509,307.73h22l17.53,25.33L552,338l6,8.64V319.16q-.18-10-8.89-10.07v-1.36h19.06v1.36q-8.13,0-8.82,8.72v55.57H558l-8-11.52-15.5-22.45-16.35-23.63v46.16q.6,9.66,8.81,10.08v1.36H507.84V372q8.82-.16,8.9-10.08V318.49a14.23,14.23,0,0,0-1.27-6.44l-.51-.85c-1.3-1.35-3.28-2.06-5.93-2.11Z"/><path class="cls-3" d="M571.28,307.73h21.27v.08l16.77,43.71L601.61,373l-.17.43-21.09-54.89v43.45q.58,9.66,8.81,10.08v1.36H570.1V372q8.82-.16,8.9-10.08V318.49q0-6.87-3.48-8.56a9.5,9.5,0,0,0-4.24-.84Zm53.88,0H648v1.36c-3.56,0-5.81,1.16-6.78,3.47a19.14,19.14,0,0,0-.84,6.6v42.78q0,8,4.24,9.57A10.06,10.06,0,0,0,648,372v1.36H617.54V372c3.67,0,6-1.44,7-4.32a20.53,20.53,0,0,0,.67-5.76V311.8l-.17.42-22.11,61.16h-1.44l.17-.43,21.94-60.73Z"/><path class="cls-3" d="M682.25,307.73h2.54l22.54,54.21,1,2.38q2.19,5.25,4.31,6.6a7.68,7.68,0,0,0,4.24,1.1v1.36H686.32V372q6.61,0,6.61-4.57a16.42,16.42,0,0,0-1.44-5.51l-3.56-8.55H666.5l-3.22,8.55q-3.3,8.9,4.07,9.91a9.75,9.75,0,0,0,1.86.17v1.36H650.15V372q7.88-.16,11.69-10.08Zm-5.59,18.64L667,352h20.42Z"/><path class="cls-2" d="M555.11,22.93a9,9,0,0,1-3.89.79c-4.09,0-6.75-2.78-6.75-6.92a6.89,6.89,0,0,1,7.28-7.2,8.32,8.32,0,0,1,3.41.7l-.56,1.91a5.62,5.62,0,0,0-2.85-.65c-3.11,0-4.79,2.3-4.79,5.13,0,3.13,2,5.07,4.7,5.07a7,7,0,0,0,3-.68Z"/><path class="cls-2" d="M570.09,16.55c0,5-3.47,7.19-6.75,7.19-3.67,0-6.5-2.68-6.5-7,0-4.53,3-7.19,6.72-7.19C567.46,9.58,570.09,12.4,570.09,16.55Zm-10.75.14c0,3,1.7,5.21,4.11,5.21s4.12-2.22,4.12-5.27c0-2.29-1.15-5.21-4.06-5.21S559.34,14.11,559.34,16.69Z"/><path class="cls-2" d="M573.2,13.55c0-1.4,0-2.55-.12-3.67h2.19l.14,2.25h.05a5,5,0,0,1,4.48-2.55c1.88,0,4.79,1.12,4.79,5.76v8.1h-2.46V15.63c0-2.19-.81-4-3.14-4a3.5,3.5,0,0,0-3.3,2.52,3.62,3.62,0,0,0-.17,1.15v8.15H573.2Z"/><path class="cls-2" d="M598.4,22.93a9.06,9.06,0,0,1-3.9.79c-4.08,0-6.74-2.78-6.74-6.92A6.89,6.89,0,0,1,595,9.6a8.32,8.32,0,0,1,3.41.7l-.56,1.91a5.65,5.65,0,0,0-2.85-.65c-3.11,0-4.79,2.3-4.79,5.13,0,3.13,2,5.07,4.7,5.07a7,7,0,0,0,3-.68Z"/><path class="cls-2" d="M602.48,17.11c.06,3.33,2.19,4.7,4.65,4.7a8.9,8.9,0,0,0,3.75-.7l.42,1.77a11,11,0,0,1-4.5.84c-4.18,0-6.67-2.75-6.67-6.84s2.41-7.3,6.36-7.3c4.42,0,5.6,3.89,5.6,6.38a8.75,8.75,0,0,1-.09,1.15Zm7.23-1.77c0-1.56-.65-4-3.42-4-2.49,0-3.58,2.3-3.78,4Z"/><path class="cls-2" d="M615.14,14.31c0-1.74-.06-3.14-.11-4.43h2.21l.11,2.33h.06a5.31,5.31,0,0,1,4.81-2.63c3.28,0,5.74,2.77,5.74,6.88,0,4.88-3,7.28-6.16,7.28a4.75,4.75,0,0,1-4.17-2.12h0V29h-2.44Zm2.44,3.61a5.3,5.3,0,0,0,.11,1,3.79,3.79,0,0,0,3.69,2.88c2.61,0,4.12-2.13,4.12-5.23,0-2.72-1.43-5-4-5a3.94,3.94,0,0,0-3.73,3.05,4.18,4.18,0,0,0-.16,1Z"/><path class="cls-2" d="M634,6V9.88h3.53v1.88H634v7.31c0,1.68.47,2.63,1.85,2.63a5.12,5.12,0,0,0,1.42-.17l.12,1.85a6,6,0,0,1-2.19.34,3.42,3.42,0,0,1-2.66-1,5,5,0,0,1-1-3.53V11.76h-2.1V9.88h2.1V6.64Z"/><path class="cls-4" d="M938.11,113.67a141.45,141.45,0,0,1,18.29-1.83,161,161,0,0,1,18.5.34,177.21,177.21,0,0,1,36.66,6.67,188.26,188.26,0,0,1,66.21,35c1.22,1,2.43,2,3.63,3l3.52,3.14c2.39,2.07,4.61,4.31,6.88,6.49,1.14,1.08,2.2,2.25,3.28,3.4l3.23,3.44q3.15,3.52,6.17,7.15a181.11,181.11,0,0,1,20.62,31.43,174,174,0,0,1,13.57,34.72,161.41,161.41,0,0,1,3.84,18.1,141,141,0,0,1,1.63,18.31,329.82,329.82,0,0,0-13.76-33.33,250.13,250.13,0,0,0-17.48-30.63c-.81-1.21-1.6-2.44-2.44-3.63l-2.55-3.55-1.26-1.78-1.32-1.74-2.62-3.47c-1.82-2.27-3.69-4.49-5.48-6.77l-5.71-6.54c-2-2.08-3.93-4.25-5.94-6.32l-3.07-3.05c-1-1-2-2-3.12-3-2.13-2-4.17-4-6.38-5.86l-3.26-2.85-3.36-2.73c-2.19-1.89-4.51-3.61-6.79-5.39s-4.66-3.42-7-5.09c-4.71-3.37-9.62-6.42-14.57-9.45s-10.08-5.74-15.24-8.39-10.48-5.08-15.89-7.27a255.55,255.55,0,0,0-33.43-11.3A337.08,337.08,0,0,0,938.11,113.67Z"/><path class="cls-4" d="M928.67,144.89a138.55,138.55,0,0,1,25.55,8.2,176.76,176.76,0,0,1,23.92,12.43,193,193,0,0,1,41.44,34.8,196.09,196.09,0,0,1,16.72,21.41c1.29,1.86,2.45,3.8,3.68,5.7.6,1,1.23,1.9,1.8,2.88l1.68,2.94c2.3,3.89,4.35,7.92,6.33,12,7.81,16.24,13.38,33.56,15.27,51.37-2.34-3.83-4.52-7.67-6.76-11.45s-4.48-7.52-6.74-11.22c-4.53-7.39-9.16-14.61-14-21.63-1.17-1.78-2.45-3.49-3.67-5.23s-2.47-3.46-3.72-5.17l-1.88-2.57-1.92-2.53c-1.3-1.68-2.52-3.41-3.87-5-5.19-6.68-10.68-13.08-16.27-19.4a387.73,387.73,0,0,0-36.36-35.43C956.89,165.77,943.07,155.5,928.67,144.89Z"/><path class="cls-4" d="M906.4,184.93c5.65,11.9,10.72,23.15,16.55,33.86a288.93,288.93,0,0,0,18.93,30.65c3.5,4.83,7.1,9.59,10.86,14.27,1.91,2.31,3.83,4.63,5.81,6.9,1,1.15,2,2.3,3,3.41s2,2.29,3,3.39c4.08,4.53,8.37,8.93,12.78,13.36l3.34,3.34,3.39,3.33c2.28,2.24,4.61,4.47,6.92,6.86a67.47,67.47,0,0,1-9.54-2.58c-1.56-.51-3.07-1.13-4.62-1.71s-3-1.29-4.53-2a107.52,107.52,0,0,1-17.08-10c-2.68-1.95-5.34-3.94-7.84-6.13s-4.92-4.47-7.33-6.77a126.25,126.25,0,0,1-12.86-15.3,120.37,120.37,0,0,1-17.35-35.79,107.72,107.72,0,0,1-3.75-19.43A82.71,82.71,0,0,1,906.4,184.93Z"/><path class="cls-4" d="M1076.19,121.51c-17.58,7.06-34.45,14.07-50.47,22.51-4,2.09-8,4.26-11.87,6.47s-7.76,4.52-11.53,6.94-7.51,4.86-11.21,7.37-7.31,5.12-10.86,7.84c-7.15,5.38-14.06,11.09-21,17l-20.75,18.06c-6.86,6-13.64,12.24-20.42,18.53l-10.21,9.49c-3.41,3.19-6.82,6.41-10.37,9.57,1.92-4.35,4.11-8.54,6.43-12.66s4.8-8.15,7.39-12.11a236.53,236.53,0,0,1,17.06-22.71c1.55-1.79,3.09-3.6,4.68-5.37s3.19-3.48,4.77-5.19c3.16-3.45,6.48-6.8,9.84-10.16a211.51,211.51,0,0,1,21.7-18.83,185.24,185.24,0,0,1,24.36-15.57,180.75,180.75,0,0,1,26.36-11.63,176.18,176.18,0,0,1,27.7-7.26c4.69-.83,9.41-1.43,14.13-1.84,2.36-.23,4.74-.31,7.1-.44S1073.82,121.46,1076.19,121.51Z"/><path class="cls-4" d="M1155.68,197l-15.12,2.67c-5,.9-9.94,1.9-14.85,2.94-9.81,2.13-19.48,4.47-29,7.3a337,337,0,0,0-54.83,21.33c-8.77,4.35-17.32,9.13-25.74,14.21-4.21,2.54-8.35,5.21-12.5,7.92-2.08,1.34-4.12,2.75-6.19,4.14s-4.13,2.8-6.2,4.23c-8.31,5.64-16.36,11.44-24.41,17.52-4,3-8,6.13-12,9.25s-8,6.34-12.08,9.5a176.7,176.7,0,0,1,18-25.17,228.79,228.79,0,0,1,21.72-22.2,241,241,0,0,1,24.34-19.49,212.76,212.76,0,0,1,27.08-16,207,207,0,0,1,59.77-19C1114.36,193,1135.44,192.89,1155.68,197Z"/><path class="cls-4" d="M1149.85,373.38a217.89,217.89,0,0,0,11.83-25.19,193.81,193.81,0,0,0,8.13-26.1l.74-3.31.65-3.33.65-3.31.31-1.66.24-1.67,1-6.67.67-6.68.17-1.67.08-1.67.18-3.34.19-3.34,0-3.34c.14-4.44-.14-8.88-.3-13.3a175.34,175.34,0,0,0-36.73-96.9,158.76,158.76,0,0,0-17.58-19.35,171.81,171.81,0,0,0-43-29.77,172.74,172.74,0,0,0-24.57-9.84,182.27,182.27,0,0,0-52.78-8.53A191.17,191.17,0,0,0,972.45,106a222.52,222.52,0,0,0-27.3,5.41A141.66,141.66,0,0,1,971.08,100a158.29,158.29,0,0,1,28-6.4A165.55,165.55,0,0,1,1057,96.23c4.79,1,9.48,2.42,14.2,3.76l7,2.4c1.17.38,2.31.84,3.45,1.31l3.42,1.38c1.14.46,2.29.91,3.42,1.4l3.35,1.55c2.23,1,4.49,2,6.64,3.25s4.36,2.31,6.51,3.53l6.34,3.83a183.13,183.13,0,0,1,23.58,18A175.24,175.24,0,0,1,1155,158.37a172.22,172.22,0,0,1,27.9,52.07c.73,2.36,1.54,4.69,2.2,7.07l1.9,7.15c1.09,4.8,2.09,9.63,2.77,14.51a170.86,170.86,0,0,1,1.86,29.35c-.19,4.89-.45,9.78-1.07,14.62l-.4,3.63-.57,3.61-.6,3.6-.31,1.8-.39,1.78a168.46,168.46,0,0,1-8.24,27.78,159.94,159.94,0,0,1-12.93,25.6A141,141,0,0,1,1149.85,373.38Z"/><path class="cls-4" d="M884.57,162.53a216.16,216.16,0,0,0-11.43,45c-.13.94-.3,1.88-.42,2.82l-.3,2.84c-.19,1.89-.42,3.77-.59,5.66s-.22,3.78-.35,5.66c-.05.94-.14,1.88-.16,2.82l-.05,2.83a186.12,186.12,0,0,0,.81,22.43,180.69,180.69,0,0,0,29.35,82.56,161.55,161.55,0,0,0,13.27,17.55A181.89,181.89,0,0,0,930,368.57c2.79,2.4,5.48,4.93,8.43,7.15,1.45,1.13,2.86,2.33,4.35,3.42l4.47,3.28,1.12.82,1.16.76,2.32,1.53c1.55,1,3.07,2.08,4.68,3l4.76,2.89c1.6,1,3.27,1.79,4.9,2.69,3.25,1.84,6.64,3.37,10,5.05,1.69.8,3.43,1.49,5.15,2.24s3.44,1.53,5.21,2.16a186.59,186.59,0,0,0,21.58,7.11,207.26,207.26,0,0,0,22.56,4.64c3.83.54,7.69,1,11.59,1.38s7.82.61,11.78.85c-3.83,1-7.73,1.81-11.66,2.48s-7.91,1.11-11.91,1.42-8,.42-12.06.43-8.08-.22-12.12-.54-8.08-.85-12.09-1.5c-2-.31-4-.7-6-1.12l-6-1.35c-2-.42-4-1-5.93-1.56s-4-1.11-5.9-1.76c-3.86-1.37-7.81-2.59-11.56-4.27a166.11,166.11,0,0,1-42.48-25.41c-1.6-1.33-3.16-2.71-4.71-4.09l-2.34-2.07L907.11,376c-1.49-1.46-3-2.88-4.46-4.38l-4.26-4.56a176.83,176.83,0,0,1-15.28-19.74,168.54,168.54,0,0,1-28.26-94c0-2.06.11-4.12.19-6.17s.16-4.11.4-6.15l.59-6.13c.23-2,.61-4.05.91-6.07l.48-3c.17-1,.41-2,.61-3,.42-2,.83-4,1.28-6s1.07-3.93,1.6-5.89l.8-2.93c.29-1,.63-1.93.95-2.89a147.49,147.49,0,0,1,9.22-22.33A132.21,132.21,0,0,1,884.57,162.53Z"/><path class="cls-5" d="M941.35,307.73h22l17.53,25.33L984.3,338l6,8.64V319.16q-.16-10-8.89-10.07v-1.36h19.06v1.36q-8.13,0-8.81,8.72v55.57h-1.36l-8-11.52-15.51-22.45-16.34-23.63v46.16q.58,9.66,8.81,10.08v1.36H940.17V372q8.8-.16,8.89-10.08V318.49a14.23,14.23,0,0,0-1.27-6.44l-.51-.85c-1.3-1.35-3.27-2.06-5.93-2.11Z"/><path class="cls-5" d="M1003.61,307.73h21.26v.08l16.77,43.71-7.7,21.43-.17.43-21.1-54.89v43.45q.6,9.66,8.81,10.08v1.36h-19.06V372q8.82-.16,8.9-10.08V318.49q0-6.87-3.47-8.56a9.5,9.5,0,0,0-4.24-.84Zm53.87,0h22.88v1.36q-5.34,0-6.78,3.47a18.85,18.85,0,0,0-.85,6.6v42.78q0,8,4.24,9.57a10.16,10.16,0,0,0,3.39.51v1.36h-30.5V372q5.51,0,7-4.32a20.16,20.16,0,0,0,.67-5.76V311.8l-.16.42-22.11,61.16h-1.44l.17-.43,21.94-60.73Z"/><path class="cls-5" d="M1114.58,307.73h2.54l22.53,54.21,1,2.38q2.2,5.25,4.32,6.6a7.65,7.65,0,0,0,4.23,1.1v1.36h-30.58V372q6.61,0,6.61-4.57a16.42,16.42,0,0,0-1.44-5.51l-3.56-8.55h-21.43l-3.22,8.55q-3.3,8.9,4.07,9.91a9.75,9.75,0,0,0,1.86.17v1.36h-19.06V372q7.89-.16,11.69-10.08ZM1109,326.37,1099.33,352h20.41Z"/><path class="cls-2" d="M993.05,16.55c0,5-3.48,7.19-6.75,7.19-3.67,0-6.5-2.68-6.5-7,0-4.53,3-7.19,6.72-7.19S993.05,12.4,993.05,16.55Zm-10.76.14c0,3,1.71,5.21,4.12,5.21s4.12-2.22,4.12-5.27c0-2.29-1.15-5.21-4.06-5.21S982.29,14.11,982.29,16.69Z"/><path class="cls-2" d="M996.15,14.11c0-1.59,0-3-.11-4.23h2.16l.08,2.66h.11a4.06,4.06,0,0,1,3.76-3,2.54,2.54,0,0,1,.7.08V12a4.2,4.2,0,0,0-.84-.08,3.46,3.46,0,0,0-3.31,3.16,7.74,7.74,0,0,0-.11,1.15v7.23h-2.44Z"/><path class="cls-2" d="M1008.16,6.08a1.45,1.45,0,0,1-1.56,1.51,1.47,1.47,0,0,1-1.49-1.51,1.5,1.5,0,0,1,1.54-1.54A1.46,1.46,0,0,1,1008.16,6.08Zm-2.74,17.36V9.88h2.46V23.44Z"/><path class="cls-2" d="M1023.65,9.88c-.06,1-.11,2.08-.11,3.73v7.87c0,3.1-.62,5-1.94,6.18a7.13,7.13,0,0,1-4.92,1.63,8.71,8.71,0,0,1-4.51-1.12l.61-1.88a7.67,7.67,0,0,0,4,1.07c2.52,0,4.37-1.32,4.37-4.73V21.11h-.06a4.83,4.83,0,0,1-4.31,2.27c-3.36,0-5.77-2.86-5.77-6.61,0-4.59,3-7.19,6.11-7.19a4.49,4.49,0,0,1,4.22,2.35h.06l.11-2Zm-2.55,5.35a3.58,3.58,0,0,0-.14-1.12,3.54,3.54,0,0,0-3.44-2.6c-2.36,0-4,2-4,5.12,0,2.66,1.35,4.87,4,4.87A3.59,3.59,0,0,0,1020.9,19a4.25,4.25,0,0,0,.2-1.31Z"/><path class="cls-2" d="M1030.2,6.08a1.53,1.53,0,0,1-3,0,1.5,1.5,0,0,1,1.54-1.54A1.46,1.46,0,0,1,1030.2,6.08Zm-2.74,17.36V9.88h2.46V23.44Z"/><path class="cls-2" d="M1034,13.55c0-1.4,0-2.55-.11-3.67h2.18l.14,2.25h.06a5,5,0,0,1,4.48-2.55c1.87,0,4.78,1.12,4.78,5.76v8.1h-2.46V15.63c0-2.19-.81-4-3.14-4a3.5,3.5,0,0,0-3.3,2.52,3.62,3.62,0,0,0-.17,1.15v8.15H1034Z"/><path class="cls-2" d="M1057.05,23.44l-.19-1.71h-.09a5,5,0,0,1-4.14,2,3.86,3.86,0,0,1-4.15-3.89c0-3.27,2.92-5.07,8.15-5v-.28a2.79,2.79,0,0,0-3.08-3.13,6.83,6.83,0,0,0-3.53,1l-.56-1.62a8.42,8.42,0,0,1,4.46-1.2c4.14,0,5.15,2.82,5.15,5.54v5.07a19,19,0,0,0,.22,3.25Zm-.36-6.92c-2.69-.06-5.74.42-5.74,3.05a2.17,2.17,0,0,0,2.32,2.35,3.37,3.37,0,0,0,3.28-2.26,2.74,2.74,0,0,0,.14-.79Z"/><path class="cls-2" d="M1063,3.56h2.47V23.44H1063Z"/><path class="cls-2" d="M1385.27,10c0-1.4,0-2.55-.11-3.67h2.15l.11,2.18h.09A4.65,4.65,0,0,1,1391.76,6a4,4,0,0,1,3.84,2.72h.06A5.56,5.56,0,0,1,1397.17,7a4.65,4.65,0,0,1,3-1c1.8,0,4.46,1.18,4.46,5.88v8h-2.41V12.21c0-2.61-1-4.17-2.94-4.17a3.18,3.18,0,0,0-2.91,2.24,3.77,3.77,0,0,0-.2,1.23v8.37h-2.41V11.76c0-2.16-1-3.72-2.83-3.72a3.36,3.36,0,0,0-3.05,2.46,3.36,3.36,0,0,0-.19,1.2v8.18h-2.41Z"/><path class="cls-2" d="M1420.88,13c0,5-3.47,7.2-6.74,7.2-3.67,0-6.5-2.69-6.5-7,0-4.54,3-7.2,6.72-7.2S1420.88,8.85,1420.88,13Zm-10.75.14c0,3,1.71,5.21,4.12,5.21s4.11-2.21,4.11-5.26c0-2.3-1.14-5.21-4.06-5.21S1410.13,10.56,1410.13,13.13Z"/><path class="cls-2" d="M1424,10c0-1.4,0-2.55-.11-3.67h2.18l.14,2.24h.06A5,5,0,0,1,1430.74,6c1.88,0,4.79,1.12,4.79,5.77v8.09h-2.47V12.07c0-2.19-.81-4-3.13-4a3.5,3.5,0,0,0-3.31,2.52,3.63,3.63,0,0,0-.16,1.15v8.15H1424Z"/><path class="cls-2" d="M1451.8,13c0,5-3.48,7.2-6.75,7.2-3.67,0-6.5-2.69-6.5-7,0-4.54,3-7.2,6.72-7.2S1451.8,8.85,1451.8,13Zm-10.76.14c0,3,1.71,5.21,4.12,5.21s4.12-2.21,4.12-5.26c0-2.3-1.15-5.21-4.06-5.21S1441,10.56,1441,13.13Z"/><path class="cls-2" d="M1464.56,19.38a9.16,9.16,0,0,1-3.89.78c-4.09,0-6.75-2.77-6.75-6.92a6.88,6.88,0,0,1,7.28-7.19,8.17,8.17,0,0,1,3.42.7l-.56,1.9A5.79,5.79,0,0,0,1461.2,8c-3.1,0-4.78,2.29-4.78,5.12,0,3.14,2,5.07,4.7,5.07a7,7,0,0,0,3-.67Z"/><path class="cls-2" d="M1467.45,0h2.46V8.46h.06a4.53,4.53,0,0,1,1.76-1.74,5.09,5.09,0,0,1,2.52-.7c1.82,0,4.73,1.12,4.73,5.8v8.06h-2.46V12.1c0-2.19-.81-4-3.14-4a3.54,3.54,0,0,0-3.3,2.47,3,3,0,0,0-.17,1.17v8.18h-2.46Z"/><path class="cls-2" d="M1483,10.56c0-1.6,0-3-.11-4.23H1485l.08,2.66h.12A4.06,4.06,0,0,1,1489,6a2.93,2.93,0,0,1,.7.08V8.43a3.43,3.43,0,0,0-.84-.09,3.47,3.47,0,0,0-3.31,3.17,7.61,7.61,0,0,0-.11,1.15v7.22H1483Z"/><path class="cls-2" d="M1504.13,13c0,5-3.48,7.2-6.75,7.2-3.67,0-6.5-2.69-6.5-7,0-4.54,3-7.2,6.72-7.2S1504.13,8.85,1504.13,13Zm-10.75.14c0,3,1.7,5.21,4.11,5.21s4.12-2.21,4.12-5.26c0-2.3-1.15-5.21-4.06-5.21S1493.38,10.56,1493.38,13.13Z"/><path class="cls-2" d="M1507.23,10c0-1.4,0-2.55-.11-3.67h2.16l.11,2.18h.08A4.68,4.68,0,0,1,1513.73,6a4,4,0,0,1,3.84,2.72h0A5.46,5.46,0,0,1,1519.14,7a4.63,4.63,0,0,1,3-1c1.79,0,4.45,1.18,4.45,5.88v8h-2.4V12.21c0-2.61-1-4.17-3-4.17a3.19,3.19,0,0,0-2.91,2.24,4.07,4.07,0,0,0-.19,1.23v8.37h-2.41V11.76c0-2.16-1-3.72-2.83-3.72a3.36,3.36,0,0,0-3.05,2.46,3.36,3.36,0,0,0-.2,1.2v8.18h-2.41Z"/><path class="cls-2" d="M1532,13.55c.06,3.33,2.18,4.71,4.65,4.71a9,9,0,0,0,3.75-.7l.42,1.76a11,11,0,0,1-4.51.84c-4.17,0-6.66-2.74-6.66-6.83S1532,6,1536,6c4.43,0,5.6,3.89,5.6,6.38a9,9,0,0,1-.08,1.15Zm7.22-1.76c0-1.57-.64-4-3.41-4-2.5,0-3.59,2.3-3.78,4Z"/><path class="cls-2" d="M1378.3,116.21a143.24,143.24,0,0,1,18.29-1.83,165.64,165.64,0,0,1,18.5.34,177.66,177.66,0,0,1,36.65,6.67,188.16,188.16,0,0,1,66.22,35c1.21,1,2.43,2,3.63,3l3.52,3.15c2.38,2.06,4.61,4.3,6.88,6.48,1.14,1.09,2.2,2.25,3.28,3.4l3.23,3.45c2.09,2.34,4.14,4.73,6.17,7.14a182.46,182.46,0,0,1,20.62,31.43,174.49,174.49,0,0,1,13.57,34.72,159.17,159.17,0,0,1,3.83,18.1,139.32,139.32,0,0,1,1.64,18.32,330,330,0,0,0-13.76-33.34,250.88,250.88,0,0,0-17.48-30.63c-.82-1.21-1.6-2.44-2.44-3.63l-2.55-3.55-1.26-1.77-1.32-1.74-2.63-3.48c-1.81-2.27-3.68-4.49-5.47-6.76l-5.71-6.55c-2-2.08-3.93-4.24-5.94-6.32l-3.08-3c-1-1-2-2.05-3.11-3-2.13-1.95-4.17-4-6.38-5.86l-3.26-2.84-3.36-2.74c-2.19-1.88-4.51-3.61-6.79-5.39s-4.66-3.41-7-5.08c-4.7-3.37-9.62-6.43-14.56-9.45s-10.08-5.74-15.25-8.4-10.47-5.07-15.89-7.27a255.41,255.41,0,0,0-33.42-11.3A337.6,337.6,0,0,0,1378.3,116.21Z"/><path class="cls-2" d="M1368.86,147.44a137.76,137.76,0,0,1,25.55,8.19,176.76,176.76,0,0,1,23.92,12.43,193.82,193.82,0,0,1,41.44,34.8,196,196,0,0,1,16.71,21.41c1.29,1.86,2.46,3.81,3.68,5.7.6,1,1.23,1.9,1.8,2.88l1.68,2.94c2.3,3.89,4.35,7.92,6.34,12,7.81,16.24,13.38,33.56,15.27,51.38-2.34-3.84-4.52-7.68-6.76-11.45s-4.48-7.52-6.74-11.22c-4.54-7.39-9.17-14.62-14-21.64-1.18-1.77-2.45-3.49-3.67-5.23s-2.47-3.46-3.72-5.17l-1.88-2.57-1.92-2.53c-1.3-1.68-2.52-3.4-3.87-5-5.19-6.68-10.69-13.08-16.27-19.4A389.1,389.1,0,0,0,1410,179.46C1397.08,168.31,1383.26,158,1368.86,147.44Z"/><path class="cls-2" d="M1346.59,187.47c5.64,11.9,10.71,23.15,16.54,33.87A289.87,289.87,0,0,0,1382.07,252c3.5,4.84,7.1,9.6,10.86,14.27,1.91,2.31,3.82,4.63,5.8,6.91,1,1.14,2,2.29,3,3.4s2,2.3,3,3.4c4.09,4.52,8.38,8.92,12.79,13.36l3.33,3.33,3.4,3.34c2.28,2.23,4.61,4.47,6.91,6.85a69,69,0,0,1-9.53-2.57c-1.57-.51-3.08-1.14-4.63-1.72s-3-1.29-4.52-2a107.57,107.57,0,0,1-17.08-10c-2.68-1.94-5.35-3.93-7.84-6.13s-4.92-4.46-7.33-6.77a127.25,127.25,0,0,1-12.87-15.3,120.53,120.53,0,0,1-17.34-35.78,107.83,107.83,0,0,1-3.75-19.44A82.19,82.19,0,0,1,1346.59,187.47Z"/><path class="cls-2" d="M1516.37,124.05c-17.57,7.07-34.44,14.07-50.46,22.51-4,2.09-8,4.27-11.87,6.48s-7.76,4.51-11.53,6.94-7.52,4.85-11.21,7.36-7.31,5.13-10.86,7.85c-7.15,5.37-14.06,11.08-21,17l-20.74,18.05c-6.86,6.05-13.64,12.24-20.42,18.53l-10.21,9.5c-3.41,3.19-6.83,6.4-10.37,9.56,1.92-4.34,4.1-8.54,6.42-12.66s4.81-8.15,7.4-12.11a237.79,237.79,0,0,1,17.06-22.71c1.55-1.79,3.09-3.6,4.67-5.37s3.2-3.48,4.78-5.19c3.16-3.45,6.48-6.8,9.84-10.16a212.9,212.9,0,0,1,21.7-18.83A185.24,185.24,0,0,1,1434,145.24a182.2,182.2,0,0,1,26.35-11.63,175.18,175.18,0,0,1,27.71-7.25c4.68-.84,9.41-1.44,14.13-1.85,2.36-.22,4.74-.31,7.1-.43S1514,124,1516.37,124.05Z"/><path class="cls-2" d="M1595.87,199.54l-15.12,2.67c-5,.9-9.94,1.9-14.85,2.94-9.81,2.13-19.48,4.47-29,7.3a335.7,335.7,0,0,0-54.82,21.34c-8.77,4.34-17.32,9.12-25.74,14.2-4.21,2.54-8.35,5.21-12.5,7.92-2.08,1.35-4.13,2.75-6.19,4.15s-4.14,2.8-6.2,4.22c-8.31,5.64-16.36,11.45-24.41,17.52-4,3-8,6.13-12,9.26s-8,6.33-12.08,9.49a177.57,177.57,0,0,1,18-25.17,227.64,227.64,0,0,1,21.72-22.2,243.8,243.8,0,0,1,24.34-19.49,212.07,212.07,0,0,1,27.08-16,207.25,207.25,0,0,1,59.77-19C1554.55,195.53,1575.62,195.43,1595.87,199.54Z"/><path class="cls-2" d="M1590,375.92a217.89,217.89,0,0,0,11.83-25.19,193.31,193.31,0,0,0,8.12-26.1l.75-3.31.65-3.32.64-3.32.32-1.66.24-1.67,1-6.66.67-6.69.16-1.66.08-1.68.18-3.34.19-3.33,0-3.34c.14-4.45-.15-8.89-.3-13.31a175.42,175.42,0,0,0-36.73-96.9,158.76,158.76,0,0,0-17.58-19.35,175.92,175.92,0,0,0-67.58-39.61,181.93,181.93,0,0,0-52.78-8.52,189.7,189.7,0,0,0-27.28,1.58,222.15,222.15,0,0,0-27.3,5.41,141,141,0,0,1,25.93-11.38,156.35,156.35,0,0,1,28-6.4,165.3,165.3,0,0,1,57.93,2.6c4.79,1,9.48,2.42,14.2,3.77l7,2.39c1.17.38,2.31.84,3.45,1.31l3.42,1.38c1.14.47,2.29.91,3.42,1.4l3.35,1.55c2.23,1,4.49,2.05,6.64,3.25s4.36,2.32,6.5,3.53l6.35,3.83a184,184,0,0,1,23.58,18,176.15,176.15,0,0,1,20.16,21.78,180.74,180.74,0,0,1,16.21,24.84A182.61,182.61,0,0,1,1623.1,213c.73,2.36,1.54,4.69,2.19,7.07l1.9,7.15c1.1,4.81,2.1,9.63,2.78,14.51a170.86,170.86,0,0,1,1.86,29.35c-.19,4.9-.46,9.78-1.07,14.62l-.4,3.63-.57,3.61-.6,3.6-.31,1.8-.39,1.78a169.43,169.43,0,0,1-8.24,27.78,159.57,159.57,0,0,1-12.94,25.6A140.45,140.45,0,0,1,1590,375.92Z"/><path class="cls-2" d="M1324.76,165.08a214.68,214.68,0,0,0-11.43,45c-.13,1-.3,1.88-.42,2.82l-.3,2.84c-.2,1.89-.42,3.77-.59,5.66s-.23,3.78-.35,5.66c-.05.94-.15,1.88-.17,2.82l0,2.83a184,184,0,0,0,.81,22.43,180.46,180.46,0,0,0,29.35,82.56,161.55,161.55,0,0,0,13.27,17.55,181.89,181.89,0,0,0,15.33,15.84c2.79,2.4,5.48,4.93,8.42,7.16,1.46,1.13,2.87,2.32,4.36,3.41l4.47,3.28,1.12.82,1.16.77,2.32,1.52c1.55,1,3.07,2.09,4.68,3l4.76,2.89c1.59,1,3.26,1.78,4.89,2.68,3.25,1.84,6.65,3.38,10,5.05,1.69.8,3.43,1.49,5.15,2.25s3.44,1.53,5.21,2.15a186.59,186.59,0,0,0,21.58,7.11,202.44,202.44,0,0,0,22.55,4.64c3.84.54,7.7,1,11.59,1.39s7.82.6,11.79.84c-3.84,1-7.73,1.81-11.67,2.48s-7.91,1.11-11.91,1.42-8,.43-12.06.43-8.07-.22-12.11-.54-8.08-.85-12.1-1.5c-2-.31-4-.7-6-1.11l-6-1.36c-2-.41-4-1-5.93-1.56s-4-1.11-5.9-1.75c-3.86-1.38-7.81-2.59-11.57-4.28a165.77,165.77,0,0,1-42.47-25.41c-1.6-1.33-3.16-2.71-4.72-4.08l-2.33-2.08-2.24-2.17c-1.48-1.46-3-2.88-4.45-4.37l-4.26-4.57a176.83,176.83,0,0,1-15.28-19.74,168.41,168.41,0,0,1-28.26-94c0-2.06.11-4.12.19-6.17s.16-4.11.4-6.15l.59-6.12c.23-2,.61-4.06.91-6.08l.48-3c.17-1,.41-2,.61-3,.41-2,.83-4,1.28-6s1.06-3.93,1.59-5.89l.81-2.93c.29-1,.63-1.93.95-2.89a145.46,145.46,0,0,1,9.22-22.33A130.59,130.59,0,0,1,1324.76,165.08Z"/><path class="cls-2" d="M1381.54,310.27h22l17.54,25.33,3.39,4.91,6,8.64V321.71q-.16-10-8.9-10.08v-1.36h19.07v1.36q-8.14,0-8.81,8.72v55.57h-1.36l-8-11.52L1407,342l-16.35-23.64v46.16q.6,9.66,8.81,10.09v1.35h-19.06v-1.35q8.82-.17,8.9-10.09V321a14.23,14.23,0,0,0-1.27-6.44l-.51-.84q-2-2-5.93-2.12Z"/><path class="cls-2" d="M1443.8,310.27h21.26v.09l16.77,43.71-7.71,21.43-.17.42L1452.86,321v43.45q.6,9.66,8.81,10.09v1.35h-19.06v-1.35q8.81-.17,8.9-10.09V321q0-6.86-3.48-8.55a9.35,9.35,0,0,0-4.23-.85Zm53.87,0h22.87v1.36c-3.56,0-5.81,1.16-6.78,3.47a19.2,19.2,0,0,0-.84,6.61v42.77q0,8,4.23,9.58a10.16,10.16,0,0,0,3.39.51v1.35h-30.49v-1.35q5.51,0,6.94-4.32a20.19,20.19,0,0,0,.68-5.77V314.34l-.17.42-22.11,61.16H1474l.17-.42,21.94-60.74Z"/><path class="cls-2" d="M1554.76,310.27h2.55l22.53,54.21,1,2.38q2.19,5.25,4.31,6.6a7.6,7.6,0,0,0,4.24,1.11v1.35h-30.58v-1.35q6.62,0,6.61-4.58a16.48,16.48,0,0,0-1.44-5.51l-3.56-8.55H1539l-3.22,8.55q-3.3,8.91,4.07,9.92a10.64,10.64,0,0,0,1.86.17v1.35h-19.06v-1.35q7.88-.17,11.69-10.09Zm-5.59,18.64-9.65,25.66h20.41Z"/></g></g></svg>