<svg xmlns="http://www.w3.org/2000/svg" viewBox="0 0 46.9 46.9"><defs><style>.cls-1{fill:none;stroke:#141613;stroke-miterlimit:10;stroke-width:0.43px;}.cls-2{fill:#141613;}</style></defs><title>pinterest</title><g id="Layer_2" data-name="Layer 2"><g id="OBJECTS"><path class="cls-1" d="M23.45,46.68h0A23.23,23.23,0,0,1,.22,23.45h0A23.23,23.23,0,0,1,23.45.22h0A23.23,23.23,0,0,1,46.68,23.45h0A23.23,23.23,0,0,1,23.45,46.68Z"/><path class="cls-2" d="M16.86,25.36a.48.48,0,0,0,.7-.35c.06-.25.22-.87.29-1.13a.69.69,0,0,0-.21-.78,4.08,4.08,0,0,1-.92-2.76,6.65,6.65,0,0,1,6.92-6.73c3.77,0,5.84,2.31,5.84,5.39,0,4.05-1.79,7.47-4.45,7.47a2.18,2.18,0,0,1-2.22-2.71c.42-1.78,1.24-3.7,1.24-5a1.88,1.88,0,0,0-1.9-2.11c-1.5,0-2.71,1.55-2.71,3.63a5.42,5.42,0,0,0,.45,2.23s-1.54,6.51-1.8,7.66A15.74,15.74,0,0,0,18,35.53a.2.2,0,0,0,.34.08A14.79,14.79,0,0,0,20.91,31c.18-.63,1-3.86,1-3.86a4,4,0,0,0,3.43,1.75c4.52,0,7.59-4.12,7.59-9.63,0-4.17-3.53-8-8.9-8C17.34,11.22,14,16,14,20,14,22.41,14.89,24.56,16.86,25.36Z"/></g></g></svg>