<svg xmlns="http://www.w3.org/2000/svg" viewBox="0 0 166.42 12.18"><defs><style>.cls-1{fill:none;stroke:#231f20;stroke-miterlimit:10;stroke-width:0.25px;}.cls-2{fill:#231f20;}</style></defs><title>principles</title><g id="Layer_2" data-name="Layer 2"><g id="Layer_1-2" data-name="Layer 1"><line class="cls-1" y1="6.13" x2="166.42" y2="6.13"/><path class="cls-2" d="M6.75,9.37a.45.45,0,0,1-.47-.47V.47A.45.45,0,0,1,6.75,0h2.4a3.13,3.13,0,0,1,1.57.39,2.89,2.89,0,0,1,1.07,1.07,3.28,3.28,0,0,1,.38,1.59,3.15,3.15,0,0,1-.38,1.55,2.89,2.89,0,0,1-1.07,1.07,3.13,3.13,0,0,1-1.57.39H7.21V8.9a.45.45,0,0,1-.13.34A.44.44,0,0,1,6.75,9.37Zm.46-4.21H9.15a2.2,2.2,0,0,0,1.09-.27A1.93,1.93,0,0,0,11,4.14a2.18,2.18,0,0,0,.27-1.09A2.24,2.24,0,0,0,11,1.93a1.93,1.93,0,0,0-.75-.75A2.11,2.11,0,0,0,9.15.9H7.21Z"/><path class="cls-2" d="M14,9.37a.45.45,0,0,1-.34-.12.45.45,0,0,1-.12-.33V3.26a.45.45,0,0,1,.12-.33A.45.45,0,0,1,14,2.81a.42.42,0,0,1,.45.45V8.92a.42.42,0,0,1-.45.45Zm-.07-4A2.69,2.69,0,0,1,14.28,4a2.47,2.47,0,0,1,2.19-1.26,2,2,0,0,1,.85.15.39.39,0,0,1,.23.46.38.38,0,0,1-.17.24.54.54,0,0,1-.27.05l-.37,0a2.68,2.68,0,0,0-1.19.14,1.72,1.72,0,0,0-.83.61,1.58,1.58,0,0,0-.31,1Z"/><path class="cls-2" d="M19.65,1.56a.62.62,0,0,1-.46-.19A.64.64,0,0,1,19,.9a.59.59,0,0,1,.2-.47.67.67,0,0,1,.91,0,.59.59,0,0,1,.2.47.65.65,0,0,1-.2.47A.6.6,0,0,1,19.65,1.56Zm0,7.81a.45.45,0,0,1-.34-.12.46.46,0,0,1-.13-.35V3.28a.46.46,0,0,1,.13-.35.45.45,0,0,1,.34-.12.48.48,0,0,1,.33.12.5.5,0,0,1,.12.35V8.9a.5.5,0,0,1-.12.35A.48.48,0,0,1,19.66,9.37Z"/><path class="cls-2" d="M22.93,9.37a.49.49,0,0,1-.34-.12.48.48,0,0,1-.12-.33V3.28a.5.5,0,0,1,.12-.35.49.49,0,0,1,.34-.12.45.45,0,0,1,.33.12.46.46,0,0,1,.13.35V8.92a.43.43,0,0,1-.46.45Zm5.16,0a.44.44,0,0,1-.33-.13.44.44,0,0,1-.13-.32V5.79a2.37,2.37,0,0,0-.29-1.22,1.76,1.76,0,0,0-.76-.72,2.47,2.47,0,0,0-1.1-.24,2.43,2.43,0,0,0-1.06.23,1.85,1.85,0,0,0-.75.62,1.52,1.52,0,0,0-.28.9h-.66A2.61,2.61,0,0,1,23.14,4a2.7,2.7,0,0,1,1-.93,2.88,2.88,0,0,1,1.41-.34,3.2,3.2,0,0,1,1.53.35,2.59,2.59,0,0,1,1.06,1,3.29,3.29,0,0,1,.39,1.66V8.92a.44.44,0,0,1-.13.32A.44.44,0,0,1,28.09,9.37Z"/><path class="cls-2" d="M33.52,9.43A3.17,3.17,0,0,1,30.67,7.8a3.36,3.36,0,0,1-.43-1.7,3.58,3.58,0,0,1,.41-1.72,3.05,3.05,0,0,1,1.12-1.19,3,3,0,0,1,1.63-.44A3,3,0,0,1,35.83,3.9a.35.35,0,0,1,.1.31.48.48,0,0,1-.2.28.39.39,0,0,1-.3.06.44.44,0,0,1-.28-.17,2.22,2.22,0,0,0-1.75-.79,2.19,2.19,0,0,0-1.18.32,2.23,2.23,0,0,0-.8.89,3,3,0,0,0-.28,1.3,2.69,2.69,0,0,0,.3,1.28,2.25,2.25,0,0,0,.84.89,2.41,2.41,0,0,0,1.24.32,2.93,2.93,0,0,0,.86-.12,2.13,2.13,0,0,0,.69-.39.52.52,0,0,1,.3-.14.42.42,0,0,1,.28.1.51.51,0,0,1,.17.3.34.34,0,0,1-.12.29A3.12,3.12,0,0,1,33.52,9.43Z"/><path class="cls-2" d="M38.39,1.56a.62.62,0,0,1-.46-.19A.68.68,0,0,1,37.74.9a.59.59,0,0,1,.2-.47A.67.67,0,0,1,38.4.25a.64.64,0,0,1,.45.18.59.59,0,0,1,.2.47.65.65,0,0,1-.66.66Zm0,7.81a.47.47,0,0,1-.34-.12.5.5,0,0,1-.13-.35V3.28a.5.5,0,0,1,.13-.35.47.47,0,0,1,.34-.12.45.45,0,0,1,.33.12.46.46,0,0,1,.13.35V8.9a.46.46,0,0,1-.13.35A.45.45,0,0,1,38.4,9.37Z"/><path class="cls-2" d="M41.68,12.18a.45.45,0,0,1-.47-.47V6.05a3.41,3.41,0,0,1,.45-1.69,3.21,3.21,0,0,1,1.19-1.18,3.54,3.54,0,0,1,3.4,0,3.34,3.34,0,0,1,1.2,1.19,3.38,3.38,0,0,1,.43,1.72,3.46,3.46,0,0,1-.42,1.7A3.23,3.23,0,0,1,46.3,9a3.33,3.33,0,0,1-3.12.1,3,3,0,0,1-1-.91v3.53a.45.45,0,0,1-.12.34A.44.44,0,0,1,41.68,12.18Zm2.85-3.59a2.47,2.47,0,0,0,1.25-.32,2.35,2.35,0,0,0,.87-.9A2.58,2.58,0,0,0,47,6.1a2.62,2.62,0,0,0-.32-1.29,2.38,2.38,0,0,0-2.12-1.22,2.36,2.36,0,0,0-1.23.33,2.4,2.4,0,0,0-.87.89,2.73,2.73,0,0,0-.31,1.29,2.68,2.68,0,0,0,.31,1.27,2.35,2.35,0,0,0,.87.9A2.45,2.45,0,0,0,44.53,8.59Z"/><path class="cls-2" d="M51.11,9.37a1.5,1.5,0,0,1-.86-.26,1.79,1.79,0,0,1-.59-.73,2.68,2.68,0,0,1-.21-1.09V.46a.45.45,0,0,1,.13-.33.48.48,0,0,1,.66,0,.45.45,0,0,1,.13.33V7.29a1.55,1.55,0,0,0,.21.85.62.62,0,0,0,.53.32h.3a.35.35,0,0,1,.29.13.49.49,0,0,1,.11.33.43.43,0,0,1-.15.33.61.61,0,0,1-.39.12Z"/><path class="cls-2" d="M55.69,9.43A3.48,3.48,0,0,1,54,9,3,3,0,0,1,52.8,7.82a3.38,3.38,0,0,1-.43-1.72,3.6,3.6,0,0,1,.4-1.74,3,3,0,0,1,2.74-1.61,3,3,0,0,1,1.59.41,2.72,2.72,0,0,1,1,1.15A3.58,3.58,0,0,1,58.53,6a.39.39,0,0,1-.12.3.44.44,0,0,1-.32.12H53V5.63h5.2L57.67,6a2.69,2.69,0,0,0-.25-1.25,2,2,0,0,0-.75-.86,2.07,2.07,0,0,0-1.16-.31,2.2,2.2,0,0,0-1.2.32,2.13,2.13,0,0,0-.79.89,2.9,2.9,0,0,0-.29,1.31,2.6,2.6,0,0,0,.32,1.29,2.32,2.32,0,0,0,.87.89,2.42,2.42,0,0,0,1.27.32,2.65,2.65,0,0,0,.87-.15,2.15,2.15,0,0,0,.71-.37.46.46,0,0,1,.58,0,.46.46,0,0,1,.17.31.37.37,0,0,1-.14.29,3.24,3.24,0,0,1-1,.56A3.41,3.41,0,0,1,55.69,9.43Z"/><path class="cls-2" d="M62.38,9.43A4.31,4.31,0,0,1,61,9.19a2.59,2.59,0,0,1-1.12-.72.36.36,0,0,1-.11-.32.42.42,0,0,1,.18-.31.46.46,0,0,1,.35-.1.49.49,0,0,1,.3.16,1.82,1.82,0,0,0,.76.51,2.89,2.89,0,0,0,1.05.18,2.13,2.13,0,0,0,1.28-.3.94.94,0,0,0,.41-.74.86.86,0,0,0-.41-.72,3.54,3.54,0,0,0-1.34-.43,3.66,3.66,0,0,1-1.78-.68A1.47,1.47,0,0,1,60,4.58a1.65,1.65,0,0,1,.32-1A2,2,0,0,1,61.17,3a3.44,3.44,0,0,1,1.18-.2A3.28,3.28,0,0,1,63.74,3a2.61,2.61,0,0,1,.94.75.44.44,0,0,1,.1.32.43.43,0,0,1-.19.28.53.53,0,0,1-.33,0,.56.56,0,0,1-.32-.17,1.83,1.83,0,0,0-.7-.51,2.35,2.35,0,0,0-.91-.16,1.87,1.87,0,0,0-1.06.27.79.79,0,0,0-.39.67A.76.76,0,0,0,61,5a1.15,1.15,0,0,0,.51.36,4.3,4.3,0,0,0,1,.27A4.62,4.62,0,0,1,64,6.05a1.9,1.9,0,0,1,.75.66,1.72,1.72,0,0,1,.22.83,1.6,1.6,0,0,1-.33,1,2.24,2.24,0,0,1-.91.66A3.52,3.52,0,0,1,62.38,9.43Z"/></g></g></svg>