<svg xmlns="http://www.w3.org/2000/svg" viewBox="0 0 166.42 9.43"><defs><style>.cls-1{fill:none;stroke:#231f20;stroke-miterlimit:10;stroke-width:0.25px;}.cls-2{fill:#231f20;}</style></defs><title>process</title><g id="Layer_2" data-name="Layer 2"><g id="Layer_1-2" data-name="Layer 1"><line class="cls-1" y1="6.13" x2="166.42" y2="6.13"/><path class="cls-2" d="M5.2,9.37a.43.43,0,0,1-.33-.13.46.46,0,0,1-.14-.34V.47A.46.46,0,0,1,4.87.13.43.43,0,0,1,5.2,0H7.6A3.1,3.1,0,0,1,9.17.39a2.75,2.75,0,0,1,1.07,1.07,3.18,3.18,0,0,1,.39,1.59,3.05,3.05,0,0,1-.39,1.55A2.75,2.75,0,0,1,9.17,5.67a3.1,3.1,0,0,1-1.57.39H5.67V8.9a.45.45,0,0,1-.47.47Zm.47-4.21H7.6a2.18,2.18,0,0,0,1.09-.27,1.93,1.93,0,0,0,.75-.75,2.18,2.18,0,0,0,.27-1.09,2.24,2.24,0,0,0-.27-1.12,1.93,1.93,0,0,0-.75-.75A2.08,2.08,0,0,0,7.6.9H5.67Z"/><path class="cls-2" d="M12.41,9.37A.42.42,0,0,1,12,8.92V3.26a.42.42,0,0,1,.45-.45.45.45,0,0,1,.34.12.45.45,0,0,1,.12.33V8.92a.45.45,0,0,1-.12.33A.45.45,0,0,1,12.41,9.37Zm-.07-4A2.91,2.91,0,0,1,12.73,4a2.67,2.67,0,0,1,.93-.93,2.47,2.47,0,0,1,1.26-.33,1.93,1.93,0,0,1,.85.15.38.38,0,0,1,.23.46.34.34,0,0,1-.16.24.61.61,0,0,1-.28.05l-.36,0a2.72,2.72,0,0,0-1.2.14,1.75,1.75,0,0,0-.82.61,1.52,1.52,0,0,0-.31,1Z"/><path class="cls-2" d="M20,9.43A3.34,3.34,0,0,1,18.25,9a3.09,3.09,0,0,1-1.19-1.19,3.34,3.34,0,0,1-.43-1.71,3.39,3.39,0,0,1,.43-1.73,3.09,3.09,0,0,1,1.19-1.19,3.62,3.62,0,0,1,3.42,0,3.07,3.07,0,0,1,1.18,1.19A3.5,3.5,0,0,1,23.3,6.1a3.35,3.35,0,0,1-.44,1.71A3.16,3.16,0,0,1,21.67,9,3.34,3.34,0,0,1,20,9.43Zm0-.84a2.47,2.47,0,0,0,1.25-.32,2.23,2.23,0,0,0,.86-.89,2.59,2.59,0,0,0,.32-1.28,2.62,2.62,0,0,0-.32-1.29,2.26,2.26,0,0,0-.86-.9A2.47,2.47,0,0,0,20,3.59a2.33,2.33,0,0,0-2.12,1.22,2.62,2.62,0,0,0-.31,1.29,2.58,2.58,0,0,0,.31,1.28A2.35,2.35,0,0,0,20,8.59Z"/><path class="cls-2" d="M28,9.43A3.17,3.17,0,0,1,25.18,7.8a3.33,3.33,0,0,1-.43-1.7,3.58,3.58,0,0,1,.41-1.72,3.1,3.1,0,0,1,1.11-1.19,3,3,0,0,1,1.63-.44A3.11,3.11,0,0,1,29.26,3a3.05,3.05,0,0,1,1.08.86.35.35,0,0,1,.1.31.5.5,0,0,1-.21.28.36.36,0,0,1-.29.06.44.44,0,0,1-.28-.17,2.24,2.24,0,0,0-1.76-.79,2.11,2.11,0,0,0-2,1.21,2.86,2.86,0,0,0-.28,1.3A2.69,2.69,0,0,0,26,7.38a2.25,2.25,0,0,0,.84.89A2.41,2.41,0,0,0,28,8.59a2.86,2.86,0,0,0,.85-.12,2.13,2.13,0,0,0,.69-.39.59.59,0,0,1,.3-.14.44.44,0,0,1,.45.4.3.3,0,0,1-.11.29A3.12,3.12,0,0,1,28,9.43Z"/><path class="cls-2" d="M35.23,9.43A3.49,3.49,0,0,1,33.5,9a3,3,0,0,1-1.17-1.19A3.38,3.38,0,0,1,31.9,6.1a3.72,3.72,0,0,1,.4-1.74,3.19,3.19,0,0,1,4.34-1.2,2.85,2.85,0,0,1,1,1.15A3.73,3.73,0,0,1,38.06,6a.39.39,0,0,1-.12.3.43.43,0,0,1-.31.12h-5.1V5.63h5.19L37.21,6A2.83,2.83,0,0,0,37,4.75a2,2,0,0,0-.75-.86,2.06,2.06,0,0,0-1.15-.31,2.14,2.14,0,0,0-2,1.21,2.9,2.9,0,0,0-.28,1.31,2.59,2.59,0,0,0,.31,1.29A2.35,2.35,0,0,0,35.23,8.6a2.75,2.75,0,0,0,.87-.15,2.19,2.19,0,0,0,.7-.37A.49.49,0,0,1,37.1,8a.48.48,0,0,1,.29.09.49.49,0,0,1,.16.31.34.34,0,0,1-.14.29,3.13,3.13,0,0,1-1,.56A3.39,3.39,0,0,1,35.23,9.43Z"/><path class="cls-2" d="M41.91,9.43a4.25,4.25,0,0,1-1.4-.24,2.62,2.62,0,0,1-1.13-.72.36.36,0,0,1-.11-.32.5.5,0,0,1,.18-.31.46.46,0,0,1,.35-.1.49.49,0,0,1,.3.16,1.82,1.82,0,0,0,.76.51,3,3,0,0,0,1,.18,2.13,2.13,0,0,0,1.28-.3.94.94,0,0,0,.41-.74.83.83,0,0,0-.41-.72,3.54,3.54,0,0,0-1.34-.43,3.66,3.66,0,0,1-1.78-.68,1.47,1.47,0,0,1-.56-1.14,1.65,1.65,0,0,1,.32-1A2,2,0,0,1,40.7,3a3.45,3.45,0,0,1,1.19-.2A3.27,3.27,0,0,1,43.27,3a2.61,2.61,0,0,1,.94.75.4.4,0,0,1,.1.32.41.41,0,0,1-.19.28.53.53,0,0,1-.33,0,.56.56,0,0,1-.32-.17,1.83,1.83,0,0,0-.7-.51,2.31,2.31,0,0,0-.91-.16,1.82,1.82,0,0,0-1,.27.78.78,0,0,0-.4.67.76.76,0,0,0,.15.48,1.13,1.13,0,0,0,.52.36,4.08,4.08,0,0,0,1,.27,4.54,4.54,0,0,1,1.42.42,1.9,1.9,0,0,1,.75.66,1.61,1.61,0,0,1,.22.83,1.6,1.6,0,0,1-.33,1,2.17,2.17,0,0,1-.91.66A3.52,3.52,0,0,1,41.91,9.43Z"/><path class="cls-2" d="M48.38,9.43A4.31,4.31,0,0,1,47,9.19a2.59,2.59,0,0,1-1.12-.72.36.36,0,0,1-.11-.32.42.42,0,0,1,.18-.31.46.46,0,0,1,.35-.1.49.49,0,0,1,.3.16,1.82,1.82,0,0,0,.76.51,2.89,2.89,0,0,0,1.05.18,2.13,2.13,0,0,0,1.28-.3.94.94,0,0,0,.41-.74.86.86,0,0,0-.41-.72,3.54,3.54,0,0,0-1.34-.43,3.66,3.66,0,0,1-1.78-.68A1.47,1.47,0,0,1,46,4.58a1.65,1.65,0,0,1,.32-1A2,2,0,0,1,47.17,3a3.44,3.44,0,0,1,1.18-.2A3.28,3.28,0,0,1,49.74,3a2.61,2.61,0,0,1,.94.75.44.44,0,0,1,.1.32.41.41,0,0,1-.19.28.53.53,0,0,1-.33,0,.56.56,0,0,1-.32-.17,1.83,1.83,0,0,0-.7-.51,2.35,2.35,0,0,0-.91-.16,1.87,1.87,0,0,0-1.06.27.79.79,0,0,0-.39.67A.76.76,0,0,0,47,5a1.15,1.15,0,0,0,.51.36,4.3,4.3,0,0,0,1,.27A4.62,4.62,0,0,1,50,6.05a1.9,1.9,0,0,1,.75.66,1.72,1.72,0,0,1,.22.83,1.6,1.6,0,0,1-.33,1,2.24,2.24,0,0,1-.91.66A3.52,3.52,0,0,1,48.38,9.43Z"/></g></g></svg>