<svg xmlns="http://www.w3.org/2000/svg" viewBox="0 0 1725.37 389.57"><defs><style>.cls-1{isolation:isolate;}.cls-10,.cls-13,.cls-17,.cls-2,.cls-5,.cls-8{fill:none;}.cls-2,.cls-3,.cls-5,.cls-8,.cls-9{stroke:#231f20;}.cls-10,.cls-13,.cls-17,.cls-2,.cls-3,.cls-5,.cls-8,.cls-9{stroke-miterlimit:10;}.cls-14,.cls-3,.cls-6,.cls-7{fill:#231f20;}.cls-3,.cls-5,.cls-9{stroke-width:0.25px;}.cls-11,.cls-14,.cls-15,.cls-3{mix-blend-mode:darken;}.cls-4,.cls-9{fill:#fff;}.cls-6{font-size:18px;font-family:MyriadPro-Regular, Myriad Pro;}.cls-13,.cls-17,.cls-8{stroke-width:0.75px;}.cls-10,.cls-13{stroke:#0177b4;}.cls-11,.cls-12{fill:#0177b4;}.cls-11,.cls-14,.cls-15{opacity:0.4;}.cls-16{fill:#0077b4;}.cls-17{stroke:#fff;}</style></defs><title>radius_2</title><g class="cls-1"><g id="Layer_2" data-name="Layer 2"><g id="Layer_1-2" data-name="Layer 1"><ellipse class="cls-2" cx="156.2" cy="233.17" rx="155.7" ry="155.91"/><path class="cls-3" d="M161.13,228.16a7,7,0,0,0-11.92,4.89v.36a7,7,0,0,0,2.08,4.77,6.86,6.86,0,0,0,9.87,0,6.84,6.84,0,0,0,2-4.8v-.19A6.88,6.88,0,0,0,161.13,228.16Z"/><polygon class="cls-4" points="156.24 233.09 156.24 233.24 156.16 233.17 156.24 233.09"/><line class="cls-5" x1="21.39" y1="310.56" x2="290.94" y2="154.94"/><line class="cls-5" x1="156.16" y1="233.17" x2="266.67" y2="343.67"/><text class="cls-6" transform="translate(149.21 223.19)">0</text><path class="cls-7" d="M228.55,281.41a15.62,15.62,0,0,1,3-.26,5,5,0,0,1,3.51,1,3,3,0,0,1,1,2.31,3.19,3.19,0,0,1-2.28,3.1v.05a3,3,0,0,1,1.78,2.45,18.93,18.93,0,0,0,.94,3.33h-1.62a15.42,15.42,0,0,1-.81-2.9c-.36-1.67-1-2.3-2.44-2.36h-1.47v5.26h-1.57Zm1.57,5.52h1.6c1.68,0,2.74-.91,2.74-2.3,0-1.57-1.14-2.25-2.79-2.27a6.6,6.6,0,0,0-1.55.14Z"/><path class="cls-7" d="M75.67,258a23.1,23.1,0,0,1,3.33-.25,7,7,0,0,1,4.92,1.51,5.6,5.6,0,0,1,1.71,4.36,6.41,6.41,0,0,1-1.75,4.72,7.49,7.49,0,0,1-5.36,1.74,25.42,25.42,0,0,1-2.85-.14Zm1.57,10.73a9,9,0,0,0,1.58.09c3.35,0,5.17-1.87,5.17-5.15,0-2.86-1.6-4.68-4.92-4.68a9.59,9.59,0,0,0-1.83.16Z"/><path class="cls-7" d="M260.64,101.5a7.7,7.7,0,0,1-3.2.58c-3.42,0-6-2.16-6-6.14a6,6,0,0,1,6.34-6.37,6.44,6.44,0,0,1,2.88.54l-.38,1.28a5.66,5.66,0,0,0-2.45-.51c-2.84,0-4.73,1.82-4.73,5,0,3,1.71,4.88,4.66,4.88a6.2,6.2,0,0,0,2.56-.51Z"/><path class="cls-7" d="M136.05,2.52A1.45,1.45,0,0,1,134.49,4,1.47,1.47,0,0,1,133,2.52,1.5,1.5,0,0,1,134.54,1,1.46,1.46,0,0,1,136.05,2.52Zm-2.74,17.36V6.33h2.46V19.88Z"/><path class="cls-7" d="M151.57,0V16.38c0,1.2,0,2.58.11,3.5h-2.21l-.12-2.35h0a5,5,0,0,1-4.62,2.66c-3.28,0-5.8-2.77-5.8-6.89C138.85,8.79,141.65,6,145,6a4.55,4.55,0,0,1,4.09,2.07h0V0ZM149.1,11.84a4.57,4.57,0,0,0-.11-1A3.62,3.62,0,0,0,145.43,8c-2.54,0-4.06,2.24-4.06,5.24,0,2.74,1.35,5,4,5A3.7,3.7,0,0,0,149,15.26a4.48,4.48,0,0,0,.11-1.06Z"/><path class="cls-7" d="M157,13.55c.05,3.33,2.18,4.71,4.64,4.71a9,9,0,0,0,3.76-.7l.42,1.76a11.05,11.05,0,0,1-4.51.84c-4.17,0-6.67-2.74-6.67-6.83S157.08,6,161,6c4.42,0,5.6,3.89,5.6,6.38a11.34,11.34,0,0,1-.08,1.15Zm7.22-1.76c0-1.57-.64-4-3.42-4-2.49,0-3.58,2.3-3.78,4Z"/><path class="cls-7" d="M177.19,19.88l-.2-1.71h-.08a5.05,5.05,0,0,1-4.15,2,3.86,3.86,0,0,1-4.14-3.89c0-3.28,2.91-5.07,8.15-5V11a2.8,2.8,0,0,0-3.08-3.14,6.72,6.72,0,0,0-3.53,1l-.56-1.63A8.47,8.47,0,0,1,174.05,6c4.14,0,5.15,2.83,5.15,5.54v5.07a18.8,18.8,0,0,0,.23,3.25ZM176.82,13c-2.69-.05-5.74.42-5.74,3.06a2.19,2.19,0,0,0,2.33,2.35,3.36,3.36,0,0,0,3.27-2.27,2.38,2.38,0,0,0,.14-.78Z"/><ellipse class="cls-2" cx="509.84" cy="233.17" rx="155.7" ry="155.91"/><path class="cls-8" d="M514.65,227.88a6.7,6.7,0,0,0-5-2.1,6.6,6.6,0,0,0-4.91,2.06,6.67,6.67,0,0,0-2,4.94v.36a7,7,0,0,0,2.08,4.77,6.86,6.86,0,0,0,9.87,0,6.89,6.89,0,0,0,2-4.8V233A6.9,6.9,0,0,0,514.65,227.88Z"/><line class="cls-8" x1="467.3" y1="233.17" x2="442.95" y2="233.17"/><line class="cls-8" x1="510.14" y1="233.17" x2="481.81" y2="233.17"/><line class="cls-8" x1="425.79" y1="233.17" x2="353.73" y2="233.17"/><polygon class="cls-4" points="498.06 265.88 498.06 266.03 497.98 265.96 498.06 265.88"/><path class="cls-8" d="M444.5,241.37c-1.7-2.2-6.68-2.2-6.68-2.2l6.8,9.47a2,2,0,0,0,1.82.94h4Z"/><path class="cls-8" d="M447.43,225.19a9.7,9.7,0,0,1-.55,3.31,9.17,9.17,0,0,1-1.62,2.77,9.61,9.61,0,0,1-2.31,1.91l-.27.17a16.3,16.3,0,0,1-3.89,1.56l-1.5.29a16.68,16.68,0,0,1-3.6.2h-3.41v13.94h-4.49V225.81h4.49v6.31H435a11.33,11.33,0,0,0,3.46-.49,6.8,6.8,0,0,0,2.5-1.35,5.6,5.6,0,0,0,1.54-2.08,7.06,7.06,0,0,0,.5-2.68,5.34,5.34,0,0,0-1.94-4.5q-2-1.52-5.88-1.52h-4.93s-4.49-.73-4.49-3.57h9.42a21,21,0,0,1,5.48.64,10.71,10.71,0,0,1,3.8,1.86,7.65,7.65,0,0,1,2.23,2.93A9.76,9.76,0,0,1,447.43,225.19Z"/><path class="cls-8" d="M480.94,236.94l-5.24-13.59c-.16-.41-.32-.88-.49-1.41s-.34-1.11-.49-1.72a26.46,26.46,0,0,1-1,3.15l-5.24,13.57-1.26,3.26-3.12,8.07a1.65,1.65,0,0,1-.53.75,1.48,1.48,0,0,1-1,.32H459.1l13.34-33.41H477l13.34,33.41h-3.49a1.53,1.53,0,0,1-1-.3,1.9,1.9,0,0,1-.56-.77l-3.12-8.07Z"/><path class="cls-8" d="M503.76,245.68h7.94a12.94,12.94,0,0,0,4.89-.88,10.15,10.15,0,0,0,3.73-2.56,11.5,11.5,0,0,0,2.37-4.09,18.43,18.43,0,0,0,0-11,11.77,11.77,0,0,0-2.37-4.11,10.28,10.28,0,0,0-3.73-2.56,12.94,12.94,0,0,0-4.89-.88h-7.94s-4.52-.16-4.52-3.67H511.7a18.18,18.18,0,0,1,6.72,1.2,15,15,0,0,1,5.2,3.41,15.32,15.32,0,0,1,3.35,5.28,20.2,20.2,0,0,1,0,13.66,15.18,15.18,0,0,1-3.35,5.27,14.93,14.93,0,0,1-5.2,3.39,18.18,18.18,0,0,1-6.72,1.2H499.24C499.24,245.69,503.76,245.68,503.76,245.68Z"/><path class="cls-8" d="M541.65,249.34h-4.52V215.93h4.52Z"/><path class="cls-8" d="M605.42,221.16a1.82,1.82,0,0,1-.45.52,1,1,0,0,1-.6.18,1.72,1.72,0,0,1-.93-.4,15.7,15.7,0,0,0-1.34-.88,11.75,11.75,0,0,0-1.93-.87,8.39,8.39,0,0,0-2.73-.39,8.06,8.06,0,0,0-2.67.4,5.76,5.76,0,0,0-1.93,1.11,4.65,4.65,0,0,0-1.18,1.64,5.29,5.29,0,0,0-.39,2,3.74,3.74,0,0,0,.68,2.32,5.88,5.88,0,0,0,1.82,1.58,14.4,14.4,0,0,0,2.56,1.13c1,.32,1.93.64,2.93,1s2,.72,2.94,1.15a10.5,10.5,0,0,1,2.56,1.62,7.41,7.41,0,0,1,1.82,2.4,8.15,8.15,0,0,1,.68,3.5,11.4,11.4,0,0,1-.74,4.11,9.57,9.57,0,0,1-2.18,3.35,10.07,10.07,0,0,1-3.52,2.24,13,13,0,0,1-4.73.82,14.52,14.52,0,0,1-5.92-1.18,14,14,0,0,1-4.54-3.19l1.3-2.14a1.88,1.88,0,0,1,.46-.43,1,1,0,0,1,.59-.18,1.36,1.36,0,0,1,.69.25,9.85,9.85,0,0,1,.87.62c.33.24.7.52,1.12.81a9.24,9.24,0,0,0,1.43.82,10,10,0,0,0,4.14.86,8.72,8.72,0,0,0,2.86-.44,6.06,6.06,0,0,0,2.13-1.25,5.5,5.5,0,0,0,1.34-1.92,6.47,6.47,0,0,0,.47-2.5,4.25,4.25,0,0,0-.69-2.48,5.8,5.8,0,0,0-1.81-1.62,12.57,12.57,0,0,0-2.56-1.11l-2.93-.93a30.41,30.41,0,0,1-2.93-1.11,9.45,9.45,0,0,1-2.57-1.63,7.54,7.54,0,0,1-1.8-2.51,9.14,9.14,0,0,1,2-10.08,9.86,9.86,0,0,1,3.24-2,11.85,11.85,0,0,1,4.41-.77,14.05,14.05,0,0,1,5.09.89,12,12,0,0,1,4,2.56Z"/><path class="cls-8" d="M565.17,245.55a9.21,9.21,0,0,0,3.7-.7,7.61,7.61,0,0,0,2.76-1.95,8.5,8.5,0,0,0,1.72-3A11.82,11.82,0,0,0,574,236v-20.3h4.49V236a15,15,0,0,1-.92,5.36,12.37,12.37,0,0,1-2.63,4.28,11.85,11.85,0,0,1-4.18,2.83,15.41,15.41,0,0,1-11.08,0,12,12,0,0,1-4.19-2.83,12.24,12.24,0,0,1-2.64-4.28,15,15,0,0,1-.92-5.36v-20.3h4.49V236a12.1,12.1,0,0,0,.59,3.85,8.72,8.72,0,0,0,1.73,3,7.73,7.73,0,0,0,2.77,2A9.13,9.13,0,0,0,565.17,245.55Z"/><path class="cls-9" d="M446.17,261.9a2.83,2.83,0,0,0,3,3.07,5.69,5.69,0,0,0,2.44-.46l.28,1.15a7.06,7.06,0,0,1-2.93.55,4.1,4.1,0,0,1-4.34-4.46c0-2.66,1.57-4.76,4.13-4.76,2.88,0,3.65,2.54,3.65,4.16a5.48,5.48,0,0,1-.06.75Zm4.7-1.15a2.29,2.29,0,0,0-2.22-2.61,2.67,2.67,0,0,0-2.46,2.61Z"/><path class="cls-9" d="M454.4,259.58c0-.91,0-1.66-.07-2.39h1.42l.09,1.46h0a3.23,3.23,0,0,1,2.91-1.66c1.22,0,3.12.73,3.12,3.76V266H460.3v-5.1c0-1.42-.52-2.61-2-2.61a2.27,2.27,0,0,0-2.14,1.65,2.09,2.09,0,0,0-.12.74V266h-1.6Z"/><path class="cls-9" d="M472.1,257.19c0,.64-.07,1.35-.07,2.43v5.13c0,2-.4,3.27-1.25,4a4.65,4.65,0,0,1-3.21,1.06,5.63,5.63,0,0,1-2.93-.73l.4-1.22a5,5,0,0,0,2.59.69c1.63,0,2.84-.86,2.84-3.08v-1h0a3.15,3.15,0,0,1-2.8,1.48c-2.19,0-3.76-1.86-3.76-4.31,0-3,1.95-4.69,4-4.69a2.93,2.93,0,0,1,2.75,1.53h0l.07-1.33Zm-1.65,3.49a2.36,2.36,0,0,0-.09-.73,2.33,2.33,0,0,0-2.24-1.7c-1.53,0-2.63,1.3-2.63,3.34,0,1.73.88,3.18,2.61,3.18a2.34,2.34,0,0,0,2.22-1.65,2.79,2.79,0,0,0,.13-.85Z"/><path class="cls-9" d="M476.37,254.71a1,1,0,0,1-2,0,1,1,0,0,1,1-1A1,1,0,0,1,476.37,254.71ZM474.58,266v-8.84h1.6V266Z"/><path class="cls-9" d="M478.84,259.58c0-.91,0-1.66-.07-2.39h1.42l.09,1.46h0a3.24,3.24,0,0,1,2.91-1.66c1.22,0,3.12.73,3.12,3.76V266h-1.61v-5.1c0-1.42-.52-2.61-2-2.61a2.27,2.27,0,0,0-2.14,1.65,2.1,2.1,0,0,0-.11.74V266h-1.61Z"/><path class="cls-9" d="M489.84,261.9a2.83,2.83,0,0,0,3,3.07,5.69,5.69,0,0,0,2.44-.46l.27,1.15a7.06,7.06,0,0,1-2.93.55,4.09,4.09,0,0,1-4.33-4.46c0-2.66,1.56-4.76,4.13-4.76,2.87,0,3.64,2.54,3.64,4.16,0,.33,0,.59,0,.75Zm4.7-1.15a2.29,2.29,0,0,0-2.22-2.61,2.67,2.67,0,0,0-2.46,2.61Z"/><path class="cls-9" d="M499,261.9a2.83,2.83,0,0,0,3,3.07,5.69,5.69,0,0,0,2.44-.46l.27,1.15a7,7,0,0,1-2.93.55,4.1,4.1,0,0,1-4.33-4.46c0-2.66,1.56-4.76,4.13-4.76,2.88,0,3.65,2.54,3.65,4.16a5.48,5.48,0,0,1-.06.75Zm4.69-1.15a2.28,2.28,0,0,0-2.22-2.61,2.65,2.65,0,0,0-2.45,2.61Z"/><path class="cls-9" d="M507.2,260c0-1,0-1.94-.07-2.76h1.4l.05,1.74h.08A2.64,2.64,0,0,1,511.1,257a1.58,1.58,0,0,1,.45.06v1.51a2.17,2.17,0,0,0-.54-.06,2.25,2.25,0,0,0-2.15,2.07,4.11,4.11,0,0,0-.08.75V266H507.2Z"/><path class="cls-9" d="M515,254.71a1,1,0,0,1-2,0,1,1,0,0,1,1-1A1,1,0,0,1,515,254.71ZM513.23,266v-8.84h1.6V266Z"/><path class="cls-9" d="M517.49,259.58c0-.91,0-1.66-.07-2.39h1.42l.09,1.46h0a3.25,3.25,0,0,1,2.92-1.66c1.22,0,3.11.73,3.11,3.76V266h-1.6v-5.1c0-1.42-.53-2.61-2-2.61A2.27,2.27,0,0,0,519.2,260a2.35,2.35,0,0,0-.11.74V266h-1.6Z"/><path class="cls-9" d="M535.19,257.19c0,.64-.07,1.35-.07,2.43v5.13c0,2-.4,3.27-1.26,4a4.61,4.61,0,0,1-3.2,1.06,5.65,5.65,0,0,1-2.94-.73l.4-1.22a5.06,5.06,0,0,0,2.59.69c1.64,0,2.84-.86,2.84-3.08v-1h0a3.13,3.13,0,0,1-2.8,1.48c-2.18,0-3.75-1.86-3.75-4.31,0-3,1.95-4.69,4-4.69a2.93,2.93,0,0,1,2.75,1.53h0l.07-1.33Zm-1.66,3.49a2.36,2.36,0,0,0-.09-.73,2.31,2.31,0,0,0-2.24-1.7c-1.53,0-2.62,1.3-2.62,3.34,0,1.73.87,3.18,2.6,3.18a2.35,2.35,0,0,0,2.23-1.65,2.77,2.77,0,0,0,.12-.85Z"/><path class="cls-9" d="M543.44,264.53a4.21,4.21,0,0,0,2.11.64c1.17,0,1.71-.59,1.71-1.31s-.45-1.19-1.63-1.63c-1.59-.57-2.33-1.44-2.33-2.5,0-1.42,1.14-2.59,3-2.59a4.29,4.29,0,0,1,2.17.55l-.4,1.16a3.39,3.39,0,0,0-1.8-.51c-.95,0-1.48.55-1.48,1.21s.53,1.06,1.68,1.49c1.53.59,2.31,1.35,2.31,2.67,0,1.55-1.2,2.65-3.29,2.65a5,5,0,0,1-2.48-.61Z"/><path class="cls-9" d="M551.76,262.05a2.83,2.83,0,0,0,3,3.07,5.88,5.88,0,0,0,2.44-.46l.27,1.15a7.23,7.23,0,0,1-2.93.55,4.09,4.09,0,0,1-4.33-4.46c0-2.66,1.56-4.76,4.13-4.76,2.87,0,3.64,2.54,3.64,4.16,0,.33,0,.58,0,.75Zm4.7-1.15a2.28,2.28,0,0,0-2.22-2.61,2.66,2.66,0,0,0-2.46,2.61Z"/><path class="cls-9" d="M560,260.09c0-1,0-1.93-.08-2.75h1.4l.06,1.73h.07a2.64,2.64,0,0,1,2.44-1.93,2.16,2.16,0,0,1,.46.05v1.52a2.19,2.19,0,0,0-2.7,2,5.63,5.63,0,0,0-.07.75v4.71H560Z"/><path class="cls-9" d="M567,257.34l1.73,5a23.42,23.42,0,0,1,.72,2.27h0c.2-.73.46-1.46.75-2.27l1.71-5h1.67l-3.46,8.83h-1.53l-3.35-8.83Z"/><path class="cls-9" d="M577,254.86a1,1,0,0,1-2,0,1,1,0,0,1,1-1A1,1,0,0,1,577,254.86Zm-1.78,11.31v-8.83h1.6v8.83Z"/><path class="cls-9" d="M585.71,265.84a5.86,5.86,0,0,1-2.53.52,4.19,4.19,0,0,1-4.39-4.51,4.49,4.49,0,0,1,4.74-4.69,5.37,5.37,0,0,1,2.22.45l-.37,1.24a3.67,3.67,0,0,0-1.85-.42,3.33,3.33,0,0,0-.06,6.65,4.59,4.59,0,0,0,2-.44Z"/><path class="cls-9" d="M588.37,262.05a2.83,2.83,0,0,0,3,3.07,5.85,5.85,0,0,0,2.44-.46l.28,1.15a7.29,7.29,0,0,1-2.94.55,4.1,4.1,0,0,1-4.33-4.46c0-2.66,1.57-4.76,4.13-4.76,2.88,0,3.65,2.54,3.65,4.16a5.63,5.63,0,0,1-.06.75Zm4.7-1.15a2.28,2.28,0,0,0-2.23-2.61,2.65,2.65,0,0,0-2.45,2.61Z"/><path class="cls-9" d="M596.38,264.53a4.22,4.22,0,0,0,2.12.64c1.16,0,1.71-.59,1.71-1.31s-.46-1.19-1.64-1.63c-1.59-.57-2.33-1.44-2.33-2.5,0-1.42,1.14-2.59,3-2.59a4.28,4.28,0,0,1,2.16.55l-.39,1.16a3.46,3.46,0,0,0-1.81-.51c-1,0-1.47.55-1.47,1.21s.52,1.06,1.67,1.49c1.53.59,2.31,1.35,2.31,2.67,0,1.55-1.2,2.65-3.29,2.65a5,5,0,0,1-2.48-.61Z"/><path class="cls-7" d="M473.89,19.38a9.16,9.16,0,0,1-3.89.78c-4.09,0-6.75-2.77-6.75-6.92a6.88,6.88,0,0,1,7.28-7.19,8.21,8.21,0,0,1,3.42.7l-.56,1.9A5.79,5.79,0,0,0,470.53,8c-3.11,0-4.79,2.29-4.79,5.12,0,3.14,2,5.07,4.71,5.07a7,7,0,0,0,3-.67Z"/><path class="cls-7" d="M488.87,13c0,5-3.47,7.2-6.75,7.2-3.66,0-6.49-2.69-6.49-7,0-4.54,3-7.2,6.72-7.2S488.87,8.85,488.87,13Zm-10.75.14c0,3,1.71,5.21,4.11,5.21s4.12-2.21,4.12-5.26c0-2.3-1.15-5.21-4.06-5.21S478.12,10.56,478.12,13.13Z"/><path class="cls-7" d="M492,10c0-1.4,0-2.55-.11-3.67h2.18l.14,2.24h.06A5,5,0,0,1,498.73,6c1.87,0,4.79,1.12,4.79,5.77v8.09h-2.47V12.07c0-2.19-.81-4-3.13-4a3.5,3.5,0,0,0-3.31,2.52,3.62,3.62,0,0,0-.17,1.15v8.15H492Z"/><path class="cls-7" d="M517.18,19.38a9.19,9.19,0,0,1-3.89.78c-4.09,0-6.75-2.77-6.75-6.92a6.88,6.88,0,0,1,7.28-7.19,8.16,8.16,0,0,1,3.41.7l-.56,1.9A5.75,5.75,0,0,0,513.82,8C510.71,8,509,10.3,509,13.13c0,3.14,2,5.07,4.7,5.07a7,7,0,0,0,3-.67Z"/><path class="cls-7" d="M521.27,13.55c.05,3.33,2.18,4.71,4.64,4.71a9,9,0,0,0,3.76-.7l.42,1.76a11.05,11.05,0,0,1-4.51.84c-4.17,0-6.67-2.74-6.67-6.83S521.32,6,525.27,6c4.42,0,5.6,3.89,5.6,6.38a11.34,11.34,0,0,1-.08,1.15Zm7.22-1.76c0-1.57-.64-4-3.42-4-2.49,0-3.58,2.3-3.78,4Z"/><path class="cls-7" d="M533.92,10.75c0-1.73,0-3.13-.11-4.42H536l.11,2.32h.06A5.33,5.33,0,0,1,541,6c3.27,0,5.74,2.77,5.74,6.89,0,4.87-3,7.28-6.16,7.28a4.78,4.78,0,0,1-4.18-2.13h0v7.36h-2.44Zm2.44,3.61a5.21,5.21,0,0,0,.11,1,3.81,3.81,0,0,0,3.7,2.89c2.6,0,4.11-2.13,4.11-5.24,0-2.72-1.43-5-4-5a3.92,3.92,0,0,0-3.72,3,3.75,3.75,0,0,0-.17,1Z"/><path class="cls-7" d="M552.82,2.44V6.33h3.53V8.2h-3.53v7.31c0,1.68.48,2.63,1.85,2.63A5.8,5.8,0,0,0,556.1,18l.11,1.84a5.93,5.93,0,0,1-2.18.34,3.38,3.38,0,0,1-2.66-1,5,5,0,0,1-1-3.52V8.2h-2.1V6.33h2.1V3.08Z"/><ellipse class="cls-10" cx="863.89" cy="233.17" rx="155.7" ry="155.91"/><path class="cls-11" d="M868.94,228.43A7,7,0,0,0,857,233.32v.36a7,7,0,0,0,2.09,4.77,6.85,6.85,0,0,0,9.86,0,6.84,6.84,0,0,0,2-4.8v-.19A6.88,6.88,0,0,0,868.94,228.43Z"/><path class="cls-12" d="M868.7,227.88a6.7,6.7,0,0,0-5-2.1,7,7,0,0,0-7,7v.36a7,7,0,0,0,2.08,4.77,6.86,6.86,0,0,0,9.87,0,6.89,6.89,0,0,0,2-4.8V233A6.9,6.9,0,0,0,868.7,227.88Z"/><line class="cls-13" x1="821.34" y1="233.17" x2="797" y2="233.17"/><line class="cls-13" x1="864.19" y1="233.17" x2="835.86" y2="233.17"/><line class="cls-13" x1="779.84" y1="233.17" x2="707.78" y2="233.17"/><polygon class="cls-7" points="852.11 265.88 852.11 266.03 852.03 265.96 852.11 265.88"/><path class="cls-14" d="M799.64,242.21C797.94,240,793,240,793,240l6.8,9.47a2,2,0,0,0,1.82.94h4Z"/><path class="cls-12" d="M798.55,241.37c-1.7-2.2-6.68-2.2-6.68-2.2l6.8,9.47a2,2,0,0,0,1.82.94h4Z"/><path class="cls-11" d="M801.48,226a9.66,9.66,0,0,1-.55,3.31,9.17,9.17,0,0,1-1.62,2.77A9.61,9.61,0,0,1,797,234a1.34,1.34,0,0,1-.27.17,16.75,16.75,0,0,1-3.89,1.57l-1.5.29a17.23,17.23,0,0,1-3.6.19h-3.41v13.94h-4.49V226.64h4.49V233h4.75a11.38,11.38,0,0,0,3.46-.49,6.66,6.66,0,0,0,2.5-1.35,5.52,5.52,0,0,0,1.54-2.08,7,7,0,0,0,.5-2.67,5.3,5.3,0,0,0-2-4.5c-1.3-1-3.26-1.52-5.87-1.52h-4.93s-4.49-.73-4.49-3.57h9.42a21.07,21.07,0,0,1,5.48.63,10.58,10.58,0,0,1,3.79,1.86,7.46,7.46,0,0,1,2.23,2.93A9.61,9.61,0,0,1,801.48,226Z"/><path class="cls-12" d="M801.48,225.19a9.7,9.7,0,0,1-.55,3.31,9.17,9.17,0,0,1-1.62,2.77,9.61,9.61,0,0,1-2.31,1.91l-.27.17a16.3,16.3,0,0,1-3.89,1.56l-1.5.29a16.68,16.68,0,0,1-3.6.2h-3.41v13.94h-4.49V225.81h4.49v6.31h4.75a11.38,11.38,0,0,0,3.46-.49,6.8,6.8,0,0,0,2.5-1.35,5.6,5.6,0,0,0,1.54-2.08,7.06,7.06,0,0,0,.5-2.68,5.32,5.32,0,0,0-2-4.5q-1.95-1.52-5.87-1.52h-4.93s-4.49-.73-4.49-3.57h9.42a21,21,0,0,1,5.48.64,10.58,10.58,0,0,1,3.79,1.86,7.46,7.46,0,0,1,2.23,2.93A9.58,9.58,0,0,1,801.48,225.19Z"/><path class="cls-11" d="M835,237.77l-5.23-13.59c-.16-.41-.32-.88-.49-1.41s-.34-1.11-.49-1.72a26.46,26.46,0,0,1-1,3.15l-5.24,13.57L821.27,241l-3.12,8.07a1.65,1.65,0,0,1-.53.75,1.54,1.54,0,0,1-1,.32h-3.49l13.34-33.41h4.56l13.34,33.41H840.9a1.51,1.51,0,0,1-1-.3,1.9,1.9,0,0,1-.56-.77L836.24,241Z"/><path class="cls-12" d="M835,236.94l-5.23-13.59c-.16-.41-.32-.88-.49-1.41s-.34-1.11-.49-1.72a26.46,26.46,0,0,1-1,3.15l-5.24,13.57-1.26,3.26-3.12,8.07a1.65,1.65,0,0,1-.53.75,1.48,1.48,0,0,1-1,.32h-3.49l13.34-33.41h4.56l13.34,33.41H840.9a1.51,1.51,0,0,1-1-.3,1.9,1.9,0,0,1-.56-.77l-3.12-8.07Z"/><path class="cls-11" d="M857.81,246.51h7.94a12.75,12.75,0,0,0,4.89-.89,10,10,0,0,0,3.72-2.55,11.38,11.38,0,0,0,2.38-4.09,18.43,18.43,0,0,0,0-11,11.55,11.55,0,0,0-2.38-4.11,10,10,0,0,0-3.72-2.56,12.94,12.94,0,0,0-4.89-.88h-7.94s-4.52-.16-4.52-3.67h12.46a18.18,18.18,0,0,1,6.72,1.2,15.07,15.07,0,0,1,5.2,3.41,15.32,15.32,0,0,1,3.35,5.28,20.2,20.2,0,0,1,0,13.66,15.18,15.18,0,0,1-3.35,5.27,15,15,0,0,1-5.2,3.39,18.18,18.18,0,0,1-6.72,1.2H853.29C853.29,246.52,857.81,246.51,857.81,246.51Z"/><path class="cls-12" d="M857.81,245.68h7.94a12.94,12.94,0,0,0,4.89-.88,10,10,0,0,0,3.72-2.56,11.38,11.38,0,0,0,2.38-4.09,18.43,18.43,0,0,0,0-11,11.64,11.64,0,0,0-2.38-4.11,10.15,10.15,0,0,0-3.72-2.56,12.94,12.94,0,0,0-4.89-.88h-7.94s-4.52-.16-4.52-3.67h12.46a18.18,18.18,0,0,1,6.72,1.2,15.07,15.07,0,0,1,5.2,3.41,15.32,15.32,0,0,1,3.35,5.28,20.2,20.2,0,0,1,0,13.66,15.18,15.18,0,0,1-3.35,5.27,15,15,0,0,1-5.2,3.39,18.18,18.18,0,0,1-6.72,1.2H853.29C853.29,245.69,857.81,245.68,857.81,245.68Z"/><path class="cls-11" d="M896.38,250.17H891V215.93h5.34Z"/><path class="cls-12" d="M895.7,249.34h-4.52V215.93h4.52Z"/><g class="cls-15"><path class="cls-12" d="M959.47,222a1.82,1.82,0,0,1-.45.52,1,1,0,0,1-.6.17,1.69,1.69,0,0,1-.93-.39,13.61,13.61,0,0,0-1.34-.88,10.28,10.28,0,0,0-1.93-.87,8.13,8.13,0,0,0-2.74-.4,8,8,0,0,0-2.66.41,5.59,5.59,0,0,0-1.93,1.11,4.33,4.33,0,0,0-1.18,1.64,5.29,5.29,0,0,0-.39,2,3.76,3.76,0,0,0,.68,2.32,5.72,5.72,0,0,0,1.82,1.57,13.44,13.44,0,0,0,2.56,1.14c1,.32,1.93.64,2.93,1s2,.72,2.94,1.15a10.69,10.69,0,0,1,2.56,1.62,7.25,7.25,0,0,1,1.81,2.4,8,8,0,0,1,.69,3.5,11.4,11.4,0,0,1-.74,4.11,9.66,9.66,0,0,1-2.18,3.35,10.31,10.31,0,0,1-3.52,2.24,13,13,0,0,1-4.73.81,14.51,14.51,0,0,1-5.92-1.17,14,14,0,0,1-4.54-3.19L941,244a1.71,1.71,0,0,1,.46-.43,1,1,0,0,1,.59-.18,1.39,1.39,0,0,1,.69.25c.25.16.55.37.87.62s.7.52,1.12.81a8.8,8.8,0,0,0,1.43.82,10,10,0,0,0,4.14.86,8.76,8.76,0,0,0,2.86-.44,6.15,6.15,0,0,0,2.13-1.25,5.5,5.5,0,0,0,1.34-1.92,6.47,6.47,0,0,0,.46-2.5,4.18,4.18,0,0,0-.69-2.48,5.43,5.43,0,0,0-1.8-1.62,12.57,12.57,0,0,0-2.56-1.11l-2.93-.93a30.59,30.59,0,0,1-2.94-1.11,9.55,9.55,0,0,1-2.56-1.63,7.65,7.65,0,0,1-1.8-2.51,9.14,9.14,0,0,1,2-10.08,9.76,9.76,0,0,1,3.24-2.05,11.65,11.65,0,0,1,4.41-.77,13.79,13.79,0,0,1,5.08.89,12.07,12.07,0,0,1,4.05,2.56Z"/><path class="cls-12" d="M919.22,246.38a9.25,9.25,0,0,0,3.7-.7,7.73,7.73,0,0,0,2.76-2,8.58,8.58,0,0,0,1.72-3,11.82,11.82,0,0,0,.6-3.85V216.56h4.49v20.31a15.27,15.27,0,0,1-.92,5.36,12.37,12.37,0,0,1-2.63,4.28,11.85,11.85,0,0,1-4.18,2.83,15.41,15.41,0,0,1-11.08,0,12,12,0,0,1-4.19-2.83,12.24,12.24,0,0,1-2.64-4.28,15,15,0,0,1-.92-5.36V216.56h4.49v20.29a12,12,0,0,0,.59,3.84,8.65,8.65,0,0,0,1.72,3,7.91,7.91,0,0,0,2.77,2A9.38,9.38,0,0,0,919.22,246.38Z"/></g><path class="cls-12" d="M959.47,221.16a1.82,1.82,0,0,1-.45.52,1,1,0,0,1-.6.18,1.72,1.72,0,0,1-.93-.4,15.7,15.7,0,0,0-1.34-.88,11.75,11.75,0,0,0-1.93-.87,8.41,8.41,0,0,0-2.74-.39,8,8,0,0,0-2.66.4,5.76,5.76,0,0,0-1.93,1.11,4.41,4.41,0,0,0-1.18,1.64,5.29,5.29,0,0,0-.39,2,3.74,3.74,0,0,0,.68,2.32,5.88,5.88,0,0,0,1.82,1.58,14.09,14.09,0,0,0,2.56,1.13c1,.32,1.93.64,2.93,1s2,.72,2.94,1.15a10.69,10.69,0,0,1,2.56,1.62,7.25,7.25,0,0,1,1.81,2.4,8,8,0,0,1,.69,3.5,11.4,11.4,0,0,1-.74,4.11,9.57,9.57,0,0,1-2.18,3.35,10.16,10.16,0,0,1-3.52,2.24,13,13,0,0,1-4.73.82,14.52,14.52,0,0,1-5.92-1.18,14,14,0,0,1-4.54-3.19l1.3-2.14a1.88,1.88,0,0,1,.46-.43,1,1,0,0,1,.59-.18,1.39,1.39,0,0,1,.69.25c.25.16.55.37.87.62s.7.52,1.12.81a8.8,8.8,0,0,0,1.43.82,10,10,0,0,0,4.14.86,8.76,8.76,0,0,0,2.86-.44,6.15,6.15,0,0,0,2.13-1.25,5.5,5.5,0,0,0,1.34-1.92,6.47,6.47,0,0,0,.46-2.5,4.18,4.18,0,0,0-.69-2.48,5.66,5.66,0,0,0-1.8-1.62,12.57,12.57,0,0,0-2.56-1.11l-2.93-.93a30.59,30.59,0,0,1-2.94-1.11,9.55,9.55,0,0,1-2.56-1.63,7.54,7.54,0,0,1-1.8-2.51,9.14,9.14,0,0,1,2-10.08,9.76,9.76,0,0,1,3.24-2,11.85,11.85,0,0,1,4.41-.77,14,14,0,0,1,5.08.89,12.07,12.07,0,0,1,4.05,2.56Z"/><path class="cls-12" d="M919.22,245.55a9.25,9.25,0,0,0,3.7-.7,7.61,7.61,0,0,0,2.76-1.95,8.5,8.5,0,0,0,1.72-3A11.82,11.82,0,0,0,928,236v-20.3h4.49V236a15.27,15.27,0,0,1-.92,5.36,12.37,12.37,0,0,1-2.63,4.28,11.85,11.85,0,0,1-4.18,2.83,15.41,15.41,0,0,1-11.08,0,12,12,0,0,1-4.19-2.83,12.24,12.24,0,0,1-2.64-4.28,15,15,0,0,1-.92-5.36v-20.3h4.49V236a12.1,12.1,0,0,0,.59,3.85,8.7,8.7,0,0,0,1.72,3,7.91,7.91,0,0,0,2.77,2A9.21,9.21,0,0,0,919.22,245.55Z"/><g class="cls-15"><path class="cls-12" d="M801.28,262.19a2.83,2.83,0,0,0,3,3.07,5.87,5.87,0,0,0,2.44-.45L807,266a7.06,7.06,0,0,1-2.93.55,4.1,4.1,0,0,1-4.33-4.45c0-2.67,1.56-4.77,4.13-4.77,2.87,0,3.64,2.54,3.64,4.16,0,.33,0,.59,0,.75ZM806,261a2.28,2.28,0,0,0-2.22-2.6,2.66,2.66,0,0,0-2.46,2.6Z"/><path class="cls-12" d="M809.52,259.87c0-.91,0-1.66-.08-2.38h1.42l.1,1.45h0a3.26,3.26,0,0,1,2.91-1.66c1.22,0,3.12.73,3.12,3.76v5.28h-1.6v-5.09c0-1.43-.53-2.61-2-2.61a2.28,2.28,0,0,0-2.15,1.64,2.37,2.37,0,0,0-.11.75v5.31h-1.6Z"/><path class="cls-12" d="M827.22,257.49c0,.63-.08,1.35-.08,2.42V265c0,2-.4,3.27-1.25,4a4.69,4.69,0,0,1-3.21,1.05,5.63,5.63,0,0,1-2.93-.73l.4-1.22a5.06,5.06,0,0,0,2.59.69c1.64,0,2.84-.85,2.84-3.08v-1h0a3.16,3.16,0,0,1-2.8,1.47c-2.19,0-3.75-1.86-3.75-4.3,0-3,2-4.7,4-4.7a2.94,2.94,0,0,1,2.75,1.54h0l.08-1.33ZM825.56,261a2.4,2.4,0,0,0-.09-.73,2.31,2.31,0,0,0-2.24-1.7c-1.53,0-2.62,1.3-2.62,3.34,0,1.74.87,3.18,2.6,3.18a2.33,2.33,0,0,0,2.22-1.64,2.61,2.61,0,0,0,.13-.86Z"/><path class="cls-12" d="M831.48,255a1,1,0,0,1-1,1,1,1,0,0,1-1-1,1,1,0,0,1,1-1A1,1,0,0,1,831.48,255Zm-1.79,11.32v-8.83h1.61v8.83Z"/><path class="cls-12" d="M834,259.87c0-.91,0-1.66-.07-2.38h1.42l.09,1.45h0a3.26,3.26,0,0,1,2.91-1.66c1.23,0,3.12.73,3.12,3.76v5.28h-1.6v-5.09c0-1.43-.53-2.61-2-2.61a2.28,2.28,0,0,0-2.15,1.64,2.37,2.37,0,0,0-.11.75v5.31H834Z"/><path class="cls-12" d="M845,262.19a2.83,2.83,0,0,0,3,3.07,5.87,5.87,0,0,0,2.44-.45l.27,1.14a7,7,0,0,1-2.93.55,4.1,4.1,0,0,1-4.33-4.45c0-2.67,1.56-4.77,4.13-4.77,2.88,0,3.64,2.54,3.64,4.16a5.86,5.86,0,0,1-.05.75Zm4.7-1.15a2.29,2.29,0,0,0-2.23-2.6A2.66,2.66,0,0,0,845,261Z"/><path class="cls-12" d="M854.08,262.19a2.83,2.83,0,0,0,3,3.07,5.87,5.87,0,0,0,2.44-.45l.28,1.14a7.06,7.06,0,0,1-2.93.55,4.1,4.1,0,0,1-4.34-4.45c0-2.67,1.57-4.77,4.13-4.77,2.88,0,3.65,2.54,3.65,4.16a5.48,5.48,0,0,1-.06.75Zm4.7-1.15a2.28,2.28,0,0,0-2.22-2.6,2.66,2.66,0,0,0-2.46,2.6Z"/><path class="cls-12" d="M862.31,260.24c0-1,0-1.93-.07-2.75h1.4l.06,1.73h.07a2.65,2.65,0,0,1,2.44-1.94,1.65,1.65,0,0,1,.46.06v1.51a3,3,0,0,0-.55-.05,2.25,2.25,0,0,0-2.15,2.06,4.25,4.25,0,0,0-.07.75v4.71h-1.59Z"/><path class="cls-12" d="M870.13,255a1,1,0,0,1-2,0,1,1,0,0,1,1-1A1,1,0,0,1,870.13,255Zm-1.79,11.32v-8.83h1.6v8.83Z"/><path class="cls-12" d="M872.6,259.87c0-.91,0-1.66-.07-2.38H874l.09,1.45h0a3.25,3.25,0,0,1,2.91-1.66c1.22,0,3.12.73,3.12,3.76v5.28H878.5v-5.09c0-1.43-.53-2.61-2-2.61a2.29,2.29,0,0,0-2.15,1.64,2.37,2.37,0,0,0-.11.75v5.31h-1.6Z"/><path class="cls-12" d="M890.3,257.49c0,.63-.07,1.35-.07,2.42V265c0,2-.4,3.27-1.25,4a4.69,4.69,0,0,1-3.21,1.05,5.61,5.61,0,0,1-2.93-.73l.4-1.22a5,5,0,0,0,2.58.69c1.64,0,2.85-.85,2.85-3.08v-1h0a3.17,3.17,0,0,1-2.81,1.47c-2.18,0-3.75-1.86-3.75-4.3,0-3,1.95-4.7,4-4.7a2.93,2.93,0,0,1,2.75,1.54h0l.07-1.33ZM888.65,261a2.4,2.4,0,0,0-.09-.73,2.33,2.33,0,0,0-2.25-1.7c-1.52,0-2.62,1.3-2.62,3.34,0,1.74.88,3.18,2.61,3.18a2.35,2.35,0,0,0,2.22-1.64,2.9,2.9,0,0,0,.13-.86Z"/></g><path class="cls-12" d="M801.22,261.9a2.83,2.83,0,0,0,3,3.07,5.69,5.69,0,0,0,2.44-.46l.28,1.15a7.08,7.08,0,0,1-2.94.55,4.1,4.1,0,0,1-4.33-4.46c0-2.66,1.57-4.76,4.13-4.76,2.88,0,3.65,2.54,3.65,4.16a5.48,5.48,0,0,1-.06.75Zm4.7-1.15a2.29,2.29,0,0,0-2.23-2.61,2.66,2.66,0,0,0-2.45,2.61Z"/><path class="cls-12" d="M809.45,259.58c0-.91,0-1.66-.07-2.39h1.42l.09,1.46h0a3.22,3.22,0,0,1,2.91-1.66c1.22,0,3.11.73,3.11,3.76V266h-1.6v-5.1c0-1.42-.53-2.61-2-2.61a2.27,2.27,0,0,0-2.15,1.65,2.35,2.35,0,0,0-.11.74V266h-1.6Z"/><path class="cls-12" d="M827.15,257.19c0,.64-.07,1.35-.07,2.43v5.13c0,2-.4,3.27-1.26,4a4.61,4.61,0,0,1-3.2,1.06,5.61,5.61,0,0,1-2.93-.73l.4-1.22a5,5,0,0,0,2.58.69c1.64,0,2.84-.86,2.84-3.08v-1h0a3.15,3.15,0,0,1-2.81,1.48c-2.18,0-3.75-1.86-3.75-4.31,0-3,2-4.69,4-4.69a2.93,2.93,0,0,1,2.75,1.53h0l.07-1.33Zm-1.66,3.49a2.37,2.37,0,0,0-.08-.73,2.33,2.33,0,0,0-2.25-1.7c-1.52,0-2.62,1.3-2.62,3.34,0,1.73.88,3.18,2.61,3.18a2.34,2.34,0,0,0,2.22-1.65,2.77,2.77,0,0,0,.12-.85Z"/><path class="cls-12" d="M831.42,254.71a1,1,0,0,1-2,0,1,1,0,0,1,1-1A1,1,0,0,1,831.42,254.71ZM829.63,266v-8.84h1.6V266Z"/><path class="cls-12" d="M833.89,259.58c0-.91,0-1.66-.07-2.39h1.42l.09,1.46h0a3.22,3.22,0,0,1,2.91-1.66c1.22,0,3.12.73,3.12,3.76V266h-1.61v-5.1c0-1.42-.53-2.61-2-2.61A2.28,2.28,0,0,0,835.6,260a2.35,2.35,0,0,0-.11.74V266h-1.6Z"/><path class="cls-12" d="M844.89,261.9a2.83,2.83,0,0,0,3,3.07,5.74,5.74,0,0,0,2.45-.46l.27,1.15a7.06,7.06,0,0,1-2.93.55,4.1,4.1,0,0,1-4.34-4.46c0-2.66,1.57-4.76,4.14-4.76,2.87,0,3.64,2.54,3.64,4.16a5.48,5.48,0,0,1-.06.75Zm4.7-1.15a2.29,2.29,0,0,0-2.22-2.61,2.67,2.67,0,0,0-2.46,2.61Z"/><path class="cls-12" d="M854,261.9a2.83,2.83,0,0,0,3,3.07,5.69,5.69,0,0,0,2.44-.46l.27,1.15a7,7,0,0,1-2.93.55,4.1,4.1,0,0,1-4.33-4.46c0-2.66,1.56-4.76,4.13-4.76,2.88,0,3.64,2.54,3.64,4.16,0,.33,0,.59,0,.75Zm4.69-1.15a2.28,2.28,0,0,0-2.22-2.61,2.67,2.67,0,0,0-2.46,2.61Z"/><path class="cls-12" d="M862.25,260c0-1,0-1.94-.07-2.76h1.4l0,1.74h.07a2.66,2.66,0,0,1,2.45-1.94,1.58,1.58,0,0,1,.45.06v1.51a2.2,2.2,0,0,0-.55-.06,2.24,2.24,0,0,0-2.14,2.07,4.11,4.11,0,0,0-.08.75V266h-1.58Z"/><path class="cls-12" d="M870.06,254.71a1,1,0,0,1-2,0,1,1,0,0,1,1-1A1,1,0,0,1,870.06,254.71ZM868.27,266v-8.84h1.61V266Z"/><path class="cls-12" d="M872.54,259.58c0-.91,0-1.66-.07-2.39h1.42l.09,1.46h0a3.25,3.25,0,0,1,2.92-1.66c1.22,0,3.11.73,3.11,3.76V266h-1.6v-5.1c0-1.42-.53-2.61-2-2.61a2.27,2.27,0,0,0-2.15,1.65,2.35,2.35,0,0,0-.11.74V266h-1.6Z"/><path class="cls-12" d="M890.24,257.19c0,.64-.07,1.35-.07,2.43v5.13c0,2-.41,3.27-1.26,4a4.63,4.63,0,0,1-3.2,1.06,5.65,5.65,0,0,1-2.94-.73l.4-1.22a5.06,5.06,0,0,0,2.59.69c1.64,0,2.84-.86,2.84-3.08v-1h0a3.13,3.13,0,0,1-2.8,1.48c-2.19,0-3.75-1.86-3.75-4.31,0-3,2-4.69,4-4.69a2.94,2.94,0,0,1,2.75,1.53h0l.08-1.33Zm-1.66,3.49a2.36,2.36,0,0,0-.09-.73,2.31,2.31,0,0,0-2.24-1.7c-1.53,0-2.62,1.3-2.62,3.34,0,1.73.87,3.18,2.6,3.18a2.33,2.33,0,0,0,2.22-1.65,2.51,2.51,0,0,0,.13-.85Z"/><g class="cls-15"><path class="cls-12" d="M897.49,264.25a4.18,4.18,0,0,0,2.11.64c1.17,0,1.71-.59,1.71-1.32s-.45-1.18-1.64-1.62c-1.58-.57-2.33-1.44-2.33-2.5,0-1.43,1.15-2.6,3-2.6a4.4,4.4,0,0,1,2.17.55l-.4,1.17a3.39,3.39,0,0,0-1.8-.51c-1,0-1.48.55-1.48,1.2s.53,1.06,1.68,1.5c1.53.58,2.31,1.35,2.31,2.67,0,1.55-1.2,2.64-3.3,2.64a5.06,5.06,0,0,1-2.47-.6Z"/><path class="cls-12" d="M905.81,261.77a2.82,2.82,0,0,0,3,3.06,5.93,5.93,0,0,0,2.45-.45l.27,1.14a7.06,7.06,0,0,1-2.93.55,4.1,4.1,0,0,1-4.34-4.45c0-2.67,1.57-4.77,4.14-4.77,2.87,0,3.64,2.54,3.64,4.17a5.79,5.79,0,0,1-.06.75Zm4.7-1.16a2.29,2.29,0,0,0-2.22-2.61,2.67,2.67,0,0,0-2.46,2.61Z"/><path class="cls-12" d="M914,259.81c0-1,0-1.93-.07-2.75h1.4l.06,1.73h.07a2.65,2.65,0,0,1,2.44-1.94,1.65,1.65,0,0,1,.46.06v1.51a3,3,0,0,0-.55-.05,2.25,2.25,0,0,0-2.15,2.06,4.25,4.25,0,0,0-.07.75v4.71H914Z"/><path class="cls-12" d="M921.07,257.06l1.73,5a22.27,22.27,0,0,1,.71,2.26h.06c.2-.73.45-1.46.74-2.26l1.71-5h1.68l-3.46,8.83h-1.53l-3.35-8.83Z"/><path class="cls-12" d="M931,254.57a1,1,0,0,1-2,0,1,1,0,0,1,1-1A1,1,0,0,1,931,254.57Zm-1.79,11.32v-8.83h1.61v8.83Z"/><path class="cls-12" d="M939.76,265.56a5.89,5.89,0,0,1-2.53.51,4.19,4.19,0,0,1-4.39-4.51,4.48,4.48,0,0,1,4.73-4.69,5.28,5.28,0,0,1,2.22.46l-.36,1.24a3.69,3.69,0,0,0-1.86-.42,3.33,3.33,0,0,0-.05,6.64,4.52,4.52,0,0,0,2-.43Z"/><path class="cls-12" d="M942.42,261.77a2.82,2.82,0,0,0,3,3.06,5.87,5.87,0,0,0,2.44-.45l.27,1.14a7,7,0,0,1-2.93.55,4.1,4.1,0,0,1-4.33-4.45c0-2.67,1.56-4.77,4.13-4.77,2.88,0,3.64,2.54,3.64,4.17a6.16,6.16,0,0,1,0,.75Zm4.7-1.16a2.29,2.29,0,0,0-2.23-2.61,2.67,2.67,0,0,0-2.46,2.61Z"/><path class="cls-12" d="M950.43,264.25a4.21,4.21,0,0,0,2.11.64c1.17,0,1.72-.59,1.72-1.32s-.46-1.18-1.64-1.62c-1.59-.57-2.33-1.44-2.33-2.5,0-1.43,1.14-2.6,3-2.6a4.4,4.4,0,0,1,2.17.55l-.4,1.17a3.39,3.39,0,0,0-1.8-.51c-.95,0-1.48.55-1.48,1.2s.53,1.06,1.68,1.5c1.53.58,2.31,1.35,2.31,2.67,0,1.55-1.2,2.64-3.29,2.64a5.07,5.07,0,0,1-2.48-.6Z"/></g><path class="cls-12" d="M897.49,264.53a4.18,4.18,0,0,0,2.11.64c1.17,0,1.71-.59,1.71-1.31s-.45-1.19-1.64-1.63c-1.58-.57-2.33-1.44-2.33-2.5,0-1.42,1.15-2.59,3-2.59a4.29,4.29,0,0,1,2.17.55l-.4,1.16a3.39,3.39,0,0,0-1.8-.51c-1,0-1.48.55-1.48,1.21s.53,1.06,1.68,1.49c1.53.59,2.31,1.35,2.31,2.67,0,1.55-1.2,2.65-3.3,2.65a5,5,0,0,1-2.47-.61Z"/><path class="cls-12" d="M905.81,262.05a2.83,2.83,0,0,0,3,3.07,5.9,5.9,0,0,0,2.45-.46l.27,1.15a7.23,7.23,0,0,1-2.93.55,4.1,4.1,0,0,1-4.34-4.46c0-2.66,1.57-4.76,4.14-4.76,2.87,0,3.64,2.54,3.64,4.16a5.63,5.63,0,0,1-.06.75Zm4.7-1.15a2.28,2.28,0,0,0-2.22-2.61,2.66,2.66,0,0,0-2.46,2.61Z"/><path class="cls-12" d="M914,260.09c0-1,0-1.93-.07-2.75h1.4l.06,1.73h.07a2.64,2.64,0,0,1,2.44-1.93,2.16,2.16,0,0,1,.46.05v1.52a2.19,2.19,0,0,0-2.7,2,4.35,4.35,0,0,0-.07.75v4.71H914Z"/><path class="cls-12" d="M921.07,257.34l1.73,5a23.24,23.24,0,0,1,.71,2.27h.06c.2-.73.45-1.46.74-2.27l1.71-5h1.68l-3.46,8.83h-1.53l-3.35-8.83Z"/><path class="cls-12" d="M931,254.86a1,1,0,0,1-2,0,1,1,0,0,1,1-1A1,1,0,0,1,931,254.86Zm-1.79,11.31v-8.83h1.61v8.83Z"/><path class="cls-12" d="M939.76,265.84a5.86,5.86,0,0,1-2.53.52,4.19,4.19,0,0,1-4.39-4.51,4.48,4.48,0,0,1,4.73-4.69,5.3,5.3,0,0,1,2.22.45l-.36,1.24a3.69,3.69,0,0,0-1.86-.42,3.33,3.33,0,0,0-.05,6.65,4.5,4.5,0,0,0,2-.44Z"/><path class="cls-12" d="M942.42,262.05a2.83,2.83,0,0,0,3,3.07,5.85,5.85,0,0,0,2.44-.46l.27,1.15a7.19,7.19,0,0,1-2.93.55,4.1,4.1,0,0,1-4.33-4.46c0-2.66,1.56-4.76,4.13-4.76,2.88,0,3.64,2.54,3.64,4.16a6,6,0,0,1,0,.75Zm4.7-1.15a2.28,2.28,0,0,0-2.23-2.61,2.66,2.66,0,0,0-2.46,2.61Z"/><path class="cls-12" d="M950.43,264.53a4.21,4.21,0,0,0,2.11.64c1.17,0,1.72-.59,1.72-1.31s-.46-1.19-1.64-1.63c-1.59-.57-2.33-1.44-2.33-2.5,0-1.42,1.14-2.59,3-2.59a4.29,4.29,0,0,1,2.17.55l-.4,1.16a3.39,3.39,0,0,0-1.8-.51c-.95,0-1.48.55-1.48,1.21s.53,1.06,1.68,1.49c1.53.59,2.31,1.35,2.31,2.67,0,1.55-1.2,2.65-3.29,2.65a5,5,0,0,1-2.48-.61Z"/><path class="cls-7" d="M807.07,10.75c0-1.73-.06-3.13-.12-4.42h2.22l.11,2.32h.05A5.34,5.34,0,0,1,814.15,6c3.28,0,5.74,2.77,5.74,6.89,0,4.87-3,7.28-6.16,7.28a4.76,4.76,0,0,1-4.17-2.13h-.06v7.36h-2.43Zm2.43,3.61a6.12,6.12,0,0,0,.11,1,3.81,3.81,0,0,0,3.7,2.89c2.6,0,4.12-2.13,4.12-5.24,0-2.72-1.43-5-4-5a3.93,3.93,0,0,0-3.72,3,4.18,4.18,0,0,0-.17,1Z"/><path class="cls-7" d="M823,10.56c0-1.6,0-3-.11-4.23H825L825.13,9h.11A4.06,4.06,0,0,1,829,6a2.93,2.93,0,0,1,.7.08V8.43a3.37,3.37,0,0,0-4.14,3.08,6.45,6.45,0,0,0-.12,1.15v7.22H823Z"/><path class="cls-7" d="M844.14,13c0,5-3.47,7.2-6.75,7.2-3.67,0-6.5-2.69-6.5-7,0-4.54,3-7.2,6.72-7.2S844.14,8.85,844.14,13Zm-10.75.14c0,3,1.7,5.21,4.11,5.21s4.12-2.21,4.12-5.26c0-2.3-1.15-5.21-4.06-5.21S833.39,10.56,833.39,13.13Z"/><path class="cls-7" d="M850.21,2.44V6.33h3.53V8.2h-3.53v7.31c0,1.68.48,2.63,1.85,2.63a5.73,5.73,0,0,0,1.43-.16l.11,1.84a5.89,5.89,0,0,1-2.18.34,3.39,3.39,0,0,1-2.66-1,5,5,0,0,1-1-3.52V8.2h-2.1V6.33h2.1V3.08Z"/><path class="cls-7" d="M868.61,13c0,5-3.47,7.2-6.75,7.2-3.67,0-6.49-2.69-6.49-7,0-4.54,3-7.2,6.72-7.2S868.61,8.85,868.61,13Zm-10.75.14c0,3,1.71,5.21,4.11,5.21s4.12-2.21,4.12-5.26c0-2.3-1.15-5.21-4.06-5.21S857.86,10.56,857.86,13.13Z"/><path class="cls-7" d="M874.69,2.44V6.33h3.52V8.2h-3.52v7.31c0,1.68.47,2.63,1.84,2.63A5.73,5.73,0,0,0,878,18l.11,1.84a5.89,5.89,0,0,1-2.18.34,3.39,3.39,0,0,1-2.66-1,5,5,0,0,1-1-3.52V8.2h-2.1V6.33h2.1V3.08Z"/><path class="cls-7" d="M882.13,6.33l3,8c.31.89.64,2,.87,2.77h0c.26-.81.54-1.85.87-2.83l2.69-7.95h2.61L888.49,16c-1.77,4.65-3,7-4.65,8.48a6.61,6.61,0,0,1-3,1.6L880.2,24a6.54,6.54,0,0,0,2.16-1.21,7.45,7.45,0,0,0,2.07-2.74,1.84,1.84,0,0,0,.2-.59,2.16,2.16,0,0,0-.17-.64l-5-12.49Z"/><path class="cls-7" d="M894.42,10.75c0-1.73,0-3.13-.11-4.42h2.21l.12,2.32h.05A5.34,5.34,0,0,1,901.51,6c3.27,0,5.74,2.77,5.74,6.89,0,4.87-3,7.28-6.16,7.28a4.76,4.76,0,0,1-4.17-2.13h-.06v7.36h-2.44Zm2.44,3.61a6.12,6.12,0,0,0,.11,1,3.81,3.81,0,0,0,3.7,2.89c2.6,0,4.11-2.13,4.11-5.24,0-2.72-1.42-5-4-5A3.92,3.92,0,0,0,897,11a3.75,3.75,0,0,0-.17,1Z"/><path class="cls-7" d="M911.73,13.55c0,3.33,2.18,4.71,4.65,4.71a9,9,0,0,0,3.75-.7l.42,1.76a11,11,0,0,1-4.51.84c-4.17,0-6.66-2.74-6.66-6.83S911.78,6,915.73,6c4.43,0,5.6,3.89,5.6,6.38a9,9,0,0,1-.08,1.15ZM919,11.79c0-1.57-.64-4-3.41-4-2.5,0-3.59,2.3-3.78,4Z"/><ellipse class="cls-16" cx="1217.16" cy="233.17" rx="155.7" ry="155.91"/><path class="cls-14" d="M1222.22,228.43a7,7,0,0,0-11.93,4.89v.36a7,7,0,0,0,2.08,4.77,6.86,6.86,0,0,0,9.87,0,6.83,6.83,0,0,0,2-4.8v-.19A6.87,6.87,0,0,0,1222.22,228.43Z"/><path class="cls-4" d="M1222,227.88a6.71,6.71,0,0,0-5-2.1,7,7,0,0,0-7,7v.36a7.09,7.09,0,0,0,2.08,4.77,6.86,6.86,0,0,0,9.87,0,6.8,6.8,0,0,0,2-4.8V233A6.89,6.89,0,0,0,1222,227.88Z"/><line class="cls-17" x1="1174.62" y1="233.17" x2="1150.28" y2="233.17"/><line class="cls-17" x1="1217.47" y1="233.17" x2="1189.14" y2="233.17"/><line class="cls-17" x1="1133.11" y1="233.17" x2="1061.05" y2="233.17"/><polygon class="cls-4" points="1205.38 265.88 1205.38 266.03 1205.31 265.96 1205.38 265.88"/><path class="cls-14" d="M1152.91,242.21c-1.7-2.21-6.67-2.21-6.67-2.21l6.79,9.47a2,2,0,0,0,1.83.94h4Z"/><path class="cls-4" d="M1151.82,241.37c-1.69-2.2-6.67-2.2-6.67-2.2l6.8,9.47a2,2,0,0,0,1.82.94h4Z"/><path class="cls-14" d="M1154.75,226a9.91,9.91,0,0,1-.54,3.31,9.2,9.2,0,0,1-1.63,2.77,9.75,9.75,0,0,1-2.3,1.91,1.4,1.4,0,0,1-.28.17,16.49,16.49,0,0,1-3.88,1.57l-1.5.29a17.26,17.26,0,0,1-3.6.19h-3.42v13.94h-4.49V226.64h4.49V233h4.75a11.33,11.33,0,0,0,3.46-.49,6.71,6.71,0,0,0,2.51-1.35,5.6,5.6,0,0,0,1.53-2.08,6.83,6.83,0,0,0,.5-2.67,5.29,5.29,0,0,0-1.94-4.5c-1.31-1-3.26-1.52-5.87-1.52h-4.94s-4.49-.73-4.49-3.57h9.43a21.07,21.07,0,0,1,5.48.63,10.58,10.58,0,0,1,3.79,1.86,7.55,7.55,0,0,1,2.23,2.93A9.61,9.61,0,0,1,1154.75,226Z"/><path class="cls-4" d="M1154.75,225.19a10,10,0,0,1-.54,3.31,9.2,9.2,0,0,1-1.63,2.77,9.75,9.75,0,0,1-2.3,1.91l-.28.17a16.06,16.06,0,0,1-3.88,1.56l-1.5.29a16.71,16.71,0,0,1-3.6.2h-3.42v13.94h-4.49V225.81h4.49v6.31h4.75a11.33,11.33,0,0,0,3.46-.49,6.85,6.85,0,0,0,2.51-1.35,5.68,5.68,0,0,0,1.53-2.08,6.88,6.88,0,0,0,.5-2.68,5.31,5.31,0,0,0-1.94-4.5c-1.31-1-3.26-1.52-5.87-1.52h-4.94s-4.49-.73-4.49-3.57h9.43a21,21,0,0,1,5.48.64,10.58,10.58,0,0,1,3.79,1.86,7.55,7.55,0,0,1,2.23,2.93A9.58,9.58,0,0,1,1154.75,225.19Z"/><path class="cls-14" d="M1188.26,237.77,1183,224.18c-.15-.41-.32-.88-.49-1.41s-.33-1.11-.49-1.72a24.74,24.74,0,0,1-1,3.15l-5.24,13.57-1.25,3.26-3.12,8.07a1.68,1.68,0,0,1-.54.75,1.52,1.52,0,0,1-1,.32h-3.49l13.34-33.41h4.56l13.35,33.41h-3.5a1.48,1.48,0,0,1-1-.3,1.81,1.81,0,0,1-.56-.77l-3.12-8.07Z"/><path class="cls-4" d="M1188.26,236.94,1183,223.35c-.15-.41-.32-.88-.49-1.41s-.33-1.11-.49-1.72a24.74,24.74,0,0,1-1,3.15l-5.24,13.57-1.25,3.26-3.12,8.07a1.68,1.68,0,0,1-.54.75,1.46,1.46,0,0,1-1,.32h-3.49l13.34-33.41h4.56l13.35,33.41h-3.5a1.48,1.48,0,0,1-1-.3,1.81,1.81,0,0,1-.56-.77l-3.12-8.07Z"/><path class="cls-14" d="M1211.09,246.51H1219a12.72,12.72,0,0,0,4.89-.89,10,10,0,0,0,3.73-2.55A11.36,11.36,0,0,0,1230,239a18.43,18.43,0,0,0,0-11,11.53,11.53,0,0,0-2.37-4.11,10.07,10.07,0,0,0-3.73-2.56,12.91,12.91,0,0,0-4.89-.88h-7.93s-4.52-.16-4.52-3.67H1219a18.1,18.1,0,0,1,6.72,1.2,14.88,14.88,0,0,1,5.2,3.41,15.2,15.2,0,0,1,3.36,5.28,20.2,20.2,0,0,1,0,13.66,15.06,15.06,0,0,1-3.36,5.27,14.84,14.84,0,0,1-5.2,3.39,18.1,18.1,0,0,1-6.72,1.2h-12.45C1206.57,246.52,1211.09,246.51,1211.09,246.51Z"/><path class="cls-4" d="M1211.09,245.68H1219a12.91,12.91,0,0,0,4.89-.88,10.07,10.07,0,0,0,3.73-2.56,11.36,11.36,0,0,0,2.37-4.09,18.43,18.43,0,0,0,0-11,11.62,11.62,0,0,0-2.37-4.11,10.19,10.19,0,0,0-3.73-2.56,12.91,12.91,0,0,0-4.89-.88h-7.93s-4.52-.16-4.52-3.67H1219a18.1,18.1,0,0,1,6.72,1.2,14.88,14.88,0,0,1,5.2,3.41,15.2,15.2,0,0,1,3.36,5.28,20.2,20.2,0,0,1,0,13.66,15.06,15.06,0,0,1-3.36,5.27,14.84,14.84,0,0,1-5.2,3.39,18.1,18.1,0,0,1-6.72,1.2h-12.45C1206.57,245.69,1211.09,245.68,1211.09,245.68Z"/><path class="cls-14" d="M1249.65,250.17h-5.33V215.93h5.33Z"/><path class="cls-4" d="M1249,249.34h-4.51V215.93H1249Z"/><g class="cls-15"><path class="cls-7" d="M1312.75,222a1.84,1.84,0,0,1-.46.52,1,1,0,0,1-.59.17,1.64,1.64,0,0,1-.93-.39c-.36-.27-.81-.56-1.34-.88a10.58,10.58,0,0,0-1.93-.87,8.21,8.21,0,0,0-2.74-.4,8,8,0,0,0-2.66.41,5.64,5.64,0,0,0-1.94,1.11,4.42,4.42,0,0,0-1.17,1.64,5.12,5.12,0,0,0-.4,2,3.76,3.76,0,0,0,.69,2.32,5.68,5.68,0,0,0,1.81,1.57,13.83,13.83,0,0,0,2.57,1.14c.95.32,1.93.64,2.93,1s2,.72,2.93,1.15a10.31,10.31,0,0,1,2.56,1.62,7.41,7.41,0,0,1,1.82,2.4,8,8,0,0,1,.68,3.5,11.19,11.19,0,0,1-.74,4.11,9.52,9.52,0,0,1-2.18,3.35,10.17,10.17,0,0,1-3.51,2.24,13,13,0,0,1-4.74.81,14.5,14.5,0,0,1-5.91-1.17,13.84,13.84,0,0,1-4.54-3.19l1.3-2.14a1.67,1.67,0,0,1,.45-.43,1.06,1.06,0,0,1,.6-.18,1.39,1.39,0,0,1,.69.25c.25.16.54.37.87.62l1.11.81a8.91,8.91,0,0,0,1.44.82,9.13,9.13,0,0,0,1.83.61,9.53,9.53,0,0,0,2.3.25,8.72,8.72,0,0,0,2.86-.44,6.06,6.06,0,0,0,2.13-1.25,5.5,5.5,0,0,0,1.34-1.92,6.47,6.47,0,0,0,.47-2.5,4.18,4.18,0,0,0-.69-2.48,5.64,5.64,0,0,0-1.8-1.62,12.82,12.82,0,0,0-2.56-1.11l-2.94-.93c-1-.32-2-.69-2.93-1.11a9.24,9.24,0,0,1-2.56-1.63,7.53,7.53,0,0,1-1.81-2.51,9.14,9.14,0,0,1,2-10.08,9.86,9.86,0,0,1,3.24-2.05,11.65,11.65,0,0,1,4.41-.77,13.81,13.81,0,0,1,5.09.89,11.93,11.93,0,0,1,4,2.56Z"/><path class="cls-7" d="M1272.5,246.38a9.25,9.25,0,0,0,3.7-.7,7.91,7.91,0,0,0,2.76-2,8.74,8.74,0,0,0,1.72-3,12.1,12.1,0,0,0,.59-3.85V216.56h4.49v20.31a15.27,15.27,0,0,1-.91,5.36,12.39,12.39,0,0,1-2.64,4.28,11.9,11.9,0,0,1-4.17,2.83,15.41,15.41,0,0,1-11.08,0,12,12,0,0,1-4.2-2.83,12.54,12.54,0,0,1-2.64-4.28,15.27,15.27,0,0,1-.92-5.36V216.56h4.49v20.29a11.72,11.72,0,0,0,.6,3.84,8.5,8.5,0,0,0,1.72,3,7.82,7.82,0,0,0,2.77,2A9.35,9.35,0,0,0,1272.5,246.38Z"/></g><path class="cls-4" d="M1312.75,221.16a1.84,1.84,0,0,1-.46.52,1,1,0,0,1-.59.18,1.66,1.66,0,0,1-.93-.4c-.36-.26-.81-.56-1.34-.88a12.15,12.15,0,0,0-1.93-.87,8.49,8.49,0,0,0-2.74-.39,8,8,0,0,0-2.66.4,5.81,5.81,0,0,0-1.94,1.11,4.5,4.5,0,0,0-1.17,1.64,5.12,5.12,0,0,0-.4,2,3.74,3.74,0,0,0,.69,2.32,5.84,5.84,0,0,0,1.81,1.58,14.51,14.51,0,0,0,2.57,1.13c.95.32,1.93.64,2.93,1s2,.72,2.93,1.15a10.31,10.31,0,0,1,2.56,1.62,7.41,7.41,0,0,1,1.82,2.4,8,8,0,0,1,.68,3.5,11.19,11.19,0,0,1-.74,4.11,9.43,9.43,0,0,1-2.18,3.35,10,10,0,0,1-3.51,2.24,13,13,0,0,1-4.74.82,14.5,14.5,0,0,1-5.91-1.18,13.84,13.84,0,0,1-4.54-3.19l1.3-2.14a1.84,1.84,0,0,1,.45-.43,1.06,1.06,0,0,1,.6-.18,1.39,1.39,0,0,1,.69.25c.25.16.54.37.87.62l1.11.81a8.91,8.91,0,0,0,1.44.82,9.13,9.13,0,0,0,1.83.61,9.53,9.53,0,0,0,2.3.25,8.72,8.72,0,0,0,2.86-.44,6.06,6.06,0,0,0,2.13-1.25,5.5,5.5,0,0,0,1.34-1.92,6.47,6.47,0,0,0,.47-2.5,4.18,4.18,0,0,0-.69-2.48,5.88,5.88,0,0,0-1.8-1.62,12.82,12.82,0,0,0-2.56-1.11l-2.94-.93c-1-.32-2-.69-2.93-1.11a9.24,9.24,0,0,1-2.56-1.63,7.43,7.43,0,0,1-1.81-2.51,9.14,9.14,0,0,1,2-10.08,9.86,9.86,0,0,1,3.24-2,11.85,11.85,0,0,1,4.41-.77,14,14,0,0,1,5.09.89,11.93,11.93,0,0,1,4,2.56Z"/><path class="cls-4" d="M1272.5,245.55a9.25,9.25,0,0,0,3.7-.7,7.78,7.78,0,0,0,2.76-1.95,8.65,8.65,0,0,0,1.72-3,12.1,12.1,0,0,0,.59-3.85v-20.3h4.49V236a15.27,15.27,0,0,1-.91,5.36,12.39,12.39,0,0,1-2.64,4.28,11.9,11.9,0,0,1-4.17,2.83,15.41,15.41,0,0,1-11.08,0,12,12,0,0,1-4.2-2.83,12.54,12.54,0,0,1-2.64-4.28,15.27,15.27,0,0,1-.92-5.36v-20.3h4.49V236a11.82,11.82,0,0,0,.6,3.85,8.54,8.54,0,0,0,1.72,3,7.82,7.82,0,0,0,2.77,2A9.18,9.18,0,0,0,1272.5,245.55Z"/><g class="cls-15"><path class="cls-7" d="M1154.56,262.19a2.83,2.83,0,0,0,3,3.07,5.87,5.87,0,0,0,2.44-.45l.28,1.14a7.08,7.08,0,0,1-2.94.55,4.1,4.1,0,0,1-4.33-4.45c0-2.67,1.57-4.77,4.13-4.77,2.88,0,3.65,2.54,3.65,4.16a5.48,5.48,0,0,1-.06.75Zm4.7-1.15a2.28,2.28,0,0,0-2.22-2.6,2.66,2.66,0,0,0-2.46,2.6Z"/><path class="cls-7" d="M1162.79,259.87c0-.91,0-1.66-.07-2.38h1.42l.09,1.45h0a3.25,3.25,0,0,1,2.91-1.66c1.22,0,3.11.73,3.11,3.76v5.28h-1.6v-5.09c0-1.43-.53-2.61-2-2.61a2.29,2.29,0,0,0-2.15,1.64,2.39,2.39,0,0,0-.1.75v5.31h-1.61Z"/><path class="cls-7" d="M1180.5,257.49c0,.63-.08,1.35-.08,2.42V265c0,2-.4,3.27-1.26,4a4.65,4.65,0,0,1-3.2,1.05,5.61,5.61,0,0,1-2.93-.73l.4-1.22a5,5,0,0,0,2.58.69c1.64,0,2.84-.85,2.84-3.08v-1h0a3.17,3.17,0,0,1-2.81,1.47c-2.18,0-3.75-1.86-3.75-4.3,0-3,2-4.7,4-4.7a2.93,2.93,0,0,1,2.75,1.54h0l.07-1.33Zm-1.66,3.48a2.4,2.4,0,0,0-.09-.73,2.32,2.32,0,0,0-2.24-1.7c-1.53,0-2.63,1.3-2.63,3.34,0,1.74.88,3.18,2.61,3.18a2.35,2.35,0,0,0,2.22-1.64,2.9,2.9,0,0,0,.13-.86Z"/><path class="cls-7" d="M1184.76,255a1,1,0,0,1-2,0,1,1,0,0,1,1-1A1,1,0,0,1,1184.76,255ZM1183,266.32v-8.83h1.6v8.83Z"/><path class="cls-7" d="M1187.23,259.87c0-.91,0-1.66-.07-2.38h1.42l.09,1.45h0a3.25,3.25,0,0,1,2.91-1.66c1.22,0,3.11.73,3.11,3.76v5.28h-1.6v-5.09c0-1.43-.53-2.61-2-2.61a2.29,2.29,0,0,0-2.15,1.64,2.39,2.39,0,0,0-.1.75v5.31h-1.61Z"/><path class="cls-7" d="M1198.23,262.19a2.83,2.83,0,0,0,3,3.07,5.94,5.94,0,0,0,2.44-.45L1204,266a7.06,7.06,0,0,1-2.93.55,4.1,4.1,0,0,1-4.34-4.45c0-2.67,1.57-4.77,4.14-4.77,2.88,0,3.64,2.54,3.64,4.16a5.48,5.48,0,0,1-.06.75Zm4.7-1.15a2.28,2.28,0,0,0-2.22-2.6,2.66,2.66,0,0,0-2.46,2.6Z"/><path class="cls-7" d="M1207.36,262.19a2.83,2.83,0,0,0,3,3.07,5.87,5.87,0,0,0,2.44-.45l.27,1.14a7,7,0,0,1-2.93.55,4.1,4.1,0,0,1-4.33-4.45c0-2.67,1.56-4.77,4.13-4.77,2.88,0,3.64,2.54,3.64,4.16a5.86,5.86,0,0,1,0,.75Zm4.7-1.15a2.29,2.29,0,0,0-2.23-2.6,2.66,2.66,0,0,0-2.46,2.6Z"/><path class="cls-7" d="M1215.59,260.24c0-1,0-1.93-.07-2.75h1.4l0,1.73h.08a2.64,2.64,0,0,1,2.44-1.94,1.53,1.53,0,0,1,.45.06v1.51a2.87,2.87,0,0,0-.55-.05,2.24,2.24,0,0,0-2.14,2.06,4.21,4.21,0,0,0-.08.75v4.71h-1.58Z"/><path class="cls-7" d="M1223.4,255a1,1,0,1,1-2,0,1,1,0,0,1,1-1A1,1,0,0,1,1223.4,255Zm-1.78,11.32v-8.83h1.6v8.83Z"/><path class="cls-7" d="M1225.88,259.87c0-.91,0-1.66-.07-2.38h1.42l.09,1.45h0a3.27,3.27,0,0,1,2.92-1.66c1.22,0,3.11.73,3.11,3.76v5.28h-1.6v-5.09c0-1.43-.53-2.61-2-2.61a2.28,2.28,0,0,0-2.15,1.64,2.37,2.37,0,0,0-.11.75v5.31h-1.6Z"/><path class="cls-7" d="M1243.58,257.49c0,.63-.07,1.35-.07,2.42V265c0,2-.4,3.27-1.26,4a4.65,4.65,0,0,1-3.2,1.05,5.67,5.67,0,0,1-2.94-.73l.41-1.22a5,5,0,0,0,2.58.69c1.64,0,2.84-.85,2.84-3.08v-1h0a3.18,3.18,0,0,1-2.81,1.47c-2.19,0-3.75-1.86-3.75-4.3,0-3,2-4.7,4-4.7a2.93,2.93,0,0,1,2.75,1.54h0l.08-1.33Zm-1.66,3.48a2.12,2.12,0,0,0-.09-.73,2.31,2.31,0,0,0-2.24-1.7c-1.53,0-2.62,1.3-2.62,3.34,0,1.74.87,3.18,2.6,3.18a2.33,2.33,0,0,0,2.22-1.64,2.61,2.61,0,0,0,.13-.86Z"/></g><path class="cls-4" d="M1154.5,261.9a2.83,2.83,0,0,0,3,3.07,5.69,5.69,0,0,0,2.44-.46l.27,1.15a7,7,0,0,1-2.93.55,4.1,4.1,0,0,1-4.33-4.46c0-2.66,1.56-4.76,4.13-4.76,2.88,0,3.64,2.54,3.64,4.16a5.86,5.86,0,0,1,0,.75Zm4.69-1.15a2.28,2.28,0,0,0-2.22-2.61,2.67,2.67,0,0,0-2.46,2.61Z"/><path class="cls-4" d="M1162.73,259.58c0-.91,0-1.66-.08-2.39h1.42l.1,1.46h0a3.25,3.25,0,0,1,2.92-1.66c1.22,0,3.11.73,3.11,3.76V266h-1.6v-5.1c0-1.42-.53-2.61-2-2.61a2.27,2.27,0,0,0-2.15,1.65,2.1,2.1,0,0,0-.11.74V266h-1.6Z"/><path class="cls-4" d="M1180.43,257.19c0,.64-.07,1.35-.07,2.43v5.13c0,2-.4,3.27-1.26,4a4.65,4.65,0,0,1-3.21,1.06,5.63,5.63,0,0,1-2.93-.73l.4-1.22a5.06,5.06,0,0,0,2.59.69c1.64,0,2.84-.86,2.84-3.08v-1h0A3.15,3.15,0,0,1,1176,266c-2.19,0-3.75-1.86-3.75-4.31,0-3,2-4.69,4-4.69a2.93,2.93,0,0,1,2.75,1.53h0l.08-1.33Zm-1.66,3.49a2.36,2.36,0,0,0-.09-.73,2.31,2.31,0,0,0-2.24-1.7c-1.53,0-2.62,1.3-2.62,3.34,0,1.73.87,3.18,2.6,3.18a2.33,2.33,0,0,0,2.22-1.65,2.79,2.79,0,0,0,.13-.85Z"/><path class="cls-4" d="M1184.69,254.71a1,1,0,0,1-2,0,1,1,0,0,1,1-1A1,1,0,0,1,1184.69,254.71ZM1182.91,266v-8.84h1.6V266Z"/><path class="cls-4" d="M1187.17,259.58c0-.91,0-1.66-.08-2.39h1.42l.1,1.46h0a3.25,3.25,0,0,1,2.92-1.66c1.22,0,3.11.73,3.11,3.76V266h-1.6v-5.1c0-1.42-.53-2.61-2-2.61a2.27,2.27,0,0,0-2.15,1.65,2.35,2.35,0,0,0-.11.74V266h-1.6Z"/><path class="cls-4" d="M1198.17,261.9a2.83,2.83,0,0,0,3,3.07,5.69,5.69,0,0,0,2.44-.46l.27,1.15a7,7,0,0,1-2.93.55,4.1,4.1,0,0,1-4.33-4.46c0-2.66,1.56-4.76,4.13-4.76,2.88,0,3.65,2.54,3.65,4.16a5.48,5.48,0,0,1-.06.75Zm4.7-1.15a2.29,2.29,0,0,0-2.22-2.61,2.65,2.65,0,0,0-2.46,2.61Z"/><path class="cls-4" d="M1207.29,261.9a2.83,2.83,0,0,0,3,3.07,5.74,5.74,0,0,0,2.45-.46l.27,1.15a7.06,7.06,0,0,1-2.93.55,4.1,4.1,0,0,1-4.34-4.46c0-2.66,1.57-4.76,4.14-4.76,2.87,0,3.64,2.54,3.64,4.16a5.48,5.48,0,0,1-.06.75Zm4.7-1.15a2.29,2.29,0,0,0-2.22-2.61,2.67,2.67,0,0,0-2.46,2.61Z"/><path class="cls-4" d="M1215.52,260c0-1,0-1.94-.07-2.76h1.4l.06,1.74h.07a2.65,2.65,0,0,1,2.44-1.94,1.65,1.65,0,0,1,.46.06v1.51a2.19,2.19,0,0,0-2.7,2,4.16,4.16,0,0,0-.07.75V266h-1.59Z"/><path class="cls-4" d="M1223.34,254.71a1,1,0,0,1-2,0,1,1,0,0,1,1-1A1,1,0,0,1,1223.34,254.71ZM1221.55,266v-8.84h1.6V266Z"/><path class="cls-4" d="M1225.81,259.58c0-.91,0-1.66-.07-2.39h1.42l.09,1.46h0a3.24,3.24,0,0,1,2.91-1.66c1.22,0,3.12.73,3.12,3.76V266h-1.61v-5.1c0-1.42-.53-2.61-2-2.61a2.29,2.29,0,0,0-2.16,1.65,2.37,2.37,0,0,0-.1.74V266h-1.61Z"/><path class="cls-4" d="M1243.52,257.19c0,.64-.08,1.35-.08,2.43v5.13c0,2-.4,3.27-1.26,4a4.61,4.61,0,0,1-3.2,1.06,5.61,5.61,0,0,1-2.93-.73l.4-1.22a5,5,0,0,0,2.58.69c1.64,0,2.84-.86,2.84-3.08v-1h0A3.15,3.15,0,0,1,1239,266c-2.18,0-3.75-1.86-3.75-4.31,0-3,2-4.69,4-4.69a2.93,2.93,0,0,1,2.75,1.53h0l.07-1.33Zm-1.66,3.49a2.36,2.36,0,0,0-.09-.73,2.32,2.32,0,0,0-2.24-1.7c-1.53,0-2.62,1.3-2.62,3.34,0,1.73.87,3.18,2.6,3.18a2.34,2.34,0,0,0,2.22-1.65,2.79,2.79,0,0,0,.13-.85Z"/><g class="cls-15"><path class="cls-7" d="M1250.77,264.25a4.18,4.18,0,0,0,2.11.64c1.16,0,1.71-.59,1.71-1.32s-.46-1.18-1.64-1.62c-1.58-.57-2.33-1.44-2.33-2.5,0-1.43,1.15-2.6,3-2.6a4.43,4.43,0,0,1,2.17.55l-.4,1.17a3.46,3.46,0,0,0-1.81-.51c-.94,0-1.47.55-1.47,1.2s.53,1.06,1.68,1.5c1.52.58,2.31,1.35,2.31,2.67,0,1.55-1.2,2.64-3.3,2.64a5.1,5.1,0,0,1-2.48-.6Z"/><path class="cls-7" d="M1259.09,261.77a2.82,2.82,0,0,0,3,3.06,5.87,5.87,0,0,0,2.44-.45l.27,1.14a7,7,0,0,1-2.93.55,4.1,4.1,0,0,1-4.33-4.45c0-2.67,1.56-4.77,4.13-4.77,2.88,0,3.65,2.54,3.65,4.17a5.79,5.79,0,0,1-.06.75Zm4.7-1.16a2.29,2.29,0,0,0-2.22-2.61,2.65,2.65,0,0,0-2.46,2.61Z"/><path class="cls-7" d="M1267.32,259.81c0-1,0-1.93-.07-2.75h1.4l0,1.73h.08a2.64,2.64,0,0,1,2.44-1.94,1.53,1.53,0,0,1,.45.06v1.51a2.76,2.76,0,0,0-.54-.05,2.25,2.25,0,0,0-2.15,2.06,4.21,4.21,0,0,0-.08.75v4.71h-1.58Z"/><path class="cls-7" d="M1274.35,257.06l1.73,5a22.27,22.27,0,0,1,.71,2.26h0c.2-.73.46-1.46.75-2.26l1.71-5H1281l-3.46,8.83H1276l-3.35-8.83Z"/><path class="cls-7" d="M1284.28,254.57a1,1,0,0,1-2,0,1,1,0,0,1,1-1A1,1,0,0,1,1284.28,254.57Zm-1.79,11.32v-8.83h1.6v8.83Z"/><path class="cls-7" d="M1293,265.56a5.82,5.82,0,0,1-2.53.51,4.19,4.19,0,0,1-4.39-4.51,4.49,4.49,0,0,1,4.74-4.69,5.31,5.31,0,0,1,2.22.46l-.37,1.24a3.67,3.67,0,0,0-1.85-.42,3.05,3.05,0,0,0-3.11,3.34,3,3,0,0,0,3,3.3,4.53,4.53,0,0,0,2-.43Z"/><path class="cls-7" d="M1295.69,261.77a2.83,2.83,0,0,0,3,3.06,5.91,5.91,0,0,0,2.44-.45l.27,1.14a7,7,0,0,1-2.93.55,4.1,4.1,0,0,1-4.34-4.45c0-2.67,1.57-4.77,4.14-4.77,2.88,0,3.64,2.54,3.64,4.17a5.79,5.79,0,0,1-.06.75Zm4.7-1.16a2.29,2.29,0,0,0-2.22-2.61,2.67,2.67,0,0,0-2.46,2.61Z"/><path class="cls-7" d="M1303.71,264.25a4.18,4.18,0,0,0,2.11.64c1.17,0,1.71-.59,1.71-1.32s-.46-1.18-1.64-1.62c-1.58-.57-2.33-1.44-2.33-2.5,0-1.43,1.15-2.6,3-2.6a4.4,4.4,0,0,1,2.17.55l-.4,1.17a3.45,3.45,0,0,0-1.8-.51c-1,0-1.48.55-1.48,1.2s.53,1.06,1.68,1.5c1.53.58,2.31,1.35,2.31,2.67,0,1.55-1.2,2.64-3.3,2.64a5,5,0,0,1-2.47-.6Z"/></g><path class="cls-4" d="M1250.77,264.53a4.18,4.18,0,0,0,2.11.64c1.16,0,1.71-.59,1.71-1.31s-.46-1.19-1.64-1.63c-1.58-.57-2.33-1.44-2.33-2.5,0-1.42,1.15-2.59,3-2.59a4.32,4.32,0,0,1,2.17.55l-.4,1.16a3.46,3.46,0,0,0-1.81-.51c-.94,0-1.47.55-1.47,1.21s.53,1.06,1.68,1.49c1.52.59,2.31,1.35,2.31,2.67,0,1.55-1.2,2.65-3.3,2.65a5,5,0,0,1-2.48-.61Z"/><path class="cls-4" d="M1259.09,262.05a2.83,2.83,0,0,0,3,3.07,5.85,5.85,0,0,0,2.44-.46l.27,1.15a7.15,7.15,0,0,1-2.93.55,4.1,4.1,0,0,1-4.33-4.46c0-2.66,1.56-4.76,4.13-4.76,2.88,0,3.65,2.54,3.65,4.16a5.63,5.63,0,0,1-.06.75Zm4.7-1.15c0-1-.42-2.61-2.22-2.61a2.64,2.64,0,0,0-2.46,2.61Z"/><path class="cls-4" d="M1267.32,260.09c0-1,0-1.93-.07-2.75h1.4l0,1.73h.08a2.63,2.63,0,0,1,2.44-1.93,2,2,0,0,1,.45.05v1.52a2.12,2.12,0,0,0-.54-.06,2.25,2.25,0,0,0-2.15,2.06,4.31,4.31,0,0,0-.08.75v4.71h-1.58Z"/><path class="cls-4" d="M1274.35,257.34l1.73,5a23.24,23.24,0,0,1,.71,2.27h0c.2-.73.46-1.46.75-2.27l1.71-5H1281l-3.46,8.83H1276l-3.35-8.83Z"/><path class="cls-4" d="M1284.28,254.86a1,1,0,0,1-2,0,1,1,0,0,1,1-1A1,1,0,0,1,1284.28,254.86Zm-1.79,11.31v-8.83h1.6v8.83Z"/><path class="cls-4" d="M1293,265.84a5.78,5.78,0,0,1-2.53.52,4.19,4.19,0,0,1-4.39-4.51,4.49,4.49,0,0,1,4.74-4.69,5.34,5.34,0,0,1,2.22.45l-.37,1.24a3.67,3.67,0,0,0-1.85-.42,3.33,3.33,0,0,0-.06,6.65,4.51,4.51,0,0,0,2-.44Z"/><path class="cls-4" d="M1295.69,262.05a2.83,2.83,0,0,0,3,3.07,5.88,5.88,0,0,0,2.44-.46l.27,1.15a7.19,7.19,0,0,1-2.93.55,4.11,4.11,0,0,1-4.34-4.46c0-2.66,1.57-4.76,4.14-4.76,2.88,0,3.64,2.54,3.64,4.16a5.63,5.63,0,0,1-.06.75Zm4.7-1.15a2.28,2.28,0,0,0-2.22-2.61,2.66,2.66,0,0,0-2.46,2.61Z"/><path class="cls-4" d="M1303.71,264.53a4.18,4.18,0,0,0,2.11.64c1.17,0,1.71-.59,1.71-1.31s-.46-1.19-1.64-1.63c-1.58-.57-2.33-1.44-2.33-2.5,0-1.42,1.15-2.59,3-2.59a4.29,4.29,0,0,1,2.17.55l-.4,1.16a3.45,3.45,0,0,0-1.8-.51c-1,0-1.48.55-1.48,1.21s.53,1.06,1.68,1.49c1.53.59,2.31,1.35,2.31,2.67,0,1.55-1.2,2.65-3.3,2.65a4.93,4.93,0,0,1-2.47-.61Z"/><path class="cls-7" d="M1186.83,13c0,5-3.47,7.2-6.75,7.2-3.67,0-6.49-2.69-6.49-7,0-4.54,3-7.2,6.72-7.2S1186.83,8.85,1186.83,13Zm-10.75.14c0,3,1.71,5.21,4.11,5.21s4.12-2.21,4.12-5.26c0-2.3-1.15-5.21-4.06-5.21S1176.08,10.56,1176.08,13.13Z"/><path class="cls-7" d="M1189.94,10.56c0-1.6,0-3-.11-4.23H1192l.09,2.66h.11a4.06,4.06,0,0,1,3.75-3,2.93,2.93,0,0,1,.7.08V8.43a3.37,3.37,0,0,0-4.14,3.08,6.45,6.45,0,0,0-.12,1.15v7.22h-2.43Z"/><path class="cls-7" d="M1202,2.52a1.53,1.53,0,0,1-3,0A1.5,1.5,0,0,1,1200.44,1,1.46,1.46,0,0,1,1202,2.52Zm-2.74,17.36V6.33h2.46V19.88Z"/><path class="cls-7" d="M1217.43,6.33c0,1-.11,2.07-.11,3.72v7.87c0,3.11-.61,5-1.93,6.19a7.2,7.2,0,0,1-4.93,1.62,8.74,8.74,0,0,1-4.51-1.12l.62-1.87a7.6,7.6,0,0,0,4,1.06c2.52,0,4.37-1.32,4.37-4.73V17.56h-.05a4.84,4.84,0,0,1-4.32,2.26c-3.35,0-5.76-2.85-5.76-6.6,0-4.6,3-7.2,6.1-7.2a4.51,4.51,0,0,1,4.23,2.35h.06l.11-2Zm-2.55,5.35a3.28,3.28,0,0,0-.14-1.12A3.54,3.54,0,0,0,1211.3,8c-2.35,0-4,2-4,5.13,0,2.66,1.34,4.87,4,4.87a3.6,3.6,0,0,0,3.42-2.52,4.3,4.3,0,0,0,.19-1.32Z"/><path class="cls-7" d="M1224,2.52A1.45,1.45,0,0,1,1222.42,4a1.47,1.47,0,0,1-1.49-1.51A1.5,1.5,0,0,1,1222.47,1,1.46,1.46,0,0,1,1224,2.52Zm-2.74,17.36V6.33h2.46V19.88Z"/><path class="cls-7" d="M1227.79,10c0-1.4,0-2.55-.11-3.67h2.18l.14,2.24h.06A5,5,0,0,1,1234.54,6c1.88,0,4.79,1.12,4.79,5.77v8.09h-2.47V12.07c0-2.19-.81-4-3.13-4a3.5,3.5,0,0,0-3.31,2.52,3.63,3.63,0,0,0-.16,1.15v8.15h-2.47Z"/><path class="cls-7" d="M1250.84,19.88l-.2-1.71h-.08a5.05,5.05,0,0,1-4.15,2,3.86,3.86,0,0,1-4.14-3.89c0-3.28,2.91-5.07,8.15-5V11a2.8,2.8,0,0,0-3.08-3.14,6.72,6.72,0,0,0-3.53,1l-.56-1.63A8.47,8.47,0,0,1,1247.7,6c4.14,0,5.15,2.83,5.15,5.54v5.07a18.8,18.8,0,0,0,.23,3.25Zm-.37-6.92c-2.69-.05-5.74.42-5.74,3.06a2.19,2.19,0,0,0,2.33,2.35,3.36,3.36,0,0,0,3.27-2.27,2.38,2.38,0,0,0,.14-.78Z"/><path class="cls-7" d="M1256.83,0h2.46V19.88h-2.46Z"/><ellipse class="cls-7" cx="1569.67" cy="233.17" rx="155.7" ry="155.91"/><path class="cls-14" d="M1574.72,228.43a7,7,0,0,0-11.92,4.89v.36a7,7,0,0,0,2.08,4.77,6.86,6.86,0,0,0,9.87,0,6.87,6.87,0,0,0,2-4.8v-.19A6.88,6.88,0,0,0,1574.72,228.43Z"/><path class="cls-4" d="M1574.48,227.88a6.68,6.68,0,0,0-5-2.1,6.57,6.57,0,0,0-4.91,2.06,6.64,6.64,0,0,0-2.06,4.94v.36a7,7,0,0,0,2.08,4.77,6.86,6.86,0,0,0,9.87,0,6.84,6.84,0,0,0,2-4.8V233A6.9,6.9,0,0,0,1574.48,227.88Z"/><line class="cls-17" x1="1527.13" y1="233.17" x2="1502.78" y2="233.17"/><line class="cls-17" x1="1569.97" y1="233.17" x2="1541.64" y2="233.17"/><line class="cls-17" x1="1485.62" y1="233.17" x2="1413.56" y2="233.17"/><polygon class="cls-4" points="1557.89 265.88 1557.89 266.03 1557.81 265.96 1557.89 265.88"/><path class="cls-14" d="M1505.42,242.21c-1.7-2.21-6.68-2.21-6.68-2.21l6.8,9.47a2,2,0,0,0,1.82.94h4Z"/><path class="cls-4" d="M1504.33,241.37c-1.7-2.2-6.68-2.2-6.68-2.2l6.8,9.47a2,2,0,0,0,1.82.94h4Z"/><path class="cls-14" d="M1507.26,226a9.66,9.66,0,0,1-.55,3.31,9,9,0,0,1-1.62,2.77,9.61,9.61,0,0,1-2.31,1.91,1.34,1.34,0,0,1-.27.17,16.67,16.67,0,0,1-3.88,1.57l-1.51.29a17.17,17.17,0,0,1-3.59.19h-3.42v13.94h-4.49V226.64h4.49V233h4.75a11.33,11.33,0,0,0,3.46-.49,6.78,6.78,0,0,0,2.51-1.35,5.6,5.6,0,0,0,1.53-2.08,7,7,0,0,0,.5-2.67,5.32,5.32,0,0,0-1.94-4.5c-1.31-1-3.27-1.52-5.88-1.52h-4.93s-4.49-.73-4.49-3.57H1495a21.07,21.07,0,0,1,5.48.63,10.55,10.55,0,0,1,3.8,1.86,7.65,7.65,0,0,1,2.23,2.93A9.79,9.79,0,0,1,1507.26,226Z"/><path class="cls-4" d="M1507.26,225.19a9.7,9.7,0,0,1-.55,3.31,9,9,0,0,1-1.62,2.77,9.61,9.61,0,0,1-2.31,1.91l-.27.17a16.23,16.23,0,0,1-3.88,1.56l-1.51.29a16.62,16.62,0,0,1-3.59.2h-3.42v13.94h-4.49V225.81h4.49v6.31h4.75a11.33,11.33,0,0,0,3.46-.49,6.93,6.93,0,0,0,2.51-1.35,5.68,5.68,0,0,0,1.53-2.08,7.06,7.06,0,0,0,.5-2.68,5.34,5.34,0,0,0-1.94-4.5q-2-1.52-5.88-1.52h-4.93s-4.49-.73-4.49-3.57H1495a21,21,0,0,1,5.48.64,10.55,10.55,0,0,1,3.8,1.86,7.65,7.65,0,0,1,2.23,2.93A9.76,9.76,0,0,1,1507.26,225.19Z"/><path class="cls-14" d="M1540.77,237.77l-5.24-13.59c-.16-.41-.32-.88-.49-1.41s-.33-1.11-.49-1.72a24.74,24.74,0,0,1-1,3.15l-5.24,13.57-1.26,3.26-3.12,8.07a1.65,1.65,0,0,1-.53.75,1.54,1.54,0,0,1-1,.32h-3.49l13.34-33.41h4.56l13.34,33.41h-3.49a1.53,1.53,0,0,1-1-.3,1.9,1.9,0,0,1-.56-.77L1542,241Z"/><path class="cls-4" d="M1540.77,236.94l-5.24-13.59c-.16-.41-.32-.88-.49-1.41s-.33-1.11-.49-1.72a24.74,24.74,0,0,1-1,3.15l-5.24,13.57-1.26,3.26-3.12,8.07a1.65,1.65,0,0,1-.53.75,1.48,1.48,0,0,1-1,.32h-3.49l13.34-33.41h4.56l13.34,33.41h-3.49a1.53,1.53,0,0,1-1-.3,1.9,1.9,0,0,1-.56-.77L1542,240.2Z"/><path class="cls-14" d="M1563.59,246.51h7.94a12.75,12.75,0,0,0,4.89-.89,10.13,10.13,0,0,0,3.73-2.55,11.5,11.5,0,0,0,2.37-4.09,18.43,18.43,0,0,0,0-11,11.68,11.68,0,0,0-2.37-4.11,10.15,10.15,0,0,0-3.73-2.56,12.94,12.94,0,0,0-4.89-.88h-7.94s-4.51-.16-4.51-3.67h12.45a18.18,18.18,0,0,1,6.72,1.2,15,15,0,0,1,5.2,3.41,15.34,15.34,0,0,1,3.36,5.28,20.36,20.36,0,0,1,0,13.66,15.21,15.21,0,0,1-3.36,5.27,14.93,14.93,0,0,1-5.2,3.39,18.18,18.18,0,0,1-6.72,1.2h-12.45C1559.08,246.52,1563.59,246.51,1563.59,246.51Z"/><path class="cls-4" d="M1563.59,245.68h7.94a12.94,12.94,0,0,0,4.89-.88,10.15,10.15,0,0,0,3.73-2.56,11.5,11.5,0,0,0,2.37-4.09,18.43,18.43,0,0,0,0-11,11.77,11.77,0,0,0-2.37-4.11,10.28,10.28,0,0,0-3.73-2.56,12.94,12.94,0,0,0-4.89-.88h-7.94s-4.51-.16-4.51-3.67h12.45a18.18,18.18,0,0,1,6.72,1.2,15,15,0,0,1,5.2,3.41,15.34,15.34,0,0,1,3.36,5.28,20.36,20.36,0,0,1,0,13.66,15.21,15.21,0,0,1-3.36,5.27,14.93,14.93,0,0,1-5.2,3.39,18.18,18.18,0,0,1-6.72,1.2h-12.45C1559.08,245.69,1563.59,245.68,1563.59,245.68Z"/><path class="cls-14" d="M1602.16,250.17h-5.34V215.93h5.34Z"/><path class="cls-4" d="M1601.48,249.34H1597V215.93h4.52Z"/><g class="cls-15"><path class="cls-7" d="M1665.25,222a1.82,1.82,0,0,1-.45.52,1,1,0,0,1-.6.17,1.64,1.64,0,0,1-.92-.39,15.25,15.25,0,0,0-1.35-.88,10.28,10.28,0,0,0-1.93-.87,9.2,9.2,0,0,0-5.4,0,5.59,5.59,0,0,0-1.93,1.11,4.56,4.56,0,0,0-1.18,1.64,5.29,5.29,0,0,0-.39,2,3.82,3.82,0,0,0,.68,2.32,5.84,5.84,0,0,0,1.82,1.57,13.72,13.72,0,0,0,2.56,1.14c1,.32,1.94.64,2.94,1s2,.72,2.93,1.15a10.5,10.5,0,0,1,2.56,1.62,7.41,7.41,0,0,1,1.82,2.4,8.15,8.15,0,0,1,.68,3.5,11.19,11.19,0,0,1-.74,4.11,9.66,9.66,0,0,1-2.18,3.35,10.21,10.21,0,0,1-3.52,2.24,13,13,0,0,1-4.73.81,14.51,14.51,0,0,1-5.92-1.17,14,14,0,0,1-4.54-3.19l1.31-2.14a1.54,1.54,0,0,1,.45-.43,1,1,0,0,1,.59-.18,1.33,1.33,0,0,1,.69.25,9.85,9.85,0,0,1,.87.62c.33.24.7.52,1.12.81a9.24,9.24,0,0,0,1.43.82,10,10,0,0,0,4.14.86,8.72,8.72,0,0,0,2.86-.44,6.06,6.06,0,0,0,2.13-1.25,5.5,5.5,0,0,0,1.34-1.92,6.47,6.47,0,0,0,.47-2.5,4.18,4.18,0,0,0-.69-2.48,5.64,5.64,0,0,0-1.8-1.62,12.91,12.91,0,0,0-2.57-1.11l-2.93-.93c-1-.32-2-.69-2.93-1.11a9.45,9.45,0,0,1-2.57-1.63,7.65,7.65,0,0,1-1.8-2.51,9.57,9.57,0,0,1,0-7.14,9,9,0,0,1,2-2.94,9.86,9.86,0,0,1,3.24-2.05,11.65,11.65,0,0,1,4.41-.77,13.84,13.84,0,0,1,5.09.89,12,12,0,0,1,4,2.56Z"/><path class="cls-7" d="M1625,246.38a9.21,9.21,0,0,0,3.7-.7,7.73,7.73,0,0,0,2.76-2,8.76,8.76,0,0,0,1.73-3,12.1,12.1,0,0,0,.59-3.85V216.56h4.49v20.31a15,15,0,0,1-.92,5.36,12.22,12.22,0,0,1-2.63,4.28,11.85,11.85,0,0,1-4.18,2.83,15.41,15.41,0,0,1-11.08,0,12.07,12.07,0,0,1-4.19-2.83,12.24,12.24,0,0,1-2.64-4.28,15,15,0,0,1-.92-5.36V216.56h4.49v20.29a11.72,11.72,0,0,0,.6,3.84,8.5,8.5,0,0,0,1.72,3,7.73,7.73,0,0,0,2.77,2A9.3,9.3,0,0,0,1625,246.38Z"/></g><path class="cls-4" d="M1665.25,221.16a1.82,1.82,0,0,1-.45.52,1,1,0,0,1-.6.18,1.66,1.66,0,0,1-.92-.4c-.36-.26-.81-.56-1.35-.88a11.75,11.75,0,0,0-1.93-.87,8.39,8.39,0,0,0-2.73-.39,8.06,8.06,0,0,0-2.67.4,5.76,5.76,0,0,0-1.93,1.11,4.65,4.65,0,0,0-1.18,1.64,5.29,5.29,0,0,0-.39,2,3.8,3.8,0,0,0,.68,2.32,6,6,0,0,0,1.82,1.58,14.4,14.4,0,0,0,2.56,1.13c1,.32,1.94.64,2.94,1s2,.72,2.93,1.15a10.5,10.5,0,0,1,2.56,1.62,7.41,7.41,0,0,1,1.82,2.4,8.15,8.15,0,0,1,.68,3.5,11.19,11.19,0,0,1-.74,4.11,9.57,9.57,0,0,1-2.18,3.35,10.07,10.07,0,0,1-3.52,2.24,13,13,0,0,1-4.73.82,14.52,14.52,0,0,1-5.92-1.18,14,14,0,0,1-4.54-3.19l1.31-2.14a1.68,1.68,0,0,1,.45-.43,1,1,0,0,1,.59-.18,1.33,1.33,0,0,1,.69.25,9.85,9.85,0,0,1,.87.62c.33.24.7.52,1.12.81a9.24,9.24,0,0,0,1.43.82,10,10,0,0,0,4.14.86,8.72,8.72,0,0,0,2.86-.44,6.06,6.06,0,0,0,2.13-1.25,5.5,5.5,0,0,0,1.34-1.92,6.47,6.47,0,0,0,.47-2.5,4.18,4.18,0,0,0-.69-2.48,5.88,5.88,0,0,0-1.8-1.62,12.91,12.91,0,0,0-2.57-1.11l-2.93-.93c-1-.32-2-.69-2.93-1.11a9.45,9.45,0,0,1-2.57-1.63,7.54,7.54,0,0,1-1.8-2.51,9.57,9.57,0,0,1,0-7.14,9,9,0,0,1,2-2.94,9.86,9.86,0,0,1,3.24-2,11.85,11.85,0,0,1,4.41-.77,14.05,14.05,0,0,1,5.09.89,12,12,0,0,1,4,2.56Z"/><path class="cls-4" d="M1625,245.55a9.21,9.21,0,0,0,3.7-.7,7.61,7.61,0,0,0,2.76-1.95,8.67,8.67,0,0,0,1.73-3,12.1,12.1,0,0,0,.59-3.85v-20.3h4.49V236a15,15,0,0,1-.92,5.36,12.22,12.22,0,0,1-2.63,4.28,11.85,11.85,0,0,1-4.18,2.83,15.41,15.41,0,0,1-11.08,0,12.07,12.07,0,0,1-4.19-2.83,12.24,12.24,0,0,1-2.64-4.28,15,15,0,0,1-.92-5.36v-20.3h4.49V236a11.82,11.82,0,0,0,.6,3.85,8.54,8.54,0,0,0,1.72,3,7.73,7.73,0,0,0,2.77,2A9.13,9.13,0,0,0,1625,245.55Z"/><g class="cls-15"><path class="cls-7" d="M1507.07,262.19a2.83,2.83,0,0,0,3,3.07,5.87,5.87,0,0,0,2.44-.45l.27,1.14a7,7,0,0,1-2.93.55,4.1,4.1,0,0,1-4.33-4.45c0-2.67,1.56-4.77,4.13-4.77,2.88,0,3.64,2.54,3.64,4.16a5.86,5.86,0,0,1,0,.75Zm4.69-1.15a2.27,2.27,0,0,0-2.22-2.6,2.64,2.64,0,0,0-2.45,2.6Z"/><path class="cls-7" d="M1515.3,259.87c0-.91,0-1.66-.07-2.38h1.42l.09,1.45h0a3.24,3.24,0,0,1,2.91-1.66c1.22,0,3.11.73,3.11,3.76v5.28h-1.6v-5.09c0-1.43-.53-2.61-2-2.61a2.28,2.28,0,0,0-2.15,1.64,2.37,2.37,0,0,0-.11.75v5.31h-1.6Z"/><path class="cls-7" d="M1533,257.49c0,.63-.07,1.35-.07,2.42V265c0,2-.4,3.27-1.26,4a4.65,4.65,0,0,1-3.2,1.05,5.67,5.67,0,0,1-2.94-.73l.41-1.22a5,5,0,0,0,2.58.69c1.64,0,2.84-.85,2.84-3.08v-1h0a3.15,3.15,0,0,1-2.8,1.47c-2.18,0-3.75-1.86-3.75-4.3,0-3,2-4.7,4-4.7a2.93,2.93,0,0,1,2.75,1.54h0l.07-1.33Zm-1.66,3.48a2.4,2.4,0,0,0-.09-.73,2.31,2.31,0,0,0-2.24-1.7c-1.53,0-2.62,1.3-2.62,3.34,0,1.74.87,3.18,2.6,3.18a2.35,2.35,0,0,0,2.23-1.64,2.88,2.88,0,0,0,.12-.86Z"/><path class="cls-7" d="M1537.26,255a1,1,0,1,1-2,0,1,1,0,0,1,1-1A1,1,0,0,1,1537.26,255Zm-1.78,11.32v-8.83h1.6v8.83Z"/><path class="cls-7" d="M1539.74,259.87c0-.91,0-1.66-.07-2.38h1.42l.09,1.45h0a3.24,3.24,0,0,1,2.91-1.66c1.22,0,3.11.73,3.11,3.76v5.28h-1.6v-5.09c0-1.43-.53-2.61-2-2.61a2.28,2.28,0,0,0-2.15,1.64,2.37,2.37,0,0,0-.11.75v5.31h-1.6Z"/><path class="cls-7" d="M1550.74,262.19a2.83,2.83,0,0,0,3,3.07,5.87,5.87,0,0,0,2.44-.45l.28,1.14a7.06,7.06,0,0,1-2.93.55,4.1,4.1,0,0,1-4.34-4.45c0-2.67,1.57-4.77,4.13-4.77,2.88,0,3.65,2.54,3.65,4.16a5.48,5.48,0,0,1-.06.75Zm4.7-1.15a2.28,2.28,0,0,0-2.22-2.6,2.65,2.65,0,0,0-2.46,2.6Z"/><path class="cls-7" d="M1559.87,262.19a2.83,2.83,0,0,0,3,3.07,5.91,5.91,0,0,0,2.44-.45l.27,1.14a7,7,0,0,1-2.93.55,4.1,4.1,0,0,1-4.34-4.45c0-2.67,1.57-4.77,4.14-4.77,2.88,0,3.64,2.54,3.64,4.16a5.48,5.48,0,0,1-.06.75Zm4.69-1.15a2.28,2.28,0,0,0-2.22-2.6,2.66,2.66,0,0,0-2.46,2.6Z"/><path class="cls-7" d="M1568.09,260.24c0-1,0-1.93-.07-2.75h1.41l0,1.73h.07a2.65,2.65,0,0,1,2.44-1.94,1.6,1.6,0,0,1,.46.06v1.51a3,3,0,0,0-.55-.05,2.25,2.25,0,0,0-2.15,2.06,5.47,5.47,0,0,0-.07.75v4.71h-1.59Z"/><path class="cls-7" d="M1575.91,255a1,1,0,0,1-2,0,1,1,0,0,1,1-1A1,1,0,0,1,1575.91,255Zm-1.79,11.32v-8.83h1.61v8.83Z"/><path class="cls-7" d="M1578.38,259.87c0-.91,0-1.66-.07-2.38h1.42l.09,1.45h0a3.26,3.26,0,0,1,2.91-1.66c1.23,0,3.12.73,3.12,3.76v5.28h-1.6v-5.09c0-1.43-.53-2.61-2-2.61a2.28,2.28,0,0,0-2.15,1.64,2.12,2.12,0,0,0-.11.75v5.31h-1.61Z"/><path class="cls-7" d="M1596.09,257.49c0,.63-.07,1.35-.07,2.42V265c0,2-.41,3.27-1.26,4a4.69,4.69,0,0,1-3.21,1.05,5.63,5.63,0,0,1-2.93-.73l.4-1.22a5,5,0,0,0,2.59.69c1.64,0,2.84-.85,2.84-3.08v-1h0a3.16,3.16,0,0,1-2.8,1.47c-2.19,0-3.75-1.86-3.75-4.3,0-3,2-4.7,4-4.7a3,3,0,0,1,2.75,1.54h0l.08-1.33Zm-1.66,3.48a2.4,2.4,0,0,0-.09-.73,2.32,2.32,0,0,0-2.24-1.7c-1.53,0-2.62,1.3-2.62,3.34,0,1.74.87,3.18,2.6,3.18a2.34,2.34,0,0,0,2.22-1.64,2.9,2.9,0,0,0,.13-.86Z"/></g><path class="cls-4" d="M1507,261.9a2.83,2.83,0,0,0,3,3.07,5.76,5.76,0,0,0,2.44-.46l.27,1.15a7.06,7.06,0,0,1-2.93.55,4.1,4.1,0,0,1-4.34-4.46c0-2.66,1.57-4.76,4.14-4.76,2.87,0,3.64,2.54,3.64,4.16a5.48,5.48,0,0,1-.06.75Zm4.7-1.15a2.29,2.29,0,0,0-2.22-2.61,2.67,2.67,0,0,0-2.46,2.61Z"/><path class="cls-4" d="M1515.23,259.58c0-.91,0-1.66-.07-2.39h1.42l.09,1.46h0a3.24,3.24,0,0,1,2.91-1.66c1.22,0,3.12.73,3.12,3.76V266h-1.6v-5.1c0-1.42-.53-2.61-2.05-2.61A2.27,2.27,0,0,0,1517,260a2.1,2.1,0,0,0-.11.74V266h-1.61Z"/><path class="cls-4" d="M1532.94,257.19c0,.64-.08,1.35-.08,2.43v5.13c0,2-.4,3.27-1.25,4a4.65,4.65,0,0,1-3.21,1.06,5.63,5.63,0,0,1-2.93-.73l.4-1.22a5,5,0,0,0,2.59.69c1.64,0,2.84-.86,2.84-3.08v-1h0a3.15,3.15,0,0,1-2.8,1.48c-2.19,0-3.75-1.86-3.75-4.31,0-3,1.94-4.69,4-4.69a2.92,2.92,0,0,1,2.74,1.53h0l.08-1.33Zm-1.66,3.49a2.36,2.36,0,0,0-.09-.73,2.32,2.32,0,0,0-2.24-1.7c-1.53,0-2.62,1.3-2.62,3.34,0,1.73.87,3.18,2.6,3.18a2.34,2.34,0,0,0,2.22-1.65,2.79,2.79,0,0,0,.13-.85Z"/><path class="cls-4" d="M1537.2,254.71a1,1,0,0,1-2,0,1,1,0,0,1,1-1A1,1,0,0,1,1537.2,254.71ZM1535.41,266v-8.84H1537V266Z"/><path class="cls-4" d="M1539.67,259.58c0-.91,0-1.66-.07-2.39H1541l.09,1.46h0a3.24,3.24,0,0,1,2.91-1.66c1.22,0,3.12.73,3.12,3.76V266h-1.6v-5.1c0-1.42-.53-2.61-2-2.61a2.27,2.27,0,0,0-2.15,1.65,2.1,2.1,0,0,0-.11.74V266h-1.61Z"/><path class="cls-4" d="M1550.67,261.9a2.83,2.83,0,0,0,3,3.07,5.69,5.69,0,0,0,2.44-.46l.27,1.15a7,7,0,0,1-2.93.55,4.1,4.1,0,0,1-4.33-4.46c0-2.66,1.56-4.76,4.13-4.76,2.88,0,3.64,2.54,3.64,4.16,0,.33,0,.59-.05.75Zm4.7-1.15a2.29,2.29,0,0,0-2.22-2.61,2.67,2.67,0,0,0-2.46,2.61Z"/><path class="cls-4" d="M1559.8,261.9a2.83,2.83,0,0,0,3,3.07,5.69,5.69,0,0,0,2.44-.46l.27,1.15a7,7,0,0,1-2.93.55,4.1,4.1,0,0,1-4.33-4.46c0-2.66,1.56-4.76,4.13-4.76,2.88,0,3.65,2.54,3.65,4.16a5.48,5.48,0,0,1-.06.75Zm4.7-1.15a2.29,2.29,0,0,0-2.22-2.61,2.66,2.66,0,0,0-2.46,2.61Z"/><path class="cls-4" d="M1568,260c0-1,0-1.94-.07-2.76h1.4l.06,1.74h.07a2.64,2.64,0,0,1,2.44-1.94,1.53,1.53,0,0,1,.45.06v1.51a2.12,2.12,0,0,0-.54-.06,2.25,2.25,0,0,0-2.15,2.07,4.11,4.11,0,0,0-.08.75V266H1568Z"/><path class="cls-4" d="M1575.84,254.71a1,1,0,0,1-2,0,1,1,0,0,1,1-1A1,1,0,0,1,1575.84,254.71ZM1574.06,266v-8.84h1.6V266Z"/><path class="cls-4" d="M1578.32,259.58c0-.91,0-1.66-.07-2.39h1.42l.09,1.46h0a3.22,3.22,0,0,1,2.91-1.66c1.22,0,3.11.73,3.11,3.76V266h-1.6v-5.1c0-1.42-.53-2.61-2-2.61A2.28,2.28,0,0,0,1580,260a2.35,2.35,0,0,0-.11.74V266h-1.6Z"/><path class="cls-4" d="M1596,257.19c0,.64-.07,1.35-.07,2.43v5.13c0,2-.4,3.27-1.26,4a4.61,4.61,0,0,1-3.2,1.06,5.67,5.67,0,0,1-2.94-.73l.41-1.22a5,5,0,0,0,2.58.69c1.64,0,2.84-.86,2.84-3.08v-1h0a3.15,3.15,0,0,1-2.81,1.48c-2.18,0-3.75-1.86-3.75-4.31,0-3,2-4.69,4-4.69a2.93,2.93,0,0,1,2.75,1.53h0l.07-1.33Zm-1.65,3.49a2.08,2.08,0,0,0-.1-.73,2.31,2.31,0,0,0-2.24-1.7c-1.53,0-2.62,1.3-2.62,3.34,0,1.73.87,3.18,2.61,3.18a2.34,2.34,0,0,0,2.22-1.65,2.79,2.79,0,0,0,.13-.85Z"/><g class="cls-15"><path class="cls-7" d="M1603.27,264.25a4.22,4.22,0,0,0,2.12.64c1.16,0,1.71-.59,1.71-1.32s-.46-1.18-1.64-1.62c-1.59-.57-2.33-1.44-2.33-2.5,0-1.43,1.14-2.6,3-2.6a4.38,4.38,0,0,1,2.16.55l-.4,1.17a3.39,3.39,0,0,0-1.8-.51c-1,0-1.48.55-1.48,1.2s.53,1.06,1.68,1.5c1.53.58,2.31,1.35,2.31,2.67,0,1.55-1.2,2.64-3.29,2.64a5.07,5.07,0,0,1-2.48-.6Z"/><path class="cls-7" d="M1611.59,261.77a2.83,2.83,0,0,0,3,3.06,5.87,5.87,0,0,0,2.44-.45l.27,1.14a7,7,0,0,1-2.93.55,4.1,4.1,0,0,1-4.33-4.45c0-2.67,1.56-4.77,4.13-4.77,2.88,0,3.64,2.54,3.64,4.17,0,.32,0,.58,0,.75Zm4.7-1.16a2.29,2.29,0,0,0-2.22-2.61,2.67,2.67,0,0,0-2.46,2.61Z"/><path class="cls-7" d="M1619.83,259.81c0-1,0-1.93-.07-2.75h1.4l0,1.73h.07a2.65,2.65,0,0,1,2.44-1.94,1.65,1.65,0,0,1,.46.06v1.51a2.87,2.87,0,0,0-.55-.05,2.24,2.24,0,0,0-2.14,2.06,4.21,4.21,0,0,0-.08.75v4.71h-1.58Z"/><path class="cls-7" d="M1626.86,257.06l1.73,5c.29.8.52,1.53.71,2.26h0c.2-.73.46-1.46.75-2.26l1.71-5h1.68l-3.46,8.83h-1.54l-3.35-8.83Z"/><path class="cls-7" d="M1636.78,254.57a1,1,0,1,1-2,0,1,1,0,0,1,1-1A1,1,0,0,1,1636.78,254.57ZM1635,265.89v-8.83h1.6v8.83Z"/><path class="cls-7" d="M1645.54,265.56a5.89,5.89,0,0,1-2.53.51,4.19,4.19,0,0,1-4.39-4.51,4.49,4.49,0,0,1,4.74-4.69,5.35,5.35,0,0,1,2.22.46l-.37,1.24a3.67,3.67,0,0,0-1.85-.42,3.06,3.06,0,0,0-3.12,3.34,3,3,0,0,0,3.06,3.3,4.61,4.61,0,0,0,2-.43Z"/><path class="cls-7" d="M1648.2,261.77a2.82,2.82,0,0,0,3,3.06,5.87,5.87,0,0,0,2.44-.45l.28,1.14a7.06,7.06,0,0,1-2.93.55,4.1,4.1,0,0,1-4.34-4.45c0-2.67,1.57-4.77,4.13-4.77,2.88,0,3.65,2.54,3.65,4.17a5.79,5.79,0,0,1-.06.75Zm4.7-1.16a2.29,2.29,0,0,0-2.22-2.61,2.67,2.67,0,0,0-2.46,2.61Z"/><path class="cls-7" d="M1656.22,264.25a4.15,4.15,0,0,0,2.11.64c1.16,0,1.71-.59,1.71-1.32s-.46-1.18-1.64-1.62c-1.58-.57-2.33-1.44-2.33-2.5,0-1.43,1.14-2.6,3-2.6a4.43,4.43,0,0,1,2.17.55l-.4,1.17a3.46,3.46,0,0,0-1.81-.51c-.94,0-1.47.55-1.47,1.2s.53,1.06,1.67,1.5c1.53.58,2.32,1.35,2.32,2.67,0,1.55-1.21,2.64-3.3,2.64a5.1,5.1,0,0,1-2.48-.6Z"/></g><path class="cls-4" d="M1603.27,264.53a4.22,4.22,0,0,0,2.12.64c1.16,0,1.71-.59,1.71-1.31s-.46-1.19-1.64-1.63c-1.59-.57-2.33-1.44-2.33-2.5,0-1.42,1.14-2.59,3-2.59a4.28,4.28,0,0,1,2.16.55l-.4,1.16a3.39,3.39,0,0,0-1.8-.51c-1,0-1.48.55-1.48,1.21s.53,1.06,1.68,1.49c1.53.59,2.31,1.35,2.31,2.67,0,1.55-1.2,2.65-3.29,2.65a5,5,0,0,1-2.48-.61Z"/><path class="cls-4" d="M1611.59,262.05a2.83,2.83,0,0,0,3,3.07,5.85,5.85,0,0,0,2.44-.46l.27,1.15a7.19,7.19,0,0,1-2.93.55,4.1,4.1,0,0,1-4.33-4.46c0-2.66,1.56-4.76,4.13-4.76,2.88,0,3.64,2.54,3.64,4.16,0,.33,0,.58,0,.75Zm4.7-1.15a2.28,2.28,0,0,0-2.22-2.61,2.66,2.66,0,0,0-2.46,2.61Z"/><path class="cls-4" d="M1619.83,260.09c0-1,0-1.93-.07-2.75h1.4l0,1.73h.07a2.64,2.64,0,0,1,2.44-1.93,2.16,2.16,0,0,1,.46.05v1.52a2.2,2.2,0,0,0-.55-.06,2.24,2.24,0,0,0-2.14,2.06,4.31,4.31,0,0,0-.08.75v4.71h-1.58Z"/><path class="cls-4" d="M1626.86,257.34l1.73,5c.29.81.52,1.54.71,2.27h0c.2-.73.46-1.46.75-2.27l1.71-5h1.68l-3.46,8.83h-1.54l-3.35-8.83Z"/><path class="cls-4" d="M1636.78,254.86a1,1,0,0,1-2,0,1,1,0,0,1,1-1A1,1,0,0,1,1636.78,254.86ZM1635,266.17v-8.83h1.6v8.83Z"/><path class="cls-4" d="M1645.54,265.84a5.86,5.86,0,0,1-2.53.52,4.19,4.19,0,0,1-4.39-4.51,4.49,4.49,0,0,1,4.74-4.69,5.37,5.37,0,0,1,2.22.45l-.37,1.24a3.67,3.67,0,0,0-1.85-.42,3.33,3.33,0,0,0-.06,6.65,4.59,4.59,0,0,0,2-.44Z"/><path class="cls-4" d="M1648.2,262.05a2.83,2.83,0,0,0,3,3.07,5.85,5.85,0,0,0,2.44-.46l.28,1.15a7.23,7.23,0,0,1-2.93.55,4.1,4.1,0,0,1-4.34-4.46c0-2.66,1.57-4.76,4.13-4.76,2.88,0,3.65,2.54,3.65,4.16a5.63,5.63,0,0,1-.06.75Zm4.7-1.15a2.28,2.28,0,0,0-2.22-2.61,2.66,2.66,0,0,0-2.46,2.61Z"/><path class="cls-4" d="M1656.22,264.53a4.15,4.15,0,0,0,2.11.64c1.16,0,1.71-.59,1.71-1.31s-.46-1.19-1.64-1.63c-1.58-.57-2.33-1.44-2.33-2.5,0-1.42,1.14-2.59,3-2.59a4.32,4.32,0,0,1,2.17.55l-.4,1.16a3.46,3.46,0,0,0-1.81-.51c-.94,0-1.47.55-1.47,1.21s.53,1.06,1.67,1.49c1.53.59,2.32,1.35,2.32,2.67,0,1.55-1.21,2.65-3.3,2.65a5,5,0,0,1-2.48-.61Z"/><path class="cls-7" d="M1491.83,10c0-1.4,0-2.55-.11-3.67h2.16l.11,2.18h.08A4.68,4.68,0,0,1,1498.33,6a4,4,0,0,1,3.84,2.72h0A5.56,5.56,0,0,1,1503.73,7a4.68,4.68,0,0,1,3-1c1.79,0,4.45,1.18,4.45,5.88v8h-2.41V12.21c0-2.61-1-4.17-2.94-4.17a3.18,3.18,0,0,0-2.91,2.24,4.07,4.07,0,0,0-.19,1.23v8.37h-2.41V11.76c0-2.16-1-3.72-2.83-3.72a3.36,3.36,0,0,0-3,2.46,3.36,3.36,0,0,0-.2,1.2v8.18h-2.41Z"/><path class="cls-7" d="M1527.45,13c0,5-3.47,7.2-6.75,7.2-3.67,0-6.49-2.69-6.49-7,0-4.54,3-7.2,6.72-7.2S1527.45,8.85,1527.45,13Zm-10.75.14c0,3,1.71,5.21,4.11,5.21s4.12-2.21,4.12-5.26c0-2.3-1.15-5.21-4.06-5.21S1516.7,10.56,1516.7,13.13Z"/><path class="cls-7" d="M1530.56,10c0-1.4,0-2.55-.11-3.67h2.18l.14,2.24h.06A5,5,0,0,1,1537.31,6c1.87,0,4.78,1.12,4.78,5.77v8.09h-2.46V12.07c0-2.19-.81-4-3.14-4a3.5,3.5,0,0,0-3.3,2.52,3.62,3.62,0,0,0-.17,1.15v8.15h-2.46Z"/><path class="cls-7" d="M1558.36,13c0,5-3.47,7.2-6.75,7.2-3.66,0-6.49-2.69-6.49-7,0-4.54,3-7.2,6.72-7.2S1558.36,8.85,1558.36,13Zm-10.75.14c0,3,1.71,5.21,4.12,5.21s4.11-2.21,4.11-5.26c0-2.3-1.15-5.21-4.06-5.21S1547.61,10.56,1547.61,13.13Z"/><path class="cls-7" d="M1571.13,19.38a9.16,9.16,0,0,1-3.89.78c-4.09,0-6.75-2.77-6.75-6.92a6.88,6.88,0,0,1,7.28-7.19,8.21,8.21,0,0,1,3.42.7l-.56,1.9a5.82,5.82,0,0,0-2.86-.64c-3.11,0-4.79,2.29-4.79,5.12,0,3.14,2,5.07,4.71,5.07a7,7,0,0,0,3-.67Z"/><path class="cls-7" d="M1574,0h2.47V8.46h0a4.63,4.63,0,0,1,1.77-1.74,5.06,5.06,0,0,1,2.52-.7c1.82,0,4.73,1.12,4.73,5.8v8.06h-2.46V12.1c0-2.19-.82-4-3.14-4a3.52,3.52,0,0,0-3.3,2.47,3,3,0,0,0-.17,1.17v8.18H1574Z"/><path class="cls-7" d="M1589.55,10.56c0-1.6,0-3-.11-4.23h2.16l.08,2.66h.11a4.07,4.07,0,0,1,3.76-3,3,3,0,0,1,.7.08V8.43a3.55,3.55,0,0,0-.84-.09,3.47,3.47,0,0,0-3.31,3.17,7.61,7.61,0,0,0-.11,1.15v7.22h-2.44Z"/><path class="cls-7" d="M1610.69,13c0,5-3.47,7.2-6.74,7.2-3.67,0-6.5-2.69-6.5-7,0-4.54,3-7.2,6.72-7.2S1610.69,8.85,1610.69,13Zm-10.75.14c0,3,1.71,5.21,4.12,5.21s4.11-2.21,4.11-5.26c0-2.3-1.14-5.21-4.06-5.21S1599.94,10.56,1599.94,13.13Z"/><path class="cls-7" d="M1613.8,10c0-1.4,0-2.55-.11-3.67h2.16l.11,2.18h.08A4.68,4.68,0,0,1,1620.3,6a4,4,0,0,1,3.83,2.72h.06A5.56,5.56,0,0,1,1625.7,7a4.66,4.66,0,0,1,3-1c1.79,0,4.45,1.18,4.45,5.88v8h-2.41V12.21c0-2.61-1-4.17-2.94-4.17a3.18,3.18,0,0,0-2.91,2.24,4.06,4.06,0,0,0-.2,1.23v8.37h-2.4V11.76c0-2.16-1-3.72-2.83-3.72a3.36,3.36,0,0,0-3,2.46,3.36,3.36,0,0,0-.2,1.2v8.18h-2.41Z"/><path class="cls-7" d="M1638.53,13.55c0,3.33,2.18,4.71,4.64,4.71a9,9,0,0,0,3.76-.7l.42,1.76a11.05,11.05,0,0,1-4.51.84c-4.17,0-6.67-2.74-6.67-6.83S1638.58,6,1642.53,6c4.42,0,5.6,3.89,5.6,6.38a11.34,11.34,0,0,1-.08,1.15Zm7.22-1.76c0-1.57-.64-4-3.42-4-2.49,0-3.58,2.3-3.78,4Z"/></g></g></g></svg>