<svg xmlns="http://www.w3.org/2000/svg" viewBox="0 0 166.42 9.61"><defs><style>.cls-1{fill:none;stroke:#231f20;stroke-miterlimit:10;stroke-width:0.25px;}.cls-2{fill:#231f20;}</style></defs><title>services</title><g id="Layer_2" data-name="Layer 2"><g id="Layer_1-2" data-name="Layer 1"><line class="cls-1" y1="6.25" x2="166.42" y2="6.25"/><path class="cls-2" d="M6.65,9.61a4.36,4.36,0,0,1-1.42-.22A3.55,3.55,0,0,1,4.1,8.76a2.67,2.67,0,0,1-.73-1,.34.34,0,0,1,0-.35.46.46,0,0,1,.31-.22.47.47,0,0,1,.33,0,.55.55,0,0,1,.24.26,2,2,0,0,0,.53.62,2.59,2.59,0,0,0,.83.42,3.51,3.51,0,0,0,1.05.15,2.85,2.85,0,0,0,1.13-.21A1.62,1.62,0,0,0,8.84,6.92,1.73,1.73,0,0,0,8.3,5.66,2.93,2.93,0,0,0,6.61,5a3.91,3.91,0,0,1-2.2-.87A2.2,2.2,0,0,1,3.62,2.4,2.1,2.1,0,0,1,4,1.13,2.58,2.58,0,0,1,5.08.29,4.07,4.07,0,0,1,6.65,0a3.29,3.29,0,0,1,1.2.21,3.53,3.53,0,0,1,1,.55,3.5,3.5,0,0,1,.65.75.47.47,0,0,1,.08.37.43.43,0,0,1-.21.28A.52.52,0,0,1,8.67,2a2.76,2.76,0,0,0-.45-.53A2.2,2.2,0,0,0,7.57,1,3.12,3.12,0,0,0,6.64.89a2.58,2.58,0,0,0-1.52.4,1.33,1.33,0,0,0-.58,1.17,1.34,1.34,0,0,0,.22.75,1.71,1.71,0,0,0,.71.59,4.66,4.66,0,0,0,1.34.36A4.08,4.08,0,0,1,9,5.08a2.45,2.45,0,0,1,.72,1.83,2.78,2.78,0,0,1-.23,1.15,2.41,2.41,0,0,1-.66.85,3.07,3.07,0,0,1-1,.52A4,4,0,0,1,6.65,9.61Z"/><path class="cls-2" d="M14.57,9.55a3.48,3.48,0,0,1-1.72-.42A3.08,3.08,0,0,1,11.68,8a3.42,3.42,0,0,1-.43-1.73,3.6,3.6,0,0,1,.4-1.74,3,3,0,0,1,2.74-1.61A3,3,0,0,1,16,3.28,2.78,2.78,0,0,1,17,4.43,3.6,3.6,0,0,1,17.4,6.1a.39.39,0,0,1-.12.3.41.41,0,0,1-.31.12h-5.1V5.75h5.2l-.52.37a2.69,2.69,0,0,0-.25-1.25A2,2,0,0,0,15.55,4a2.07,2.07,0,0,0-1.16-.31,2.11,2.11,0,0,0-2,1.21,2.9,2.9,0,0,0-.29,1.31,2.57,2.57,0,0,0,.32,1.29,2.32,2.32,0,0,0,.87.89,2.42,2.42,0,0,0,1.27.32,2.65,2.65,0,0,0,.87-.15,2.25,2.25,0,0,0,.71-.37.5.5,0,0,1,.29-.12.46.46,0,0,1,.29.09.46.46,0,0,1,.17.31.37.37,0,0,1-.14.29,3.24,3.24,0,0,1-1,.56A3.41,3.41,0,0,1,14.57,9.55Z"/><path class="cls-2" d="M19.42,9.49A.42.42,0,0,1,19,9V3.38a.42.42,0,0,1,.45-.45.47.47,0,0,1,.34.12.45.45,0,0,1,.12.33V9a.45.45,0,0,1-.12.33A.47.47,0,0,1,19.42,9.49Zm-.07-4a2.69,2.69,0,0,1,.39-1.33,2.64,2.64,0,0,1,.92-.93,2.51,2.51,0,0,1,1.27-.33,1.93,1.93,0,0,1,.85.15.38.38,0,0,1,.23.46.37.37,0,0,1-.16.24.61.61,0,0,1-.28,0l-.36,0a2.72,2.72,0,0,0-1.2.14,1.84,1.84,0,0,0-.83.61,1.58,1.58,0,0,0-.3,1Z"/><path class="cls-2" d="M26.71,9.49a.46.46,0,0,1-.44-.31L23.61,3.53a.37.37,0,0,1,0-.31A.41.41,0,0,1,23.84,3a.37.37,0,0,1,.32,0,.4.4,0,0,1,.24.22L27,8.7h-.49L29,3.17A.39.39,0,0,1,29.23,3a.5.5,0,0,1,.34,0,.43.43,0,0,1,.23.25.37.37,0,0,1,0,.31L27.16,9.18A.48.48,0,0,1,26.71,9.49Z"/><path class="cls-2" d="M31.74,1.68a.61.61,0,0,1-.45-.19A.63.63,0,0,1,31.1,1a.56.56,0,0,1,.2-.47.65.65,0,0,1,.46-.18.66.66,0,0,1,.45.18A.58.58,0,0,1,32.4,1a.63.63,0,0,1-.19.47A.61.61,0,0,1,31.74,1.68Zm0,7.81A.43.43,0,0,1,31.29,9V3.4a.46.46,0,0,1,.13-.35.45.45,0,0,1,.34-.12.48.48,0,0,1,.33.12.5.5,0,0,1,.12.35V9a.49.49,0,0,1-.12.34A.48.48,0,0,1,31.76,9.49Z"/><path class="cls-2" d="M37.49,9.55a3.23,3.23,0,0,1-1.68-.43,3.28,3.28,0,0,1-1.17-1.2,3.43,3.43,0,0,1-.42-1.7,3.58,3.58,0,0,1,.4-1.72,3.21,3.21,0,0,1,1.12-1.19,3,3,0,0,1,1.63-.44,3,3,0,0,1,1.35.29A3,3,0,0,1,39.81,4a.32.32,0,0,1,.09.31.48.48,0,0,1-.2.28.33.33,0,0,1-.29.06.46.46,0,0,1-.29-.17,2.22,2.22,0,0,0-3.72.42,2.86,2.86,0,0,0-.28,1.3,2.66,2.66,0,0,0,.3,1.28,2.25,2.25,0,0,0,.84.89,2.4,2.4,0,0,0,1.23.32,2.88,2.88,0,0,0,.86-.12A2.13,2.13,0,0,0,39,8.2a.59.59,0,0,1,.3-.14.46.46,0,0,1,.29.1.45.45,0,0,1,.16.3.33.33,0,0,1-.11.29A3.11,3.11,0,0,1,37.49,9.55Z"/><path class="cls-2" d="M44.69,9.55A3.48,3.48,0,0,1,43,9.13,3.08,3.08,0,0,1,41.8,8a3.42,3.42,0,0,1-.43-1.73,3.6,3.6,0,0,1,.4-1.74,3,3,0,0,1,2.74-1.61,3,3,0,0,1,1.59.41,2.78,2.78,0,0,1,1,1.15,3.6,3.6,0,0,1,.37,1.67.39.39,0,0,1-.12.3.41.41,0,0,1-.31.12H42V5.75h5.2l-.52.37a2.69,2.69,0,0,0-.25-1.25A2,2,0,0,0,45.67,4a2.07,2.07,0,0,0-1.16-.31,2.11,2.11,0,0,0-2,1.21,2.9,2.9,0,0,0-.29,1.31,2.57,2.57,0,0,0,.32,1.29,2.32,2.32,0,0,0,.87.89,2.42,2.42,0,0,0,1.27.32,2.65,2.65,0,0,0,.87-.15,2.25,2.25,0,0,0,.71-.37.5.5,0,0,1,.29-.12.46.46,0,0,1,.29.09.46.46,0,0,1,.17.31.37.37,0,0,1-.14.29,3.24,3.24,0,0,1-1,.56A3.41,3.41,0,0,1,44.69,9.55Z"/><path class="cls-2" d="M51.38,9.55A4.31,4.31,0,0,1,50,9.31a2.59,2.59,0,0,1-1.12-.72.36.36,0,0,1-.11-.32A.42.42,0,0,1,48.92,8a.46.46,0,0,1,.64.06,1.93,1.93,0,0,0,.77.51,2.89,2.89,0,0,0,1.05.18,2.13,2.13,0,0,0,1.28-.3.94.94,0,0,0,.41-.74A.83.83,0,0,0,52.66,7a3.35,3.35,0,0,0-1.34-.44,3.66,3.66,0,0,1-1.78-.68A1.45,1.45,0,0,1,49,4.71a1.66,1.66,0,0,1,.32-1,2,2,0,0,1,.87-.61,3.4,3.4,0,0,1,1.18-.2,3.28,3.28,0,0,1,1.39.27,2.61,2.61,0,0,1,.94.75.44.44,0,0,1,.1.32.41.41,0,0,1-.19.28.55.55,0,0,1-.65-.12,1.83,1.83,0,0,0-.7-.51,2.35,2.35,0,0,0-.91-.16A1.87,1.87,0,0,0,50.27,4a.79.79,0,0,0-.39.67.81.81,0,0,0,.15.49,1.23,1.23,0,0,0,.51.35,4.3,4.3,0,0,0,1,.27A4.62,4.62,0,0,1,53,6.17a1.9,1.9,0,0,1,.75.66,1.72,1.72,0,0,1,.22.83,1.6,1.6,0,0,1-.33,1,2.24,2.24,0,0,1-.91.66A3.52,3.52,0,0,1,51.38,9.55Z"/></g></g></svg>