<svg xmlns="http://www.w3.org/2000/svg" xmlns:xlink="http://www.w3.org/1999/xlink" viewBox="0 0 2188.89 451.32"><defs><style>.cls-1,.cls-2{fill:none;stroke-miterlimit:10;stroke-width:0.5px;}.cls-1{stroke:#232323;}.cls-2{stroke:#231f20;}.cls-3{fill:#231f20;}.cls-4{fill:#232323;}.cls-5{fill:#3b4347;}.cls-6{fill:url(#linear-gradient);}.cls-7{fill:url(#linear-gradient-2);}.cls-8{fill:url(#linear-gradient-3);}.cls-9{fill:url(#linear-gradient-4);}.cls-10{fill:url(#linear-gradient-5);}.cls-11{fill:url(#linear-gradient-6);}</style><linearGradient id="linear-gradient" x1="1257.45" y1="229.18" x2="1257.45" y2="354.56" gradientUnits="userSpaceOnUse"><stop offset="0.03" stop-color="#fff"/><stop offset="0.04" stop-color="#f6faf8"/><stop offset="0.07" stop-color="#c8dfd4"/><stop offset="0.12" stop-color="#9dc5b2"/><stop offset="0.16" stop-color="#77af95"/><stop offset="0.21" stop-color="#579c7c"/><stop offset="0.27" stop-color="#3b8c66"/><stop offset="0.33" stop-color="#257f55"/><stop offset="0.4" stop-color="#147548"/><stop offset="0.5" stop-color="#096e3f"/><stop offset="0.62" stop-color="#026a39"/><stop offset="0.98" stop-color="#006938"/></linearGradient><linearGradient id="linear-gradient-2" x1="1231.2" y1="257.81" x2="1231.2" y2="349.38" gradientUnits="userSpaceOnUse"><stop offset="0" stop-color="#fff"/><stop offset="0.04" stop-color="#def1e7"/><stop offset="0.11" stop-color="#abdcc2"/><stop offset="0.19" stop-color="#7dc9a1"/><stop offset="0.26" stop-color="#57b885"/><stop offset="0.34" stop-color="#37ab6f"/><stop offset="0.42" stop-color="#1fa15d"/><stop offset="0.51" stop-color="#0e9a51"/><stop offset="0.6" stop-color="#039549"/><stop offset="0.71" stop-color="#009447"/></linearGradient><linearGradient id="linear-gradient-3" x1="1206.82" y1="353.51" x2="1206.82" y2="294.47" gradientUnits="userSpaceOnUse"><stop offset="0.49" stop-color="#2bb673"/><stop offset="0.55" stop-color="#30b876"/><stop offset="0.62" stop-color="#3ebc7f"/><stop offset="0.7" stop-color="#55c48f"/><stop offset="0.77" stop-color="#75d0a4"/><stop offset="0.85" stop-color="#9fdec0"/><stop offset="0.94" stop-color="#d1efe1"/><stop offset="1" stop-color="#fff"/></linearGradient><linearGradient id="linear-gradient-4" x1="1940.73" y1="229.18" x2="1940.73" y2="354.56" gradientUnits="userSpaceOnUse"><stop offset="0.03" stop-color="#fff"/><stop offset="0.05" stop-color="#e5e5e5"/><stop offset="0.09" stop-color="#bdbcbc"/><stop offset="0.14" stop-color="#989697"/><stop offset="0.19" stop-color="#787676"/><stop offset="0.25" stop-color="#5d5a5b"/><stop offset="0.31" stop-color="#484445"/><stop offset="0.39" stop-color="#373334"/><stop offset="0.48" stop-color="#2c2829"/><stop offset="0.61" stop-color="#252122"/><stop offset="0.98" stop-color="#231f20"/></linearGradient><linearGradient id="linear-gradient-5" x1="1914.48" y1="257.81" x2="1914.48" y2="349.38" gradientUnits="userSpaceOnUse"><stop offset="0" stop-color="#fff"/><stop offset="0" stop-color="#fdfdfd"/><stop offset="0.08" stop-color="#cac9ca"/><stop offset="0.16" stop-color="#9e9c9d"/><stop offset="0.24" stop-color="#787676"/><stop offset="0.32" stop-color="#595657"/><stop offset="0.41" stop-color="#413e3f"/><stop offset="0.5" stop-color="#302d2d"/><stop offset="0.59" stop-color="#262223"/><stop offset="0.71" stop-color="#231f20"/></linearGradient><linearGradient id="linear-gradient-6" x1="1890.09" y1="353.51" x2="1890.09" y2="294.47" gradientUnits="userSpaceOnUse"><stop offset="0.49" stop-color="#231f20"/><stop offset="0.55" stop-color="#282425"/><stop offset="0.62" stop-color="#353233"/><stop offset="0.69" stop-color="#4c494a"/><stop offset="0.77" stop-color="#6c696a"/><stop offset="0.84" stop-color="#959393"/><stop offset="0.92" stop-color="#c6c5c5"/><stop offset="1" stop-color="#fff"/></linearGradient></defs><title>sop_2</title><g id="Layer_2" data-name="Layer 2"><g id="Layer_1-2" data-name="Layer 1"><path class="cls-1" d="M307.78,422.13H291.29l-8.51,21.22a12.29,12.29,0,0,0-.88,2.82c0,.84.62,1.26,1.87,1.26V448h-8.36v-.58a4.68,4.68,0,0,0,2.82-.82c.77-.54,1.6-2,2.52-4.25L301.12,391h1l20.05,49.65a21.57,21.57,0,0,0,1.54,3.61,5,5,0,0,0,4.7,3.22V448H315.29v-.58q1.8,0,1.8-1.41a9.4,9.4,0,0,0-.88-3,1.35,1.35,0,0,1-.27-.5c-.05-.25-.09-.38-.11-.38Zm-15.95-1.56H307l-7.59-19.16Z"/><path class="cls-1" d="M377.27,394.62l2.1,5.95h-.56a26.37,26.37,0,0,0-19.23-8.13q-11.47,0-18.55,6.83A22.13,22.13,0,0,0,334,415.8a37.43,37.43,0,0,0,3.15,13.77A29.32,29.32,0,0,0,347,442.38a27,27,0,0,0,16.45,5,38.87,38.87,0,0,0,12.42-2q6.09-2,9.07-5.47l.49.15-3.93,6q-9.54,2.06-12.38,2.44a59,59,0,0,1-7.61.38q-17.67,0-25.29-8.18a27.8,27.8,0,0,1-7.61-19.6,30.31,30.31,0,0,1,3.91-14.82,28.2,28.2,0,0,1,11.28-11.22A34,34,0,0,1,360.67,391a34.34,34.34,0,0,1,8.18.86,44.59,44.59,0,0,1,5.75,1.78l2.52,1A.5.5,0,0,1,377.27,394.62Z"/><path class="cls-1" d="M436.5,394.62l2.09,5.95H438a26.33,26.33,0,0,0-19.22-8.13q-11.47,0-18.55,6.83a22.13,22.13,0,0,0-7.08,16.53,37.43,37.43,0,0,0,3.15,13.77,29.32,29.32,0,0,0,9.94,12.81,27,27,0,0,0,16.45,5,38.87,38.87,0,0,0,12.42-2q6.09-2,9.06-5.47l.5.15-3.93,6q-9.54,2.06-12.38,2.44a59.13,59.13,0,0,1-7.62.38q-17.67,0-25.28-8.18a27.76,27.76,0,0,1-7.61-19.6,30.31,30.31,0,0,1,3.91-14.82,28.13,28.13,0,0,1,11.28-11.22A34,34,0,0,1,419.9,391a34.34,34.34,0,0,1,8.18.86,44.39,44.39,0,0,1,5.74,1.78l2.52,1A.46.46,0,0,1,436.5,394.62Z"/><path class="cls-1" d="M478.36,391q11.83,0,19.35,7.2a23.82,23.82,0,0,1,7.52,18q0,13.86-8.7,23.32t-23.09,9.46q-11.69,0-19.12-7.63a25.31,25.31,0,0,1-7.44-18.32,34.51,34.51,0,0,1,3.58-14.8A29.86,29.86,0,0,1,478.36,391Zm-.23,55a23.55,23.55,0,0,0,11.45-3.11,23.1,23.1,0,0,0,8.89-8.57A21.74,21.74,0,0,0,501.72,423a26.61,26.61,0,0,0-4.37-14.85A31.15,31.15,0,0,0,486,397.71q-7-3.78-12.88-3.78a21.83,21.83,0,0,0-15.17,6.3,20.42,20.42,0,0,0-6.81,15.64,30,30,0,0,0,8.32,21Q467.79,445.91,478.13,445.91Z"/><path class="cls-1" d="M563.23,448H552.59v-8.67q-8.13,9-19.37,9.05-8.36,0-13.25-4.7t-4.9-13V397.06q0-3.06-.72-3.87c-.49-.55-1.62-.83-3.4-.83v-.57h14.92v.57a5.63,5.63,0,0,0-3.34.75c-.65.5-1,1.67-1,3.53v30.87q0,9.71,4.54,13.84a14.88,14.88,0,0,0,10.33,4.14q9.11,0,16.16-8.21v-38c0-3.33-.3-5.31-.88-5.93a3.63,3.63,0,0,0-2.75-.94h-.53v-.57h14.8v.57c-1.83.11-3,.41-3.45.92a4.37,4.37,0,0,0-.71,2.9v45.76a14.42,14.42,0,0,0,.27,3.55,2.62,2.62,0,0,0,1.09,1.39,5.24,5.24,0,0,0,2.8.55Z"/><path class="cls-1" d="M615.59,391.79h10.88v.57a5.1,5.1,0,0,0-3.44,1.05c-.63.65-.95,2-.95,4.11v51.17L577.24,401v41.56a10.12,10.12,0,0,0,.31,2.94,2.2,2.2,0,0,0,.87,1.3,10.11,10.11,0,0,0,2.87.68V448H570.48v-.58c1.94,0,3.14-.34,3.61-1s.71-2.32.71-4.92v-38a20.38,20.38,0,0,0-1.4-8.16c-.92-2.11-3.07-3.09-6.43-2.94v-.57h10.58l42.13,44.87V397c0-2.14-.38-3.44-1.15-3.91a5.52,5.52,0,0,0-2.94-.71Z"/><path class="cls-1" d="M676.39,389.85l-2.67,6.79h-.58a7.12,7.12,0,0,0,.16-1.64,1.08,1.08,0,0,0-.63-1.13,6,6,0,0,0-2-.25H656v48.09a11.74,11.74,0,0,0,.47,4.06,2.31,2.31,0,0,0,1.3,1.38,8.88,8.88,0,0,0,2.65.28V448H645.21v-.58c1.91-.12,3.1-.49,3.58-1.1s.73-1.88.73-3.82V393.62h-14a9.81,9.81,0,0,0-2.78.25c-.43.17-.65.58-.65,1.24a5.86,5.86,0,0,0,.31,1.53h-.58l-2.67-6.79h.57a3.38,3.38,0,0,0,1.36,1.66,9,9,0,0,0,2.87.28h37.3a12.49,12.49,0,0,0,3.18-.28,2.29,2.29,0,0,0,1.43-1.66Z"/><path class="cls-1" d="M694,391.79v.57a5.86,5.86,0,0,0-2.46.35,2.21,2.21,0,0,0-1.61,1.33,21.16,21.16,0,0,0-.24,4.16v43.13a18.08,18.08,0,0,0,.28,4.29,2.6,2.6,0,0,0,1.11,1.3,6,6,0,0,0,2.92.51V448H679v-.58q2.82,0,3.51-1.08c.46-.73.69-2.37.69-4.94V398.7c0-2.67-.26-4.42-.76-5.25s-1.66-1.19-3.44-1.09v-.57Z"/><path class="cls-1" d="M745.77,391.79h10.87v.57a5.05,5.05,0,0,0-3.43,1.05q-1,1-1,4.11v51.17L707.41,401v41.56a10.12,10.12,0,0,0,.31,2.94,2.17,2.17,0,0,0,.88,1.3,10,10,0,0,0,2.86.68V448h-10.8v-.58c1.93,0,3.13-.34,3.6-1s.71-2.32.71-4.92v-38a20.39,20.39,0,0,0-1.39-8.16q-1.4-3.17-6.43-2.94v-.57h10.57l42.13,44.87V397c0-2.14-.38-3.44-1.15-3.91a5.5,5.5,0,0,0-2.93-.71Z"/><path class="cls-1" d="M817.36,447.43V448H794.69a41.52,41.52,0,0,1-11.43-1.42,30.21,30.21,0,0,1-10-5.36,30.58,30.58,0,0,1-8.24-9.82,25.2,25.2,0,0,1-3.15-12,26.13,26.13,0,0,1,4-13.39,30.18,30.18,0,0,1,11.24-10.86A32.69,32.69,0,0,1,793.58,391a47.44,47.44,0,0,1,17.52,3.67l2.33,6.48h-.56a22.43,22.43,0,0,0-8-6.2,25.77,25.77,0,0,0-11.35-2.46,22.3,22.3,0,0,0-17.81,8.19q-6.95,8.17-6.94,20.32a32.49,32.49,0,0,0,1.14,9,22.16,22.16,0,0,0,4.3,7.78,21.21,21.21,0,0,0,6.75,5.65,27.43,27.43,0,0,0,8.07,2.52,40.72,40.72,0,0,0,7.1.63l3-.08c3.41-.13,5.54-.44,6.39-.95s1.28-1.81,1.28-3.9v-8.51c0-1.65-.35-2.76-1-3.34a4.08,4.08,0,0,0-2.94-.74v-.57h14.54V429c-1.63,0-2.72.32-3.26.95s-.82,1.86-.82,3.66v8.83a7.73,7.73,0,0,0,.7,3.83,2.76,2.76,0,0,0,2.58,1.16Z"/><path class="cls-2" d="M675.87,145.25h30.35V361.54H675.87Zm15.62,103.53h69.17a32.16,32.16,0,0,0,17.26-4.61,30.62,30.62,0,0,0,11.52-13.09,48.82,48.82,0,0,0,0-39.12,31.07,31.07,0,0,0-11.52-13.17,31.77,31.77,0,0,0-17.26-4.68H691.49V145.25h68.13q19.33,0,34.06,8.25a57.46,57.46,0,0,1,22.84,23.28q8.1,15,8.1,34.81t-8.1,34.74a57.09,57.09,0,0,1-22.84,23.13q-14.71,8.18-34.06,8.18H691.49Z"/><path class="cls-2" d="M316.5,358.86A110.83,110.83,0,0,1,290.65,350a109.53,109.53,0,0,1-22.46-14.73l18.71-23a84.68,84.68,0,0,0,27,15.91,93.86,93.86,0,0,0,32,5.3q23.26,0,36.08-8.62t12.82-24.38v-.14q0-11.2-5.82-17.75a34.87,34.87,0,0,0-15-9.73,166.49,166.49,0,0,0-23.79-5.81,3,3,0,0,0-1-.15,3,3,0,0,1-1-.15l-2.21-.44q-21.51-3.67-35-8.32a49.26,49.26,0,0,1-23.05-16.94q-9.58-12.3-9.58-35V206q0-19.89,8.91-33.95t26-21.44q17.08-7.37,41.1-7.36a102.61,102.61,0,0,1,22.61,2.5,112.53,112.53,0,0,1,21.95,7.44,126.43,126.43,0,0,1,21.28,12.45l-17.09,23.86A100.06,100.06,0,0,0,378.74,176a70,70,0,0,0-24.38-4.49q-21.94,0-34.1,8.76t-12.15,24.82v.15q0,11.06,6.26,17.38A37.84,37.84,0,0,0,330,232a236.28,236.28,0,0,0,26,6.26c.39.09.76.17,1.1.22a10.34,10.34,0,0,1,1.11.22c.49.1,1,.2,1.62.29l1.62.3q19.44,4,32.48,9.42a50.73,50.73,0,0,1,21.8,17.61q8.76,12.15,8.76,33.21v.3q0,19.59-9.28,33.51t-26.88,21.21q-17.6,7.29-42.49,7.29A140.2,140.2,0,0,1,316.5,358.86Z"/><path class="cls-2" d="M525,146.27a112.3,112.3,0,0,0-88.4,89.57c-9.69,52.88,17.35,100.77,59.95,122.47a2.72,2.72,0,0,0,3.92-2.45V332.71a3.9,3.9,0,0,0-1.74-3.23c-27.81-18.93-44.09-53.57-36.16-91.22A86.32,86.32,0,0,1,528.84,172c56.59-12,106.44,30.82,106.44,85.3,0,27.15-12.36,55.27-31.75,71.49a4.89,4.89,0,0,0-1.8,3.75v22.78a2.84,2.84,0,0,0,4.34,2.4c33-20,55.17-59.09,55.17-100.42C661.24,187.25,597.63,132,525,146.27Z"/><rect class="cls-2" x="554.33" y="234.22" width="44.26" height="125.38" rx="6.65"/><rect class="cls-2" x="528.08" y="265.57" width="44.26" height="94.03" rx="6.65"/><rect class="cls-2" x="503.7" y="296.91" width="44.26" height="62.69" rx="6.65"/><path class="cls-3" d="M510.67,16.94a9.09,9.09,0,0,1-3.9.78c-4.08,0-6.74-2.77-6.74-6.91a6.89,6.89,0,0,1,7.28-7.2,8.32,8.32,0,0,1,3.41.7l-.56,1.91a5.65,5.65,0,0,0-2.85-.65c-3.11,0-4.79,2.3-4.79,5.13,0,3.13,2,5.06,4.7,5.06a7,7,0,0,0,3-.67Z"/><path class="cls-3" d="M525.65,10.56c0,5-3.48,7.19-6.75,7.19-3.67,0-6.5-2.69-6.5-7,0-4.54,3-7.2,6.72-7.2S525.65,6.41,525.65,10.56Zm-10.76.14c0,3,1.71,5.2,4.12,5.2s4.12-2.21,4.12-5.26c0-2.3-1.15-5.21-4.06-5.21S514.89,8.12,514.89,10.7Z"/><path class="cls-3" d="M528.75,7.56c0-1.4,0-2.55-.11-3.67h2.19L531,6.13h0a5,5,0,0,1,4.48-2.55c1.88,0,4.79,1.12,4.79,5.77v8.09h-2.46V9.63c0-2.18-.82-4-3.14-4a3.5,3.5,0,0,0-3.3,2.52,3.36,3.36,0,0,0-.17,1.15v8.14h-2.47Z"/><path class="cls-3" d="M554,16.94a9,9,0,0,1-3.89.78c-4.09,0-6.75-2.77-6.75-6.91a6.89,6.89,0,0,1,7.28-7.2,8.33,8.33,0,0,1,3.42.7l-.56,1.91a5.67,5.67,0,0,0-2.86-.65c-3.1,0-4.78,2.3-4.78,5.13,0,3.13,2,5.06,4.7,5.06a7,7,0,0,0,3-.67Z"/><path class="cls-3" d="M558,11.12c.06,3.33,2.19,4.7,4.65,4.7a8.93,8.93,0,0,0,3.75-.7l.42,1.76a10.85,10.85,0,0,1-4.51.84c-4.17,0-6.66-2.74-6.66-6.83s2.41-7.31,6.36-7.31c4.42,0,5.6,3.9,5.6,6.39a8.91,8.91,0,0,1-.09,1.15Zm7.23-1.77c0-1.57-.65-4-3.42-4-2.49,0-3.58,2.29-3.78,4Z"/><path class="cls-3" d="M570.7,8.32c0-1.74-.06-3.14-.11-4.43h2.21l.11,2.33H573a5.3,5.3,0,0,1,4.81-2.64c3.28,0,5.74,2.78,5.74,6.89,0,4.87-3,7.28-6.16,7.28a4.74,4.74,0,0,1-4.17-2.13h-.06V23H570.7Zm2.43,3.61a5.27,5.27,0,0,0,.12,1,3.8,3.8,0,0,0,3.69,2.88c2.61,0,4.12-2.13,4.12-5.24,0-2.71-1.43-5-4-5A4,4,0,0,0,573.3,8.6a4.1,4.1,0,0,0-.17,1Z"/><path class="cls-3" d="M589.6,0V3.89h3.53V5.77H589.6v7.31c0,1.68.47,2.63,1.84,2.63a5.64,5.64,0,0,0,1.43-.17l.11,1.85a6.15,6.15,0,0,1-2.18.33,3.42,3.42,0,0,1-2.66-1,5,5,0,0,1-.95-3.53V5.77h-2.1V3.89h2.1V.64Z"/><rect class="cls-2" x="89.88" y="236.96" width="44.26" height="125.38" rx="6.65"/><rect class="cls-2" x="63.63" y="268.31" width="44.26" height="94.03" rx="6.65"/><rect class="cls-2" x="39.24" y="299.65" width="44.26" height="62.69" rx="6.65"/><path class="cls-3" d="M4.42,2.83A1.45,1.45,0,0,1,2.86,4.34,1.47,1.47,0,0,1,1.37,2.83,1.5,1.5,0,0,1,2.91,1.29,1.46,1.46,0,0,1,4.42,2.83ZM1.68,20.19V6.64H4.14V20.19Z"/><path class="cls-3" d="M19.94.31V16.69c0,1.2,0,2.57.11,3.5H17.84l-.12-2.35h0a5,5,0,0,1-4.62,2.66c-3.28,0-5.8-2.78-5.8-6.89,0-4.51,2.77-7.28,6.08-7.28A4.55,4.55,0,0,1,17.42,8.4h0V.31ZM17.47,12.15a4.45,4.45,0,0,0-.11-1A3.62,3.62,0,0,0,13.8,8.26c-2.54,0-4.06,2.24-4.06,5.24,0,2.74,1.35,5,4,5a3.7,3.7,0,0,0,3.61-2.94,4.51,4.51,0,0,0,.11-1.07Z"/><path class="cls-3" d="M25.4,13.86c.05,3.33,2.18,4.7,4.64,4.7a8.83,8.83,0,0,0,3.76-.7l.42,1.77a11.05,11.05,0,0,1-4.51.84c-4.17,0-6.67-2.75-6.67-6.83s2.41-7.31,6.36-7.31c4.42,0,5.6,3.89,5.6,6.38a11.34,11.34,0,0,1-.08,1.15Zm7.22-1.76c0-1.57-.64-4-3.42-4-2.49,0-3.58,2.3-3.78,4Z"/><path class="cls-3" d="M45.56,20.19l-.2-1.71h-.08a5.08,5.08,0,0,1-4.15,2A3.87,3.87,0,0,1,37,16.6c0-3.27,2.91-5.06,8.15-5v-.28a2.79,2.79,0,0,0-3.08-3.13,6.72,6.72,0,0,0-3.53,1L38,7.53a8.38,8.38,0,0,1,4.45-1.2c4.14,0,5.15,2.83,5.15,5.54v5.07a18.88,18.88,0,0,0,.23,3.25Zm-.37-6.92c-2.69,0-5.74.42-5.74,3.05a2.19,2.19,0,0,0,2.33,2.36,3.36,3.36,0,0,0,3.27-2.27,2.39,2.39,0,0,0,.14-.79Z"/><path class="cls-3" d="M69.75,13.3c0,5-3.47,7.2-6.75,7.2-3.67,0-6.5-2.69-6.5-7,0-4.53,3-7.19,6.72-7.19C67.12,6.33,69.75,9.16,69.75,13.3ZM59,13.44c0,3,1.7,5.21,4.11,5.21s4.12-2.21,4.12-5.27c0-2.29-1.15-5.2-4.06-5.2S59,10.86,59,13.44Z"/><path class="cls-3" d="M73.11,20.19V8.51H71.2V6.64h1.91V6a6.42,6.42,0,0,1,1.56-4.73A4.72,4.72,0,0,1,78,0a5.86,5.86,0,0,1,2.1.39L79.74,2.3A3.61,3.61,0,0,0,78.17,2c-2.09,0-2.63,1.85-2.63,3.92v.73h3.28V8.51H75.54V20.19Z"/><path class="cls-3" d="M98.67.31V16.69c0,1.2,0,2.57.11,3.5H96.57l-.11-2.35H96.4a5,5,0,0,1-4.62,2.66c-3.27,0-5.79-2.78-5.79-6.89,0-4.51,2.77-7.28,6.07-7.28A4.55,4.55,0,0,1,96.15,8.4h.06V.31ZM96.21,12.15a4,4,0,0,0-.12-1,3.61,3.61,0,0,0-3.55-2.86c-2.55,0-4.06,2.24-4.06,5.24,0,2.74,1.34,5,4,5a3.7,3.7,0,0,0,3.61-2.94,4,4,0,0,0,.12-1.07Z"/><path class="cls-3" d="M110.26,20.19l-.19-1.71H110a5,5,0,0,1-4.14,2,3.87,3.87,0,0,1-4.15-3.9c0-3.27,2.92-5.06,8.15-5v-.28a2.79,2.79,0,0,0-3.08-3.13,6.75,6.75,0,0,0-3.53,1l-.56-1.63a8.42,8.42,0,0,1,4.46-1.2c4.14,0,5.15,2.83,5.15,5.54v5.07a18.94,18.94,0,0,0,.22,3.25Zm-.36-6.92c-2.69,0-5.74.42-5.74,3.05a2.18,2.18,0,0,0,2.32,2.36,3.37,3.37,0,0,0,3.28-2.27,2.68,2.68,0,0,0,.14-.79Z"/><path class="cls-3" d="M119.11,2.74v3.9h3.53V8.51h-3.53v7.31c0,1.68.48,2.63,1.85,2.63a5.27,5.27,0,0,0,1.43-.17l.11,1.85a6,6,0,0,1-2.19.34,3.44,3.44,0,0,1-2.66-1,5,5,0,0,1-1-3.53V8.51h-2.1V6.64h2.1V3.39Z"/><path class="cls-3" d="M132.91,20.19l-.19-1.71h-.09a5,5,0,0,1-4.14,2,3.87,3.87,0,0,1-4.14-3.9c0-3.27,2.91-5.06,8.14-5v-.28a2.79,2.79,0,0,0-3.08-3.13,6.68,6.68,0,0,0-3.52,1l-.56-1.63a8.38,8.38,0,0,1,4.45-1.2c4.14,0,5.15,2.83,5.15,5.54v5.07a20,20,0,0,0,.22,3.25Zm-.36-6.92c-2.69,0-5.74.42-5.74,3.05a2.18,2.18,0,0,0,2.32,2.36,3.37,3.37,0,0,0,3.28-2.27,2.68,2.68,0,0,0,.14-.79Z"/><path class="cls-3" d="M2.63,40.24l2.66,7.61a34.11,34.11,0,0,1,1.09,3.47h.09c.31-1.12.7-2.24,1.15-3.47l2.63-7.61h2.57L7.5,53.79H5.15L0,40.24Z"/><path class="cls-3" d="M17.89,36.43a1.53,1.53,0,0,1-3.05,0,1.5,1.5,0,0,1,1.54-1.54A1.46,1.46,0,0,1,17.89,36.43ZM15.15,53.79V40.24h2.46V53.79Z"/><path class="cls-3" d="M21.36,51.27a6.54,6.54,0,0,0,3.25,1c1.79,0,2.63-.9,2.63-2s-.7-1.82-2.52-2.49c-2.43-.87-3.58-2.21-3.58-3.84,0-2.18,1.76-4,4.68-4a6.75,6.75,0,0,1,3.33.84l-.62,1.79a5.23,5.23,0,0,0-2.77-.78c-1.46,0-2.27.84-2.27,1.84s.81,1.63,2.58,2.3c2.35.9,3.55,2.07,3.55,4.09,0,2.38-1.84,4.06-5.06,4.06a7.71,7.71,0,0,1-3.81-.93Z"/><path class="cls-3" d="M44.13,50.09c0,1.4,0,2.63.11,3.7H42.06l-.14-2.21h-.06a5.09,5.09,0,0,1-4.48,2.51c-2.13,0-4.68-1.17-4.68-5.93V40.24h2.47v7.5c0,2.58.78,4.31,3,4.31a3.45,3.45,0,0,0,3.47-3.5V40.24h2.47Z"/><path class="cls-3" d="M55.72,53.79l-.2-1.71h-.08a5.06,5.06,0,0,1-4.14,2,3.86,3.86,0,0,1-4.15-3.89c0-3.27,2.91-5.07,8.15-5v-.28a2.79,2.79,0,0,0-3.08-3.13,6.8,6.8,0,0,0-3.53,1l-.56-1.62a8.41,8.41,0,0,1,4.45-1.2c4.15,0,5.16,2.82,5.16,5.54v5.07A19,19,0,0,0,58,53.79Zm-.36-6.92c-2.69,0-5.74.42-5.74,3.05a2.18,2.18,0,0,0,2.32,2.36A3.39,3.39,0,0,0,55.22,50a2.74,2.74,0,0,0,.14-.79Z"/><path class="cls-3" d="M61.71,33.91h2.47V53.79H61.71Z"/><path class="cls-3" d="M71.06,36.43a1.45,1.45,0,0,1-1.56,1.51A1.47,1.47,0,0,1,68,36.43a1.5,1.5,0,0,1,1.54-1.54A1.46,1.46,0,0,1,71.06,36.43ZM68.32,53.79V40.24h2.46V53.79Z"/><path class="cls-3" d="M73.33,52.36l6.13-8c.59-.73,1.15-1.37,1.77-2.1v-.06H73.89v-2H84.22l0,1.54-6,7.86c-.56.76-1.12,1.43-1.74,2.13v.06h7.92v2h-11Z"/><path class="cls-3" d="M94.36,53.79l-.2-1.71h-.08a5.06,5.06,0,0,1-4.15,2,3.86,3.86,0,0,1-4.14-3.89c0-3.27,2.91-5.07,8.15-5v-.28a2.79,2.79,0,0,0-3.08-3.13,6.8,6.8,0,0,0-3.53,1l-.56-1.62a8.38,8.38,0,0,1,4.45-1.2c4.15,0,5.15,2.82,5.15,5.54v5.07a19,19,0,0,0,.23,3.25ZM94,46.87c-2.68,0-5.74.42-5.74,3.05a2.19,2.19,0,0,0,2.33,2.36A3.36,3.36,0,0,0,93.85,50a2.44,2.44,0,0,0,.14-.79Z"/><path class="cls-3" d="M103.21,36.34v3.9h3.52v1.87h-3.52v7.31c0,1.68.47,2.63,1.84,2.63a5.21,5.21,0,0,0,1.43-.17l.11,1.85a5.89,5.89,0,0,1-2.18.34,3.42,3.42,0,0,1-2.66-1,5,5,0,0,1-1-3.53V42.11H98.7V40.24h2.1V37Z"/><path class="cls-3" d="M112.25,36.43a1.53,1.53,0,0,1-3,0,1.5,1.5,0,0,1,1.54-1.54A1.46,1.46,0,0,1,112.25,36.43Zm-2.74,17.36V40.24H112V53.79Z"/><path class="cls-3" d="M128.32,46.9c0,5-3.47,7.19-6.75,7.19-3.66,0-6.49-2.68-6.49-7,0-4.53,3-7.19,6.72-7.19S128.32,42.75,128.32,46.9ZM117.57,47c0,3,1.71,5.21,4.12,5.21S125.8,50,125.8,47c0-2.29-1.15-5.2-4.06-5.2S117.57,44.46,117.57,47Z"/><path class="cls-3" d="M131.43,43.9c0-1.4,0-2.54-.11-3.66h2.18l.14,2.24h.06a5,5,0,0,1,4.48-2.55c1.87,0,4.79,1.12,4.79,5.77v8.09H140.5V46c0-2.19-.81-4-3.13-4a3.5,3.5,0,0,0-3.31,2.52,3.62,3.62,0,0,0-.17,1.15v8.15h-2.46Z"/><path class="cls-3" d="M164.81,53.79c-.54-.54-1-1.07-1.77-1.85a7.72,7.72,0,0,1-5.51,2.15c-3.67,0-5.8-2.46-5.8-5.29,0-2.57,1.54-4.34,3.7-5.51V43.2a6.47,6.47,0,0,1-1.57-4,4.57,4.57,0,0,1,4.79-4.64,3.92,3.92,0,0,1,4.17,4c0,2-1.15,3.56-4.15,5v.09c1.6,1.84,3.39,3.92,4.6,5.26a14.11,14.11,0,0,0,1.82-5.52h2.24c-.51,3-1.32,5.32-2.72,7,1,1.06,2,2.12,3.11,3.33Zm-3-3.25c-1.12-1.23-3.22-3.53-5.32-5.94a4.65,4.65,0,0,0-2.44,3.84A3.73,3.73,0,0,0,158,52.25,5.28,5.28,0,0,0,161.84,50.54ZM156.1,39a5.25,5.25,0,0,0,1.43,3.39c1.9-1.09,3.13-2.1,3.13-3.7a2.22,2.22,0,0,0-2.18-2.43A2.46,2.46,0,0,0,156.1,39Z"/><path class="cls-3" d="M9.18,87.39,9,85.68H8.9a5,5,0,0,1-4.14,2A3.87,3.87,0,0,1,.62,83.8c0-3.27,2.91-5.06,8.14-5v-.28a2.79,2.79,0,0,0-3.08-3.13,6.68,6.68,0,0,0-3.52,1L1.6,74.73a8.38,8.38,0,0,1,4.45-1.2c4.14,0,5.15,2.83,5.15,5.54v5.07a20,20,0,0,0,.22,3.25Zm-.36-6.92c-2.69,0-5.74.42-5.74,3A2.18,2.18,0,0,0,5.4,85.88a3.37,3.37,0,0,0,3.28-2.27,2.68,2.68,0,0,0,.14-.79Z"/><path class="cls-3" d="M24.84,86.88a9.06,9.06,0,0,1-3.9.79c-4.08,0-6.74-2.77-6.74-6.92a6.88,6.88,0,0,1,7.28-7.19,8.16,8.16,0,0,1,3.41.7l-.56,1.9a5.67,5.67,0,0,0-2.85-.64c-3.11,0-4.79,2.29-4.79,5.12,0,3.14,2,5.07,4.7,5.07a7.15,7.15,0,0,0,3-.67Z"/><path class="cls-3" d="M37.21,86.88a9,9,0,0,1-3.89.79c-4.09,0-6.75-2.77-6.75-6.92a6.88,6.88,0,0,1,7.28-7.19,8.17,8.17,0,0,1,3.42.7l-.56,1.9a5.68,5.68,0,0,0-2.86-.64c-3.11,0-4.79,2.29-4.79,5.12,0,3.14,2,5.07,4.71,5.07a7.1,7.1,0,0,0,3-.67Z"/><path class="cls-3" d="M52.19,80.5c0,5-3.47,7.2-6.75,7.2-3.66,0-6.49-2.69-6.49-7,0-4.53,3-7.19,6.72-7.19S52.19,76.36,52.19,80.5Zm-10.75.14c0,3,1.71,5.21,4.12,5.21s4.11-2.21,4.11-5.27c0-2.29-1.15-5.2-4.06-5.2S41.44,78.06,41.44,80.64Z"/><path class="cls-3" d="M66.64,83.69c0,1.4,0,2.63.11,3.7H64.57l-.14-2.21h-.06a5.09,5.09,0,0,1-4.48,2.52c-2.13,0-4.67-1.18-4.67-5.94V73.84h2.46v7.5c0,2.58.78,4.31,3,4.31a3.49,3.49,0,0,0,3.48-3.5V73.84h2.46Z"/><path class="cls-3" d="M70.73,77.5c0-1.4,0-2.54-.11-3.66H72.8l.14,2.24H73a5,5,0,0,1,4.48-2.55c1.87,0,4.78,1.12,4.78,5.77v8.09H79.8V79.58c0-2.19-.81-4-3.14-4a3.5,3.5,0,0,0-3.3,2.52,3.62,3.62,0,0,0-.17,1.15v8.15H70.73Z"/><path class="cls-3" d="M89.12,69.94v3.9h3.53v1.87H89.12V83c0,1.68.48,2.63,1.85,2.63a5.21,5.21,0,0,0,1.43-.17l.11,1.85a5.89,5.89,0,0,1-2.18.34,3.42,3.42,0,0,1-2.66-1,5,5,0,0,1-1-3.53V75.71h-2.1V73.84h2.1V70.59Z"/><path class="cls-3" d="M98.17,70a1.53,1.53,0,0,1-3,0,1.5,1.5,0,0,1,1.54-1.54A1.46,1.46,0,0,1,98.17,70ZM95.42,87.39V73.84h2.47V87.39Z"/><path class="cls-3" d="M102,77.5c0-1.4,0-2.54-.12-3.66h2.19l.14,2.24h0a5,5,0,0,1,4.48-2.55c1.88,0,4.79,1.12,4.79,5.77v8.09h-2.46V79.58c0-2.19-.81-4-3.14-4a3.5,3.5,0,0,0-3.3,2.52,3.62,3.62,0,0,0-.17,1.15v8.15H102Z"/><path class="cls-3" d="M129.19,73.84c-.05,1-.11,2.07-.11,3.72v7.87c0,3.11-.62,5-1.93,6.19a7.2,7.2,0,0,1-4.93,1.62,8.74,8.74,0,0,1-4.51-1.12l.62-1.88a7.6,7.6,0,0,0,4,1.07c2.52,0,4.37-1.32,4.37-4.73V85.06h0a4.86,4.86,0,0,1-4.32,2.27c-3.36,0-5.76-2.85-5.76-6.61,0-4.59,3-7.19,6.1-7.19a4.51,4.51,0,0,1,4.23,2.35h0l.12-2Zm-2.55,5.34a3.31,3.31,0,0,0-.14-1.12,3.54,3.54,0,0,0-3.44-2.6c-2.35,0-4,2-4,5.12,0,2.66,1.34,4.88,4,4.88a3.62,3.62,0,0,0,3.42-2.52,4.3,4.3,0,0,0,.19-1.32Z"/><path class="cls-4" d="M988.78,424.57h-16.5l-8.51,21.21a12.72,12.72,0,0,0-.88,2.83c0,.84.63,1.26,1.87,1.26v.57h-8.35v-.57a4.72,4.72,0,0,0,2.82-.82q1.14-.82,2.51-4.26l20.38-51.4h1l20,49.64a20.82,20.82,0,0,0,1.54,3.61,5,5,0,0,0,4.7,3.23v.57H996.29v-.57c1.19,0,1.79-.47,1.79-1.41a9.12,9.12,0,0,0-.88-3.06,1.29,1.29,0,0,1-.27-.49c0-.26-.08-.38-.11-.38Zm-16-1.57H988l-7.59-19.16Z"/><path class="cls-4" d="M1058.26,397.05l2.1,5.95h-.56a26.38,26.38,0,0,0-19.22-8.12q-11.49,0-18.56,6.83a22.13,22.13,0,0,0-7.07,16.52A37.44,37.44,0,0,0,1018.1,432a29.24,29.24,0,0,0,9.94,12.8,26.88,26.88,0,0,0,16.45,5,38.86,38.86,0,0,0,12.42-2c4-1.36,7.08-3.19,9.06-5.48l.5.16-3.93,6q-9.54,2.07-12.39,2.45a60.72,60.72,0,0,1-7.61.38q-17.67,0-25.28-8.19a27.74,27.74,0,0,1-7.62-19.59,30.48,30.48,0,0,1,3.91-14.83,28.32,28.32,0,0,1,11.28-11.22,37.45,37.45,0,0,1,25-3.24,45,45,0,0,1,5.74,1.77l2.52,1A.34.34,0,0,1,1058.26,397.05Z"/><path class="cls-4" d="M1117.49,397.05l2.1,5.95H1119a26.38,26.38,0,0,0-19.22-8.12q-11.49,0-18.56,6.83a22.1,22.1,0,0,0-7.07,16.52,37.6,37.6,0,0,0,3.14,13.78,29.26,29.26,0,0,0,10,12.8,26.85,26.85,0,0,0,16.44,5,38.87,38.87,0,0,0,12.43-2q6.08-2,9.06-5.48l.5.16-3.94,6q-9.54,2.07-12.38,2.45a60.72,60.72,0,0,1-7.61.38q-17.67,0-25.29-8.19a27.78,27.78,0,0,1-7.61-19.59,30.38,30.38,0,0,1,3.91-14.83,28.32,28.32,0,0,1,11.28-11.22,37.45,37.45,0,0,1,25-3.24,45,45,0,0,1,5.74,1.77l2.52,1A.53.53,0,0,1,1117.49,397.05Z"/><path class="cls-4" d="M1159.35,393.39q11.84,0,19.35,7.19a23.85,23.85,0,0,1,7.52,18q0,13.84-8.7,23.31t-23.09,9.47q-11.67,0-19.12-7.63a25.32,25.32,0,0,1-7.44-18.32,34.57,34.57,0,0,1,3.59-14.81,29.87,29.87,0,0,1,27.89-17.17Zm-.22,54.95a23.4,23.4,0,0,0,11.44-3.11,23.13,23.13,0,0,0,8.9-8.57,21.66,21.66,0,0,0,3.24-11.21,26.56,26.56,0,0,0-4.37-14.85A31.07,31.07,0,0,0,1167,400.14q-7-3.78-12.88-3.78a21.81,21.81,0,0,0-15.17,6.3,20.45,20.45,0,0,0-6.82,15.65,30.09,30.09,0,0,0,8.32,21Q1148.78,448.35,1159.13,448.34Z"/><path class="cls-4" d="M1244.23,450.44h-10.65v-8.66q-8.11,9-19.37,9-8.34,0-13.24-4.69t-4.9-13V399.49c0-2-.24-3.32-.73-3.87s-1.61-.82-3.39-.82v-.57h14.92v.57a5.7,5.7,0,0,0-3.34.74c-.65.5-1,1.68-1,3.53V430q0,9.69,4.54,13.83a14.9,14.9,0,0,0,10.33,4.14q9.11,0,16.16-8.2V401.67q0-5-.88-5.93a3.58,3.58,0,0,0-2.75-.94h-.53v-.57h14.81v.57c-1.83.1-3,.41-3.46.92a4.34,4.34,0,0,0-.7,2.89v45.77a15.11,15.11,0,0,0,.26,3.54,2.69,2.69,0,0,0,1.09,1.4,5.38,5.38,0,0,0,2.81.55Z"/><path class="cls-4" d="M1296.59,394.23h10.87v.57a5,5,0,0,0-3.43,1.05c-.64.65-1,2-1,4.1v51.18l-44.84-47.75V445a10.17,10.17,0,0,0,.31,2.94,2.22,2.22,0,0,0,.88,1.29,9.89,9.89,0,0,0,2.86.69v.57h-10.8v-.57c1.93,0,3.13-.34,3.6-1s.71-2.33.71-4.92v-38a20.39,20.39,0,0,0-1.39-8.16q-1.39-3.17-6.43-2.94v-.57h10.57l42.13,44.86V399.42c0-2.14-.38-3.44-1.14-3.91a5.56,5.56,0,0,0-2.94-.71Z"/><path class="cls-4" d="M1357.38,392.28l-2.67,6.79h-.57a7.08,7.08,0,0,0,.15-1.64,1.06,1.06,0,0,0-.63-1.12,5.77,5.77,0,0,0-2-.25H1337v48.09a11.47,11.47,0,0,0,.48,4.06,2.29,2.29,0,0,0,1.3,1.37,8.76,8.76,0,0,0,2.65.29v.57H1326.2v-.57c1.91-.13,3.1-.5,3.59-1.11s.72-1.88.72-3.81V396.06h-14a9.44,9.44,0,0,0-2.78.25c-.43.16-.64.58-.64,1.24a6,6,0,0,0,.3,1.52h-.57l-2.67-6.79h.57a3.38,3.38,0,0,0,1.35,1.66,9,9,0,0,0,2.88.29h37.3a12.49,12.49,0,0,0,3.18-.29,2.29,2.29,0,0,0,1.43-1.66Z"/><path class="cls-4" d="M1375,394.23v.57a5.84,5.84,0,0,0-2.46.34c-.9.31-1.44.75-1.6,1.34a20,20,0,0,0-.25,4.15v43.14a17.85,17.85,0,0,0,.29,4.29,2.57,2.57,0,0,0,1.1,1.29,5.81,5.81,0,0,0,2.92.52v.57h-15v-.57c1.89,0,3.06-.36,3.52-1.09s.68-2.37.68-4.94V401.13c0-2.67-.25-4.42-.76-5.24s-1.65-1.19-3.44-1.09v-.57Z"/><path class="cls-4" d="M1426.76,394.23h10.88v.57a5,5,0,0,0-3.44,1.05c-.63.65-1,2-1,4.1v51.18l-44.84-47.75V445a10.61,10.61,0,0,0,.3,2.94,2.22,2.22,0,0,0,.88,1.29,9.89,9.89,0,0,0,2.86.69v.57h-10.8v-.57c1.93,0,3.14-.34,3.61-1s.7-2.33.7-4.92v-38a20.39,20.39,0,0,0-1.39-8.16q-1.39-3.17-6.43-2.94v-.57h10.57l42.13,44.86V399.42c0-2.14-.38-3.44-1.14-3.91a5.54,5.54,0,0,0-2.94-.71Z"/><path class="cls-4" d="M1498.35,449.87v.57h-22.67a41.55,41.55,0,0,1-11.43-1.41,30.17,30.17,0,0,1-10-5.36,30.52,30.52,0,0,1-8.25-9.83,25.16,25.16,0,0,1-3.15-12,26.17,26.17,0,0,1,4-13.4,30.16,30.16,0,0,1,11.24-10.85,32.6,32.6,0,0,1,16.53-4.18,47.53,47.53,0,0,1,17.51,3.66l2.33,6.49h-.56a22.34,22.34,0,0,0-8-6.2,25.7,25.7,0,0,0-11.34-2.46,22.33,22.33,0,0,0-17.82,8.18q-6.93,8.19-6.94,20.32a32.42,32.42,0,0,0,1.15,9,22,22,0,0,0,4.29,7.79,21.09,21.09,0,0,0,6.76,5.64,27.24,27.24,0,0,0,8.07,2.52,40.57,40.57,0,0,0,7.1.63l3-.07q5.12-.19,6.39-1c.86-.51,1.28-1.8,1.28-3.89v-8.51c0-1.65-.34-2.77-1-3.34a4.08,4.08,0,0,0-2.94-.74v-.58h14.54v.58c-1.63,0-2.71.31-3.26.95s-.82,1.85-.82,3.65v8.84a7.63,7.63,0,0,0,.71,3.83,2.76,2.76,0,0,0,2.57,1.16Z"/><path class="cls-5" d="M1356.86,147.68h30.35V364h-30.35Zm15.62,103.54h69.17a32,32,0,0,0,17.26-4.62,30.58,30.58,0,0,0,11.53-13.09,48.82,48.82,0,0,0,0-39.12,31.13,31.13,0,0,0-11.53-13.16,31.64,31.64,0,0,0-17.26-4.69h-69.17V147.68h68.13q19.34,0,34.07,8.26a57.38,57.38,0,0,1,22.83,23.28q8.1,15,8.11,34.81t-8.11,34.73a57,57,0,0,1-22.83,23.13q-14.73,8.19-34.07,8.18h-68.13Z"/><path class="cls-5" d="M997.5,361.3a108.33,108.33,0,0,1-48.32-23.57l18.71-23a84.54,84.54,0,0,0,27,15.91,93.52,93.52,0,0,0,32,5.3q23.26,0,36.09-8.61T1075.71,303v-.15q0-11.19-5.82-17.75a34.7,34.7,0,0,0-15-9.72,167.7,167.7,0,0,0-23.79-5.82,3.22,3.22,0,0,0-1-.15,2.91,2.91,0,0,1-.95-.14l-2.21-.44q-21.51-3.69-35-8.33a49.25,49.25,0,0,1-23.05-16.94q-9.57-12.28-9.57-35v-.15q0-19.87,8.91-34t26-21.43q17.09-7.36,41.09-7.36a102.54,102.54,0,0,1,22.61,2.5,112.3,112.3,0,0,1,22,7.44A127.12,127.12,0,0,1,1101.2,168l-17.09,23.87a99.78,99.78,0,0,0-24.38-13.48,69.76,69.76,0,0,0-24.38-4.49q-21.94,0-34.1,8.76T989.1,207.52v.15q0,11,6.26,17.38A37.86,37.86,0,0,0,1011,234.4a235.43,235.43,0,0,0,26,6.26,10.34,10.34,0,0,0,1.11.22c.34.05.71.13,1.1.22l1.62.3,1.62.29q19.45,4,32.48,9.43a50.64,50.64,0,0,1,21.8,17.6q8.76,12.15,8.77,33.22v.29q0,19.59-9.28,33.51T1069.31,357q-17.61,7.29-42.5,7.29A140.86,140.86,0,0,1,997.5,361.3Z"/><path class="cls-5" d="M1206,148.7a112.3,112.3,0,0,0-88.39,89.58c-9.7,52.87,17.34,100.77,59.94,122.47a2.73,2.73,0,0,0,3.92-2.46V335.14a3.9,3.9,0,0,0-1.73-3.22c-27.81-18.93-44.1-53.57-36.16-91.23a86.29,86.29,0,0,1,66.24-66.25c56.59-12,106.43,30.82,106.43,85.3,0,27.15-12.35,55.26-31.75,71.48a4.89,4.89,0,0,0-1.79,3.75v22.79a2.84,2.84,0,0,0,4.34,2.4c33-20.05,55.17-59.09,55.17-100.42C1342.24,189.69,1278.63,134.47,1206,148.7Z"/><rect class="cls-6" x="1235.32" y="236.66" width="44.26" height="125.38" rx="6.65"/><rect class="cls-7" x="1209.07" y="268" width="44.26" height="94.03" rx="6.65"/><rect class="cls-8" x="1184.69" y="299.35" width="44.26" height="62.69" rx="6.65"/><path class="cls-3" d="M1197.27,13c0,5-3.47,7.2-6.74,7.2-3.67,0-6.5-2.69-6.5-7,0-4.54,3-7.2,6.72-7.2S1197.27,8.85,1197.27,13Zm-10.75.14c0,3,1.71,5.21,4.12,5.21s4.11-2.21,4.11-5.26c0-2.3-1.14-5.21-4.06-5.21S1186.52,10.56,1186.52,13.13Z"/><path class="cls-3" d="M1200.38,10.56c0-1.6,0-3-.11-4.23h2.15l.09,2.66h.11a4.07,4.07,0,0,1,3.75-3,2.93,2.93,0,0,1,.7.08V8.43a3.37,3.37,0,0,0-4.14,3.08,6.51,6.51,0,0,0-.11,1.15v7.22h-2.44Z"/><path class="cls-3" d="M1212.39,2.52A1.45,1.45,0,0,1,1210.83,4a1.47,1.47,0,0,1-1.49-1.51A1.5,1.5,0,0,1,1210.88,1,1.46,1.46,0,0,1,1212.39,2.52Zm-2.74,17.36V6.33h2.46V19.88Z"/><path class="cls-3" d="M1227.88,6.33c-.06,1-.12,2.07-.12,3.72v7.87c0,3.11-.61,5-1.93,6.19a7.18,7.18,0,0,1-4.93,1.62,8.7,8.7,0,0,1-4.5-1.12l.61-1.87a7.67,7.67,0,0,0,4,1.06c2.52,0,4.37-1.32,4.37-4.73V17.56h-.06a4.83,4.83,0,0,1-4.31,2.26c-3.36,0-5.77-2.85-5.77-6.6,0-4.6,3-7.2,6.1-7.2a4.5,4.5,0,0,1,4.23,2.35h.06l.11-2Zm-2.55,5.35A3.61,3.61,0,0,0,1221.74,8c-2.35,0-4,2-4,5.13,0,2.66,1.35,4.87,4,4.87a3.59,3.59,0,0,0,3.41-2.52,4.32,4.32,0,0,0,.2-1.32Z"/><path class="cls-3" d="M1234.43,2.52a1.53,1.53,0,0,1-3,0A1.5,1.5,0,0,1,1232.92,1,1.46,1.46,0,0,1,1234.43,2.52Zm-2.75,17.36V6.33h2.47V19.88Z"/><path class="cls-3" d="M1238.24,10c0-1.4,0-2.55-.12-3.67h2.19l.14,2.24h0A5,5,0,0,1,1245,6c1.88,0,4.79,1.12,4.79,5.77v8.09h-2.46V12.07c0-2.19-.81-4-3.14-4a3.5,3.5,0,0,0-3.3,2.52,3.62,3.62,0,0,0-.17,1.15v8.15h-2.46Z"/><path class="cls-3" d="M1261.28,19.88l-.2-1.71H1261a5,5,0,0,1-4.14,2,3.86,3.86,0,0,1-4.15-3.89c0-3.28,2.91-5.07,8.15-5V11a2.8,2.8,0,0,0-3.08-3.14,6.72,6.72,0,0,0-3.53,1l-.56-1.63a8.5,8.5,0,0,1,4.45-1.2c4.15,0,5.16,2.83,5.16,5.54v5.07a18.87,18.87,0,0,0,.22,3.25Zm-.36-6.92c-2.69-.05-5.74.42-5.74,3.06a2.18,2.18,0,0,0,2.32,2.35,3.39,3.39,0,0,0,3.28-2.27,2.67,2.67,0,0,0,.14-.78Z"/><path class="cls-3" d="M1267.27,0h2.47V19.88h-2.47Z"/><path class="cls-3" d="M1672.06,424.57h-16.5l-8.51,21.21a12.16,12.16,0,0,0-.88,2.83c0,.84.62,1.26,1.87,1.26v.57h-8.36v-.57a4.68,4.68,0,0,0,2.82-.82c.77-.55,1.6-2,2.52-4.26l20.38-51.4h1l20,49.64a20.82,20.82,0,0,0,1.54,3.61,5,5,0,0,0,4.7,3.23v.57h-13.13v-.57q1.8,0,1.8-1.41a9.37,9.37,0,0,0-.88-3.06,1.29,1.29,0,0,1-.27-.49c0-.26-.09-.38-.11-.38Zm-16-1.57h15.2l-7.59-19.16Z"/><path class="cls-3" d="M1741.54,397.05l2.1,5.95h-.56a26.38,26.38,0,0,0-19.23-8.12q-11.47,0-18.55,6.83a22.11,22.11,0,0,0-7.08,16.52,37.44,37.44,0,0,0,3.15,13.78,29.31,29.31,0,0,0,9.94,12.8,26.9,26.9,0,0,0,16.45,5,38.86,38.86,0,0,0,12.42-2q6.09-2,9.07-5.48l.49.16-3.93,6q-9.54,2.07-12.38,2.45a60.83,60.83,0,0,1-7.61.38q-17.67,0-25.29-8.19a27.78,27.78,0,0,1-7.61-19.59,30.38,30.38,0,0,1,3.91-14.83,28.32,28.32,0,0,1,11.28-11.22,37.42,37.42,0,0,1,25-3.24,44.74,44.74,0,0,1,5.75,1.77l2.52,1A.53.53,0,0,1,1741.54,397.05Z"/><path class="cls-3" d="M1800.77,397.05l2.1,5.95h-.57a26.36,26.36,0,0,0-19.22-8.12q-11.47,0-18.55,6.83a22.11,22.11,0,0,0-7.08,16.52A37.44,37.44,0,0,0,1760.6,432a29.24,29.24,0,0,0,9.94,12.8,26.88,26.88,0,0,0,16.45,5,38.86,38.86,0,0,0,12.42-2q6.09-2,9.07-5.48l.49.16-3.93,6q-9.54,2.07-12.38,2.45a61,61,0,0,1-7.62.38q-17.67,0-25.28-8.19a27.78,27.78,0,0,1-7.61-19.59,30.38,30.38,0,0,1,3.91-14.83,28.32,28.32,0,0,1,11.28-11.22,37.42,37.42,0,0,1,25-3.24,45.25,45.25,0,0,1,5.75,1.77l2.51,1A.49.49,0,0,1,1800.77,397.05Z"/><path class="cls-3" d="M1842.63,393.39q11.83,0,19.35,7.19a23.85,23.85,0,0,1,7.52,18q0,13.84-8.7,23.31t-23.09,9.47q-11.68,0-19.12-7.63a25.32,25.32,0,0,1-7.44-18.32,34.55,34.55,0,0,1,3.58-14.81,29.87,29.87,0,0,1,27.9-17.17Zm-.23,54.95a23.44,23.44,0,0,0,11.45-3.11,23,23,0,0,0,8.89-8.57,21.58,21.58,0,0,0,3.25-11.21,26.56,26.56,0,0,0-4.37-14.85,31.1,31.1,0,0,0-11.34-10.46q-7-3.78-12.88-3.78a21.83,21.83,0,0,0-15.17,6.3,20.44,20.44,0,0,0-6.81,15.65,30,30,0,0,0,8.32,21Q1832.07,448.35,1842.4,448.34Z"/><path class="cls-3" d="M1927.5,450.44h-10.64v-8.66q-8.13,9-19.37,9-8.35,0-13.25-4.69t-4.9-13V399.49q0-3-.72-3.87c-.49-.55-1.62-.82-3.4-.82v-.57h14.92v.57a5.72,5.72,0,0,0-3.34.74c-.64.5-1,1.68-1,3.53V430q0,9.69,4.54,13.83a14.88,14.88,0,0,0,10.33,4.14q9.1,0,16.16-8.2V401.67c0-3.33-.3-5.31-.88-5.93a3.59,3.59,0,0,0-2.75-.94h-.53v-.57h14.8v.57c-1.83.1-3,.41-3.45.92a4.33,4.33,0,0,0-.71,2.89v45.77a14.38,14.38,0,0,0,.27,3.54,2.64,2.64,0,0,0,1.09,1.4,5.33,5.33,0,0,0,2.8.55Z"/><path class="cls-3" d="M1979.86,394.23h10.88v.57a5,5,0,0,0-3.44,1.05c-.63.65-1,2-1,4.1v51.18l-44.84-47.75V445a10.17,10.17,0,0,0,.31,2.94,2.21,2.21,0,0,0,.87,1.29,10,10,0,0,0,2.87.69v.57h-10.81v-.57c1.94,0,3.14-.34,3.61-1s.71-2.33.71-4.92v-38a20.38,20.38,0,0,0-1.4-8.16c-.92-2.11-3.07-3.09-6.43-2.94v-.57h10.58L1984,439.09V399.42c0-2.14-.38-3.44-1.15-3.91a5.52,5.52,0,0,0-2.94-.71Z"/><path class="cls-3" d="M2040.66,392.28l-2.67,6.79h-.58a7,7,0,0,0,.16-1.64,1.06,1.06,0,0,0-.63-1.12,5.77,5.77,0,0,0-2-.25h-14.66v48.09a11.78,11.78,0,0,0,.47,4.06,2.29,2.29,0,0,0,1.3,1.37,8.8,8.8,0,0,0,2.65.29v.57h-15.22v-.57c1.91-.13,3.1-.5,3.58-1.11s.73-1.88.73-3.81V396.06h-14a9.44,9.44,0,0,0-2.78.25c-.43.16-.65.58-.65,1.24a5.73,5.73,0,0,0,.31,1.52H1996l-2.67-6.79h.58a3.28,3.28,0,0,0,1.35,1.66,8.89,8.89,0,0,0,2.87.29h37.3a12.53,12.53,0,0,0,3.19-.29,2.28,2.28,0,0,0,1.42-1.66Z"/><path class="cls-3" d="M2058.25,394.23v.57a5.84,5.84,0,0,0-2.46.34,2.22,2.22,0,0,0-1.61,1.34,21,21,0,0,0-.24,4.15v43.14a18.08,18.08,0,0,0,.28,4.29,2.54,2.54,0,0,0,1.11,1.29,5.81,5.81,0,0,0,2.92.52v.57h-15v-.57c1.88,0,3-.36,3.51-1.09s.69-2.37.69-4.94V401.13c0-2.67-.26-4.42-.76-5.24s-1.66-1.19-3.44-1.09v-.57Z"/><path class="cls-3" d="M2110,394.23h10.87v.57a5,5,0,0,0-3.43,1.05c-.64.65-1,2-1,4.1v51.18l-44.84-47.75V445a10.17,10.17,0,0,0,.31,2.94,2.17,2.17,0,0,0,.88,1.29,9.89,9.89,0,0,0,2.86.69v.57h-10.8v-.57c1.93,0,3.13-.34,3.6-1s.71-2.33.71-4.92v-38a20.39,20.39,0,0,0-1.39-8.16q-1.39-3.17-6.43-2.94v-.57H2072l42.13,44.86V399.42c0-2.14-.38-3.44-1.15-3.91a5.5,5.5,0,0,0-2.93-.71Z"/><path class="cls-3" d="M2181.63,449.87v.57H2159a41.55,41.55,0,0,1-11.43-1.41,30.21,30.21,0,0,1-10-5.36,30.62,30.62,0,0,1-8.24-9.83,25.16,25.16,0,0,1-3.15-12,26.17,26.17,0,0,1,4-13.4,30.08,30.08,0,0,1,11.24-10.85,32.59,32.59,0,0,1,16.52-4.18,47.62,47.62,0,0,1,17.52,3.66l2.33,6.49h-.56a22.43,22.43,0,0,0-8-6.2,25.77,25.77,0,0,0-11.35-2.46,22.32,22.32,0,0,0-17.81,8.18q-6.94,8.19-6.94,20.32a32,32,0,0,0,1.15,9,22,22,0,0,0,4.29,7.79,21.17,21.17,0,0,0,6.75,5.64,27.43,27.43,0,0,0,8.07,2.52,40.72,40.72,0,0,0,7.1.63l3-.07q5.12-.19,6.39-1c.85-.51,1.28-1.8,1.28-3.89v-8.51c0-1.65-.35-2.77-1-3.34a4.08,4.08,0,0,0-2.94-.74v-.58h14.54v.58c-1.63,0-2.72.31-3.26.95s-.82,1.85-.82,3.65v8.84a7.76,7.76,0,0,0,.7,3.83,2.78,2.78,0,0,0,2.58,1.16Z"/><path class="cls-3" d="M2040.14,147.68h30.35V364h-30.35Zm15.62,103.54h69.17a32.08,32.08,0,0,0,17.26-4.62,30.56,30.56,0,0,0,11.52-13.09,48.82,48.82,0,0,0,0-39.12,31.11,31.11,0,0,0-11.52-13.16,31.69,31.69,0,0,0-17.26-4.69h-69.17V147.68h68.13q19.34,0,34.06,8.26a57.34,57.34,0,0,1,22.84,23.28q8.1,15,8.1,34.81t-8.1,34.73A57,57,0,0,1,2158,271.89q-14.72,8.19-34.06,8.18h-68.13Z"/><path class="cls-3" d="M1680.77,361.3a108.23,108.23,0,0,1-48.31-23.57l18.71-23a84.49,84.49,0,0,0,26.95,15.91,93.62,93.62,0,0,0,32,5.3q23.27,0,36.08-8.61T1759,303v-.15q0-11.19-5.82-17.75a34.76,34.76,0,0,0-15-9.72,167.7,167.7,0,0,0-23.79-5.82,3.33,3.33,0,0,0-1-.15,3,3,0,0,1-1-.14l-2.21-.44q-21.51-3.69-35-8.33t-23-16.94q-9.59-12.28-9.58-35v-.15q0-19.87,8.92-34t26-21.43q17.09-7.36,41.1-7.36a102.61,102.61,0,0,1,22.61,2.5,112.53,112.53,0,0,1,22,7.44A127,127,0,0,1,1784.47,168l-17.09,23.87A99.73,99.73,0,0,0,1743,178.43a69.76,69.76,0,0,0-24.38-4.49q-21.95,0-34.1,8.76t-12.15,24.82v.15q0,11,6.26,17.38a37.82,37.82,0,0,0,15.61,9.35,236.28,236.28,0,0,0,26,6.26,10.69,10.69,0,0,0,1.1.22c.35.05.72.13,1.11.22l1.62.3,1.62.29q19.44,4,32.48,9.43a50.64,50.64,0,0,1,21.8,17.6q8.76,12.15,8.76,33.22v.29q0,19.59-9.28,33.51T1752.58,357q-17.6,7.29-42.49,7.29A141,141,0,0,1,1680.77,361.3Z"/><path class="cls-3" d="M1889.3,148.7a112.32,112.32,0,0,0-88.4,89.58c-9.69,52.87,17.35,100.77,59.95,122.47a2.73,2.73,0,0,0,3.92-2.46V335.14a3.89,3.89,0,0,0-1.74-3.22c-27.81-18.93-44.09-53.57-36.16-91.23a86.31,86.31,0,0,1,66.24-66.25c56.59-12,106.44,30.82,106.44,85.3,0,27.15-12.36,55.26-31.75,71.48A4.9,4.9,0,0,0,1966,335v22.79a2.84,2.84,0,0,0,4.34,2.4c33.05-20.05,55.17-59.09,55.17-100.42C2025.51,189.69,1961.9,134.47,1889.3,148.7Z"/><rect class="cls-9" x="1918.6" y="236.66" width="44.26" height="125.38" rx="6.65"/><rect class="cls-10" x="1892.35" y="268" width="44.26" height="94.03" rx="6.65"/><rect class="cls-11" x="1867.97" y="299.35" width="44.26" height="62.69" rx="6.65"/><path class="cls-3" d="M1833.59,10c0-1.4,0-2.55-.12-3.67h2.16l.11,2.18h.09A4.65,4.65,0,0,1,1840.08,6a4,4,0,0,1,3.84,2.72h0A5.58,5.58,0,0,1,1845.49,7a4.63,4.63,0,0,1,3-1c1.79,0,4.45,1.18,4.45,5.88v8h-2.4V12.21c0-2.61-1-4.17-2.94-4.17a3.19,3.19,0,0,0-2.92,2.24,4.07,4.07,0,0,0-.19,1.23v8.37h-2.41V11.76c0-2.16-1-3.72-2.83-3.72a3.36,3.36,0,0,0-3,2.46,3.36,3.36,0,0,0-.2,1.2v8.18h-2.4Z"/><path class="cls-3" d="M1869.2,13c0,5-3.47,7.2-6.75,7.2-3.66,0-6.49-2.69-6.49-7,0-4.54,3-7.2,6.72-7.2S1869.2,8.85,1869.2,13Zm-10.75.14c0,3,1.71,5.21,4.12,5.21s4.11-2.21,4.11-5.26c0-2.3-1.15-5.21-4.06-5.21S1858.45,10.56,1858.45,13.13Z"/><path class="cls-3" d="M1872.31,10c0-1.4,0-2.55-.11-3.67h2.18l.14,2.24h.06A5,5,0,0,1,1879.06,6c1.87,0,4.79,1.12,4.79,5.77v8.09h-2.47V12.07c0-2.19-.81-4-3.14-4a3.5,3.5,0,0,0-3.3,2.52,3.62,3.62,0,0,0-.17,1.15v8.15h-2.46Z"/><path class="cls-3" d="M1900.11,13c0,5-3.47,7.2-6.74,7.2-3.67,0-6.5-2.69-6.5-7,0-4.54,3-7.2,6.72-7.2S1900.11,8.85,1900.11,13Zm-10.75.14c0,3,1.71,5.21,4.12,5.21s4.11-2.21,4.11-5.26c0-2.3-1.14-5.21-4.06-5.21S1889.36,10.56,1889.36,13.13Z"/><path class="cls-3" d="M1912.88,19.38a9.16,9.16,0,0,1-3.89.78c-4.09,0-6.75-2.77-6.75-6.92a6.88,6.88,0,0,1,7.28-7.19,8.17,8.17,0,0,1,3.42.7l-.56,1.9a5.79,5.79,0,0,0-2.86-.64c-3.11,0-4.79,2.29-4.79,5.12,0,3.14,2,5.07,4.71,5.07a7,7,0,0,0,3-.67Z"/><path class="cls-3" d="M1915.77,0h2.46V8.46h.06a4.53,4.53,0,0,1,1.76-1.74,5.09,5.09,0,0,1,2.52-.7c1.82,0,4.73,1.12,4.73,5.8v8.06h-2.46V12.1c0-2.19-.81-4-3.14-4a3.54,3.54,0,0,0-3.3,2.47,3,3,0,0,0-.17,1.17v8.18h-2.46Z"/><path class="cls-3" d="M1931.3,10.56c0-1.6,0-3-.11-4.23h2.16l.08,2.66h.11a4.07,4.07,0,0,1,3.76-3,3,3,0,0,1,.7.08V8.43a3.55,3.55,0,0,0-.84-.09,3.47,3.47,0,0,0-3.31,3.17,7.61,7.61,0,0,0-.11,1.15v7.22h-2.44Z"/><path class="cls-3" d="M1952.45,13c0,5-3.48,7.2-6.75,7.2-3.67,0-6.5-2.69-6.5-7,0-4.54,3-7.2,6.72-7.2S1952.45,8.85,1952.45,13Zm-10.76.14c0,3,1.71,5.21,4.12,5.21s4.11-2.21,4.11-5.26c0-2.3-1.14-5.21-4.05-5.21S1941.69,10.56,1941.69,13.13Z"/><path class="cls-3" d="M1955.55,10c0-1.4,0-2.55-.11-3.67h2.16l.11,2.18h.08A4.68,4.68,0,0,1,1962.05,6a4,4,0,0,1,3.83,2.72h.06A5.56,5.56,0,0,1,1967.45,7a4.66,4.66,0,0,1,3-1c1.79,0,4.45,1.18,4.45,5.88v8h-2.41V12.21c0-2.61-1-4.17-2.94-4.17a3.18,3.18,0,0,0-2.91,2.24,4.07,4.07,0,0,0-.19,1.23v8.37H1964V11.76c0-2.16-1-3.72-2.83-3.72a3.36,3.36,0,0,0-3,2.46,3.36,3.36,0,0,0-.2,1.2v8.18h-2.41Z"/><path class="cls-3" d="M1980.28,13.55c0,3.33,2.18,4.71,4.64,4.71a9,9,0,0,0,3.76-.7l.42,1.76a11.05,11.05,0,0,1-4.51.84c-4.17,0-6.67-2.74-6.67-6.83S1980.33,6,1984.28,6c4.42,0,5.6,3.89,5.6,6.38a9,9,0,0,1-.08,1.15Zm7.22-1.76c0-1.57-.64-4-3.42-4-2.49,0-3.58,2.3-3.78,4Z"/></g></g></svg>