<svg xmlns="http://www.w3.org/2000/svg" viewBox="0 0 802.58 566.86"><defs><style>.cls-1,.cls-3,.cls-4,.cls-6{fill:none;stroke-miterlimit:10;}.cls-1,.cls-3,.cls-4{stroke:#231f20;}.cls-1{stroke-width:0.25px;}.cls-2{fill:#231f20;}.cls-3{stroke-width:0.75px;}.cls-4{stroke-width:0.5px;}.cls-5{fill:#8a6628;}.cls-6{stroke:#8a6628;}</style></defs><title>wireframe</title><g id="Layer_2" data-name="Layer 2"><g id="Layer_1-2" data-name="Layer 1"><rect class="cls-1" x="11.98" y="41.49" width="85.74" height="18.46"/><path class="cls-2" d="M41.94,45.72h1.15v7.9h3.79v1H41.94Z"/><path class="cls-2" d="M53.69,51.35a3.11,3.11,0,0,1-3.17,3.38,3,3,0,0,1-3.05-3.28,3.11,3.11,0,0,1,3.15-3.38A3,3,0,0,1,53.69,51.35Zm-5,.06c0,1.4.8,2.45,1.93,2.45s1.93-1,1.93-2.47c0-1.08-.54-2.45-1.9-2.45S48.64,50.2,48.64,51.41Z"/><path class="cls-2" d="M60.63,48.22c0,.46-.05,1-.05,1.75v3.69a3.66,3.66,0,0,1-.91,2.91,3.37,3.37,0,0,1-2.32.76,4,4,0,0,1-2.11-.53l.29-.88a3.49,3.49,0,0,0,1.86.5c1.19,0,2.06-.61,2.06-2.22v-.71h0a2.29,2.29,0,0,1-2,1.07,2.85,2.85,0,0,1-2.7-3.11c0-2.16,1.4-3.38,2.86-3.38a2.12,2.12,0,0,1,2,1.11h0l.06-1Zm-1.2,2.51a1.76,1.76,0,0,0-.06-.53A1.67,1.67,0,0,0,57.75,49c-1.11,0-1.89.93-1.89,2.41,0,1.25.63,2.28,1.88,2.28a1.68,1.68,0,0,0,1.6-1.18,1.9,1.9,0,0,0,.09-.62Z"/><path class="cls-2" d="M68.26,51.35a3.11,3.11,0,0,1-3.17,3.38A3,3,0,0,1,62,51.45a3.11,3.11,0,0,1,3.15-3.38A3,3,0,0,1,68.26,51.35Zm-5.05.06c0,1.4.8,2.45,1.93,2.45s1.93-1,1.93-2.47c0-1.08-.54-2.45-1.9-2.45S63.21,50.2,63.21,51.41Z"/><rect class="cls-1" x="11.98" y="71.08" width="85.74" height="58.08"/><line class="cls-1" x1="11.98" y1="71.08" x2="97.72" y2="129.16"/><line class="cls-1" x1="11.98" y1="129.16" x2="97.72" y2="71.08"/><path class="cls-2" d="M24.55,142.53h.23v1.57h.75v.2h-1Z"/><path class="cls-2" d="M26.9,143.65a.62.62,0,0,1-.64.67.6.6,0,0,1-.61-.65.62.62,0,0,1,.63-.67A.6.6,0,0,1,26.9,143.65Zm-1,0c0,.28.16.49.38.49a.44.44,0,0,0,.39-.49c0-.22-.11-.49-.38-.49S25.89,143.42,25.89,143.66Z"/><path class="cls-2" d="M27.19,143.42c0-.15,0-.28,0-.4h.2v.25h0a.38.38,0,0,1,.35-.27h.07v.22h-.08a.32.32,0,0,0-.31.3.37.37,0,0,0,0,.11v.68h-.23Z"/><path class="cls-2" d="M28.15,143.7a.41.41,0,0,0,.44.44,1,1,0,0,0,.35-.06l0,.16a1,1,0,0,1-.42.08.59.59,0,0,1-.63-.64.62.62,0,0,1,.6-.68.53.53,0,0,1,.52.59.31.31,0,0,1,0,.11Zm.68-.16c0-.15-.06-.38-.32-.38a.39.39,0,0,0-.36.38Z"/><path class="cls-2" d="M29.34,143.37c0-.13,0-.24,0-.35h.2v.21h0A.44.44,0,0,1,30,143a.38.38,0,0,1,.36.25h0a.39.39,0,0,1,.15-.16.41.41,0,0,1,.28-.09c.16,0,.41.11.41.55v.75h-.22v-.72c0-.25-.09-.4-.28-.4a.3.3,0,0,0-.27.21.5.5,0,0,0,0,.12v.79h-.22v-.77c0-.2-.09-.35-.27-.35a.33.33,0,0,0-.29.24.37.37,0,0,0,0,.11v.77h-.23Z"/><path class="cls-2" d="M32.35,142.67a.14.14,0,0,1-.15.14.14.14,0,0,1-.14-.14.15.15,0,0,1,.15-.15A.15.15,0,0,1,32.35,142.67Zm-.26,1.63V143h.23v1.28Z"/><path class="cls-2" d="M32.71,143.44c0-.16,0-.29,0-.42h.2v.22h0a.49.49,0,0,1,.45-.24.57.57,0,0,1,.54.64.6.6,0,0,1-.58.68.44.44,0,0,1-.39-.2h0v.69h-.22Zm.22.34s0,.06,0,.09a.37.37,0,0,0,.35.27c.25,0,.39-.2.39-.49s-.14-.47-.38-.47a.36.36,0,0,0-.35.29.24.24,0,0,0,0,.09Z"/><path class="cls-2" d="M34.17,144.06a.66.66,0,0,0,.3.09c.17,0,.25-.08.25-.19s-.06-.17-.23-.23-.34-.21-.34-.36.16-.37.44-.37a.65.65,0,0,1,.31.07l-.06.17a.51.51,0,0,0-.26-.07.19.19,0,0,0-.21.17c0,.11.08.15.24.22s.33.19.33.38-.17.38-.47.38a.66.66,0,0,1-.36-.09Z"/><path class="cls-2" d="M36.31,144c0,.13,0,.25,0,.35h-.21v-.21h0a.47.47,0,0,1-.42.23c-.2,0-.43-.11-.43-.55V143h.23v.71c0,.24.07.4.28.4a.33.33,0,0,0,.3-.21.21.21,0,0,0,0-.12V143h.23Z"/><path class="cls-2" d="M36.69,143.37c0-.13,0-.24,0-.35h.2v.21h0a.44.44,0,0,1,.4-.23.37.37,0,0,1,.36.25h0a.37.37,0,0,1,.14-.16.41.41,0,0,1,.28-.09c.17,0,.42.11.42.55v.75h-.23v-.72c0-.25-.09-.4-.28-.4a.3.3,0,0,0-.27.21.5.5,0,0,0,0,.12v.79h-.22v-.77c0-.2-.09-.35-.27-.35a.31.31,0,0,0-.28.24.2.2,0,0,0,0,.11v.77h-.23Z"/><path class="cls-2" d="M40.54,142.43V144c0,.11,0,.24,0,.33h-.21v-.23h0a.46.46,0,0,1-.44.25.58.58,0,0,1-.54-.64.61.61,0,0,1,.57-.68.42.42,0,0,1,.38.19h0v-.76Zm-.23,1.11a.34.34,0,0,0,0-.1.34.34,0,0,0-.33-.26c-.24,0-.39.21-.39.49s.13.47.38.47a.35.35,0,0,0,.34-.28.31.31,0,0,0,0-.1Z"/><path class="cls-2" d="M42.08,143.65a.62.62,0,0,1-.64.67.6.6,0,0,1-.61-.65.62.62,0,0,1,.63-.67A.6.6,0,0,1,42.08,143.65Zm-1,0c0,.28.16.49.38.49a.44.44,0,0,0,.39-.49c0-.22-.11-.49-.38-.49S41.07,143.42,41.07,143.66Z"/><path class="cls-2" d="M42.37,142.43h.23v1.87h-.23Z"/><path class="cls-2" d="M44.14,143.65a.62.62,0,0,1-.63.67.6.6,0,0,1-.61-.65.62.62,0,0,1,.63-.67A.6.6,0,0,1,44.14,143.65Zm-1,0c0,.28.16.49.39.49s.38-.21.38-.49-.1-.49-.38-.49S43.13,143.42,43.13,143.66Z"/><path class="cls-2" d="M44.43,143.42c0-.15,0-.28,0-.4h.21v.25h0A.38.38,0,0,1,45,143h.06v.22H45a.33.33,0,0,0-.31.3s0,.07,0,.11v.68h-.23Z"/><path class="cls-2" d="M45.82,144.06a.66.66,0,0,0,.3.09c.17,0,.25-.08.25-.19s-.06-.17-.24-.23-.33-.21-.33-.36.16-.37.44-.37a.65.65,0,0,1,.31.07l-.06.17a.51.51,0,0,0-.26-.07.19.19,0,0,0-.21.17c0,.11.08.15.24.22s.33.19.33.38-.17.38-.47.38a.66.66,0,0,1-.36-.09Z"/><path class="cls-2" d="M47.15,142.67a.14.14,0,0,1-.15.14.14.14,0,0,1-.14-.14.15.15,0,0,1,.15-.15A.15.15,0,0,1,47.15,142.67Zm-.26,1.63V143h.23v1.28Z"/><path class="cls-2" d="M47.79,142.66V143h.33v.18h-.33v.69c0,.15,0,.24.17.24h.13v.17a.49.49,0,0,1-.2,0,.29.29,0,0,1-.25-.1.44.44,0,0,1-.09-.33v-.69h-.2V143h.2v-.3Z"/><path class="cls-2" d="M49.64,144.3l0-.17h0a.46.46,0,0,1-.39.19.36.36,0,0,1-.38-.36c0-.31.27-.48.76-.47v0a.26.26,0,0,0-.29-.29.6.6,0,0,0-.33.09l0-.15a.77.77,0,0,1,.42-.11c.38,0,.48.26.48.52V144a1.51,1.51,0,0,0,0,.31Zm0-.65c-.25,0-.53,0-.53.28a.2.2,0,0,0,.21.22.3.3,0,0,0,.31-.21.17.17,0,0,0,0-.07Z"/><path class="cls-2" d="M50.2,143.37c0-.13,0-.24,0-.35h.21v.21h0a.44.44,0,0,1,.4-.23.36.36,0,0,1,.36.25h0a.45.45,0,0,1,.14-.16.43.43,0,0,1,.28-.09c.17,0,.42.11.42.55v.75h-.23v-.72c0-.25-.09-.4-.27-.4a.3.3,0,0,0-.28.21.5.5,0,0,0,0,.12v.79H51v-.77c0-.2-.09-.35-.27-.35a.31.31,0,0,0-.28.24.2.2,0,0,0,0,.11v.77H50.2Z"/><path class="cls-2" d="M52.53,143.7a.4.4,0,0,0,.43.44.92.92,0,0,0,.35-.06l0,.16a1,1,0,0,1-.42.08.6.6,0,0,1-.63-.64.62.62,0,0,1,.6-.68.53.53,0,0,1,.53.59s0,.09,0,.11Zm.67-.16a.33.33,0,0,0-.32-.38c-.23,0-.33.22-.35.38Z"/><path class="cls-2" d="M54,142.66V143h.33v.18H54v.69c0,.15,0,.24.18.24h.13v.17a.55.55,0,0,1-.21,0,.28.28,0,0,1-.24-.1.44.44,0,0,1-.09-.33v-.69h-.2V143h.2v-.3Z"/><path class="cls-2" d="M54.43,144.62a3.87,3.87,0,0,0,.15-.63l.26,0a2.67,2.67,0,0,1-.25.64Z"/><path class="cls-2" d="M56.58,144.25a.86.86,0,0,1-.36.07.6.6,0,0,1-.63-.65.64.64,0,0,1,.68-.67.78.78,0,0,1,.32.06l-.05.18a.57.57,0,0,0-.27-.06.44.44,0,0,0-.45.48.44.44,0,0,0,.44.48.6.6,0,0,0,.28-.07Z"/><path class="cls-2" d="M58,143.65a.62.62,0,0,1-.63.67.6.6,0,0,1-.61-.65.62.62,0,0,1,.63-.67A.6.6,0,0,1,58,143.65Zm-1,0c0,.28.16.49.39.49s.38-.21.38-.49-.1-.49-.38-.49S57,143.42,57,143.66Z"/><path class="cls-2" d="M58.28,143.37c0-.13,0-.24,0-.35h.21v.21h0a.46.46,0,0,1,.42-.23c.17,0,.45.1.45.54v.76h-.24v-.74c0-.2-.07-.37-.29-.37a.34.34,0,0,0-.31.23.37.37,0,0,0,0,.11v.77h-.24Z"/><path class="cls-2" d="M59.71,144.06a.67.67,0,0,0,.31.09c.16,0,.24-.08.24-.19s-.06-.17-.23-.23-.34-.21-.34-.36a.39.39,0,0,1,.44-.37.65.65,0,0,1,.31.07l-.06.17a.51.51,0,0,0-.26-.07.19.19,0,0,0-.21.17c0,.11.08.15.24.22s.34.19.34.38-.18.38-.48.38a.66.66,0,0,1-.36-.09Z"/><path class="cls-2" d="M60.91,143.7a.41.41,0,0,0,.44.44,1,1,0,0,0,.35-.06l0,.16a1,1,0,0,1-.42.08.6.6,0,0,1-.63-.64.62.62,0,0,1,.6-.68.53.53,0,0,1,.52.59v.11Zm.68-.16c0-.15-.06-.38-.32-.38a.38.38,0,0,0-.35.38Z"/><path class="cls-2" d="M63,144.25a.92.92,0,0,1-.37.07.6.6,0,0,1-.63-.65.64.64,0,0,1,.68-.67.78.78,0,0,1,.32.06l0,.18a.54.54,0,0,0-.27-.06.44.44,0,0,0-.45.48.44.44,0,0,0,.45.48.63.63,0,0,0,.28-.07Z"/><path class="cls-2" d="M63.59,142.66V143h.33v.18h-.33v.69c0,.15,0,.24.18.24h.13v.17a.53.53,0,0,1-.2,0,.29.29,0,0,1-.25-.1.44.44,0,0,1-.09-.33v-.69h-.2V143h.2v-.3Z"/><path class="cls-2" d="M64.3,143.7a.4.4,0,0,0,.43.44,1,1,0,0,0,.36-.06l0,.16a1.05,1.05,0,0,1-.43.08.59.59,0,0,1-.62-.64.61.61,0,0,1,.59-.68.53.53,0,0,1,.53.59s0,.09,0,.11Zm.68-.16c0-.15-.06-.38-.32-.38a.39.39,0,0,0-.36.38Z"/><path class="cls-2" d="M65.77,142.66V143h.33v.18h-.33v.69c0,.15,0,.24.17.24h.13v.17a.49.49,0,0,1-.2,0,.29.29,0,0,1-.25-.1.44.44,0,0,1-.09-.33v-.69h-.2V143h.2v-.3Z"/><path class="cls-2" d="M67.42,144c0,.13,0,.25,0,.35h-.2l0-.21h0a.49.49,0,0,1-.42.23c-.2,0-.44-.11-.44-.55V143h.23v.71c0,.24.07.4.28.4a.34.34,0,0,0,.31-.21.37.37,0,0,0,0-.12V143h.23Z"/><path class="cls-2" d="M67.81,143.42c0-.15,0-.28,0-.4H68v.25h0a.36.36,0,0,1,.35-.27h.06v.22h-.08a.32.32,0,0,0-.3.3.36.36,0,0,0,0,.11v.68h-.22Z"/><path class="cls-2" d="M69.93,144.3l0-.17h0a.48.48,0,0,1-.39.19.36.36,0,0,1-.39-.36c0-.31.28-.48.77-.47v0a.26.26,0,0,0-.29-.29.6.6,0,0,0-.33.09l0-.15a.73.73,0,0,1,.41-.11c.39,0,.49.26.49.52V144a1.51,1.51,0,0,0,0,.31Zm0-.65c-.25,0-.54,0-.54.28a.2.2,0,0,0,.22.22.31.31,0,0,0,.31-.21.17.17,0,0,0,0-.07Z"/><path class="cls-2" d="M71.59,142.43V144c0,.11,0,.24,0,.33h-.21v-.23h0a.47.47,0,0,1-.44.25.58.58,0,0,1-.54-.64A.61.61,0,0,1,71,143a.43.43,0,0,1,.38.19h0v-.76Zm-.23,1.11s0-.07,0-.1a.35.35,0,0,0-.34-.26c-.24,0-.38.21-.38.49s.13.47.38.47a.36.36,0,0,0,.34-.28s0-.06,0-.1Z"/><path class="cls-2" d="M72.23,142.67a.13.13,0,0,1-.15.14.13.13,0,0,1-.13-.14.15.15,0,0,1,.14-.15A.14.14,0,0,1,72.23,142.67ZM72,144.3V143h.24v1.28Z"/><path class="cls-2" d="M72.59,143.44c0-.16,0-.29,0-.42h.21v.22h0a.52.52,0,0,1,.45-.24.57.57,0,0,1,.54.64.6.6,0,0,1-.58.68.45.45,0,0,1-.39-.2h0v.69h-.23Zm.23.34a.28.28,0,0,0,0,.09.35.35,0,0,0,.34.27c.25,0,.39-.2.39-.49s-.13-.47-.38-.47a.38.38,0,0,0-.35.29s0,.06,0,.09Z"/><path class="cls-2" d="M74.34,142.67a.13.13,0,0,1-.14.14.13.13,0,0,1-.14-.14.15.15,0,0,1,.14-.15A.14.14,0,0,1,74.34,142.67Zm-.25,1.63V143h.23v1.28Z"/><path class="cls-2" d="M74.67,144.06a.66.66,0,0,0,.3.09c.17,0,.25-.08.25-.19s-.07-.17-.24-.23-.33-.21-.33-.36.16-.37.44-.37a.65.65,0,0,1,.31.07l-.06.17a.51.51,0,0,0-.26-.07c-.14,0-.21.08-.21.17s.07.15.24.22.33.19.33.38-.17.38-.47.38a.66.66,0,0,1-.36-.09Z"/><path class="cls-2" d="M76.65,144.25a.92.92,0,0,1-.37.07.6.6,0,0,1-.63-.65.64.64,0,0,1,.68-.67.78.78,0,0,1,.32.06l-.05.18a.54.54,0,0,0-.27-.06.44.44,0,0,0-.45.48.44.44,0,0,0,.45.48.63.63,0,0,0,.28-.07Z"/><path class="cls-2" d="M77.18,142.67a.14.14,0,0,1-.15.14.14.14,0,0,1-.14-.14.15.15,0,0,1,.15-.15A.15.15,0,0,1,77.18,142.67Zm-.26,1.63V143h.23v1.28Z"/><path class="cls-2" d="M77.54,143.37c0-.13,0-.24,0-.35h.2v.21h0a.46.46,0,0,1,.42-.23c.17,0,.45.1.45.54v.76h-.23v-.74c0-.2-.08-.37-.3-.37a.34.34,0,0,0-.31.23.37.37,0,0,0,0,.11v.77h-.23Z"/><path class="cls-2" d="M80.09,143c0,.1,0,.2,0,.35v.74a.74.74,0,0,1-.18.58.66.66,0,0,1-.46.15.83.83,0,0,1-.43-.1l.06-.18a.67.67,0,0,0,.37.1c.24,0,.41-.12.41-.44v-.14h0a.45.45,0,0,1-.41.21.57.57,0,0,1-.54-.62.61.61,0,0,1,.58-.67.4.4,0,0,1,.39.22h0V143Zm-.24.51a.37.37,0,0,0,0-.11.34.34,0,0,0-.32-.24c-.23,0-.38.18-.38.48s.12.45.37.45a.34.34,0,0,0,.32-.23.3.3,0,0,0,0-.13Z"/><path class="cls-2" d="M81.15,143.7a.41.41,0,0,0,.44.44,1,1,0,0,0,.35-.06l0,.16a1,1,0,0,1-.42.08.59.59,0,0,1-.63-.64.62.62,0,0,1,.6-.68.53.53,0,0,1,.52.59.31.31,0,0,1,0,.11Zm.68-.16c0-.15-.06-.38-.32-.38a.39.39,0,0,0-.36.38Z"/><path class="cls-2" d="M82.34,142.43h.23v1.87h-.23Z"/><path class="cls-2" d="M83.22,142.67a.14.14,0,0,1-.15.14.14.14,0,0,1-.14-.14.15.15,0,0,1,.15-.15A.15.15,0,0,1,83.22,142.67ZM83,144.3V143h.23v1.28Z"/><path class="cls-2" d="M83.85,142.66V143h.33v.18h-.33v.69c0,.15.05.24.18.24h.13v.17a.49.49,0,0,1-.2,0,.29.29,0,0,1-.25-.1.44.44,0,0,1-.09-.33v-.69h-.2V143h.2v-.3Z"/><path class="cls-2" d="M84.29,144.62a3.87,3.87,0,0,0,.16-.63l.25,0a2.67,2.67,0,0,1-.25.64Z"/><path class="cls-2" d="M.06,147.21a.56.56,0,0,0,.3.1c.17,0,.25-.09.25-.19s-.07-.17-.24-.24-.33-.2-.33-.36a.39.39,0,0,1,.44-.37.67.67,0,0,1,.31.08l-.06.17a.5.5,0,0,0-.26-.08c-.14,0-.21.08-.21.18s.07.15.24.21.33.2.33.39-.17.38-.47.38a.76.76,0,0,1-.36-.09Z"/><path class="cls-2" d="M1.26,146.86a.4.4,0,0,0,.43.44.82.82,0,0,0,.36-.07l0,.17a1,1,0,0,1-.43.08.59.59,0,0,1-.62-.64.61.61,0,0,1,.59-.69.54.54,0,0,1,.53.6c0,.05,0,.08,0,.11Zm.68-.17a.33.33,0,0,0-.32-.37.38.38,0,0,0-.36.37Z"/><path class="cls-2" d="M3.54,145.59v1.53a3.08,3.08,0,0,0,0,.33H3.35v-.22h0a.46.46,0,0,1-.43.25.58.58,0,0,1-.54-.65.6.6,0,0,1,.57-.68.41.41,0,0,1,.38.2h0v-.76Zm-.23,1.11a.34.34,0,0,0,0-.1.33.33,0,0,0-.33-.27c-.24,0-.38.21-.38.49s.13.47.37.47a.35.35,0,0,0,.35-.37Z"/><path class="cls-2" d="M5.59,145.59v1.53c0,.12,0,.24,0,.33H5.39v-.22h0a.46.46,0,0,1-.43.25.58.58,0,0,1-.54-.65.6.6,0,0,1,.57-.68.41.41,0,0,1,.38.2h0v-.76Zm-.24,1.11a.34.34,0,0,0,0-.1.33.33,0,0,0-.33-.27c-.24,0-.38.21-.38.49s.13.47.38.47a.36.36,0,0,0,.34-.37Z"/><path class="cls-2" d="M7.12,146.81a.61.61,0,0,1-.63.67.6.6,0,0,1-.61-.65.62.62,0,0,1,.63-.68A.61.61,0,0,1,7.12,146.81Zm-1,0c0,.28.16.49.39.49s.38-.21.38-.5-.1-.49-.38-.49S6.11,146.58,6.11,146.82Z"/><path class="cls-2" d="M8.1,146.86a.41.41,0,0,0,.44.44.8.8,0,0,0,.35-.07l0,.17a1,1,0,0,1-.42.08.59.59,0,0,1-.63-.64.62.62,0,0,1,.6-.69.54.54,0,0,1,.52.6.34.34,0,0,1,0,.11Zm.68-.17a.33.33,0,0,0-.32-.37.38.38,0,0,0-.36.37Z"/><path class="cls-2" d="M9.55,145.82a.15.15,0,0,1-.15.15.15.15,0,0,1-.14-.15.14.14,0,0,1,.15-.14A.14.14,0,0,1,9.55,145.82Zm-.26,1.63v-1.27h.23v1.27Z"/><path class="cls-2" d="M11,147.1c0,.14,0,.25,0,.35h-.21v-.21h0a.47.47,0,0,1-.42.24c-.2,0-.44-.11-.44-.56v-.74h.23v.7c0,.25.07.41.28.41a.35.35,0,0,0,.31-.21.5.5,0,0,0,0-.12v-.78H11Z"/><path class="cls-2" d="M11.32,147.21a.57.57,0,0,0,.31.1c.16,0,.24-.09.24-.19s-.06-.17-.23-.24-.34-.2-.34-.36a.4.4,0,0,1,.44-.37.64.64,0,0,1,.31.08l-.06.17a.5.5,0,0,0-.26-.08.19.19,0,0,0-.21.18c0,.1.08.15.24.21s.34.2.34.39-.18.38-.48.38a.69.69,0,0,1-.35-.09Z"/><path class="cls-2" d="M12.4,146.52c0-.13,0-.23,0-.34h.2v.21h0a.41.41,0,0,1,.39-.24.37.37,0,0,1,.36.26h0a.61.61,0,0,1,.14-.17.43.43,0,0,1,.28-.09c.17,0,.42.11.42.55v.75H14v-.72c0-.24-.09-.39-.27-.39a.29.29,0,0,0-.27.21.22.22,0,0,0,0,.12v.78h-.23v-.76c0-.2-.09-.35-.26-.35a.32.32,0,0,0-.29.23.52.52,0,0,0,0,.11v.77H12.4Z"/><path class="cls-2" d="M15.74,146.81a.62.62,0,0,1-.63.67.6.6,0,0,1-.61-.65.62.62,0,0,1,.63-.68A.61.61,0,0,1,15.74,146.81Zm-1,0c0,.28.16.49.39.49s.38-.21.38-.5-.1-.49-.38-.49S14.73,146.58,14.73,146.82Z"/><path class="cls-2" d="M17.13,145.59v1.53c0,.12,0,.24,0,.33h-.21v-.22h0a.48.48,0,0,1-.44.25.58.58,0,0,1-.54-.65.61.61,0,0,1,.57-.68.4.4,0,0,1,.38.2h0v-.76Zm-.23,1.11a.34.34,0,0,0,0-.1.35.35,0,0,0-.34-.27c-.23,0-.38.21-.38.49s.13.47.38.47a.35.35,0,0,0,.34-.27.34.34,0,0,0,0-.1Z"/><path class="cls-2" d="M18.35,145.82v.36h.33v.18h-.33V147c0,.16,0,.25.17.25l.14,0v.18a1,1,0,0,1-.21,0,.36.36,0,0,1-.25-.1.5.5,0,0,1-.08-.33v-.69h-.2v-.18h.2v-.3Z"/><path class="cls-2" d="M19.06,146.86a.4.4,0,0,0,.43.44.74.74,0,0,0,.35-.07l0,.17a1,1,0,0,1-.42.08.59.59,0,0,1-.62-.64.61.61,0,0,1,.59-.69.54.54,0,0,1,.53.6c0,.05,0,.08,0,.11Zm.67-.17a.32.32,0,0,0-.32-.37.38.38,0,0,0-.35.37Z"/><path class="cls-2" d="M20.25,146.52c0-.13,0-.23,0-.34h.21v.21h0a.41.41,0,0,1,.39-.24.37.37,0,0,1,.36.26h0a.61.61,0,0,1,.14-.17.43.43,0,0,1,.28-.09c.17,0,.42.11.42.55v.75h-.23v-.72c0-.24-.09-.39-.27-.39a.31.31,0,0,0-.28.21.41.41,0,0,0,0,.12v.78H21v-.76c0-.2-.09-.35-.26-.35a.32.32,0,0,0-.29.23.52.52,0,0,0,0,.11v.77h-.22Z"/><path class="cls-2" d="M22.44,146.6c0-.17,0-.3,0-.42h.21v.22h0a.5.5,0,0,1,.45-.25.58.58,0,0,1,.54.65.6.6,0,0,1-.58.68.45.45,0,0,1-.39-.2h0V148h-.23Zm.23.33a.31.31,0,0,0,0,.1.35.35,0,0,0,.34.27c.25,0,.39-.2.39-.49s-.13-.47-.38-.47a.37.37,0,0,0-.35.28.31.31,0,0,0,0,.1Z"/><path class="cls-2" d="M25.08,146.81a.61.61,0,0,1-.63.67.6.6,0,0,1-.61-.65.62.62,0,0,1,.63-.68A.6.6,0,0,1,25.08,146.81Zm-1,0c0,.28.16.49.38.49s.39-.21.39-.5-.11-.49-.38-.49S24.08,146.58,24.08,146.82Z"/><path class="cls-2" d="M25.38,146.58c0-.15,0-.28,0-.4h.2v.25h0a.38.38,0,0,1,.35-.28H26v.22h-.08a.32.32,0,0,0-.31.3.31.31,0,0,0,0,.1v.68h-.23Z"/><path class="cls-2" d="M27.05,145.82a.13.13,0,0,1-.14.15.14.14,0,0,1-.14-.15.14.14,0,0,1,.14-.14A.13.13,0,0,1,27.05,145.82Zm-.25,1.63v-1.27H27v1.27Z"/><path class="cls-2" d="M27.41,146.52c0-.13,0-.23,0-.34h.2l0,.21h0a.48.48,0,0,1,.42-.24c.18,0,.45.11.45.54v.76h-.23v-.73c0-.21-.07-.38-.29-.38a.32.32,0,0,0-.31.24.36.36,0,0,0,0,.11v.76h-.23Z"/><path class="cls-2" d="M29.78,147.4a.75.75,0,0,1-.37.08.6.6,0,0,1-.63-.65.65.65,0,0,1,.68-.68.76.76,0,0,1,.32.07l-.05.18a.57.57,0,0,0-.27-.06.44.44,0,0,0-.45.48.43.43,0,0,0,.44.47.7.7,0,0,0,.29-.06Z"/><path class="cls-2" d="M30.31,145.82a.15.15,0,0,1-.15.15.15.15,0,0,1-.14-.15.14.14,0,0,1,.14-.14A.14.14,0,0,1,30.31,145.82Zm-.26,1.63v-1.27h.23v1.27Z"/><path class="cls-2" d="M31.76,145.59v1.53c0,.12,0,.24,0,.33h-.21v-.22h0a.48.48,0,0,1-.43.25.58.58,0,0,1-.55-.65.61.61,0,0,1,.57-.68.39.39,0,0,1,.38.2h0v-.76Zm-.23,1.11a.34.34,0,0,0,0-.1.33.33,0,0,0-.33-.27c-.24,0-.38.21-.38.49s.12.47.37.47a.35.35,0,0,0,.35-.37Z"/><path class="cls-2" d="M32.4,145.82a.13.13,0,0,1-.14.15.15.15,0,0,1-.14-.15.14.14,0,0,1,.14-.14A.13.13,0,0,1,32.4,145.82Zm-.25,1.63v-1.27h.23v1.27Z"/><path class="cls-2" d="M33.86,145.59v1.53c0,.12,0,.24,0,.33h-.21v-.22h0a.48.48,0,0,1-.44.25.58.58,0,0,1-.54-.65.61.61,0,0,1,.57-.68.4.4,0,0,1,.38.2h0v-.76Zm-.23,1.11a.34.34,0,0,0,0-.1.35.35,0,0,0-.34-.27c-.23,0-.38.21-.38.49s.13.47.38.47a.35.35,0,0,0,.34-.27.34.34,0,0,0,0-.1Z"/><path class="cls-2" d="M35.31,147.1c0,.14,0,.25,0,.35h-.21v-.21h0a.47.47,0,0,1-.42.24c-.2,0-.44-.11-.44-.56v-.74h.23v.7c0,.25.07.41.28.41a.35.35,0,0,0,.31-.21.5.5,0,0,0,0-.12v-.78h.23Z"/><path class="cls-2" d="M35.69,146.52c0-.13,0-.23,0-.34h.21v.21h0a.47.47,0,0,1,.42-.24c.17,0,.45.11.45.54v.76h-.24v-.73c0-.21-.07-.38-.29-.38a.33.33,0,0,0-.31.24.37.37,0,0,0,0,.11v.76h-.24Z"/><path class="cls-2" d="M37.42,145.82v.36h.33v.18h-.33V147c0,.16,0,.25.17.25l.14,0v.18a1,1,0,0,1-.21,0,.31.31,0,0,1-.24-.1.45.45,0,0,1-.09-.33v-.69H37v-.18h.2v-.3Z"/><path class="cls-2" d="M39.63,147.1a3.32,3.32,0,0,0,0,.35h-.21v-.21h0a.46.46,0,0,1-.42.24c-.2,0-.44-.11-.44-.56v-.74h.23v.7c0,.25.08.41.29.41a.33.33,0,0,0,.3-.21.25.25,0,0,0,0-.12v-.78h.23Z"/><path class="cls-2" d="M40.3,145.82v.36h.33v.18H40.3V147c0,.16,0,.25.17.25l.14,0v.18a1,1,0,0,1-.21,0,.34.34,0,0,1-.25-.1.5.5,0,0,1-.09-.33v-.69h-.19v-.18h.19v-.3Z"/><path class="cls-2" d="M41.45,145.59h.23v1.86h-.23Z"/><path class="cls-2" d="M42.77,147.45l0-.16h0a.49.49,0,0,1-.39.19.36.36,0,0,1-.39-.37c0-.3.27-.47.76-.47v0a.27.27,0,0,0-.29-.3.64.64,0,0,0-.33.1l0-.16a.9.9,0,0,1,.42-.11c.39,0,.48.27.48.52v.48a2.66,2.66,0,0,0,0,.3Zm0-.65c-.25,0-.54,0-.54.29a.2.2,0,0,0,.22.22.31.31,0,0,0,.3-.21.24.24,0,0,0,0-.08Z"/><path class="cls-2" d="M43.33,147.45c0-.09,0-.21,0-.33v-1.53h.22v.8h0a.46.46,0,0,1,.43-.24c.32,0,.54.26.54.65a.61.61,0,0,1-.57.68.46.46,0,0,1-.43-.24h0l0,.21Zm.23-.51s0,.06,0,.09a.36.36,0,0,0,.35.27c.24,0,.39-.2.39-.49s-.13-.47-.38-.47a.36.36,0,0,0-.35.28.29.29,0,0,0,0,.09Z"/><path class="cls-2" d="M46,146.81a.61.61,0,0,1-.63.67.6.6,0,0,1-.61-.65.62.62,0,0,1,.63-.68A.61.61,0,0,1,46,146.81Zm-1,0c0,.28.16.49.39.49s.39-.21.39-.5-.11-.49-.39-.49S45,146.58,45,146.82Z"/><path class="cls-2" d="M46.28,146.58c0-.15,0-.28,0-.4h.2v.25h0a.37.37,0,0,1,.35-.28h.06v.22h-.08a.31.31,0,0,0-.3.3.3.3,0,0,0,0,.1v.68h-.22Z"/><path class="cls-2" d="M47.24,146.86a.4.4,0,0,0,.43.44.82.82,0,0,0,.36-.07l0,.17a1,1,0,0,1-.42.08.59.59,0,0,1-.62-.64.61.61,0,0,1,.59-.69.54.54,0,0,1,.53.6c0,.05,0,.08,0,.11Zm.68-.17a.34.34,0,0,0-.32-.37.38.38,0,0,0-.36.37Z"/><path class="cls-2" d="M49.11,146.86a.41.41,0,0,0,.44.44.8.8,0,0,0,.35-.07l0,.17a1,1,0,0,1-.42.08.6.6,0,0,1-.63-.64.62.62,0,0,1,.6-.69.54.54,0,0,1,.52.6v.11Zm.68-.17a.33.33,0,0,0-.32-.37.37.37,0,0,0-.35.37Z"/><path class="cls-2" d="M50.58,145.82v.36h.33v.18h-.33V147c0,.16,0,.25.17.25l.14,0v.18a1,1,0,0,1-.21,0,.36.36,0,0,1-.25-.1.5.5,0,0,1-.09-.33v-.69h-.19v-.18h.19v-.3Z"/><path class="cls-2" d="M52.83,145.59v1.53c0,.12,0,.24,0,.33h-.21v-.22h0a.46.46,0,0,1-.43.25.58.58,0,0,1-.54-.65.61.61,0,0,1,.57-.68.41.41,0,0,1,.38.2h0v-.76Zm-.23,1.11s0-.07,0-.1a.35.35,0,0,0-.34-.27c-.24,0-.38.21-.38.49s.13.47.38.47a.36.36,0,0,0,.34-.27s0-.07,0-.1Z"/><path class="cls-2" d="M54.36,146.81a.61.61,0,0,1-.63.67.6.6,0,0,1-.61-.65.62.62,0,0,1,.63-.68A.6.6,0,0,1,54.36,146.81Zm-1,0a.44.44,0,0,0,.39.49c.22,0,.39-.21.39-.5s-.11-.49-.38-.49S53.35,146.58,53.35,146.82Z"/><path class="cls-2" d="M54.66,145.59h.23v1.86h-.23Z"/><path class="cls-2" d="M56.43,146.81a.62.62,0,0,1-.64.67.6.6,0,0,1-.6-.65.62.62,0,0,1,.62-.68A.61.61,0,0,1,56.43,146.81Zm-1,0c0,.28.16.49.38.49s.39-.21.39-.5-.11-.49-.38-.49S55.42,146.58,55.42,146.82Z"/><path class="cls-2" d="M56.72,146.58c0-.15,0-.28,0-.4h.2v.25h0a.39.39,0,0,1,.35-.28h.07v.22h-.08a.32.32,0,0,0-.31.3.31.31,0,0,0,0,.1v.68h-.23Z"/><path class="cls-2" d="M57.68,146.86a.41.41,0,0,0,.44.44.8.8,0,0,0,.35-.07l0,.17a1,1,0,0,1-.42.08.6.6,0,0,1-.63-.64.62.62,0,0,1,.6-.69.54.54,0,0,1,.52.6v.11Zm.68-.17a.33.33,0,0,0-.32-.37.37.37,0,0,0-.35.37Z"/><path class="cls-2" d="M59.43,146.52c0-.13,0-.23,0-.34h.2v.21h0a.43.43,0,0,1,.4-.24.39.39,0,0,1,.36.26h0a.61.61,0,0,1,.14-.17.46.46,0,0,1,.29-.09c.16,0,.41.11.41.55v.75H61v-.72c0-.24-.09-.39-.28-.39a.3.3,0,0,0-.27.21.37.37,0,0,0,0,.12v.78h-.23v-.76c0-.2-.08-.35-.26-.35a.32.32,0,0,0-.29.23.45.45,0,0,0,0,.11v.77h-.23Z"/><path class="cls-2" d="M62.33,147.45l0-.16h0a.48.48,0,0,1-.39.19.36.36,0,0,1-.39-.37c0-.3.28-.47.77-.47v0a.27.27,0,0,0-.29-.3.61.61,0,0,0-.33.1l-.06-.16a.9.9,0,0,1,.42-.11.46.46,0,0,1,.49.52v.48a1.42,1.42,0,0,0,0,.3Zm0-.65c-.25,0-.54,0-.54.29a.2.2,0,0,0,.22.22.33.33,0,0,0,.31-.21.22.22,0,0,0,0-.08Z"/><path class="cls-2" d="M64,146.18c0,.09,0,.19,0,.35v.74a.71.71,0,0,1-.18.58.69.69,0,0,1-.46.15.79.79,0,0,1-.42-.11l.06-.17a.71.71,0,0,0,.37.1c.24,0,.41-.13.41-.45v-.14h0a.44.44,0,0,1-.4.22.57.57,0,0,1-.54-.62.61.61,0,0,1,.57-.68.44.44,0,0,1,.4.22h0v-.19Zm-.23.5a.3.3,0,0,0,0-.1.32.32,0,0,0-.32-.25c-.22,0-.38.19-.38.48s.13.46.38.46a.34.34,0,0,0,.32-.24.5.5,0,0,0,0-.12Z"/><path class="cls-2" d="M64.34,146.52c0-.13,0-.23,0-.34h.21v.21h0a.47.47,0,0,1,.42-.24c.17,0,.45.11.45.54v.76h-.24v-.73c0-.21-.07-.38-.29-.38a.33.33,0,0,0-.31.24.37.37,0,0,0,0,.11v.76h-.24Z"/><path class="cls-2" d="M66.51,147.45l0-.16h0a.48.48,0,0,1-.39.19.37.37,0,0,1-.39-.37c0-.3.28-.47.77-.47v0a.27.27,0,0,0-.29-.3.61.61,0,0,0-.33.1l0-.16a.83.83,0,0,1,.41-.11.46.46,0,0,1,.49.52v.48a1.42,1.42,0,0,0,0,.3Zm0-.65c-.25,0-.53,0-.53.29a.2.2,0,0,0,.21.22.33.33,0,0,0,.31-.21.22.22,0,0,0,0-.08Z"/><path class="cls-2" d="M68.33,147.45l0-.16h0a.49.49,0,0,1-.39.19.36.36,0,0,1-.39-.37c0-.3.27-.47.76-.47v0a.27.27,0,0,0-.29-.3.64.64,0,0,0-.33.1l0-.16a.9.9,0,0,1,.42-.11c.39,0,.48.27.48.52v.48a2.66,2.66,0,0,0,0,.3Zm0-.65c-.25,0-.54,0-.54.29a.2.2,0,0,0,.22.22.31.31,0,0,0,.3-.21.24.24,0,0,0,0-.08Z"/><path class="cls-2" d="M68.9,145.59h.23v1.86H68.9Z"/><path class="cls-2" d="M69.77,145.82a.13.13,0,0,1-.14.15.15.15,0,0,1-.14-.15.14.14,0,0,1,.14-.14A.13.13,0,0,1,69.77,145.82Zm-.25,1.63v-1.27h.23v1.27Z"/><path class="cls-2" d="M71,147.25h0a.45.45,0,0,1-.41.23.58.58,0,0,1-.54-.64.61.61,0,0,1,.57-.69.44.44,0,0,1,.4.22h0v-.19h.22c0,.11,0,.22,0,.35V148H71Zm0-.56a.28.28,0,0,0,0-.09.34.34,0,0,0-.33-.26c-.24,0-.39.2-.39.48s.12.48.38.48A.35.35,0,0,0,71,147a.36.36,0,0,0,0-.11Z"/><path class="cls-2" d="M72.68,147.1c0,.14,0,.25,0,.35h-.21v-.21h0a.46.46,0,0,1-.42.24c-.2,0-.44-.11-.44-.56v-.74h.24v.7c0,.25.07.41.28.41a.33.33,0,0,0,.3-.21.25.25,0,0,0,0-.12v-.78h.24Z"/><path class="cls-2" d="M73.77,147.45l0-.16h0a.48.48,0,0,1-.39.19.36.36,0,0,1-.39-.37c0-.3.27-.47.77-.47v0a.27.27,0,0,0-.29-.3.61.61,0,0,0-.33.1l-.06-.16a.9.9,0,0,1,.42-.11c.39,0,.48.27.48.52v.48a1.39,1.39,0,0,0,0,.3Zm0-.65c-.25,0-.54,0-.54.29a.2.2,0,0,0,.22.22.33.33,0,0,0,.31-.21.22.22,0,0,0,0-.08Z"/><path class="cls-2" d="M74.27,147.31a.16.16,0,1,1,.32,0,.16.16,0,0,1-.16.17A.16.16,0,0,1,74.27,147.31Z"/><path class="cls-2" d="M75.67,145.68v1c0,.4.17.56.41.56s.43-.17.43-.56v-1h.23v1c0,.55-.29.77-.67.77s-.63-.21-.63-.76v-1Z"/><path class="cls-2" d="M77.42,145.82v.36h.33v.18h-.33V147c0,.16,0,.25.17.25l.14,0v.18a1,1,0,0,1-.21,0,.36.36,0,0,1-.25-.1.5.5,0,0,1-.08-.33v-.69H77v-.18h.2v-.3Z"/><path class="cls-2" d="M78.7,146.86a.4.4,0,0,0,.43.44.82.82,0,0,0,.36-.07l0,.17a1,1,0,0,1-.43.08.59.59,0,0,1-.62-.64.61.61,0,0,1,.59-.69.54.54,0,0,1,.53.6c0,.05,0,.08,0,.11Zm.68-.17a.33.33,0,0,0-.32-.37.38.38,0,0,0-.36.37Z"/><path class="cls-2" d="M79.89,146.52c0-.13,0-.23,0-.34h.2l0,.21h0a.47.47,0,0,1,.42-.24c.18,0,.45.11.45.54v.76h-.23v-.73c0-.21-.08-.38-.3-.38a.33.33,0,0,0-.31.24.37.37,0,0,0,0,.11v.76h-.23Z"/><path class="cls-2" d="M81.6,145.82a.13.13,0,0,1-.14.15.15.15,0,0,1-.14-.15.14.14,0,0,1,.14-.14A.13.13,0,0,1,81.6,145.82Zm-.25,1.63v-1.27h.23v1.27Z"/><path class="cls-2" d="M82,146.52c0-.13,0-.23,0-.34h.2v.21h0a.43.43,0,0,1,.4-.24.38.38,0,0,1,.36.26h0a.61.61,0,0,1,.14-.17.41.41,0,0,1,.28-.09c.17,0,.42.11.42.55v.75h-.23v-.72c0-.24-.09-.39-.28-.39a.3.3,0,0,0-.27.21.37.37,0,0,0,0,.12v.78h-.22v-.76c0-.2-.09-.35-.27-.35a.31.31,0,0,0-.28.23.23.23,0,0,0,0,.11v.77H82Z"/><path class="cls-2" d="M85.42,147.45l0-.16h0a.48.48,0,0,1-.39.19.37.37,0,0,1-.39-.37c0-.3.28-.47.77-.47v0a.27.27,0,0,0-.29-.3.61.61,0,0,0-.33.1l-.05-.16a.83.83,0,0,1,.41-.11.46.46,0,0,1,.49.52v.48a1.42,1.42,0,0,0,0,.3Zm0-.65c-.25,0-.54,0-.54.29a.2.2,0,0,0,.22.22.33.33,0,0,0,.31-.21.22.22,0,0,0,0-.08Z"/><path class="cls-2" d="M87.08,145.59v1.53c0,.12,0,.24,0,.33h-.21v-.22h0a.49.49,0,0,1-.44.25.58.58,0,0,1-.54-.65.61.61,0,0,1,.57-.68.41.41,0,0,1,.38.2h0v-.76Zm-.23,1.11s0-.07,0-.1a.35.35,0,0,0-.34-.27c-.24,0-.38.21-.38.49s.13.47.38.47a.36.36,0,0,0,.34-.27s0-.07,0-.1Z"/><path class="cls-2" d="M88,146.52c0-.13,0-.23,0-.34h.2v.21h0a.43.43,0,0,1,.4-.24.38.38,0,0,1,.36.26h0a.39.39,0,0,1,.14-.17.41.41,0,0,1,.28-.09c.17,0,.42.11.42.55v.75h-.23v-.72c0-.24-.09-.39-.28-.39a.3.3,0,0,0-.27.21.37.37,0,0,0,0,.12v.78h-.22v-.76c0-.2-.09-.35-.27-.35a.31.31,0,0,0-.28.23.23.23,0,0,0,0,.11v.77H88Z"/><path class="cls-2" d="M90.47,145.82a.14.14,0,0,1-.15.15.15.15,0,0,1,0-.29A.13.13,0,0,1,90.47,145.82Zm-.26,1.63v-1.27h.24v1.27Z"/><path class="cls-2" d="M90.83,146.52c0-.13,0-.23,0-.34H91l0,.21h0a.48.48,0,0,1,.42-.24c.18,0,.45.11.45.54v.76h-.23v-.73c0-.21-.08-.38-.29-.38a.32.32,0,0,0-.31.24.36.36,0,0,0,0,.11v.76h-.23Z"/><path class="cls-2" d="M92.55,145.82a.15.15,0,0,1-.15.15.15.15,0,0,1-.14-.15.14.14,0,0,1,.14-.14A.14.14,0,0,1,92.55,145.82Zm-.26,1.63v-1.27h.23v1.27Z"/><path class="cls-2" d="M92.9,146.52c0-.13,0-.23,0-.34h.21v.21h0a.44.44,0,0,1,.4-.24.37.37,0,0,1,.36.26h0a.61.61,0,0,1,.14-.17.43.43,0,0,1,.28-.09c.17,0,.42.11.42.55v.75h-.23v-.72c0-.24-.09-.39-.27-.39a.31.31,0,0,0-.28.21.41.41,0,0,0,0,.12v.78H93.7v-.76c0-.2-.09-.35-.26-.35a.32.32,0,0,0-.29.23.52.52,0,0,0,0,.11v.77H92.9Z"/><path class="cls-2" d="M95.74,146.18l.25.71a2.55,2.55,0,0,1,.11.33h0c0-.11.07-.21.11-.33l.25-.71h.24l-.5,1.27H96l-.48-1.27Z"/><path class="cls-2" d="M97,146.86a.41.41,0,0,0,.44.44.8.8,0,0,0,.35-.07l0,.17a1,1,0,0,1-.42.08.6.6,0,0,1-.63-.64.62.62,0,0,1,.6-.69.54.54,0,0,1,.52.6.34.34,0,0,1,0,.11Zm.68-.17a.33.33,0,0,0-.32-.37.39.39,0,0,0-.36.37Z"/><path class="cls-2" d="M98.21,146.52c0-.13,0-.23,0-.34h.21v.21h0a.48.48,0,0,1,.42-.24c.18,0,.45.11.45.54v.76h-.23v-.73c0-.21-.07-.38-.29-.38a.33.33,0,0,0-.31.24.36.36,0,0,0,0,.11v.76h-.23Z"/><path class="cls-2" d="M99.93,145.82a.15.15,0,0,1-.15.15.15.15,0,0,1-.14-.15.14.14,0,0,1,.15-.14A.14.14,0,0,1,99.93,145.82Zm-.26,1.63v-1.27h.23v1.27Z"/><path class="cls-2" d="M101,147.45l0-.16h0a.46.46,0,0,1-.38.19.36.36,0,0,1-.39-.37c0-.3.27-.47.76-.47v0a.27.27,0,0,0-.29-.3.61.61,0,0,0-.33.1l0-.16a.87.87,0,0,1,.42-.11.45.45,0,0,1,.48.52v.48a1.42,1.42,0,0,0,0,.3Zm0-.65c-.26,0-.54,0-.54.29a.2.2,0,0,0,.22.22.31.31,0,0,0,.3-.21.24.24,0,0,0,0-.08Z"/><path class="cls-2" d="M101.55,146.52c0-.13,0-.23,0-.34h.21v.21h0a.43.43,0,0,1,.4-.24.37.37,0,0,1,.36.26h0a.61.61,0,0,1,.14-.17.43.43,0,0,1,.28-.09c.17,0,.42.11.42.55v.75h-.23v-.72c0-.24-.09-.39-.27-.39a.3.3,0,0,0-.28.21.37.37,0,0,0,0,.12v.78h-.22v-.76c0-.2-.09-.35-.27-.35a.31.31,0,0,0-.28.23.23.23,0,0,0,0,.11v.77h-.23Z"/><path class="cls-2" d="M103.6,147.77a3.52,3.52,0,0,0,.15-.62l.26,0a3.05,3.05,0,0,1-.25.64Z"/><path class="cls-2" d="M105.71,147.25h0a.45.45,0,0,1-.42.23.58.58,0,0,1-.53-.64c0-.48.3-.69.57-.69a.41.41,0,0,1,.39.22h0v-.19H106V148h-.24Zm0-.56a.28.28,0,0,0,0-.09.33.33,0,0,0-.33-.26c-.24,0-.38.2-.38.48s.12.48.38.48a.36.36,0,0,0,.33-.26.37.37,0,0,0,0-.11Z"/><path class="cls-2" d="M107.39,147.1c0,.14,0,.25,0,.35h-.2v-.21h0a.46.46,0,0,1-.42.24c-.2,0-.44-.11-.44-.56v-.74h.23v.7c0,.25.08.41.29.41a.33.33,0,0,0,.3-.21.5.5,0,0,0,0-.12v-.78h.23Z"/><path class="cls-2" d="M108,145.82a.15.15,0,0,1-.15.15.15.15,0,0,1-.14-.15.14.14,0,0,1,.14-.14A.14.14,0,0,1,108,145.82Zm-.26,1.63v-1.27H108v1.27Z"/><path class="cls-2" d="M108.36,147.21a.57.57,0,0,0,.31.1c.16,0,.24-.09.24-.19s-.06-.17-.23-.24-.34-.2-.34-.36a.4.4,0,0,1,.44-.37.64.64,0,0,1,.31.08l-.06.17a.5.5,0,0,0-.26-.08.19.19,0,0,0-.21.18c0,.1.08.15.24.21s.34.2.34.39-.18.38-.48.38a.76.76,0,0,1-.36-.09Z"/><path class="cls-2" d="M12.38,149.68c0-.13,0-.24,0-.34h.2v.21h0a.45.45,0,0,1,.42-.24c.17,0,.45.1.45.54v.76h-.23v-.74c0-.2-.08-.37-.3-.37a.34.34,0,0,0-.31.23.37.37,0,0,0,0,.11v.77h-.23Z"/><path class="cls-2" d="M15,150a.62.62,0,0,1-.64.67.6.6,0,0,1-.61-.65.62.62,0,0,1,.63-.67A.6.6,0,0,1,15,150Zm-1,0c0,.28.16.49.38.49a.44.44,0,0,0,.39-.49c0-.22-.11-.49-.38-.49S14,149.73,14,150Z"/><path class="cls-2" d="M15.25,150.37a.66.66,0,0,0,.3.09c.17,0,.25-.08.25-.19s-.07-.17-.24-.23-.33-.21-.33-.36.16-.37.44-.37a.57.57,0,0,1,.31.08l-.06.16a.51.51,0,0,0-.26-.07c-.14,0-.21.08-.21.17s.07.16.24.22.33.19.33.38-.17.38-.47.38a.77.77,0,0,1-.36-.08Z"/><path class="cls-2" d="M16.6,149v.37h.33v.17H16.6v.69c0,.15,0,.24.17.24h.14v.17a.58.58,0,0,1-.21,0,.33.33,0,0,1-.25-.09.53.53,0,0,1-.09-.34v-.69h-.19v-.17h.19V149Z"/><path class="cls-2" d="M17.19,149.73c0-.15,0-.28,0-.39h.2v.25h0a.38.38,0,0,1,.35-.28h.07v.22h-.08a.33.33,0,0,0-.31.3.37.37,0,0,0,0,.11v.68h-.23Z"/><path class="cls-2" d="M19.11,150.26c0,.13,0,.25,0,.35h-.2v-.21h0a.47.47,0,0,1-.42.23c-.2,0-.44-.11-.44-.55v-.74h.23v.7c0,.24.08.4.29.4a.32.32,0,0,0,.3-.21.2.2,0,0,0,0-.11v-.78h.23Z"/><path class="cls-2" d="M20.6,148.74v1.54c0,.11,0,.24,0,.33H20.4v-.22h0a.46.46,0,0,1-.43.24.57.57,0,0,1-.54-.64.61.61,0,0,1,.57-.68.43.43,0,0,1,.38.19h0v-.76Zm-.23,1.11s0-.07,0-.09a.35.35,0,0,0-.34-.27c-.24,0-.38.21-.38.49s.13.47.38.47a.36.36,0,0,0,.34-.28s0-.06,0-.1Z"/><path class="cls-2" d="M21.67,150a.4.4,0,0,0,.43.44,1,1,0,0,0,.36-.06l0,.16a1,1,0,0,1-.43.08.58.58,0,0,1-.62-.64.61.61,0,0,1,.59-.68.54.54,0,0,1,.53.6s0,.08,0,.1Zm.68-.16c0-.15-.06-.38-.32-.38a.39.39,0,0,0-.36.38Z"/><path class="cls-2" d="M23,149.34l.18.27a2.39,2.39,0,0,1,.13.21h0a2,2,0,0,1,.12-.21l.18-.27h.25l-.43.61.44.66h-.26l-.19-.29a1.59,1.59,0,0,1-.13-.22h0a2.53,2.53,0,0,1-.13.22l-.19.29h-.25l.45-.65-.43-.62Z"/><path class="cls-2" d="M24.16,150a.4.4,0,0,0,.43.44.92.92,0,0,0,.35-.06l0,.16a1,1,0,0,1-.42.08.58.58,0,0,1-.62-.64.61.61,0,0,1,.59-.68.54.54,0,0,1,.53.6s0,.08,0,.1Zm.67-.16a.33.33,0,0,0-.32-.38c-.23,0-.33.22-.35.38Z"/><path class="cls-2" d="M25.35,149.73c0-.15,0-.28,0-.39h.21v.25h0a.36.36,0,0,1,.35-.28H26v.22h-.08a.34.34,0,0,0-.31.3s0,.07,0,.11v.68h-.22Z"/><path class="cls-2" d="M27.08,150.56a.86.86,0,0,1-.36.07.6.6,0,0,1-.63-.65.7.7,0,0,1,1-.6l-.05.17a.57.57,0,0,0-.27-.06.44.44,0,0,0-.45.48.44.44,0,0,0,.44.48.91.91,0,0,0,.29-.06Z"/><path class="cls-2" d="M27.61,149a.13.13,0,0,1-.14.14.14.14,0,0,1-.14-.14.15.15,0,0,1,.14-.15A.14.14,0,0,1,27.61,149Zm-.25,1.63v-1.27h.23v1.27Z"/><path class="cls-2" d="M28.25,149v.37h.33v.17h-.33v.69c0,.15.05.24.17.24h.14v.17a.58.58,0,0,1-.21,0,.35.35,0,0,1-.25-.09.53.53,0,0,1-.08-.34v-.69h-.2v-.17H28V149Z"/><path class="cls-2" d="M29.55,150.61l0-.16h0a.47.47,0,0,1-.39.18.36.36,0,0,1-.39-.36c0-.31.28-.47.77-.47v0a.26.26,0,0,0-.29-.29.6.6,0,0,0-.33.09l-.06-.15a.79.79,0,0,1,.42-.11c.39,0,.49.26.49.52v.47a1.51,1.51,0,0,0,0,.31Zm0-.65c-.25,0-.54,0-.54.28a.2.2,0,0,0,.22.22.31.31,0,0,0,.31-.21.17.17,0,0,0,0-.07Z"/><path class="cls-2" d="M30.38,149v.37h.33v.17h-.33v.69c0,.15,0,.24.17.24h.14v.17a.58.58,0,0,1-.21,0,.33.33,0,0,1-.25-.09.53.53,0,0,1-.09-.34v-.69H30v-.17h.19V149Z"/><path class="cls-2" d="M31.23,149a.14.14,0,0,1-.15.14.14.14,0,0,1-.14-.14.15.15,0,0,1,.15-.15A.15.15,0,0,1,31.23,149ZM31,150.61v-1.27h.23v1.27Z"/><path class="cls-2" d="M32.74,150a.62.62,0,0,1-.64.67.6.6,0,0,1-.61-.65.62.62,0,0,1,.63-.67A.6.6,0,0,1,32.74,150Zm-1,0c0,.28.16.49.38.49a.44.44,0,0,0,.39-.49c0-.22-.11-.49-.38-.49S31.73,149.73,31.73,150Z"/><path class="cls-2" d="M33,149.68c0-.13,0-.24,0-.34h.2l0,.21h0a.46.46,0,0,1,.42-.24c.18,0,.45.1.45.54v.76h-.23v-.74c0-.2-.08-.37-.29-.37a.33.33,0,0,0-.31.23.36.36,0,0,0,0,.11v.77H33Z"/><path class="cls-2" d="M36.11,150.26c0,.13,0,.25,0,.35h-.2l0-.21h0a.49.49,0,0,1-.42.23c-.2,0-.44-.11-.44-.55v-.74h.23v.7c0,.24.07.4.28.4a.32.32,0,0,0,.31-.21.36.36,0,0,0,0-.11v-.78h.23Z"/><path class="cls-2" d="M36.5,148.74h.23v1.87H36.5Z"/><path class="cls-2" d="M37.12,148.74h.23v1.87h-.23Z"/><path class="cls-2" d="M38.44,150.61l0-.16h0a.45.45,0,0,1-.38.18.36.36,0,0,1-.39-.36c0-.31.27-.47.76-.47v0a.26.26,0,0,0-.29-.29.6.6,0,0,0-.33.09l-.05-.15a.77.77,0,0,1,.42-.11c.38,0,.48.26.48.52v.47a1.51,1.51,0,0,0,0,.31Zm0-.65c-.26,0-.54,0-.54.28a.2.2,0,0,0,.22.22.3.3,0,0,0,.3-.21.19.19,0,0,0,0-.07Z"/><path class="cls-2" d="M39,149.68c0-.13,0-.24,0-.34h.21v.2h0a.44.44,0,0,1,.4-.23.36.36,0,0,1,.36.25h0a.56.56,0,0,1,.14-.16.43.43,0,0,1,.28-.09c.17,0,.42.11.42.55v.75h-.23v-.72c0-.25-.09-.39-.27-.39a.3.3,0,0,0-.28.21.36.36,0,0,0,0,.11v.79H39.8v-.77c0-.2-.09-.34-.27-.34a.3.3,0,0,0-.28.23.2.2,0,0,0,0,.11v.77H39Z"/><path class="cls-2" d="M42.1,150.56a.86.86,0,0,1-.36.07.61.61,0,0,1-.64-.65.65.65,0,0,1,.69-.67.69.69,0,0,1,.32.07l0,.17a.6.6,0,0,0-.27-.06.44.44,0,0,0-.45.48.44.44,0,0,0,.44.48.78.78,0,0,0,.28-.06Z"/><path class="cls-2" d="M43.51,150a.62.62,0,0,1-.63.67.6.6,0,0,1-.61-.65.62.62,0,0,1,.63-.67A.6.6,0,0,1,43.51,150Zm-1,0c0,.28.16.49.39.49s.38-.21.38-.49-.1-.49-.38-.49S42.5,149.73,42.5,150Z"/><path class="cls-2" d="M44.36,148.74h.23v1.87h-.23Z"/><path class="cls-2" d="M45.68,150.61v-.16h0a.47.47,0,0,1-.39.18.36.36,0,0,1-.39-.36c0-.31.27-.47.77-.47v0a.26.26,0,0,0-.29-.29.58.58,0,0,0-.33.09l-.06-.15a.79.79,0,0,1,.42-.11c.39,0,.48.26.48.52v.47a2.85,2.85,0,0,0,0,.31Zm0-.65c-.25,0-.54,0-.54.28a.2.2,0,0,0,.22.22.31.31,0,0,0,.31-.21.17.17,0,0,0,0-.07Z"/><path class="cls-2" d="M46.24,150.61c0-.09,0-.22,0-.33v-1.54h.23v.8h0a.48.48,0,0,1,.44-.23c.31,0,.53.26.53.65a.6.6,0,0,1-.57.67.45.45,0,0,1-.42-.23h0v.21Zm.24-.51a.22.22,0,0,0,0,.08.35.35,0,0,0,.34.27c.25,0,.39-.2.39-.49s-.13-.47-.38-.47a.37.37,0,0,0-.35.28.31.31,0,0,0,0,.1Z"/><path class="cls-2" d="M48.89,150a.61.61,0,0,1-.63.67.6.6,0,0,1-.61-.65.62.62,0,0,1,.63-.67A.59.59,0,0,1,48.89,150Zm-1,0c0,.28.16.49.38.49a.44.44,0,0,0,.39-.49c0-.22-.11-.49-.38-.49S47.89,149.73,47.89,150Z"/><path class="cls-2" d="M49.19,149.73c0-.15,0-.28,0-.39h.2v.25h0a.38.38,0,0,1,.35-.28h.07v.22h-.08a.32.32,0,0,0-.31.3.37.37,0,0,0,0,.11v.68h-.23Z"/><path class="cls-2" d="M50.32,149a.14.14,0,0,1-.15.14A.14.14,0,0,1,50,149a.15.15,0,0,1,.14-.15A.15.15,0,0,1,50.32,149Zm-.26,1.63v-1.27h.23v1.27Z"/><path class="cls-2" d="M50.64,150.37a.67.67,0,0,0,.31.09c.17,0,.24-.08.24-.19s-.06-.17-.23-.23-.34-.21-.34-.36a.39.39,0,0,1,.44-.37.54.54,0,0,1,.31.08l-.06.16a.47.47,0,0,0-.25-.07c-.14,0-.22.08-.22.17s.08.16.24.22.34.19.34.38-.18.38-.48.38a.7.7,0,0,1-.35-.08Z"/><path class="cls-2" d="M52.27,149.68c0-.13,0-.24,0-.34h.21v.21h0a.45.45,0,0,1,.42-.24c.17,0,.44.1.44.54v.76h-.23v-.74c0-.2-.07-.37-.29-.37a.34.34,0,0,0-.31.23.36.36,0,0,0,0,.11v.77h-.23Z"/><path class="cls-2" d="M54,149a.14.14,0,0,1-.15.14.14.14,0,0,1-.14-.14.15.15,0,0,1,.15-.15A.15.15,0,0,1,54,149Zm-.26,1.63v-1.27H54v1.27Z"/><path class="cls-2" d="M54.32,150.37a.63.63,0,0,0,.3.09c.17,0,.25-.08.25-.19s-.07-.17-.24-.23-.33-.21-.33-.36a.38.38,0,0,1,.43-.37.58.58,0,0,1,.32.08l-.06.16a.51.51,0,0,0-.26-.07c-.14,0-.21.08-.21.17s.07.16.24.22.33.19.33.38-.17.38-.47.38a.77.77,0,0,1-.36-.08Z"/><path class="cls-2" d="M55.65,149a.14.14,0,0,1-.15.14.14.14,0,0,1-.14-.14.15.15,0,0,1,.14-.15A.15.15,0,0,1,55.65,149Zm-.26,1.63v-1.27h.23v1.27Z"/><path class="cls-2" d="M57.63,150.26c0,.13,0,.25,0,.35h-.21v-.21h0a.47.47,0,0,1-.42.23c-.2,0-.44-.11-.44-.55v-.74h.24v.7c0,.24.07.4.28.4a.32.32,0,0,0,.3-.21.2.2,0,0,0,0-.11v-.78h.24Z"/><path class="cls-2" d="M58.29,149v.37h.33v.17h-.33v.69c0,.15,0,.24.17.24h.14v.17a.58.58,0,0,1-.21,0,.33.33,0,0,1-.25-.09.53.53,0,0,1-.09-.34v-.69h-.19v-.17h.19V149Z"/><path class="cls-2" d="M60.14,150.61l0-.16h0a.49.49,0,0,1-.39.18.36.36,0,0,1-.39-.36c0-.31.27-.47.76-.47v0a.26.26,0,0,0-.29-.29.63.63,0,0,0-.33.09l0-.15a.79.79,0,0,1,.42-.11c.39,0,.48.26.48.52v.47a2.85,2.85,0,0,0,0,.31Zm0-.65c-.25,0-.54,0-.54.28a.2.2,0,0,0,.22.22.3.3,0,0,0,.3-.21.19.19,0,0,0,0-.07Z"/><path class="cls-2" d="M60.71,148.74h.23v1.87h-.23Z"/><path class="cls-2" d="M61.58,149a.13.13,0,0,1-.14.14.14.14,0,0,1-.14-.14.15.15,0,0,1,.14-.15A.14.14,0,0,1,61.58,149Zm-.25,1.63v-1.27h.23v1.27Z"/><path class="cls-2" d="M62.81,150.41h0a.44.44,0,0,1-.41.22.57.57,0,0,1-.54-.64.61.61,0,0,1,.57-.68.42.42,0,0,1,.4.22h0v-.19h.22c0,.1,0,.21,0,.34v1.45h-.23Zm0-.56a.34.34,0,0,0,0-.1.34.34,0,0,0-.33-.26c-.24,0-.39.2-.39.49s.12.47.38.47a.34.34,0,0,0,.33-.25.43.43,0,0,0,0-.11Z"/><path class="cls-2" d="M64.49,150.26c0,.13,0,.25,0,.35h-.21v-.21h0a.47.47,0,0,1-.42.23c-.2,0-.44-.11-.44-.55v-.74h.24v.7c0,.24.07.4.28.4a.32.32,0,0,0,.3-.21.2.2,0,0,0,0-.11v-.78h.24Z"/><path class="cls-2" d="M65.13,149a.14.14,0,0,1-.15.14.14.14,0,0,1-.14-.14.15.15,0,0,1,.15-.15A.15.15,0,0,1,65.13,149Zm-.26,1.63v-1.27h.23v1.27Z"/><path class="cls-2" d="M65.49,149.75c0-.16,0-.29,0-.41h.2v.21h0a.49.49,0,0,1,.45-.24.57.57,0,0,1,.54.64.6.6,0,0,1-.58.68.45.45,0,0,1-.39-.19h0v.69h-.23Zm.23.34a.28.28,0,0,0,0,.09.35.35,0,0,0,.34.27c.25,0,.39-.2.39-.49s-.14-.47-.38-.47a.37.37,0,0,0-.35.29.28.28,0,0,0,0,.09Z"/><path class="cls-2" d="M67.67,150a.4.4,0,0,0,.43.44,1,1,0,0,0,.36-.06l0,.16a1,1,0,0,1-.43.08.58.58,0,0,1-.62-.64.61.61,0,0,1,.59-.68.54.54,0,0,1,.53.6s0,.08,0,.1Zm.68-.16c0-.15-.06-.38-.32-.38a.39.39,0,0,0-.36.38Z"/><path class="cls-2" d="M69,149.34l.18.27a2.39,2.39,0,0,1,.13.21h0a2,2,0,0,1,.12-.21l.18-.27h.25l-.43.61.44.66h-.26l-.19-.29a1.59,1.59,0,0,1-.13-.22h0a2.53,2.53,0,0,1-.13.22l-.19.29h-.25l.45-.65-.43-.62Z"/><path class="cls-2" d="M70.75,150a.41.41,0,0,0,.44.44,1,1,0,0,0,.35-.06l0,.16a1,1,0,0,1-.42.08.59.59,0,0,1-.63-.64.62.62,0,0,1,.6-.68.54.54,0,0,1,.52.6v.1Zm.68-.16c0-.15-.06-.38-.32-.38a.38.38,0,0,0-.35.38Z"/><path class="cls-2" d="M72.65,150.61l0-.16h0a.47.47,0,0,1-.39.18.36.36,0,0,1-.39-.36c0-.31.28-.47.77-.47v0a.26.26,0,0,0-.29-.29.6.6,0,0,0-.33.09l-.06-.15a.79.79,0,0,1,.42-.11c.39,0,.48.26.48.52v.47a1.48,1.48,0,0,0,0,.31Zm0-.65c-.25,0-.54,0-.54.28a.2.2,0,0,0,.22.22.31.31,0,0,0,.31-.21.17.17,0,0,0,0-.07Z"/><path class="cls-2" d="M74.67,150.56a.86.86,0,0,1-.36.07.6.6,0,0,1-.63-.65.64.64,0,0,1,.68-.67.66.66,0,0,1,.32.07l-.05.17a.6.6,0,0,0-.27-.06.44.44,0,0,0-.45.48.44.44,0,0,0,.44.48.78.78,0,0,0,.28-.06Z"/><path class="cls-2" d="M76.08,150a.62.62,0,0,1-.63.67.6.6,0,0,1-.61-.65.62.62,0,0,1,.63-.67A.6.6,0,0,1,76.08,150Zm-1,0c0,.28.16.49.39.49s.38-.21.38-.49-.1-.49-.38-.49S75.07,149.73,75.07,150Z"/><path class="cls-2" d="M76.37,149.68c0-.13,0-.24,0-.34h.21v.2h0a.44.44,0,0,1,.4-.23.36.36,0,0,1,.36.25h0a.56.56,0,0,1,.14-.16.43.43,0,0,1,.28-.09c.17,0,.42.11.42.55v.75H78v-.72c0-.25-.09-.39-.27-.39a.29.29,0,0,0-.28.21.36.36,0,0,0,0,.11v.79h-.22v-.77c0-.2-.09-.34-.27-.34a.3.3,0,0,0-.28.23.2.2,0,0,0,0,.11v.77h-.23Z"/><path class="cls-2" d="M78.57,149.68c0-.13,0-.24,0-.34h.2v.2h0a.44.44,0,0,1,.4-.23.38.38,0,0,1,.36.25h0a.56.56,0,0,1,.14-.16.43.43,0,0,1,.28-.09c.17,0,.42.11.42.55v.75h-.23v-.72c0-.25-.09-.39-.27-.39a.29.29,0,0,0-.27.21.36.36,0,0,0,0,.11v.79h-.23v-.77c0-.2-.09-.34-.26-.34a.31.31,0,0,0-.29.23.36.36,0,0,0,0,.11v.77h-.22Z"/><path class="cls-2" d="M81.91,150a.62.62,0,0,1-.63.67.6.6,0,0,1-.61-.65.62.62,0,0,1,.63-.67A.6.6,0,0,1,81.91,150Zm-1,0c0,.28.16.49.39.49s.38-.21.38-.49-.1-.49-.38-.49S80.9,149.73,80.9,150Z"/><path class="cls-2" d="M83.3,148.74v1.54c0,.11,0,.24,0,.33H83.1v-.22h0a.47.47,0,0,1-.43.24.57.57,0,0,1-.55-.64.61.61,0,0,1,.57-.68.41.41,0,0,1,.38.19h0v-.76Zm-.23,1.11a.25.25,0,0,0,0-.09.33.33,0,0,0-.33-.27c-.24,0-.38.21-.38.49s.12.47.37.47a.34.34,0,0,0,.34-.28.31.31,0,0,0,0-.1Z"/><path class="cls-2" d="M84.84,150a.62.62,0,0,1-.64.67.6.6,0,0,1-.61-.65.62.62,0,0,1,.63-.67A.6.6,0,0,1,84.84,150Zm-1,0c0,.28.16.49.38.49a.44.44,0,0,0,.39-.49c0-.22-.11-.49-.38-.49S83.83,149.73,83.83,150Z"/><path class="cls-2" d="M86.59,150.56a.86.86,0,0,1-.36.07.6.6,0,0,1-.63-.65.64.64,0,0,1,.68-.67.66.66,0,0,1,.32.07l0,.17a.6.6,0,0,0-.27-.06.44.44,0,0,0-.45.48.44.44,0,0,0,.44.48.78.78,0,0,0,.28-.06Z"/><path class="cls-2" d="M88,150a.62.62,0,0,1-.63.67.6.6,0,0,1-.61-.65.62.62,0,0,1,.63-.67A.6.6,0,0,1,88,150Zm-1,0c0,.28.16.49.39.49s.38-.21.38-.49-.1-.49-.38-.49S87,149.73,87,150Z"/><path class="cls-2" d="M88.29,149.68c0-.13,0-.24,0-.34h.21v.21h0a.45.45,0,0,1,.42-.24c.17,0,.45.1.45.54v.76h-.24v-.74c0-.2-.07-.37-.29-.37a.34.34,0,0,0-.31.23.36.36,0,0,0,0,.11v.77h-.23Z"/><path class="cls-2" d="M89.72,150.37a.67.67,0,0,0,.31.09c.16,0,.24-.08.24-.19s-.06-.17-.23-.23-.34-.21-.34-.36a.39.39,0,0,1,.44-.37.54.54,0,0,1,.31.08l-.06.16a.51.51,0,0,0-.26-.07.19.19,0,0,0-.21.17c0,.11.08.16.24.22s.34.19.34.38-.18.38-.48.38a.77.77,0,0,1-.36-.08Z"/><path class="cls-2" d="M90.92,150a.41.41,0,0,0,.44.44,1,1,0,0,0,.35-.06l0,.16a1,1,0,0,1-.42.08.59.59,0,0,1-.63-.64.62.62,0,0,1,.6-.68.54.54,0,0,1,.52.6v.1Zm.68-.16c0-.15-.06-.38-.32-.38a.38.38,0,0,0-.35.38Z"/><path class="cls-2" d="M93,150.41h0a.44.44,0,0,1-.41.22A.57.57,0,0,1,92,150a.61.61,0,0,1,.57-.68.42.42,0,0,1,.4.22h0v-.19h.22c0,.1,0,.21,0,.34v1.45H93Zm0-.56a.34.34,0,0,0,0-.1.34.34,0,0,0-.33-.26c-.24,0-.39.2-.39.49s.12.47.38.47a.34.34,0,0,0,.33-.25.43.43,0,0,0,0-.11Z"/><path class="cls-2" d="M94.66,150.26c0,.13,0,.25,0,.35h-.21v-.21h0a.47.47,0,0,1-.42.23c-.2,0-.44-.11-.44-.55v-.74h.24v.7c0,.24.07.4.28.4a.32.32,0,0,0,.3-.21.2.2,0,0,0,0-.11v-.78h.24Z"/><path class="cls-2" d="M95.75,150.61l0-.16h0a.47.47,0,0,1-.39.18.36.36,0,0,1-.39-.36c0-.31.27-.47.77-.47v0a.26.26,0,0,0-.29-.29.6.6,0,0,0-.33.09l-.06-.15a.79.79,0,0,1,.42-.11c.39,0,.48.26.48.52v.47a1.48,1.48,0,0,0,0,.31Zm0-.65c-.25,0-.54,0-.54.28a.2.2,0,0,0,.22.22.31.31,0,0,0,.31-.21.17.17,0,0,0,0-.07Z"/><path class="cls-2" d="M96.58,149v.37h.33v.17h-.33v.69c0,.15,0,.24.17.24h.13v.17a.49.49,0,0,1-.2,0,.33.33,0,0,1-.25-.09.48.48,0,0,1-.09-.34v-.69h-.2v-.17h.2V149Z"/><path class="cls-2" d="M97.11,150.47a.15.15,0,0,1,.15-.17.16.16,0,0,1,.16.17.15.15,0,0,1-.16.16A.15.15,0,0,1,97.11,150.47Z"/><rect class="cls-1" x="28.61" y="163.61" width="52.47" height="8.93" rx="3.4"/><path class="cls-2" d="M49,168.77a1.85,1.85,0,0,1-.54.09.88.88,0,0,1-.66-.23.92.92,0,0,1-.25-.66.89.89,0,0,1,1-.91,1.07,1.07,0,0,1,.44.08l-.05.19a.86.86,0,0,0-.4-.08.66.66,0,0,0-.71.71.65.65,0,0,0,.69.71.92.92,0,0,0,.3,0v-.53h-.36v-.18H49Z"/><path class="cls-2" d="M50.31,168h-.69v.63h.77v.2h-1v-1.77h1v.19h-.73v.56h.69Z"/><path class="cls-2" d="M51.07,167.27h-.54v-.19h1.31v.19H51.3v1.58h-.23Z"/><path class="cls-2" d="M52.56,168.57a.89.89,0,0,0,.41.11c.24,0,.37-.12.37-.3s-.09-.26-.33-.35-.47-.25-.47-.5a.51.51,0,0,1,.57-.48.89.89,0,0,1,.4.08l-.07.19a.71.71,0,0,0-.33-.08c-.24,0-.34.14-.34.26s.11.25.36.34.45.26.45.52-.21.51-.62.51a.93.93,0,0,1-.45-.11Z"/><path class="cls-2" d="M54.23,167.27h-.54v-.19H55v.19h-.54v1.58h-.23Z"/><path class="cls-2" d="M55.29,168.29l-.19.56h-.23l.6-1.77h.27l.61,1.77H56.1l-.19-.56Zm.58-.18-.18-.51c0-.11-.06-.22-.09-.32h0l-.09.32-.18.51Z"/><path class="cls-2" d="M56.61,167.1a2.76,2.76,0,0,1,.44,0,.72.72,0,0,1,.51.15.44.44,0,0,1,.14.33.48.48,0,0,1-.33.46h0a.49.49,0,0,1,.26.36,3,3,0,0,0,.13.49h-.23a2.32,2.32,0,0,1-.12-.43c0-.24-.15-.33-.36-.34h-.21v.77h-.23Zm.23.81h.23c.25,0,.4-.14.4-.34s-.16-.33-.41-.33l-.22,0Z"/><path class="cls-2" d="M58.39,167.27h-.54v-.19h1.31v.19h-.54v1.58h-.23Z"/><path class="cls-2" d="M60.27,168h-.69v.63h.77v.2h-1v-1.77h1v.19h-.73v.56h.69Z"/><path class="cls-2" d="M60.65,167.1a3.34,3.34,0,0,1,.49,0,1,1,0,0,1,.71.22.82.82,0,0,1,.25.64,1,1,0,0,1-.25.69,1.13,1.13,0,0,1-.79.25l-.41,0Zm.23,1.56.23,0a.68.68,0,0,0,.75-.75.63.63,0,0,0-.71-.69,1.45,1.45,0,0,0-.27,0Z"/><rect class="cls-1" x="28.61" y="174.66" width="52.47" height="8.93" rx="3.4"/><path class="cls-2" d="M50.88,179.62a.74.74,0,0,0,.41.12c.23,0,.37-.12.37-.3s-.09-.26-.33-.35-.47-.26-.47-.51a.51.51,0,0,1,.57-.48.82.82,0,0,1,.39.09l-.06.19a.69.69,0,0,0-.33-.09c-.25,0-.34.15-.34.27s.11.24.35.34.46.26.46.52-.21.51-.62.51a1,1,0,0,1-.46-.11Z"/><path class="cls-2" d="M52.44,178.13v1.77h-.23v-1.77Z"/><path class="cls-2" d="M54.18,179.82a1.51,1.51,0,0,1-.54.1.92.92,0,0,1-.66-.23.94.94,0,0,1-.25-.66.9.9,0,0,1,1-.92,1,1,0,0,1,.44.09l-.05.18a1,1,0,0,0-.39-.07A.66.66,0,0,0,53,179a.65.65,0,0,0,.69.71.64.64,0,0,0,.3,0v-.52H53.6V179h.58Z"/><path class="cls-2" d="M54.54,179.9v-1.77h.25l.56.9a4.92,4.92,0,0,1,.32.57h0a5.62,5.62,0,0,1,0-.73v-.74h.21v1.77h-.23l-.56-.9a4.91,4.91,0,0,1-.33-.59h0c0,.22,0,.43,0,.73v.75Z"/><path class="cls-2" d="M57.05,178.13v1.77h-.23v-1.77Z"/><path class="cls-2" d="M57.45,179.9v-1.77h.25l.57.9c.13.21.23.39.32.57h0c0-.24,0-.45,0-.73v-.74h.21v1.77h-.23L58,179a4.91,4.91,0,0,1-.33-.59h0c0,.22,0,.43,0,.73v.75Z"/><rect class="cls-1" x="131.71" y="0.13" width="189.34" height="224.84"/><line class="cls-1" x1="131.71" y1="0.13" x2="321.05" y2="224.96"/><line class="cls-1" x1="131.71" y1="224.96" x2="321.05" y2="0.13"/><rect class="cls-3" x="1.78" y="310.08" width="92.38" height="20.38"/><rect class="cls-1" x="1.78" y="338.43" width="92.38" height="20.38"/><rect class="cls-1" x="1.78" y="366.77" width="92.38" height="20.38"/><rect class="cls-1" x="1.78" y="395.12" width="92.38" height="20.38"/><rect class="cls-1" x="1.78" y="423.47" width="92.38" height="20.38"/><rect class="cls-1" x="1.78" y="451.81" width="92.38" height="20.38"/><rect class="cls-1" x="1.78" y="480.16" width="92.38" height="20.38"/><rect class="cls-1" x="1.78" y="508.51" width="92.38" height="20.38"/><rect class="cls-1" x="1.78" y="536.85" width="92.38" height="20.38"/><rect class="cls-1" x="155.29" y="399.88" width="90.34" height="10.87" rx="5.43"/><rect class="cls-1" x="283.33" y="399.88" width="90.34" height="10.87" rx="5.43"/><rect class="cls-1" x="411.37" y="399.88" width="90.34" height="10.87" rx="5.43"/><rect class="cls-1" x="173.63" y="343.18" width="90.34" height="10.87" rx="5.43"/><rect class="cls-1" x="301.67" y="343.18" width="90.34" height="10.87" rx="5.43"/><rect class="cls-1" x="429.71" y="343.18" width="90.34" height="10.87" rx="5.43"/><rect class="cls-1" x="117.25" y="371.53" width="90.34" height="10.87" rx="5.43"/><rect class="cls-1" x="245.29" y="371.53" width="90.34" height="10.87" rx="5.43"/><rect class="cls-1" x="373.33" y="371.53" width="90.34" height="10.87" rx="5.43"/><rect class="cls-1" x="172.27" y="494.63" width="90.34" height="10.87" rx="5.43"/><rect class="cls-1" x="300.31" y="494.63" width="90.34" height="10.87" rx="5.43"/><rect class="cls-1" x="428.35" y="494.63" width="90.34" height="10.87" rx="5.43"/><rect class="cls-1" x="190.61" y="437.94" width="90.34" height="10.87" rx="5.43"/><rect class="cls-1" x="318.65" y="437.94" width="90.34" height="10.87" rx="5.43"/><rect class="cls-1" x="446.69" y="437.94" width="90.34" height="10.87" rx="5.43"/><rect class="cls-1" x="134.23" y="466.28" width="90.34" height="10.87" rx="5.43"/><rect class="cls-1" x="262.27" y="466.28" width="90.34" height="10.87" rx="5.43"/><rect class="cls-1" x="390.31" y="466.28" width="90.34" height="10.87" rx="5.43"/><rect class="cls-3" x="253.78" y="551.54" width="64.87" height="14.94"/><path class="cls-2" d="M280.2,560.44a1.58,1.58,0,0,0,.81.25c.45,0,.66-.23.66-.51s-.18-.45-.63-.62c-.61-.22-.9-.56-.9-1a1,1,0,0,1,1.17-1,1.71,1.71,0,0,1,.83.21l-.15.45a1.36,1.36,0,0,0-.69-.19c-.37,0-.57.21-.57.46s.2.4.64.57.89.52.89,1-.46,1-1.27,1a1.93,1.93,0,0,1-.95-.23Z"/><path class="cls-2" d="M284.93,561.07l-.05-.43h0a1.25,1.25,0,0,1-1,.51,1,1,0,0,1-1-1c0-.82.72-1.26,2-1.26v-.07a.69.69,0,0,0-.77-.78,1.74,1.74,0,0,0-.88.25l-.14-.41a2.14,2.14,0,0,1,1.12-.3c1,0,1.28.71,1.28,1.39v1.27a5,5,0,0,0,.06.81Zm-.09-1.73c-.67,0-1.44.11-1.44.76a.55.55,0,0,0,.58.59.84.84,0,0,0,.82-.56.79.79,0,0,0,0-.2Z"/><path class="cls-2" d="M286.61,557.68l.66,1.91a6.6,6.6,0,0,1,.28.86h0c.08-.28.17-.56.28-.86l.66-1.91h.65l-1.33,3.39h-.59L286,557.68Z"/><path class="cls-2" d="M290,559.49a1.08,1.08,0,0,0,1.16,1.17,2.22,2.22,0,0,0,.94-.17l.11.44a2.74,2.74,0,0,1-1.13.21,1.58,1.58,0,0,1-1.67-1.71A1.65,1.65,0,0,1,291,557.6a1.44,1.44,0,0,1,1.4,1.6,2,2,0,0,1,0,.29Zm1.81-.44c0-.4-.16-1-.86-1a1,1,0,0,0-.94,1Z"/><rect class="cls-3" x="341.23" y="551.54" width="64.87" height="14.94"/><path class="cls-2" d="M367.12,558.79c0-.44,0-.79,0-1.11h.55l0,.58h0a1.34,1.34,0,0,1,1.21-.66,1.54,1.54,0,0,1,1.43,1.73,1.6,1.6,0,0,1-1.54,1.82,1.19,1.19,0,0,1-1-.53h0v1.84h-.61Zm.61.9a1.71,1.71,0,0,0,0,.25.94.94,0,0,0,.93.72c.65,0,1-.53,1-1.31s-.36-1.26-1-1.26a1,1,0,0,0-.93.77.7.7,0,0,0,0,.25Z"/><path class="cls-2" d="M371.11,558.74c0-.4,0-.74,0-1.06h.54l0,.67h0a1,1,0,0,1,.94-.75l.17,0v.59a.66.66,0,0,0-.21,0,.88.88,0,0,0-.83.8,2.3,2.3,0,0,0,0,.28v1.81h-.61Z"/><path class="cls-2" d="M374.11,556.73a.38.38,0,1,1-.76,0,.38.38,0,0,1,.38-.39A.37.37,0,0,1,374.11,556.73Zm-.69,4.34v-3.39H374v3.39Z"/><path class="cls-2" d="M375.06,558.6a8.73,8.73,0,0,0,0-.92h.55l0,.56h0a1.25,1.25,0,0,1,1.12-.64c.47,0,1.2.28,1.2,1.45v2h-.62v-2c0-.55-.2-1-.78-1a.88.88,0,0,0-.83.64.79.79,0,0,0,0,.28v2h-.62Z"/><path class="cls-2" d="M379.66,556.71v1h.88v.47h-.88V560c0,.42.12.66.46.66a1.06,1.06,0,0,0,.36,0l0,.47a1.52,1.52,0,0,1-.55.08.84.84,0,0,1-.66-.26,1.22,1.22,0,0,1-.24-.88v-1.85h-.53v-.47h.53v-.81Z"/><rect class="cls-3" x="446.77" y="302.61" width="64.87" height="14.94"/><path class="cls-2" d="M470,307.16h.61v5H470Z"/><path class="cls-2" d="M474.73,310.41a1.65,1.65,0,0,1-1.69,1.8,1.61,1.61,0,0,1-1.63-1.74,1.65,1.65,0,0,1,1.68-1.8A1.61,1.61,0,0,1,474.73,310.41Zm-2.69,0c0,.74.42,1.3,1,1.3s1-.55,1-1.32c0-.57-.28-1.3-1-1.3S472,309.8,472,310.45Z"/><path class="cls-2" d="M478.42,308.75c0,.24,0,.51,0,.93v2a1.93,1.93,0,0,1-.48,1.54,1.8,1.8,0,0,1-1.23.41,2.2,2.2,0,0,1-1.13-.28l.15-.47a2,2,0,0,0,1,.27c.63,0,1.09-.33,1.09-1.19v-.38h0a1.21,1.21,0,0,1-1.08.57,1.51,1.51,0,0,1-1.44-1.65,1.62,1.62,0,0,1,1.52-1.8,1.13,1.13,0,0,1,1.06.59h0l0-.51Zm-.64,1.33a.86.86,0,0,0,0-.28.89.89,0,0,0-.86-.65c-.59,0-1,.5-1,1.28s.33,1.22,1,1.22a.89.89,0,0,0,.85-.63.91.91,0,0,0,0-.33Z"/><path class="cls-2" d="M482.48,310.41a1.65,1.65,0,0,1-1.69,1.8,1.61,1.61,0,0,1-1.62-1.74,1.65,1.65,0,0,1,1.68-1.8A1.61,1.61,0,0,1,482.48,310.41Zm-2.69,0c0,.74.43,1.3,1,1.3s1-.55,1-1.32c0-.57-.29-1.3-1-1.3S479.79,309.8,479.79,310.45Z"/><path class="cls-2" d="M486.09,311.21q0,.53,0,.93h-.55l0-.56h0a1.28,1.28,0,0,1-1.13.63c-.53,0-1.16-.29-1.16-1.48v-2h.61v1.87c0,.65.2,1.08.76,1.08a.89.89,0,0,0,.81-.56.78.78,0,0,0,.06-.31v-2.08h.61Z"/><path class="cls-2" d="M487.86,307.77v1h.88v.47h-.88V311c0,.42.11.66.46.66a1.49,1.49,0,0,0,.36,0l0,.46a1.43,1.43,0,0,1-.54.09.89.89,0,0,1-.67-.26,1.32,1.32,0,0,1-.24-.89v-1.84h-.52v-.47h.52v-.82Z"/><circle class="cls-4" cx="423.47" cy="310.08" r="7.47"/><rect class="cls-1" x="456.04" y="133.4" width="90.34" height="10.87" rx="5.43"/><rect class="cls-1" x="584.08" y="133.4" width="90.34" height="10.87" rx="5.43"/><rect class="cls-1" x="712.11" y="133.4" width="90.34" height="10.87" rx="5.43"/><rect class="cls-1" x="456.04" y="87.57" width="90.34" height="10.87" rx="5.43"/><rect class="cls-1" x="584.08" y="87.57" width="90.34" height="10.87" rx="5.43"/><rect class="cls-1" x="712.11" y="87.57" width="90.34" height="10.87" rx="5.43"/><rect class="cls-1" x="456.04" y="110.49" width="90.34" height="10.87" rx="5.43"/><rect class="cls-1" x="584.08" y="110.49" width="90.34" height="10.87" rx="5.43"/><rect class="cls-1" x="712.11" y="110.49" width="90.34" height="10.87" rx="5.43"/><rect class="cls-1" x="456.04" y="200.5" width="90.34" height="10.87" rx="5.43"/><rect class="cls-1" x="584.08" y="200.5" width="90.34" height="10.87" rx="5.43"/><rect class="cls-1" x="712.11" y="200.5" width="90.34" height="10.87" rx="5.43"/><rect class="cls-1" x="456.04" y="155.15" width="90.34" height="10.87" rx="5.43"/><rect class="cls-1" x="584.08" y="155.15" width="90.34" height="10.87" rx="5.43"/><rect class="cls-1" x="712.11" y="155.15" width="90.34" height="10.87" rx="5.43"/><rect class="cls-1" x="456.04" y="176.9" width="90.34" height="10.87" rx="5.43"/><rect class="cls-1" x="584.08" y="176.9" width="90.34" height="10.87" rx="5.43"/><rect class="cls-1" x="712.11" y="176.9" width="90.34" height="10.87" rx="5.43"/><rect class="cls-3" x="373.67" y="85.54" width="64.87" height="14.94"/><path class="cls-2" d="M400.09,92.73c0-.4,0-.74,0-1.06h.54l0,.67h0a1,1,0,0,1,.94-.74.44.44,0,0,1,.17,0v.58a.65.65,0,0,0-.21,0,.86.86,0,0,0-.82.79,1.23,1.23,0,0,0,0,.29v1.8h-.61Z"/><path class="cls-2" d="M402.65,93.48a1.09,1.09,0,0,0,1.16,1.18,2.16,2.16,0,0,0,.94-.18l.11.44a2.74,2.74,0,0,1-1.13.21,1.58,1.58,0,0,1-1.67-1.71,1.64,1.64,0,0,1,1.59-1.82,1.43,1.43,0,0,1,1.4,1.59,1.85,1.85,0,0,1,0,.29Zm1.81-.44a.88.88,0,0,0-.86-1,1,1,0,0,0-.94,1Z"/><path class="cls-2" d="M407.69,95.06l-.05-.42h0a1.27,1.27,0,0,1-1,.5,1,1,0,0,1-1-1c0-.82.73-1.27,2-1.26v-.07a.7.7,0,0,0-.77-.79,1.68,1.68,0,0,0-.88.25l-.15-.4a2.17,2.17,0,0,1,1.12-.3c1,0,1.29.7,1.29,1.38v1.27a5,5,0,0,0,.05.81Zm-.09-1.73c-.67,0-1.43.11-1.43.77a.54.54,0,0,0,.58.59.85.85,0,0,0,.82-.57.69.69,0,0,0,0-.2Z"/><path class="cls-2" d="M412.12,90.09v4.1a7.78,7.78,0,0,0,0,.87h-.56l0-.58h0a1.27,1.27,0,0,1-1.16.66,1.55,1.55,0,0,1-1.45-1.72,1.63,1.63,0,0,1,1.52-1.82,1.14,1.14,0,0,1,1,.52h0v-2Zm-.62,3a1.22,1.22,0,0,0,0-.26.9.9,0,0,0-.89-.71c-.63,0-1,.56-1,1.31s.33,1.25,1,1.25a.92.92,0,0,0,.9-.73,1.18,1.18,0,0,0,0-.27Z"/><rect class="cls-3" x="373.67" y="61.23" width="64.87" height="14.94"/><path class="cls-2" d="M399.7,70.75c0-.23,0-.57,0-.87v-4.1h.61v2.13h0a1.26,1.26,0,0,1,1.15-.62c.85,0,1.44.7,1.43,1.73a1.61,1.61,0,0,1-1.52,1.81,1.2,1.2,0,0,1-1.13-.64h0l0,.56Zm.64-1.35a1.64,1.64,0,0,0,0,.22,1,1,0,0,0,.93.72c.64,0,1-.52,1-1.3s-.35-1.26-1-1.26a1,1,0,0,0-.94.75,1.7,1.7,0,0,0,0,.26Z"/><path class="cls-2" d="M405.59,70.75l0-.42h0a1.29,1.29,0,0,1-1,.5,1,1,0,0,1-1-1c0-.82.73-1.27,2-1.26v-.07a.7.7,0,0,0-.77-.79,1.74,1.74,0,0,0-.88.25l-.14-.4a2.1,2.1,0,0,1,1.11-.3c1,0,1.29.7,1.29,1.38v1.27a4,4,0,0,0,.06.81ZM405.5,69c-.68,0-1.44.11-1.44.77a.55.55,0,0,0,.58.59.85.85,0,0,0,.82-.57.65.65,0,0,0,0-.2Z"/><path class="cls-2" d="M409.5,70.63a2.35,2.35,0,0,1-1,.19,1.61,1.61,0,0,1-1.69-1.73,1.72,1.72,0,0,1,1.82-1.8,1.92,1.92,0,0,1,.85.18l-.14.48a1.31,1.31,0,0,0-.71-.17,1.18,1.18,0,0,0-1.2,1.29,1.16,1.16,0,0,0,1.18,1.26,1.82,1.82,0,0,0,.75-.16Z"/><path class="cls-2" d="M410.83,68.92h0l.3-.39,1-1.17h.74l-1.31,1.4,1.49,2h-.75l-1.17-1.62-.31.35v1.27h-.61v-5h.61Z"/><circle class="cls-5" cx="54.85" cy="208.88" r="13.12"/><circle class="cls-5" cx="224.57" cy="544.85" r="13.12"/><circle class="cls-5" cx="400.1" cy="146.83" r="13.12"/><path class="cls-2" d="M380.6,41.49,377,27.34h1.93l1.68,7.16c.42,1.77.8,3.53,1.05,4.9h0c.23-1.41.67-3.09,1.16-4.92l1.89-7.14h1.91l1.72,7.18c.4,1.68.77,3.36,1,4.85h.05c.29-1.55.69-3.12,1.13-4.89l1.87-7.14h1.87l-4,14.15h-1.91l-1.79-7.36a43.59,43.59,0,0,1-.92-4.62h0a45.87,45.87,0,0,1-1.1,4.62l-2,7.36Z"/><path class="cls-2" d="M397.88,27.34V41.49h-1.83V27.34Z"/><path class="cls-2" d="M401.07,27.53a19.05,19.05,0,0,1,3.51-.29c1.95,0,3.21.36,4.09,1.15a3.52,3.52,0,0,1,1.12,2.69,3.71,3.71,0,0,1-2.67,3.61v.07a3.52,3.52,0,0,1,2.08,2.85,22.62,22.62,0,0,0,1.09,3.88H408.4a17.44,17.44,0,0,1-.94-3.38c-.42-2-1.18-2.68-2.84-2.75H402.9v6.13h-1.83ZM402.9,34h1.87c2,0,3.19-1.07,3.19-2.69,0-1.83-1.32-2.62-3.25-2.64a7.84,7.84,0,0,0-1.81.16Z"/><path class="cls-2" d="M419.7,34.86h-5.5V40h6.13v1.53h-8V27.34H420v1.54H414.2v4.47h5.5Z"/><path class="cls-2" d="M422.7,27.34h7.62v1.54h-5.79v4.7h5.35v1.51h-5.35v6.4H422.7Z"/><path class="cls-2" d="M432.93,27.53a19,19,0,0,1,3.51-.29c1.95,0,3.21.36,4.09,1.15a3.54,3.54,0,0,1,1.11,2.69A3.7,3.7,0,0,1,439,34.69v.07a3.52,3.52,0,0,1,2.08,2.85,21.69,21.69,0,0,0,1.09,3.88h-1.89a18,18,0,0,1-.95-3.38c-.42-2-1.17-2.68-2.83-2.75h-1.72v6.13h-1.83ZM434.76,34h1.87c1.95,0,3.19-1.07,3.19-2.69,0-1.83-1.33-2.62-3.26-2.64a7.8,7.8,0,0,0-1.8.16Z"/><path class="cls-2" d="M446.62,37l-1.47,4.45h-1.89l4.81-14.15h2.2l4.83,14.15h-2L451.64,37Zm4.64-1.42-1.38-4.08c-.32-.92-.53-1.76-.74-2.58h0c-.21.84-.44,1.7-.72,2.56L447,35.62Z"/><path class="cls-2" d="M469,35.28c-.11-2-.23-4.35-.21-6.11h-.07c-.48,1.66-1.07,3.42-1.78,5.38l-2.5,6.86h-1.39l-2.28-6.74c-.68-2-1.24-3.82-1.64-5.5h0c-.05,1.76-.15,4.14-.28,6.26l-.37,6.06h-1.75l1-14.15H460l2.41,6.85c.59,1.74,1.08,3.29,1.43,4.76H464c.35-1.42.86-3,1.49-4.76L468,27.34h2.33l.88,14.15h-1.79Z"/><path class="cls-2" d="M481.31,34.86h-5.5V40h6.13v1.53h-8V27.34h7.65v1.54h-5.82v4.47h5.5Z"/><polyline class="cls-6" points="401.5 183.59 401.5 239.03 582.22 239.03 582.22 354.64 582.22 536.88 290.46 536.88 290.46 544.85"/><polyline class="cls-6" points="54.85 235.48 54.85 264 382.16 264 382.16 292.53"/></g></g></svg>